<svg xmlns="http://www.w3.org/2000/svg" xmlns:xlink="http://www.w3.org/1999/xlink" width="89" height="89" viewBox="0 0 89 89">
  <defs>
    <clipPath id="clip-path">
      <rect id="Rectángulo_402228" data-name="Rectángulo 402228" width="59" height="59" transform="translate(1266.333 427.961)" fill="#644977" stroke="#707070" stroke-width="1"/>
    </clipPath>
  </defs>
  <g id="Grupo_1101795" data-name="Grupo 1101795" transform="translate(-1251.333 -413)">
    <g id="Grupo_1098742" data-name="Grupo 1098742" transform="translate(48.013 24.258)">
      <rect id="Rectángulo_400898" data-name="Rectángulo 400898" width="89" height="89" rx="44.5" transform="translate(1203.32 388.742)" fill="#e6efbf"/>
      <g id="Rectángulo_400907" data-name="Rectángulo 400907" transform="translate(1203.32 388.742)" fill="none" stroke="#916aab" stroke-linecap="round" stroke-width="2" stroke-dasharray="7">
        <rect width="89" height="89" rx="44.5" stroke="none"/>
        <rect x="1" y="1" width="87" height="87" rx="43.5" fill="none"/>
      </g>
    </g>
    <g id="Enmascarar_grupo_1098703" data-name="Enmascarar grupo 1098703" clip-path="url(#clip-path)">
      <g id="Layer_x0020_1" transform="translate(1266.31 427.939)">
        <g id="_524226256">
          <g id="Grupo_1101816" data-name="Grupo 1101816">
            <g id="Grupo_1101806" data-name="Grupo 1101806">
              <g id="Grupo_1101798" data-name="Grupo 1101798">
                <path id="Trazado_892680" data-name="Trazado 892680" d="M16.524,50.918a2.625,2.625,0,0,1-1.752-.673L.88,37.657a2.577,2.577,0,0,1-.855-1.843A2.419,2.419,0,0,1,.714,34L18.824,15.47a2.6,2.6,0,0,1,3.62-.166L34.884,26.572a2.577,2.577,0,0,1,.2,3.6L18.426,50.054a2.47,2.47,0,0,1-1.719.864Zm4.21-34.643a1.128,1.128,0,0,0-.764.324L1.86,35.141a.89.89,0,0,0-.241.639.953.953,0,0,0,.324.689L15.827,49.058a1.087,1.087,0,0,0,.739.257.912.912,0,0,0,.59-.291l16.69-19.887a.984.984,0,0,0-.042-1.37L21.365,16.508A1,1,0,0,0,20.734,16.275Z" fill="#644977" fill-rule="evenodd"/>
              </g>
              <g id="Grupo_1101799" data-name="Grupo 1101799">
                <path id="Trazado_892681" data-name="Trazado 892681" d="M7.656,50.86a2.029,2.029,0,0,1-1.329-.507l-4.7-4.26a2,2,0,0,1-.141-2.8l3.072-3.388a.805.805,0,0,1,1.2,1.079l-3.064,3.4a.382.382,0,0,0,.025.515l4.692,4.243a.358.358,0,0,0,.515-.025l3.064-3.388a.813.813,0,0,1,1.146-.058.8.8,0,0,1,.058,1.138L9.117,50.2A1.964,1.964,0,0,1,7.656,50.86Z" fill="#644977" fill-rule="evenodd"/>
              </g>
              <g id="Grupo_1101800" data-name="Grupo 1101800">
                <path id="Trazado_892682" data-name="Trazado 892682" d="M31.338,25.251a.773.773,0,0,1-.54-.208.788.788,0,0,1-.058-1.138l3.064-3.38a.33.33,0,0,0,.091-.266A.381.381,0,0,0,33.771,20l-4.683-4.243a.374.374,0,0,0-.515.033L25.5,19.165a.805.805,0,0,1-1.2-1.079L27.369,14.7a1.992,1.992,0,0,1,2.807-.141l4.692,4.251a1.94,1.94,0,0,1,.639,1.37,1.992,1.992,0,0,1-.515,1.445l-3.056,3.363A.814.814,0,0,1,31.338,25.251Z" fill="#644977" fill-rule="evenodd"/>
              </g>
              <g id="Grupo_1101801" data-name="Grupo 1101801">
                <path id="Trazado_892683" data-name="Trazado 892683" d="M31.7,33.754a.9.9,0,0,1-.382-.1,26.523,26.523,0,0,1-5.289-3.786c-5.248-4.741-8.071-10.7-6.859-14.473a.807.807,0,0,1,1.536.5c-1,3.139,1.694,8.52,6.41,12.788a25.788,25.788,0,0,0,4.974,3.562.791.791,0,0,1,.324,1.1A.83.83,0,0,1,31.7,33.754Z" fill="#644977" fill-rule="evenodd"/>
              </g>
              <g id="Grupo_1101802" data-name="Grupo 1101802">
                <path id="Trazado_892684" data-name="Trazado 892684" d="M29.735,33.082c-3.645,0-8.3-2.2-12.381-5.887a28.246,28.246,0,0,1-4.293-4.9.8.8,0,0,1,.224-1.121.793.793,0,0,1,1.113.216,25.659,25.659,0,0,0,4.036,4.6c4.011,3.62,8.7,5.763,11.966,5.439a.814.814,0,0,1,.166,1.619C30.283,33.057,30.018,33.082,29.735,33.082Z" fill="#644977" fill-rule="evenodd"/>
              </g>
              <g id="Grupo_1101803" data-name="Grupo 1101803">
                <path id="Trazado_892685" data-name="Trazado 892685" d="M26.231,38.28A13.737,13.737,0,0,1,21.2,37.15a28.826,28.826,0,0,1-8.378-5.431A31.661,31.661,0,0,1,8.511,27a.808.808,0,0,1,1.3-.955,29.393,29.393,0,0,0,4.094,4.492C18.866,35.016,24.745,37.5,27.9,36.411a.811.811,0,0,1,.523,1.536A7.058,7.058,0,0,1,26.231,38.28Z" fill="#644977" fill-rule="evenodd"/>
              </g>
              <g id="Grupo_1101804" data-name="Grupo 1101804">
                <path id="Trazado_892686" data-name="Trazado 892686" d="M22.619,44.59a.87.87,0,0,1-.4-.108,32.368,32.368,0,0,1-5.389-3.953c-4.716-4.276-7.747-9.342-7.88-13.211a.82.82,0,0,1,.772-.847.829.829,0,0,1,.839.772c.125,3.4,3.023,8.146,7.365,12.073a30.253,30.253,0,0,0,5.107,3.762.812.812,0,0,1-.415,1.511Z" fill="#644977" fill-rule="evenodd"/>
              </g>
              <g id="Grupo_1101805" data-name="Grupo 1101805">
                <path id="Trazado_892687" data-name="Trazado 892687" d="M18.691,49.29a.75.75,0,0,1-.415-.116A31.013,31.013,0,0,1,13.028,45.2c-5.381-4.866-8.785-10.6-8.669-14.606a.806.806,0,0,1,1.611.05C5.871,34.128,9.142,39.5,14.1,44a30.226,30.226,0,0,0,4.99,3.786.821.821,0,0,1,.282,1.113A.78.78,0,0,1,18.691,49.29Z" fill="#644977" fill-rule="evenodd"/>
              </g>
            </g>
            <g id="Grupo_1101815" data-name="Grupo 1101815">
              <g id="Grupo_1101807" data-name="Grupo 1101807">
                <path id="Trazado_892688" data-name="Trazado 892688" d="M37.732,45.5a2.63,2.63,0,0,1-1.777-.7,2.436,2.436,0,0,1-.789-1.777L34.85,17.089a2.6,2.6,0,0,1,2.45-2.657l16.748-.83a2.6,2.6,0,0,1,2.7,2.408l2.267,25.808a2.466,2.466,0,0,1-.606,1.843,2.624,2.624,0,0,1-1.835.888L37.865,45.5Zm-.34-29.453a1,1,0,0,0-.913,1.038L36.785,43a.832.832,0,0,0,.291.614,1.022,1.022,0,0,0,.714.266l18.725-.938a.961.961,0,0,0,.689-.332.864.864,0,0,0,.224-.648L55.144,16.159a1,1,0,0,0-1-.947Z" fill="#644977" fill-rule="evenodd"/>
              </g>
              <g id="Grupo_1101808" data-name="Grupo 1101808">
                <path id="Trazado_892689" data-name="Trazado 892689" d="M44.267,50.926a2.01,2.01,0,0,1-2-1.893l-.216-4.55a.8.8,0,0,1,1.594-.083l.224,4.559a.38.38,0,0,0,.4.357L50.577,49a.373.373,0,0,0,.357-.39l-.216-4.55a.8.8,0,0,1,.756-.847.818.818,0,0,1,.847.764l.216,4.55a1.9,1.9,0,0,1-.523,1.428,2.019,2.019,0,0,1-1.37.664l-6.319.307Z" fill="#644977" fill-rule="evenodd"/>
              </g>
              <g id="Grupo_1101809" data-name="Grupo 1101809">
                <path id="Trazado_892690" data-name="Trazado 892690" d="M41.385,15.843a.811.811,0,0,1-.805-.772l-.216-4.55a1.956,1.956,0,0,1,.507-1.428,2.01,2.01,0,0,1,1.37-.656l6.327-.316A1.9,1.9,0,0,1,50,8.644a2.019,2.019,0,0,1,.664,1.37l.216,4.55a.807.807,0,0,1-.764.847.816.816,0,0,1-.839-.764l-.216-4.55a.374.374,0,0,0-.133-.257.381.381,0,0,0-.266-.091l-6.327.307a.393.393,0,0,0-.249.133.346.346,0,0,0-.091.266L42.207,15a.8.8,0,0,1-.764.839Z" fill="#644977" fill-rule="evenodd"/>
              </g>
              <g id="Grupo_1101810" data-name="Grupo 1101810">
                <path id="Trazado_892691" data-name="Trazado 892691" d="M48.676,22.237c-6.444,0-11.932-2.151-13.626-5.431a.8.8,0,1,1,1.428-.739c1.511,2.923,7.216,4.833,13.568,4.517a26.282,26.282,0,0,0,6.037-1,.806.806,0,0,1,1,.548.8.8,0,0,1-.54,1A27.3,27.3,0,0,1,50.129,22.2C49.656,22.22,49.157,22.237,48.676,22.237Z" fill="#644977" fill-rule="evenodd"/>
              </g>
              <g id="Grupo_1101811" data-name="Grupo 1101811">
                <path id="Trazado_892692" data-name="Trazado 892692" d="M40.63,26.464a26.321,26.321,0,0,1-5.015-.457.808.808,0,1,1,.307-1.586,25.526,25.526,0,0,0,6.1.407c5.406-.266,10.238-2.076,12.306-4.609a.812.812,0,0,1,1.262,1.021c-2.4,2.9-7.565,4.891-13.493,5.19C41.609,26.455,41.111,26.464,40.63,26.464Z" fill="#644977" fill-rule="evenodd"/>
              </g>
              <g id="Grupo_1101812" data-name="Grupo 1101812">
                <path id="Trazado_892693" data-name="Trazado 892693" d="M40.339,32.9a29.4,29.4,0,0,1-4.609-.349.8.8,0,1,1,.249-1.586,28.837,28.837,0,0,0,6.07.274c6.668-.332,12.588-2.748,14.058-5.729a.81.81,0,1,1,1.453.714c-.872,1.76-2.832,3.346-5.671,4.542a29.043,29.043,0,0,1-9.765,2.084C41.5,32.874,40.912,32.9,40.339,32.9Z" fill="#644977" fill-rule="evenodd"/>
              </g>
              <g id="Grupo_1101813" data-name="Grupo 1101813">
                <path id="Trazado_892694" data-name="Trazado 892694" d="M49.423,36.279c-5.638,0-10.579-1.412-13.178-3.811a.808.808,0,0,1,1.1-1.187c2.5,2.317,7.9,3.62,13.734,3.338a29.733,29.733,0,0,0,6.278-.963.81.81,0,1,1,.432,1.561,31.9,31.9,0,0,1-6.618,1C50.577,36.254,50,36.279,49.423,36.279Z" fill="#644977" fill-rule="evenodd"/>
              </g>
              <g id="Grupo_1101814" data-name="Grupo 1101814">
                <path id="Trazado_892695" data-name="Trazado 892695" d="M49.813,42.282c-6.427,0-11.99-1.6-14.49-4.251A.811.811,0,0,1,36.5,36.918c2.4,2.549,8.52,4.036,15.2,3.7a29.5,29.5,0,0,0,6.2-.855.809.809,0,1,1,.39,1.569,30.794,30.794,0,0,1-6.51.9C51.117,42.257,50.461,42.282,49.813,42.282Z" fill="#644977" fill-rule="evenodd"/>
              </g>
            </g>
          </g>
        </g>
      </g>
    </g>
  </g>
</svg>
