<svg xmlns="http://www.w3.org/2000/svg" width="51" height="51" viewBox="0 0 51 51">
  <g id="Grupo_1101689" data-name="Grupo 1101689" transform="translate(-1251.333 -413)">
    <g id="Grupo_1098742" data-name="Grupo 1098742" transform="translate(1251.333 413)">
      <rect id="Rect치ngulo_400898" data-name="Rect치ngulo 400898" width="51" height="51" rx="25.5" transform="translate(0)" fill="#e6efbf"/>
      <g id="Rect치ngulo_400907" data-name="Rect치ngulo 400907" fill="none" stroke="#0f1f33" stroke-linecap="round" stroke-width="2" stroke-dasharray="7">
        <rect width="51" height="51" rx="25.5" stroke="none"/>
        <rect x="1" y="1" width="49" height="49" rx="24.5" fill="none"/>
      </g>
    </g>
    <path id="Trazado_126669" data-name="Trazado 126669" d="M861,1918.345a11.133,11.133,0,0,1,15.763,15.608c2.226,3.184,1.321,5.558-2.4,6.207a3.565,3.565,0,0,1-3.615,3.59,3.612,3.612,0,0,1-3.61,3.626c-.68,3.606-3.148,4.59-6.083,2.449a3.538,3.538,0,0,1-6.082-2.426c-2.528-.529-3.178-1.179-3.611-3.631a3.588,3.588,0,0,1-3.606-3.625,3.439,3.439,0,0,1-3.309-2.181,3.5,3.5,0,0,1,.889-3.882,11.4,11.4,0,0,1-2.43-9.3,10.645,10.645,0,0,1,3.406-6.191A11.286,11.286,0,0,1,861,1918.345Zm.408,22.623c.144.016.295.027.444.048a3.213,3.213,0,0,1,2.821,2.113,4.8,4.8,0,0,0,1.338,1.9,1.569,1.569,0,0,0,2.368.054,1.614,1.614,0,0,0,.029-2.415c-.146-.155-.3-.3-.451-.453-1.739-1.739-3.488-3.468-5.2-5.231a1.173,1.173,0,0,1-.3-.908.947.947,0,0,1,.664-.608,1.391,1.391,0,0,1,.939.4c1.869,1.827,3.706,3.688,5.559,5.532a1.526,1.526,0,0,0,2,.3,1.615,1.615,0,0,0,.377-2.677c-1.869-1.883-3.752-3.752-5.623-5.632-.5-.5-.494-1.017-.018-1.391.414-.325.808-.272,1.276.193q2.263,2.255,4.519,4.518c.4.4.782.808,1.2,1.187a1.8,1.8,0,0,0,2.428-.063,1.442,1.442,0,0,0,.137-2.124,7.768,7.768,0,0,0-.883-1c-.927-.907-1.878-1.79-2.8-2.7-.183-.181-.422-.454-.4-.659a1.149,1.149,0,0,1,.447-.834,1.1,1.1,0,0,1,.978.118c.768.643,1.462,1.374,2.207,2.095a9.37,9.37,0,0,0-3.034-14.292,9.284,9.284,0,0,0-10.439,1.423c-2.083,1.967-4.077,4.028-6.083,6.075a1.9,1.9,0,0,0-.46,1.021,1.7,1.7,0,0,0,1.041,1.663,1.533,1.533,0,0,0,1.852-.389q2.7-2.681,5.384-5.378c.714-.714,1.072-.744,1.8-.023,1.463,1.439,2.9,2.906,4.338,4.37.468.475.492.934.108,1.319s-.884.363-1.365-.115q-1.792-1.782-3.576-3.572c-.131-.131-.274-.251-.494-.45a6.137,6.137,0,0,1-.423.537q-2.253,2.265-4.516,4.521a3.273,3.273,0,0,1-2.246,1.076,3.727,3.727,0,0,1-3.393-2.227,3.11,3.11,0,0,1,.767-3.662c1.525-1.543,3.065-3.069,4.6-4.6.13-.13.248-.272.371-.409a9.382,9.382,0,0,0-12.3.365c-4.022,3.748-3.326,9.1-.682,12.859.586-.613,1.125-1.253,1.742-1.806a3.4,3.4,0,0,1,5.6,1.841c.062.3.1.6.148.891a3.537,3.537,0,0,1,2.546,1.035,3.655,3.655,0,0,1,1.036,2.548C860.06,1937.607,861.04,1938.585,861.411,1940.968Zm-3.73-1.86a3.531,3.531,0,0,0-.891.5c-1.065,1.011-2.1,2.053-3.123,3.108a1.7,1.7,0,0,0,.006,2.4,1.655,1.655,0,0,0,2.351-.021c1.057-1.02,2.086-2.068,3.118-3.113a1.461,1.461,0,0,0,.319-1.758A1.933,1.933,0,0,0,857.681,1939.108Zm-1.006,8.351a1.92,1.92,0,0,0,1.088,1.587,1.583,1.583,0,0,0,1.871-.333q1.56-1.515,3.078-3.073a1.585,1.585,0,0,0-.03-2.367,1.567,1.567,0,0,0-2.367.016c-1.009.986-2.019,1.973-2.983,3A5.532,5.532,0,0,0,856.675,1947.459Zm-8.858-9.1a2.1,2.1,0,0,0,.776-.335c1.187-1.133,2.367-2.276,3.479-3.481a1.493,1.493,0,0,0-.257-2.13,1.519,1.519,0,0,0-2.145-.128q-1.723,1.635-3.357,3.361a1.5,1.5,0,0,0-.17,1.79A1.665,1.665,0,0,0,847.817,1938.355Zm8.291-1.017a2.171,2.171,0,0,0-1.232-1.682,1.5,1.5,0,0,0-1.752.366c-1.015,1.007-2.031,2.013-3.031,3.034a1.7,1.7,0,0,0-.021,2.44,1.653,1.653,0,0,0,2.387-.058c1.025-1,2.042-2,3.026-3.039A5.332,5.332,0,0,0,856.108,1937.338Zm6.238,11.214c.969.872,1.985.856,2.656-.01a1.628,1.628,0,0,0-.4-2.362Z" transform="translate(415.81 -1492.749)" fill="#2d4e78"/>
  </g>
</svg>
