<svg xmlns="http://www.w3.org/2000/svg" width="85" height="85" viewBox="0 0 85 85">
  <g id="Grupo_1101996" data-name="Grupo 1101996" transform="translate(-1251.382 -412.999)">
    <g id="Grupo_1098742" data-name="Grupo 1098742" transform="translate(1251.332 412.999)">
      <rect id="Rect치ngulo_400898" data-name="Rect치ngulo 400898" width="85" height="85" rx="42.5" transform="translate(0.051 0)" fill="#f3eff6"/>
      <g id="Rect치ngulo_400907" data-name="Rect치ngulo 400907" transform="translate(0.051 0)" fill="none" stroke="#0f1f33" stroke-linecap="round" stroke-width="2" stroke-dasharray="7">
        <rect width="85" height="85" rx="42.5" stroke="none"/>
        <rect x="1" y="1" width="83" height="83" rx="41.5" fill="none"/>
      </g>
    </g>
    <g id="Layer_x0020_1" transform="translate(-490.85 -305.102) rotate(22)">
      <path id="Trazado_893351" data-name="Trazado 893351" d="M1953.191,23.212h-26.818a.834.834,0,0,1-.687-.354,13.365,13.365,0,0,1-2.477-8.188,13.708,13.708,0,0,1,5.256-10.159A17.571,17.571,0,0,1,1940.242.721c9.087.334,16.244,7.137,15.951,15.173a13.242,13.242,0,0,1-2.3,6.945A.821.821,0,0,1,1953.191,23.212Zm-26.373-1.688h25.918a11.576,11.576,0,0,0,1.769-5.691c.263-7.106-6.166-13.131-14.324-13.434a15.95,15.95,0,0,0-10.654,3.417,12.027,12.027,0,0,0-4.63,8.916A11.6,11.6,0,0,0,1926.818,21.524Z" transform="translate(0 0)" fill-rule="evenodd"/>
      <path id="Trazado_893352" data-name="Trazado 893352" d="M2375.343,411.1a.864.864,0,0,1-.465-.142c-6.126-4.094-8.532-8.289-9.421-10.412a.833.833,0,0,1,.455-1.1.843.843,0,0,1,1.1.445c.819,1.961,3.043,5.812,8.8,9.664A.847.847,0,0,1,2375.343,411.1Z" transform="translate(-437.719 -394.637)" fill-rule="evenodd"/>
      <path id="Trazado_893353" data-name="Trazado 893353" d="M2102.618,741.079a.866.866,0,0,1-.445-.121c-5.843-3.639-8.643-7.42-9.967-9.957a.839.839,0,1,1,1.486-.778c1.233,2.345,3.851,5.873,9.371,9.3A.843.843,0,0,1,2102.618,741.079Z" transform="translate(-167.198 -721.688)" fill-rule="evenodd"/>
      <path id="Trazado_893354" data-name="Trazado 893354" d="M1943.308,1197.181a.845.845,0,0,1-.455-.131,28.051,28.051,0,0,1-8.8-8.4.839.839,0,0,1,.263-1.162.848.848,0,0,1,1.163.263,26.315,26.315,0,0,0,8.289,7.885A.84.84,0,0,1,1943.308,1197.181Z" transform="translate(-10.607 -1174.657)" fill-rule="evenodd"/>
      <path id="Trazado_893355" data-name="Trazado 893355" d="M2716.7,79.951a.844.844,0,0,1-.617-1.425c8.279-8.683,10.816-16.153,11.595-19.833a.842.842,0,0,1,1-.647.827.827,0,0,1,.647.991c-.809,3.861-3.457,11.665-12.019,20.652A.828.828,0,0,1,2716.7,79.951Z" transform="translate(-784.631 -56.738)" fill-rule="evenodd"/>
      <path id="Trazado_893356" data-name="Trazado 893356" d="M3207.009,226.354a.847.847,0,0,1-.627-1.415c7.005-7.622,9.654-14.192,10.645-18.367a.847.847,0,1,1,1.647.394c-1.041,4.367-3.8,11.22-11.048,19.115A.83.83,0,0,1,3207.009,226.354Z" transform="translate(-1269.991 -203.141)" fill-rule="evenodd"/>
      <path id="Trazado_893357" data-name="Trazado 893357" d="M3694.306,492.192a.845.845,0,0,1-.637-1.395c5.722-6.469,8.259-12.12,9.381-15.729a.843.843,0,1,1,1.607.505c-1.173,3.76-3.8,9.644-9.725,16.335A.81.81,0,0,1,3694.306,492.192Z" transform="translate(-1752.365 -468.979)" fill-rule="evenodd"/>
      <path id="Trazado_893358" data-name="Trazado 893358" d="M4178.93,908.257a.841.841,0,0,1-.637-1.385,46.988,46.988,0,0,0,7.4-11.574.842.842,0,0,1,1.546.667,48.349,48.349,0,0,1-7.662,12A.862.862,0,0,1,4178.93,908.257Z" transform="translate(-2232.097 -885.044)" fill-rule="evenodd"/>
      <path id="Trazado_893359" data-name="Trazado 893359" d="M2727.374,175.874a.828.828,0,0,1-.5-.162c-4.822-3.548-7.025-7.015-8.016-9.3a.842.842,0,1,1,1.546-.667c.738,1.708,2.709,5.115,7.47,8.6A.848.848,0,0,1,2727.374,175.874Z" transform="translate(-787.547 -162.861)" fill-rule="evenodd"/>
      <path id="Trazado_893360" data-name="Trazado 893360" d="M3066.924,53.942a.853.853,0,0,1-.516-.172,25.453,25.453,0,0,1-6.328-6.864.844.844,0,1,1,1.446-.869,23.713,23.713,0,0,0,5.923,6.4A.847.847,0,0,1,3066.924,53.942Z" transform="translate(-1125.266 -44.468)" fill-rule="evenodd"/>
      <path id="Trazado_893361" data-name="Trazado 893361" d="M2180.667,2090.235h-26.818a.854.854,0,0,1-.849-.849v-28.536a.854.854,0,0,1,.849-.849h26.818a.846.846,0,0,1,.839.849v28.536A.846.846,0,0,1,2180.667,2090.235Zm-25.979-1.688h25.14v-26.858h-25.14Z" transform="translate(-227.476 -2038.476)" fill-rule="evenodd"/>
      <path id="Trazado_893362" data-name="Trazado 893362" d="M2942.338,2940.686a6.343,6.343,0,1,1,6.338-6.338A6.355,6.355,0,0,1,2942.338,2940.686Zm0-11a4.655,4.655,0,1,0,4.66,4.66A4.659,4.659,0,0,0,2942.338,2929.688Z" transform="translate(-1002.561 -2897.702)" fill-rule="evenodd"/>
      <path id="Trazado_893363" data-name="Trazado 893363" d="M1939.534,4906.512a17.5,17.5,0,0,1-11.069-3.811,13.708,13.708,0,0,1-5.256-10.159,13.315,13.315,0,0,1,2.477-8.178.819.819,0,0,1,.688-.364h26.818a.846.846,0,0,1,.7.374,13.243,13.243,0,0,1,2.3,6.945c.293,8.037-6.854,14.839-15.951,15.173C1940.009,4906.5,1939.767,4906.512,1939.534,4906.512Zm.647-1.7c8.158-.3,14.587-6.328,14.324-13.424a11.578,11.578,0,0,0-1.769-5.7h-25.918a11.6,11.6,0,0,0-1.921,6.793,12.028,12.028,0,0,0,4.63,8.916A15.912,15.912,0,0,0,1940.181,4904.813Z" transform="translate(0 -4833.929)" fill-rule="evenodd"/>
      <path id="Trazado_893364" data-name="Trazado 893364" d="M2366.436,5564.289a.845.845,0,0,1-.778-1.163c.89-2.133,3.3-6.318,9.421-10.412a.841.841,0,1,1,.94,1.4c-5.762,3.852-8,7.7-8.8,9.664A.843.843,0,0,1,2366.436,5564.289Z" transform="translate(-437.92 -5495.739)" fill-rule="evenodd"/>
      <path id="Trazado_893365" data-name="Trazado 893365" d="M2092.918,5272.959a.838.838,0,0,1-.738-1.233c1.314-2.537,4.124-6.317,9.967-9.957a.842.842,0,0,1,.88,1.435c-5.509,3.427-8.137,6.955-9.361,9.3A.837.837,0,0,1,2092.918,5272.959Z" transform="translate(-167.172 -5207.756)" fill-rule="evenodd"/>
      <path id="Trazado_893366" data-name="Trazado 893366" d="M1934.865,4961.7a.843.843,0,0,1-.708-1.294,28.051,28.051,0,0,1,8.8-8.4.857.857,0,0,1,1.173.253.846.846,0,0,1-.263,1.162,26.316,26.316,0,0,0-8.289,7.885A.851.851,0,0,1,1934.865,4961.7Z" transform="translate(-10.716 -4901.114)" fill-rule="evenodd"/>
      <path id="Trazado_893367" data-name="Trazado 893367" d="M2728.734,4906.013a.841.841,0,0,1-.819-.667c-.778-3.68-3.316-11.15-11.595-19.833a.844.844,0,1,1,1.223-1.163c8.562,8.987,11.21,16.8,12.019,20.652A.839.839,0,0,1,2728.734,4906.013Z" transform="translate(-784.873 -4834.016)" fill-rule="evenodd"/>
      <path id="Trazado_893368" data-name="Trazado 893368" d="M3217.749,4904.483a.842.842,0,0,1-.819-.647c-.99-4.175-3.649-10.745-10.655-18.367a.844.844,0,0,1,1.244-1.142c7.248,7.895,10.007,14.749,11.048,19.115A.849.849,0,0,1,3217.749,4904.483Z" transform="translate(-1269.885 -4833.983)" fill-rule="evenodd"/>
      <path id="Trazado_893369" data-name="Trazado 893369" d="M3703.848,4901.661a.846.846,0,0,1-.809-.586c-1.122-3.609-3.659-9.26-9.381-15.719a.847.847,0,0,1,.081-1.193.834.834,0,0,1,1.183.071c5.923,6.692,8.552,12.575,9.724,16.335A.841.841,0,0,1,3703.848,4901.661Z" transform="translate(-1752.355 -4833.88)" fill-rule="evenodd"/>
      <path id="Trazado_893370" data-name="Trazado 893370" d="M4186.252,4897.347a.82.82,0,0,1-.768-.505,47.188,47.188,0,0,0-7.4-11.574.835.835,0,0,1,.091-1.183.846.846,0,0,1,1.192.091,48.332,48.332,0,0,1,7.663,12A.845.845,0,0,1,4186.252,4897.347Z" transform="translate(-2231.889 -4833.812)" fill-rule="evenodd"/>
      <path id="Trazado_893371" data-name="Trazado 893371" d="M2719.863,5903.66a.847.847,0,0,1-.768-1.183c.99-2.285,3.194-5.752,8.016-9.3a.846.846,0,1,1,1,1.364c-4.761,3.488-6.732,6.894-7.47,8.613A.862.862,0,0,1,2719.863,5903.66Z" transform="translate(-787.779 -5832.746)" fill-rule="evenodd"/>
      <path id="Trazado_893372" data-name="Trazado 893372" d="M3060.727,6251.116a.849.849,0,0,1-.718-1.284,25.46,25.46,0,0,1,6.328-6.864.843.843,0,1,1,1.031,1.334,23.653,23.653,0,0,0-5.913,6.4A.852.852,0,0,1,3060.727,6251.116Z" transform="translate(-1125.195 -6178.989)" fill-rule="evenodd"/>
      <path id="Trazado_893373" data-name="Trazado 893373" d="M2749.931,2522.688h-15.092a.846.846,0,0,1-.839-.849.837.837,0,0,1,.839-.839h15.092a.837.837,0,0,1,.839.839A.846.846,0,0,1,2749.931,2522.688Z" transform="translate(-802.603 -2494.816)" fill-rule="evenodd"/>
      <path id="Trazado_893374" data-name="Trazado 893374" d="M2749.931,4425.678h-15.092a.839.839,0,0,1,0-1.678h15.092a.839.839,0,0,1,0,1.678Z" transform="translate(-802.603 -4378.58)" fill-rule="evenodd"/>
      <path id="Trazado_893375" data-name="Trazado 893375" d="M2325.024,2249.208h15.092a.839.839,0,1,1,0,1.678h-15.092a.839.839,0,1,1,0-1.678Zm7.541-2.436a6.343,6.343,0,1,1,6.338-6.338A6.355,6.355,0,0,1,2332.565,2246.772Zm-2.76,7.086h15.334V2227H2320v26.858h9.805Zm10.311-22.2h-15.092a.846.846,0,0,1-.839-.849.837.837,0,0,1,.839-.839h15.092a.837.837,0,0,1,.839.839A.846.846,0,0,1,2340.116,2231.66Z" transform="translate(-392.788 -2203.788)" fill="#deebff" fill-rule="evenodd"/>
      <path id="Trazado_893376" data-name="Trazado 893376" d="M3103,3099.66a4.655,4.655,0,1,0,4.65-4.66A4.657,4.657,0,0,0,3103,3099.66Z" transform="translate(-1167.873 -3063.014)" fill="#ff5e79" fill-rule="evenodd"/>
      <path id="Trazado_893377" data-name="Trazado 893377" d="M2095.89,1523.479h4.135A29.248,29.248,0,0,1,2094,1518,11.675,11.675,0,0,0,2095.89,1523.479Z" transform="translate(-169.072 -1501.955)" fill="#5db9d3" fill-rule="evenodd"/>
      <path id="Trazado_893378" data-name="Trazado 893378" d="M2104,989.679a26.362,26.362,0,0,0,7.541,7.238c.556-.627,1.092-1.233,1.6-1.84a27.656,27.656,0,0,1-8.37-8.077A11.76,11.76,0,0,0,2104,989.679Z" transform="translate(-178.971 -976.322)" fill="#2ea5c5" fill-rule="evenodd"/>
      <path id="Trazado_893379" data-name="Trazado 893379" d="M2271,624.941a25,25,0,0,0,8.511,8.491c.425-.536.829-1.082,1.213-1.607a25.265,25.265,0,0,1-8.188-8.825A13.212,13.212,0,0,0,2271,624.941Z" transform="translate(-344.283 -616.002)" fill="#5db9d3" fill-rule="evenodd"/>
      <path id="Trazado_893380" data-name="Trazado 893380" d="M2551,363.445c.94,1.991,3.093,5.287,7.864,8.643q.713-1.061,1.3-2.062a23.972,23.972,0,0,1-7.026-8.026A14.732,14.732,0,0,0,2551,363.445Z" transform="translate(-621.453 -357.64)" fill="#2ea5c5" fill-rule="evenodd"/>
      <path id="Trazado_893381" data-name="Trazado 893381" d="M2914,224.667a22.374,22.374,0,0,0,6.348,7.278c.394-.7.738-1.375,1.051-2.032a25.215,25.215,0,0,1-5.469-5.913A15.557,15.557,0,0,0,2914,224.667Z" transform="translate(-980.783 -221.035)" fill="#5db9d3" fill-rule="evenodd"/>
      <path id="Trazado_893382" data-name="Trazado 893382" d="M3280,167.1a23.879,23.879,0,0,0,4.417,4.7,30.67,30.67,0,0,0,1.537-4.579,17.941,17.941,0,0,0-2.689-.313A17.452,17.452,0,0,0,3280,167.1Z" transform="translate(-1343.084 -164.509)" fill="#2ea5c5" fill-rule="evenodd"/>
      <path id="Trazado_893383" data-name="Trazado 893383" d="M3000.513,240a36.186,36.186,0,0,1-3.9,9.4,1,1,0,0,1-.081.142c-.637,1.082-1.354,2.214-2.173,3.386a.607.607,0,0,1-.071.1c-.657.94-1.385,1.911-2.173,2.891-.02.03-.04.051-.061.081-.637.788-1.324,1.587-2.052,2.4h2.658c6.469-7.127,9.148-13.313,10.24-17.457A16.973,16.973,0,0,0,3000.513,240Z" transform="translate(-1056.015 -236.873)" fill="#2ea5c5" fill-rule="evenodd"/>
      <path id="Trazado_893384" data-name="Trazado 893384" d="M3484.5,418c-1.142,4.084-3.72,9.937-9.5,16.6h2.668a43.879,43.879,0,0,0,8.966-14.94A15.02,15.02,0,0,0,3484.5,418Z" transform="translate(-1536.113 -413.074)" fill="#5db9d3" fill-rule="evenodd"/>
      <path id="Trazado_893385" data-name="Trazado 893385" d="M3966.056,721A45.744,45.744,0,0,1,3958,734.535h2.669a46.592,46.592,0,0,0,7.005-10.927A12.457,12.457,0,0,0,3966.056,721Z" transform="translate(-2014.23 -713.011)" fill="#2ea5c5" fill-rule="evenodd"/>
      <path id="Trazado_893386" data-name="Trazado 893386" d="M4443.61,1205a49.291,49.291,0,0,1-5.61,8.643h4.114a11.577,11.577,0,0,0,1.769-5.691A11.445,11.445,0,0,0,4443.61,1205Z" transform="translate(-2489.378 -1192.119)" fill="#5db9d3" fill-rule="evenodd"/>
      <path id="Trazado_893387" data-name="Trazado 893387" d="M3284.417,6459a23.859,23.859,0,0,0-4.417,4.7,16.663,16.663,0,0,0,3.265.192,18.013,18.013,0,0,0,2.689-.313A30.645,30.645,0,0,0,3284.417,6459Z" transform="translate(-1343.084 -6393.008)" fill="#2ea5c5" fill-rule="evenodd"/>
      <path id="Trazado_893388" data-name="Trazado 893388" d="M2915.931,6108.945a25.412,25.412,0,0,1,5.469-5.914c-.313-.657-.657-1.334-1.051-2.032a22.41,22.41,0,0,0-6.348,7.288A17.262,17.262,0,0,0,2915.931,6108.945Z" transform="translate(-980.783 -6038.627)" fill="#5db9d3" fill-rule="evenodd"/>
      <path id="Trazado_893389" data-name="Trazado 893389" d="M2552.153,5762.078a23.966,23.966,0,0,1,7.025-8.026c-.394-.667-.829-1.354-1.3-2.052-4.771,3.346-6.924,6.641-7.875,8.633A15.413,15.413,0,0,0,2552.153,5762.078Z" transform="translate(-620.463 -5693.155)" fill="#2ea5c5" fill-rule="evenodd"/>
      <path id="Trazado_893390" data-name="Trazado 893390" d="M2272.537,5466.432a25.261,25.261,0,0,1,8.188-8.824q-.576-.79-1.213-1.607a24.9,24.9,0,0,0-8.511,8.491A12.58,12.58,0,0,0,2272.537,5466.432Z" transform="translate(-344.283 -5400.147)" fill="#5db9d3" fill-rule="evenodd"/>
      <path id="Trazado_893391" data-name="Trazado 893391" d="M2104.768,5153.906a27.832,27.832,0,0,1,8.36-8.077c-.5-.6-1.031-1.213-1.6-1.83a26.3,26.3,0,0,0-7.531,7.228A11.762,11.762,0,0,0,2104.768,5153.906Z" transform="translate(-178.971 -5091.301)" fill="#2ea5c5" fill-rule="evenodd"/>
      <path id="Trazado_893392" data-name="Trazado 893392" d="M2094,5056.479a29.262,29.262,0,0,1,6.025-5.479h-4.135A11.677,11.677,0,0,0,2094,5056.479Z" transform="translate(-169.072 -4999.241)" fill="#5db9d3" fill-rule="evenodd"/>
      <path id="Trazado_893393" data-name="Trazado 893393" d="M2992.123,5053.5c.789.981,1.506,1.941,2.163,2.871a.549.549,0,0,1,.061.081.229.229,0,0,1,.03.051c.8,1.152,1.506,2.265,2.133,3.336.01.01.01.02.02.02a1.212,1.212,0,0,1,.1.192c.687,1.193,1.263,2.325,1.759,3.4a.739.739,0,0,1,.091.2,33.19,33.19,0,0,1,2.032,5.752,17.015,17.015,0,0,0,2.386-.94c-1.092-4.145-3.771-10.331-10.24-17.458H2990c.728.809,1.4,1.607,2.042,2.4A.385.385,0,0,1,2992.123,5053.5Z" transform="translate(-1056.015 -4999.241)" fill="#2ea5c5" fill-rule="evenodd"/>
      <path id="Trazado_893394" data-name="Trazado 893394" d="M3476,5051c5.772,6.661,8.35,12.515,9.492,16.6a14.485,14.485,0,0,0,2.133-1.658,43.879,43.879,0,0,0-8.966-14.94Z" transform="translate(-1537.102 -4999.241)" fill="#5db9d3" fill-rule="evenodd"/>
      <path id="Trazado_893395" data-name="Trazado 893395" d="M3958,5051a45.747,45.747,0,0,1,8.056,13.535,12.65,12.65,0,0,0,1.617-2.6,46.7,46.7,0,0,0-7-10.937Z" transform="translate(-2014.23 -4999.241)" fill="#2ea5c5" fill-rule="evenodd"/>
      <path id="Trazado_893396" data-name="Trazado 893396" d="M4438,5051a49,49,0,0,1,5.61,8.653,11.463,11.463,0,0,0-1.5-8.653Z" transform="translate(-2489.378 -4999.241)" fill="#5db9d3" fill-rule="evenodd"/>
    </g>
  </g>
</svg>
