<svg xmlns="http://www.w3.org/2000/svg" width="610" height="359" viewBox="0 0 610 359">
  <g id="Grupo_1102138" data-name="Grupo 1102138" transform="translate(-179.757 -1487)">
    <path id="Trazado_893648" data-name="Trazado 893648" d="M0,0H610V359H0Z" transform="translate(179.757 1487)" fill="#f8faee"/>
    <path id="Trazado_893649" data-name="Trazado 893649" d="M20,0H170a20,20,0,0,1,20,20V301a20,20,0,0,1-20,20H20A20,20,0,0,1,0,301V20A20,20,0,0,1,20,0Z" transform="translate(284.757 1506)" fill="#ebf4fc"/>
    <path id="Trazado_893650" data-name="Trazado 893650" d="M20,0H170a20,20,0,0,1,20,20V301a20,20,0,0,1-20,20H20A20,20,0,0,1,0,301V20A20,20,0,0,1,20,0Z" transform="translate(494.757 1506)" fill="#ebf4fc"/>
    <path id="Trazado_893651" data-name="Trazado 893651" d="M21.2,4.708H18.155V13H16.1V4.708H13.1V3.047H21.2Zm-.69,4.525a4.387,4.387,0,0,1,.424-1.962,3.1,3.1,0,0,1,1.22-1.333,3.56,3.56,0,0,1,1.849-.472,3.368,3.368,0,0,1,2.444.916,3.676,3.676,0,0,1,1.056,2.488l.014.506a3.866,3.866,0,0,1-.95,2.731,3.3,3.3,0,0,1-2.55,1.029,3.319,3.319,0,0,1-2.553-1.025,3.934,3.934,0,0,1-.954-2.789Zm1.976.14a2.765,2.765,0,0,0,.4,1.612,1.424,1.424,0,0,0,2.256.007,3.025,3.025,0,0,0,.4-1.763,2.737,2.737,0,0,0-.4-1.6,1.311,1.311,0,0,0-1.135-.568,1.29,1.29,0,0,0-1.121.565A3.076,3.076,0,0,0,22.489,9.374Zm10.4-1.918a5.367,5.367,0,0,0-.711-.055,1.447,1.447,0,0,0-1.47.759V13H28.737V5.6H30.6l.055.882a1.831,1.831,0,0,1,1.647-1.019,2.07,2.07,0,0,1,.615.089Zm4.956,3.5a.637.637,0,0,0-.359-.571,4.077,4.077,0,0,0-1.152-.373Q33.7,9.459,33.7,7.771a2.032,2.032,0,0,1,.817-1.644,3.3,3.3,0,0,1,2.136-.66,3.547,3.547,0,0,1,2.252.663,2.09,2.09,0,0,1,.844,1.723H37.774a.956.956,0,0,0-.273-.7,1.157,1.157,0,0,0-.854-.277,1.182,1.182,0,0,0-.772.226.712.712,0,0,0-.273.574.609.609,0,0,0,.311.53,3.2,3.2,0,0,0,1.049.349,8.571,8.571,0,0,1,1.244.332,2.044,2.044,0,0,1,1.565,1.989,1.929,1.929,0,0,1-.868,1.637,3.745,3.745,0,0,1-2.242.625,3.912,3.912,0,0,1-1.651-.332,2.77,2.77,0,0,1-1.131-.909,2.113,2.113,0,0,1-.41-1.248H35.34a1.031,1.031,0,0,0,.39.807,1.546,1.546,0,0,0,.971.28,1.43,1.43,0,0,0,.858-.215A.67.67,0,0,0,37.849,10.956ZM43.126,13H41.144V5.6h1.982Zm-2.1-9.311a.973.973,0,0,1,.3-.731,1.281,1.281,0,0,1,1.617,0,.967.967,0,0,1,.3.731.97.97,0,0,1-.3.738,1.267,1.267,0,0,1-1.606,0A.97.97,0,0,1,41.028,3.689Zm3.418,5.544a4.387,4.387,0,0,1,.424-1.962,3.1,3.1,0,0,1,1.22-1.333,3.56,3.56,0,0,1,1.849-.472,3.368,3.368,0,0,1,2.444.916,3.676,3.676,0,0,1,1.056,2.488l.014.506a3.866,3.866,0,0,1-.95,2.731,3.683,3.683,0,0,1-5.1,0,3.934,3.934,0,0,1-.954-2.789Zm1.976.14a2.765,2.765,0,0,0,.4,1.612,1.424,1.424,0,0,0,2.256.007,3.025,3.025,0,0,0,.4-1.763,2.737,2.737,0,0,0-.4-1.6,1.311,1.311,0,0,0-1.135-.568,1.29,1.29,0,0,0-1.121.565A3.076,3.076,0,0,0,46.421,9.374ZM48.329,2.5h2.153L48.588,4.619H46.982Zm6.159,3.1.062.854a2.582,2.582,0,0,1,2.126-.991,2.146,2.146,0,0,1,1.75.69,3.221,3.221,0,0,1,.588,2.064V13H57.038V8.27a1.282,1.282,0,0,0-.273-.913,1.224,1.224,0,0,0-.909-.284,1.359,1.359,0,0,0-1.251.711V13H52.628V5.6ZM66.082,13H64.1V5.6h1.982Zm-2.1-9.311a.973.973,0,0,1,.3-.731,1.281,1.281,0,0,1,1.617,0,.967.967,0,0,1,.3.731.97.97,0,0,1-.3.738,1.267,1.267,0,0,1-1.606,0A.97.97,0,0,1,63.983,3.689Zm6,7.718h3.616V13H67.456V11.8l3.479-4.6H67.558V5.6h5.927V6.767Zm4.437-2.174a4.421,4.421,0,0,1,.776-2.755A2.537,2.537,0,0,1,77.32,5.467a2.271,2.271,0,0,1,1.894.909l.13-.772H81.08v10.24H79.1V12.364a2.277,2.277,0,0,1-1.791.772A2.518,2.518,0,0,1,75.2,12.111,4.638,4.638,0,0,1,74.415,9.233Zm1.976.14a2.9,2.9,0,0,0,.373,1.616,1.193,1.193,0,0,0,1.049.555,1.329,1.329,0,0,0,1.285-.726V7.758a1.318,1.318,0,0,0-1.271-.7,1.207,1.207,0,0,0-1.06.555A3.2,3.2,0,0,0,76.39,9.374Zm10.671,2.874a2.477,2.477,0,0,1-2.023.889,2.337,2.337,0,0,1-1.815-.684,2.918,2.918,0,0,1-.639-2V5.6h1.976v4.784q0,1.157,1.053,1.157a1.426,1.426,0,0,0,1.381-.7V5.6h1.982V13H87.116ZM92.55,13H90.568V5.6H92.55Zm-2.1-9.311a.973.973,0,0,1,.3-.731,1.281,1.281,0,0,1,1.617,0,.967.967,0,0,1,.3.731.97.97,0,0,1-.3.738,1.267,1.267,0,0,1-1.606,0A.97.97,0,0,1,90.452,3.689Zm7.13,9.447a3.631,3.631,0,0,1-2.649-1,3.548,3.548,0,0,1-1.022-2.659V9.288A4.468,4.468,0,0,1,94.341,7.3a3.161,3.161,0,0,1,1.22-1.354,3.425,3.425,0,0,1,1.8-.475,3.07,3.07,0,0,1,2.389.957,3.889,3.889,0,0,1,.872,2.714v.807h-4.71a1.835,1.835,0,0,0,.578,1.162,1.746,1.746,0,0,0,1.22.438,2.132,2.132,0,0,0,1.784-.827l.971,1.087a2.966,2.966,0,0,1-1.2.981A3.947,3.947,0,0,1,97.582,13.137ZM97.356,7.06a1.234,1.234,0,0,0-.954.4,2.062,2.062,0,0,0-.468,1.14h2.748V8.44a1.471,1.471,0,0,0-.355-1.02A1.274,1.274,0,0,0,97.356,7.06Zm8.545.4a5.367,5.367,0,0,0-.711-.055,1.447,1.447,0,0,0-1.47.759V13h-1.976V5.6h1.866l.055.882a1.831,1.831,0,0,1,1.647-1.019,2.07,2.07,0,0,1,.615.089Zm.513,1.791a4.457,4.457,0,0,1,.776-2.755,2.517,2.517,0,0,1,2.123-1.025,2.265,2.265,0,0,1,1.784.807V2.5h1.982V13h-1.784l-.1-.786a2.325,2.325,0,0,1-1.9.923,2.511,2.511,0,0,1-2.1-1.029A4.6,4.6,0,0,1,106.414,9.247Zm1.976.147a2.92,2.92,0,0,0,.362,1.6,1.18,1.18,0,0,0,1.053.555,1.322,1.322,0,0,0,1.292-.774V7.847a1.3,1.3,0,0,0-1.278-.774Q108.389,7.073,108.389,9.394ZM118.9,13a2.194,2.194,0,0,1-.2-.663,2.39,2.39,0,0,1-1.866.8,2.626,2.626,0,0,1-1.8-.629,2.023,2.023,0,0,1-.714-1.586,2.09,2.09,0,0,1,.872-1.8,4.3,4.3,0,0,1,2.519-.636h.909V8.058a1.219,1.219,0,0,0-.263-.82,1.035,1.035,0,0,0-.831-.308,1.177,1.177,0,0,0-.783.239.813.813,0,0,0-.284.656H114.48a1.985,1.985,0,0,1,.4-1.189A2.621,2.621,0,0,1,116,5.778a4.086,4.086,0,0,1,1.627-.311,3.228,3.228,0,0,1,2.17.687,2.4,2.4,0,0,1,.8,1.931v3.206a3.536,3.536,0,0,0,.294,1.593V13Zm-1.634-1.374a1.7,1.7,0,0,0,.807-.195,1.28,1.28,0,0,0,.547-.523V9.637h-.738q-1.483,0-1.579,1.025l-.007.116a.791.791,0,0,0,.26.608A1.009,1.009,0,0,0,117.262,11.626Zm8.429-2.673a10.491,10.491,0,0,1,.417-2.98,7.865,7.865,0,0,1,1.23-2.505A4.594,4.594,0,0,1,129.1,1.953l.383,1.066A4.758,4.758,0,0,0,127.926,5.3a10.572,10.572,0,0,0-.561,3.609v.212a10.774,10.774,0,0,0,.554,3.623,4.851,4.851,0,0,0,1.565,2.317L129.1,16.11a4.6,4.6,0,0,1-1.733-1.473,7.734,7.734,0,0,1-1.227-2.437,10.428,10.428,0,0,1-.451-2.885Zm7.13,2.4h5.018V13h-7.581V11.8l4.922-7.089h-4.915V3.047h7.465V4.223ZM142.4,9.11a9.955,9.955,0,0,1-.444,2.974,8.072,8.072,0,0,1-1.278,2.522,4.606,4.606,0,0,1-1.784,1.5l-.383-1.046a4.807,4.807,0,0,0,1.531-2.256,10.446,10.446,0,0,0,.581-3.507V8.939a10.683,10.683,0,0,0-.557-3.6A5.011,5.011,0,0,0,138.515,3l.383-1.046a4.607,4.607,0,0,1,1.753,1.463,7.968,7.968,0,0,1,1.278,2.468A9.884,9.884,0,0,1,142.4,8.8Z" transform="translate(301.757 1780)" fill="#12263f"/>
    <path id="Trazado_893652" data-name="Trazado 893652" d="M24.881,4.708H21.833V13H19.782V4.708H16.774V3.047h8.107Zm-.69,4.525a4.387,4.387,0,0,1,.424-1.962,3.1,3.1,0,0,1,1.22-1.333,3.56,3.56,0,0,1,1.849-.472,3.368,3.368,0,0,1,2.444.916,3.676,3.676,0,0,1,1.056,2.488l.014.506a3.866,3.866,0,0,1-.95,2.731,3.3,3.3,0,0,1-2.55,1.029,3.319,3.319,0,0,1-2.553-1.025,3.934,3.934,0,0,1-.954-2.789Zm1.976.14a2.765,2.765,0,0,0,.4,1.612,1.424,1.424,0,0,0,2.256.007,3.025,3.025,0,0,0,.4-1.763,2.737,2.737,0,0,0-.4-1.6,1.311,1.311,0,0,0-1.135-.568,1.29,1.29,0,0,0-1.121.565A3.076,3.076,0,0,0,26.167,9.374Zm10.4-1.918A5.367,5.367,0,0,0,35.86,7.4a1.447,1.447,0,0,0-1.47.759V13H32.415V5.6h1.866l.055.882a1.831,1.831,0,0,1,1.647-1.019,2.07,2.07,0,0,1,.615.089Zm4.956,3.5a.637.637,0,0,0-.359-.571,4.077,4.077,0,0,0-1.152-.373q-2.639-.554-2.639-2.242a2.032,2.032,0,0,1,.817-1.644,3.3,3.3,0,0,1,2.136-.66,3.547,3.547,0,0,1,2.252.663,2.09,2.09,0,0,1,.844,1.723H41.452a.956.956,0,0,0-.273-.7,1.157,1.157,0,0,0-.854-.277,1.182,1.182,0,0,0-.772.226.712.712,0,0,0-.273.574.609.609,0,0,0,.311.53,3.2,3.2,0,0,0,1.049.349,8.571,8.571,0,0,1,1.244.332,2.044,2.044,0,0,1,1.565,1.989,1.929,1.929,0,0,1-.868,1.637,3.745,3.745,0,0,1-2.242.625,3.912,3.912,0,0,1-1.651-.332,2.77,2.77,0,0,1-1.131-.909,2.113,2.113,0,0,1-.41-1.248h1.873a1.031,1.031,0,0,0,.39.807,1.546,1.546,0,0,0,.971.28,1.43,1.43,0,0,0,.858-.215A.67.67,0,0,0,41.527,10.956ZM46.8,13H44.822V5.6H46.8Zm-2.1-9.311a.973.973,0,0,1,.3-.731,1.281,1.281,0,0,1,1.617,0,.967.967,0,0,1,.3.731.97.97,0,0,1-.3.738,1.267,1.267,0,0,1-1.606,0A.97.97,0,0,1,44.706,3.689Zm3.418,5.544a4.387,4.387,0,0,1,.424-1.962,3.1,3.1,0,0,1,1.22-1.333,3.56,3.56,0,0,1,1.849-.472,3.368,3.368,0,0,1,2.444.916,3.676,3.676,0,0,1,1.056,2.488l.014.506a3.866,3.866,0,0,1-.95,2.731,3.683,3.683,0,0,1-5.1,0,3.934,3.934,0,0,1-.954-2.789Zm1.976.14a2.765,2.765,0,0,0,.4,1.612,1.424,1.424,0,0,0,2.256.007,3.025,3.025,0,0,0,.4-1.763,2.737,2.737,0,0,0-.4-1.6,1.311,1.311,0,0,0-1.135-.568,1.29,1.29,0,0,0-1.121.565A3.076,3.076,0,0,0,50.1,9.374ZM52.006,2.5H54.16L52.266,4.619H50.66Zm6.159,3.1.062.854a2.582,2.582,0,0,1,2.126-.991,2.146,2.146,0,0,1,1.75.69,3.221,3.221,0,0,1,.588,2.064V13H60.715V8.27a1.282,1.282,0,0,0-.273-.913,1.224,1.224,0,0,0-.909-.284,1.359,1.359,0,0,0-1.251.711V13H56.306V5.6Zm9.2,3.644a4.457,4.457,0,0,1,.776-2.755,2.517,2.517,0,0,1,2.123-1.025,2.265,2.265,0,0,1,1.784.807V2.5h1.982V13H72.248l-.1-.786a2.325,2.325,0,0,1-1.9.923,2.511,2.511,0,0,1-2.1-1.029A4.6,4.6,0,0,1,67.367,9.247Zm1.976.147a2.92,2.92,0,0,0,.362,1.6,1.18,1.18,0,0,0,1.053.555,1.322,1.322,0,0,0,1.292-.774V7.847a1.3,1.3,0,0,0-1.278-.774Q69.342,7.073,69.342,9.394Zm9.625,3.743a3.631,3.631,0,0,1-2.649-1A3.548,3.548,0,0,1,75.3,9.479V9.288A4.468,4.468,0,0,1,75.727,7.3a3.161,3.161,0,0,1,1.22-1.354,3.425,3.425,0,0,1,1.8-.475,3.07,3.07,0,0,1,2.389.957,3.889,3.889,0,0,1,.872,2.714v.807H77.3a1.835,1.835,0,0,0,.578,1.162,1.746,1.746,0,0,0,1.22.438,2.132,2.132,0,0,0,1.784-.827l.971,1.087a2.966,2.966,0,0,1-1.2.981A3.947,3.947,0,0,1,78.967,13.137ZM78.742,7.06a1.234,1.234,0,0,0-.954.4A2.062,2.062,0,0,0,77.32,8.6h2.748V8.44a1.471,1.471,0,0,0-.355-1.02A1.274,1.274,0,0,0,78.742,7.06Zm8.545.4a5.367,5.367,0,0,0-.711-.055,1.447,1.447,0,0,0-1.47.759V13H83.13V5.6H85l.055.882A1.831,1.831,0,0,1,86.7,5.467a2.07,2.07,0,0,1,.615.089Zm4.225,5.681a3.631,3.631,0,0,1-2.649-1A3.548,3.548,0,0,1,87.84,9.479V9.288A4.468,4.468,0,0,1,88.271,7.3a3.161,3.161,0,0,1,1.22-1.354,3.425,3.425,0,0,1,1.8-.475,3.07,3.07,0,0,1,2.389.957,3.889,3.889,0,0,1,.872,2.714v.807h-4.71a1.835,1.835,0,0,0,.578,1.162,1.746,1.746,0,0,0,1.22.438,2.132,2.132,0,0,0,1.784-.827L94.4,11.8a2.966,2.966,0,0,1-1.2.981A3.947,3.947,0,0,1,91.511,13.137ZM91.286,7.06a1.234,1.234,0,0,0-.954.4,2.062,2.062,0,0,0-.468,1.14h2.748V8.44a1.471,1.471,0,0,0-.355-1.02A1.274,1.274,0,0,0,91.286,7.06Zm7.465,4.484a1.3,1.3,0,0,0,.889-.3,1.054,1.054,0,0,0,.355-.8h1.853a2.534,2.534,0,0,1-.41,1.377,2.706,2.706,0,0,1-1.1.971,3.455,3.455,0,0,1-1.548.345,3.211,3.211,0,0,1-2.5-1.008,3.99,3.99,0,0,1-.916-2.786v-.13a3.944,3.944,0,0,1,.909-2.728,3.174,3.174,0,0,1,2.5-1.019,3.111,3.111,0,0,1,2.225.79,2.8,2.8,0,0,1,.851,2.1H99.995a1.358,1.358,0,0,0-.355-.938,1.321,1.321,0,0,0-1.945.142A2.916,2.916,0,0,0,97.342,9.2V9.4a2.953,2.953,0,0,0,.349,1.643A1.2,1.2,0,0,0,98.75,11.544ZM104.9,6.41a2.466,2.466,0,0,1,1.976-.943q2.406,0,2.44,2.8V13h-1.976V8.317a1.374,1.374,0,0,0-.273-.94,1.172,1.172,0,0,0-.909-.3,1.345,1.345,0,0,0-1.258.67V13h-1.976V2.5H104.9ZM115.1,13a2.194,2.194,0,0,1-.2-.663,2.39,2.39,0,0,1-1.866.8,2.626,2.626,0,0,1-1.8-.629,2.023,2.023,0,0,1-.714-1.586,2.09,2.09,0,0,1,.872-1.8,4.3,4.3,0,0,1,2.519-.636h.909V8.058a1.219,1.219,0,0,0-.263-.82,1.035,1.035,0,0,0-.831-.308,1.177,1.177,0,0,0-.783.239.813.813,0,0,0-.284.656h-1.976a1.985,1.985,0,0,1,.4-1.189,2.621,2.621,0,0,1,1.121-.858,4.086,4.086,0,0,1,1.627-.311,3.228,3.228,0,0,1,2.17.687,2.4,2.4,0,0,1,.8,1.931v3.206a3.536,3.536,0,0,0,.294,1.593V13Zm-1.634-1.374a1.7,1.7,0,0,0,.807-.195,1.28,1.28,0,0,0,.547-.523V9.637h-.738q-1.483,0-1.579,1.025l-.007.116a.791.791,0,0,0,.26.608A1.009,1.009,0,0,0,113.461,11.626Zm8.429-2.673a10.491,10.491,0,0,1,.417-2.98,7.865,7.865,0,0,1,1.23-2.505A4.6,4.6,0,0,1,125.3,1.953l.383,1.066A4.758,4.758,0,0,0,124.125,5.3a10.572,10.572,0,0,0-.561,3.609v.212a10.774,10.774,0,0,0,.554,3.623,4.851,4.851,0,0,0,1.565,2.317L125.3,16.11a4.6,4.6,0,0,1-1.733-1.473,7.734,7.734,0,0,1-1.227-2.437,10.428,10.428,0,0,1-.451-2.885Zm10.117,1.436a1.052,1.052,0,0,0-.41-.892,5.38,5.38,0,0,0-1.477-.656,10.467,10.467,0,0,1-1.688-.68,2.759,2.759,0,0,1-1.7-2.468,2.4,2.4,0,0,1,.455-1.439,2.965,2.965,0,0,1,1.306-.988,4.914,4.914,0,0,1,1.911-.355,4.473,4.473,0,0,1,1.9.386,3.026,3.026,0,0,1,1.3,1.09,2.853,2.853,0,0,1,.461,1.6h-2.051a1.342,1.342,0,0,0-.431-1.063,1.77,1.77,0,0,0-1.21-.379,1.891,1.891,0,0,0-1.169.318,1,1,0,0,0-.417.837.96.96,0,0,0,.489.813,5.522,5.522,0,0,0,1.439.615,6.217,6.217,0,0,1,2.55,1.306,2.6,2.6,0,0,1,.8,1.941,2.4,2.4,0,0,1-.978,2.027,4.279,4.279,0,0,1-2.632.735,5.082,5.082,0,0,1-2.092-.42,3.31,3.31,0,0,1-1.439-1.152,2.95,2.95,0,0,1-.5-1.7h2.058q0,1.647,1.969,1.647a1.915,1.915,0,0,0,1.142-.3A.967.967,0,0,0,132.007,10.389Zm6.72-1.278a9.955,9.955,0,0,1-.444,2.974A8.072,8.072,0,0,1,137,14.606a4.606,4.606,0,0,1-1.784,1.5l-.383-1.046a4.807,4.807,0,0,0,1.531-2.256A10.446,10.446,0,0,0,136.95,9.3V8.939a10.683,10.683,0,0,0-.557-3.6A5.011,5.011,0,0,0,134.837,3l.383-1.046a4.607,4.607,0,0,1,1.753,1.463,7.968,7.968,0,0,1,1.278,2.468,9.884,9.884,0,0,1,.475,2.919Z" transform="translate(511.757 1780)" fill="#12263f"/>
    <g id="Grupo_1101972" data-name="Grupo 1101972" transform="translate(-236.045 -166.5)">
      <g id="Grupo_1101970" data-name="Grupo 1101970">
        <path id="Línea_570" data-name="Línea 570" d="M0,54a1,1,0,0,1-.7-.286A1,1,0,0,1-.714,52.3l52-53A1,1,0,0,1,52.7-.714,1,1,0,0,1,52.714.7l-52,53A1,1,0,0,1,0,54Z" transform="translate(590.257 1704.5)" fill="#916aab"/>
        <path id="Línea_577" data-name="Línea 577" d="M0,54a1,1,0,0,1-.7-.286A1,1,0,0,1-.714,52.3l52-53A1,1,0,0,1,52.7-.714,1,1,0,0,1,52.714.7l-52,53A1,1,0,0,1,0,54Z" transform="translate(590.257 1757.5)" fill="#916aab"/>
        <path id="Línea_581" data-name="Línea 581" d="M0,54a1,1,0,0,1-.7-.286A1,1,0,0,1-.714,52.3l52-53A1,1,0,0,1,52.7-.714,1,1,0,0,1,52.714.7l-52,53A1,1,0,0,1,0,54Z" transform="translate(590.257 1810.5)" fill="#916aab"/>
        <path id="Línea_585" data-name="Línea 585" d="M0,54a1,1,0,0,1-.7-.286A1,1,0,0,1-.714,52.3l52-53A1,1,0,0,1,52.7-.714,1,1,0,0,1,52.714.7l-52,53A1,1,0,0,1,0,54Z" transform="translate(590.257 1863.5)" fill="#916aab"/>
        <path id="Línea_573" data-name="Línea 573" d="M0,54a1,1,0,0,1-.7-.286A1,1,0,0,1-.714,52.3l52-53A1,1,0,0,1,52.7-.714,1,1,0,0,1,52.714.7l-52,53A1,1,0,0,1,0,54Z" transform="translate(590.257 1731)" fill="#916aab"/>
        <path id="Línea_575" data-name="Línea 575" d="M0,54a1,1,0,0,1-.7-.286A1,1,0,0,1-.714,52.3l52-53A1,1,0,0,1,52.7-.714,1,1,0,0,1,52.714.7l-52,53A1,1,0,0,1,0,54Z" transform="translate(590.257 1784)" fill="#916aab"/>
        <path id="Línea_579" data-name="Línea 579" d="M0,54a1,1,0,0,1-.7-.286A1,1,0,0,1-.714,52.3l52-53A1,1,0,0,1,52.7-.714,1,1,0,0,1,52.714.7l-52,53A1,1,0,0,1,0,54Z" transform="translate(590.257 1837)" fill="#916aab"/>
        <path id="Línea_583" data-name="Línea 583" d="M0,26.5a1,1,0,0,1-.714-.3A1,1,0,0,1-.7,24.786l26-25.5A1,1,0,0,1,26.714-.7,1,1,0,0,1,26.7.714l-26,25.5A1,1,0,0,1,0,26.5Z" transform="translate(616.257 1890)" fill="#916aab"/>
        <path id="Línea_571" data-name="Línea 571" d="M0,54a1,1,0,0,1-.7-.286A1,1,0,0,1-.714,52.3l52-53A1,1,0,0,1,52.7-.714,1,1,0,0,1,52.714.7l-52,53A1,1,0,0,1,0,54Z" transform="translate(590.257 1716.5)" fill="#916aab"/>
        <path id="Línea_576" data-name="Línea 576" d="M0,54a1,1,0,0,1-.7-.286A1,1,0,0,1-.714,52.3l52-53A1,1,0,0,1,52.7-.714,1,1,0,0,1,52.714.7l-52,53A1,1,0,0,1,0,54Z" transform="translate(590.257 1769.5)" fill="#916aab"/>
        <path id="Línea_580" data-name="Línea 580" d="M0,54a1,1,0,0,1-.7-.286A1,1,0,0,1-.714,52.3l52-53A1,1,0,0,1,52.7-.714,1,1,0,0,1,52.714.7l-52,53A1,1,0,0,1,0,54Z" transform="translate(590.257 1822.5)" fill="#916aab"/>
        <path id="Línea_584" data-name="Línea 584" d="M0,41a1,1,0,0,1-.689-.275,1,1,0,0,1-.036-1.414l38-40a1,1,0,0,1,1.414-.036A1,1,0,0,1,38.725.689l-38,40A1,1,0,0,1,0,41Z" transform="translate(604.257 1875.5)" fill="#916aab"/>
        <path id="Línea_572" data-name="Línea 572" d="M0,54a1,1,0,0,1-.7-.286A1,1,0,0,1-.714,52.3l52-53A1,1,0,0,1,52.7-.714,1,1,0,0,1,52.714.7l-52,53A1,1,0,0,1,0,54Z" transform="translate(590.257 1743)" fill="#916aab"/>
        <path id="Línea_574" data-name="Línea 574" d="M0,54a1,1,0,0,1-.7-.286A1,1,0,0,1-.714,52.3l52-53A1,1,0,0,1,52.7-.714,1,1,0,0,1,52.714.7l-52,53A1,1,0,0,1,0,54Z" transform="translate(590.257 1796)" fill="#916aab"/>
        <path id="Línea_578" data-name="Línea 578" d="M0,54a1,1,0,0,1-.7-.286A1,1,0,0,1-.714,52.3l52-53A1,1,0,0,1,52.7-.714,1,1,0,0,1,52.714.7l-52,53A1,1,0,0,1,0,54Z" transform="translate(590.257 1849)" fill="#916aab"/>
        <path id="Línea_582" data-name="Línea 582" d="M0,14.5a1,1,0,0,1-.664-.253,1,1,0,0,1-.083-1.412l12-13.5a1,1,0,0,1,1.412-.083A1,1,0,0,1,12.747.664l-12,13.5A1,1,0,0,1,0,14.5Z" transform="translate(630.257 1902)" fill="#916aab"/>
      </g>
      <path id="Trazado_893039" data-name="Trazado 893039" d="M-3276.333-9745.5h-133.621l2.561-2.561,127.439-127.439h-126.379a1.5,1.5,0,0,1-1.5-1.5,1.5,1.5,0,0,1,1.5-1.5h133.621l-2.561,2.561L-3402.712-9748.5h126.379a1.5,1.5,0,0,1,1.5,1.5A1.5,1.5,0,0,1-3276.333-9745.5Z" transform="translate(3956.757 11608)" fill="#c2d960"/>
    </g>
    <g id="Grupo_1101973" data-name="Grupo 1101973" transform="translate(-300.667 -166.5)">
      <g id="Grupo_1101971" data-name="Grupo 1101971">
        <path id="Línea_586" data-name="Línea 586" d="M52,54a1,1,0,0,1-.714-.3l-52-53A1,1,0,0,1-.7-.714,1,1,0,0,1,.714-.7l52,53A1,1,0,0,1,52,54Z" transform="translate(863.59 1704.5)" fill="#916aab"/>
        <path id="Línea_587" data-name="Línea 587" d="M52,54a1,1,0,0,1-.714-.3l-52-53A1,1,0,0,1-.7-.714,1,1,0,0,1,.714-.7l52,53A1,1,0,0,1,52,54Z" transform="translate(863.59 1757.5)" fill="#916aab"/>
        <path id="Línea_588" data-name="Línea 588" d="M52,54a1,1,0,0,1-.714-.3l-52-53A1,1,0,0,1-.7-.714,1,1,0,0,1,.714-.7l52,53A1,1,0,0,1,52,54Z" transform="translate(863.59 1810.5)" fill="#916aab"/>
        <path id="Línea_597" data-name="Línea 597" d="M52,54a1,1,0,0,1-.714-.3l-52-53A1,1,0,0,1-.7-.714,1,1,0,0,1,.714-.7l52,53A1,1,0,0,1,52,54Z" transform="translate(863.59 1863.5)" fill="#916aab"/>
        <path id="Línea_589" data-name="Línea 589" d="M52,54a1,1,0,0,1-.714-.3l-52-53A1,1,0,0,1-.7-.714,1,1,0,0,1,.714-.7l52,53A1,1,0,0,1,52,54Z" transform="translate(863.59 1731)" fill="#916aab"/>
        <path id="Línea_590" data-name="Línea 590" d="M52,54a1,1,0,0,1-.714-.3l-52-53A1,1,0,0,1-.7-.714,1,1,0,0,1,.714-.7l52,53A1,1,0,0,1,52,54Z" transform="translate(863.59 1784)" fill="#916aab"/>
        <path id="Línea_596" data-name="Línea 596" d="M52,54a1,1,0,0,1-.714-.3l-52-53A1,1,0,0,1-.7-.714,1,1,0,0,1,.714-.7l52,53A1,1,0,0,1,52,54Z" transform="translate(863.59 1837)" fill="#916aab"/>
        <path id="Línea_598" data-name="Línea 598" d="M26,26.5a1,1,0,0,1-.7-.286L-.7.714A1,1,0,0,1-.714-.7,1,1,0,0,1,.7-.714l26,25.5A1,1,0,0,1,26,26.5Z" transform="translate(863.59 1890)" fill="#916aab"/>
        <path id="Línea_591" data-name="Línea 591" d="M52,54a1,1,0,0,1-.714-.3l-52-53A1,1,0,0,1-.7-.714,1,1,0,0,1,.714-.7l52,53A1,1,0,0,1,52,54Z" transform="translate(863.59 1716.5)" fill="#916aab"/>
        <path id="Línea_592" data-name="Línea 592" d="M52,54a1,1,0,0,1-.714-.3l-52-53A1,1,0,0,1-.7-.714,1,1,0,0,1,.714-.7l52,53A1,1,0,0,1,52,54Z" transform="translate(863.59 1769.5)" fill="#916aab"/>
        <path id="Línea_593" data-name="Línea 593" d="M52,54a1,1,0,0,1-.714-.3l-52-53A1,1,0,0,1-.7-.714,1,1,0,0,1,.714-.7l52,53A1,1,0,0,1,52,54Z" transform="translate(863.59 1822.5)" fill="#916aab"/>
        <path id="Línea_599" data-name="Línea 599" d="M38,41a1,1,0,0,1-.725-.311l-38-40A1,1,0,0,1-.689-.725,1,1,0,0,1,.725-.689l38,40A1,1,0,0,1,38,41Z" transform="translate(863.59 1875.5)" fill="#916aab"/>
        <path id="Línea_594" data-name="Línea 594" d="M52,54a1,1,0,0,1-.714-.3l-52-53A1,1,0,0,1-.7-.714,1,1,0,0,1,.714-.7l52,53A1,1,0,0,1,52,54Z" transform="translate(863.59 1743)" fill="#916aab"/>
        <path id="Línea_595" data-name="Línea 595" d="M52,54a1,1,0,0,1-.714-.3l-52-53A1,1,0,0,1-.7-.714,1,1,0,0,1,.714-.7l52,53A1,1,0,0,1,52,54Z" transform="translate(863.59 1796)" fill="#916aab"/>
        <path id="Línea_600" data-name="Línea 600" d="M52,54a1,1,0,0,1-.714-.3l-52-53A1,1,0,0,1-.7-.714,1,1,0,0,1,.714-.7l52,53A1,1,0,0,1,52,54Z" transform="translate(863.59 1849)" fill="#916aab"/>
        <path id="Línea_601" data-name="Línea 601" d="M12,14.5a1,1,0,0,1-.748-.336l-12-13.5A1,1,0,0,1-.664-.747,1,1,0,0,1,.747-.664l12,13.5A1,1,0,0,1,12,14.5Z" transform="translate(863.59 1902)" fill="#916aab"/>
      </g>
      <path id="Trazado_893040" data-name="Trazado 893040" d="M-3272.712-9745.5h-133.621a1.5,1.5,0,0,1-1.5-1.5,1.5,1.5,0,0,1,1.5-1.5h126.379l-130-130h133.621a1.5,1.5,0,0,1,1.5,1.5,1.5,1.5,0,0,1-1.5,1.5h-126.379Z" transform="translate(4231.757 11608)" fill="#c2d960"/>
    </g>
  </g>
</svg>
