<svg xmlns="http://www.w3.org/2000/svg" xmlns:xlink="http://www.w3.org/1999/xlink" width="610" height="350" viewBox="0 0 610 350">
  <defs>
    <clipPath id="clip-path">
      <rect id="Rect치ngulo_402418" data-name="Rect치ngulo 402418" width="85.491" height="233.847" fill="#12263f"/>
    </clipPath>
    <clipPath id="clip-path-2">
      <rect id="Rect치ngulo_402420" data-name="Rect치ngulo 402420" width="85.491" height="233.847" fill="none"/>
    </clipPath>
  </defs>
  <g id="Grupo_1102145" data-name="Grupo 1102145" transform="translate(-179.757 -1487)">
    <path id="Trazado_893678" data-name="Trazado 893678" d="M0,0H610V350H0Z" transform="translate(179.757 1487)" fill="#f8faee"/>
    <path id="Trazado_893679" data-name="Trazado 893679" d="M20,0H363a20,20,0,0,1,20,20V290a20,20,0,0,1-20,20H20A20,20,0,0,1,0,290V20A20,20,0,0,1,20,0Z" transform="translate(284.757 1506)" fill="#ebf4fc"/>
    <path id="Trazado_893681" data-name="Trazado 893681" d="M28.417,4.708H25.368V13H23.317V4.708H20.309V3.047h8.107Zm-.69,4.525a4.387,4.387,0,0,1,.424-1.962,3.1,3.1,0,0,1,1.22-1.333,3.56,3.56,0,0,1,1.849-.472,3.368,3.368,0,0,1,2.444.916,3.676,3.676,0,0,1,1.056,2.488l.014.506a3.866,3.866,0,0,1-.95,2.731,3.683,3.683,0,0,1-5.1,0,3.934,3.934,0,0,1-.954-2.789Zm1.976.14a2.765,2.765,0,0,0,.4,1.612,1.424,1.424,0,0,0,2.256.007,3.025,3.025,0,0,0,.4-1.763,2.737,2.737,0,0,0-.4-1.6,1.311,1.311,0,0,0-1.135-.568,1.29,1.29,0,0,0-1.121.565A3.076,3.076,0,0,0,29.7,9.374Zm10.4-1.918A5.367,5.367,0,0,0,39.4,7.4a1.447,1.447,0,0,0-1.47.759V13H35.95V5.6h1.866l.055.882a1.831,1.831,0,0,1,1.647-1.019,2.07,2.07,0,0,1,.615.089Zm4.956,3.5a.637.637,0,0,0-.359-.571,4.077,4.077,0,0,0-1.152-.373q-2.639-.554-2.639-2.242a2.032,2.032,0,0,1,.817-1.644,3.3,3.3,0,0,1,2.136-.66,3.547,3.547,0,0,1,2.252.663,2.09,2.09,0,0,1,.844,1.723H44.987a.956.956,0,0,0-.273-.7,1.157,1.157,0,0,0-.854-.277,1.182,1.182,0,0,0-.772.226.712.712,0,0,0-.273.574.609.609,0,0,0,.311.53,3.2,3.2,0,0,0,1.049.349,8.571,8.571,0,0,1,1.244.332,2.044,2.044,0,0,1,1.565,1.989,1.929,1.929,0,0,1-.868,1.637,3.745,3.745,0,0,1-2.242.625,3.912,3.912,0,0,1-1.651-.332A2.77,2.77,0,0,1,41.09,11.9a2.113,2.113,0,0,1-.41-1.248h1.873a1.031,1.031,0,0,0,.39.807,1.546,1.546,0,0,0,.971.28,1.43,1.43,0,0,0,.858-.215A.67.67,0,0,0,45.062,10.956ZM50.339,13H48.357V5.6h1.982Zm-2.1-9.311a.973.973,0,0,1,.3-.731,1.281,1.281,0,0,1,1.617,0,.967.967,0,0,1,.3.731.97.97,0,0,1-.3.738,1.267,1.267,0,0,1-1.606,0A.97.97,0,0,1,48.241,3.689Zm3.418,5.544a4.387,4.387,0,0,1,.424-1.962A3.1,3.1,0,0,1,53.3,5.938a3.56,3.56,0,0,1,1.849-.472,3.368,3.368,0,0,1,2.444.916,3.676,3.676,0,0,1,1.056,2.488l.014.506a3.866,3.866,0,0,1-.95,2.731,3.683,3.683,0,0,1-5.1,0,3.934,3.934,0,0,1-.954-2.789Zm1.976.14a2.765,2.765,0,0,0,.4,1.612,1.424,1.424,0,0,0,2.256.007,3.025,3.025,0,0,0,.4-1.763,2.737,2.737,0,0,0-.4-1.6,1.311,1.311,0,0,0-1.135-.568,1.29,1.29,0,0,0-1.121.565A3.076,3.076,0,0,0,53.634,9.374ZM55.542,2.5h2.153L55.8,4.619H54.195ZM61.7,5.6l.062.854a2.582,2.582,0,0,1,2.126-.991,2.146,2.146,0,0,1,1.75.69,3.221,3.221,0,0,1,.588,2.064V13H64.25V8.27a1.282,1.282,0,0,0-.273-.913,1.224,1.224,0,0,0-.909-.284,1.359,1.359,0,0,0-1.251.711V13H59.841V5.6ZM6.374,31H4.392V23.6H6.374Zm-2.1-9.311a.973.973,0,0,1,.3-.731,1.117,1.117,0,0,1,.81-.287,1.12,1.12,0,0,1,.807.287,1.044,1.044,0,0,1,0,1.47,1.122,1.122,0,0,1-.8.287,1.122,1.122,0,0,1-.8-.287A.97.97,0,0,1,4.275,21.689Zm6,7.718h3.616V31H7.748V29.8l3.479-4.6H7.851V23.6h5.927v1.164Zm4.437-2.174a4.421,4.421,0,0,1,.776-2.755,2.537,2.537,0,0,1,2.129-1.012,2.271,2.271,0,0,1,1.894.909l.13-.772h1.736v10.24H19.39V30.364a2.277,2.277,0,0,1-1.791.772,2.518,2.518,0,0,1-2.105-1.025A4.638,4.638,0,0,1,14.707,27.233Zm1.976.14a2.9,2.9,0,0,0,.373,1.616,1.193,1.193,0,0,0,1.049.555,1.329,1.329,0,0,0,1.285-.726v-3.06a1.318,1.318,0,0,0-1.271-.7,1.207,1.207,0,0,0-1.06.555A3.2,3.2,0,0,0,16.683,27.374Zm10.671,2.874a2.477,2.477,0,0,1-2.023.889,2.337,2.337,0,0,1-1.815-.684,2.918,2.918,0,0,1-.639-2V23.6h1.976v4.784q0,1.157,1.053,1.157a1.426,1.426,0,0,0,1.381-.7V23.6h1.982V31H27.408ZM32.843,31H30.86V23.6h1.982Zm-2.1-9.311a.973.973,0,0,1,.3-.731,1.281,1.281,0,0,1,1.617,0,1.044,1.044,0,0,1,0,1.47,1.267,1.267,0,0,1-1.606,0A.97.97,0,0,1,30.744,21.689Zm7.13,9.447a3.631,3.631,0,0,1-2.649-1A3.548,3.548,0,0,1,34.2,27.479v-.191a4.468,4.468,0,0,1,.431-1.993,3.161,3.161,0,0,1,1.22-1.354,3.425,3.425,0,0,1,1.8-.475,3.07,3.07,0,0,1,2.389.957,3.889,3.889,0,0,1,.872,2.714v.807h-4.71a1.835,1.835,0,0,0,.578,1.162,1.746,1.746,0,0,0,1.22.438,2.132,2.132,0,0,0,1.784-.827l.971,1.087a2.966,2.966,0,0,1-1.2.981A3.947,3.947,0,0,1,37.874,31.137Zm-.226-6.077a1.234,1.234,0,0,0-.954.4,2.062,2.062,0,0,0-.468,1.14h2.748V26.44a1.471,1.471,0,0,0-.355-1.02A1.274,1.274,0,0,0,37.648,25.06Zm8.545.4a5.367,5.367,0,0,0-.711-.055,1.447,1.447,0,0,0-1.47.759V31H42.037V23.6H43.9l.055.882a1.831,1.831,0,0,1,1.647-1.019,2.07,2.07,0,0,1,.615.089Zm.513,1.791a4.457,4.457,0,0,1,.776-2.755A2.517,2.517,0,0,1,49.6,23.467a2.265,2.265,0,0,1,1.784.807V20.5h1.982V31H51.587l-.1-.786a2.325,2.325,0,0,1-1.9.923,2.511,2.511,0,0,1-2.1-1.029A4.6,4.6,0,0,1,46.706,27.247Zm1.976.147a2.92,2.92,0,0,0,.362,1.6,1.18,1.18,0,0,0,1.053.555,1.322,1.322,0,0,0,1.292-.774V25.847a1.3,1.3,0,0,0-1.278-.774Q48.682,25.073,48.682,27.394ZM59.188,31a2.194,2.194,0,0,1-.2-.663,2.39,2.39,0,0,1-1.866.8,2.626,2.626,0,0,1-1.8-.629,2.023,2.023,0,0,1-.714-1.586,2.09,2.09,0,0,1,.872-1.8A4.3,4.3,0,0,1,58,26.481h.909v-.424a1.219,1.219,0,0,0-.263-.82,1.035,1.035,0,0,0-.831-.308,1.177,1.177,0,0,0-.783.239.813.813,0,0,0-.284.656H54.772a1.984,1.984,0,0,1,.4-1.189,2.621,2.621,0,0,1,1.121-.858,4.086,4.086,0,0,1,1.627-.311,3.228,3.228,0,0,1,2.17.687,2.4,2.4,0,0,1,.8,1.931v3.206a3.536,3.536,0,0,0,.294,1.593V31Zm-1.634-1.374a1.7,1.7,0,0,0,.807-.195,1.28,1.28,0,0,0,.547-.523V27.637H58.17q-1.483,0-1.579,1.025l-.007.116a.791.791,0,0,0,.26.608A1.009,1.009,0,0,0,57.555,29.626Zm8.429-2.673a10.491,10.491,0,0,1,.417-2.98,7.865,7.865,0,0,1,1.23-2.505,4.6,4.6,0,0,1,1.764-1.514l.383,1.066A4.758,4.758,0,0,0,68.219,23.3a10.572,10.572,0,0,0-.561,3.609v.212a10.774,10.774,0,0,0,.554,3.623,4.851,4.851,0,0,0,1.565,2.317l-.383,1.046a4.6,4.6,0,0,1-1.733-1.473A7.734,7.734,0,0,1,66.435,30.2a10.428,10.428,0,0,1-.451-2.885Zm7.13,2.4h5.018V31H70.55V29.8l4.922-7.089H70.557V21.047h7.465v1.176ZM82.7,27.11a9.955,9.955,0,0,1-.444,2.974,8.072,8.072,0,0,1-1.278,2.522,4.606,4.606,0,0,1-1.784,1.5l-.383-1.046a4.807,4.807,0,0,0,1.531-2.256A10.446,10.446,0,0,0,80.92,27.3v-.362a10.682,10.682,0,0,0-.557-3.6A5.011,5.011,0,0,0,78.808,21l.383-1.046a4.607,4.607,0,0,1,1.753,1.463,7.968,7.968,0,0,1,1.278,2.468A9.884,9.884,0,0,1,82.7,26.8Z" transform="translate(383.757 1767)" fill="#12263f"/>
    <path id="Trazado_893680" data-name="Trazado 893680" d="M25.917,4.708H22.868V13H20.817V4.708H17.809V3.047h8.107Zm-.69,4.525a4.387,4.387,0,0,1,.424-1.962,3.1,3.1,0,0,1,1.22-1.333,3.56,3.56,0,0,1,1.849-.472,3.368,3.368,0,0,1,2.444.916,3.676,3.676,0,0,1,1.056,2.488l.014.506a3.866,3.866,0,0,1-.95,2.731,3.3,3.3,0,0,1-2.55,1.029,3.319,3.319,0,0,1-2.553-1.025,3.934,3.934,0,0,1-.954-2.789Zm1.976.14a2.765,2.765,0,0,0,.4,1.612,1.424,1.424,0,0,0,2.256.007,3.025,3.025,0,0,0,.4-1.763,2.737,2.737,0,0,0-.4-1.6,1.311,1.311,0,0,0-1.135-.568,1.29,1.29,0,0,0-1.121.565A3.076,3.076,0,0,0,27.2,9.374Zm10.4-1.918A5.367,5.367,0,0,0,36.9,7.4a1.447,1.447,0,0,0-1.47.759V13H33.45V5.6h1.866l.055.882a1.831,1.831,0,0,1,1.647-1.019,2.07,2.07,0,0,1,.615.089Zm4.956,3.5a.637.637,0,0,0-.359-.571,4.077,4.077,0,0,0-1.152-.373q-2.639-.554-2.639-2.242a2.032,2.032,0,0,1,.817-1.644,3.3,3.3,0,0,1,2.136-.66,3.547,3.547,0,0,1,2.252.663,2.09,2.09,0,0,1,.844,1.723H42.487a.956.956,0,0,0-.273-.7,1.157,1.157,0,0,0-.854-.277,1.182,1.182,0,0,0-.772.226.712.712,0,0,0-.273.574.609.609,0,0,0,.311.53,3.2,3.2,0,0,0,1.049.349,8.571,8.571,0,0,1,1.244.332,2.044,2.044,0,0,1,1.565,1.989,1.929,1.929,0,0,1-.868,1.637,3.745,3.745,0,0,1-2.242.625,3.912,3.912,0,0,1-1.651-.332A2.77,2.77,0,0,1,38.59,11.9a2.113,2.113,0,0,1-.41-1.248h1.873a1.031,1.031,0,0,0,.39.807,1.546,1.546,0,0,0,.971.28,1.43,1.43,0,0,0,.858-.215A.67.67,0,0,0,42.562,10.956ZM47.839,13H45.857V5.6h1.982Zm-2.1-9.311a.973.973,0,0,1,.3-.731,1.281,1.281,0,0,1,1.617,0,.967.967,0,0,1,.3.731.97.97,0,0,1-.3.738,1.267,1.267,0,0,1-1.606,0A.97.97,0,0,1,45.741,3.689Zm3.418,5.544a4.387,4.387,0,0,1,.424-1.962A3.1,3.1,0,0,1,50.8,5.938a3.56,3.56,0,0,1,1.849-.472,3.368,3.368,0,0,1,2.444.916,3.676,3.676,0,0,1,1.056,2.488l.014.506a3.866,3.866,0,0,1-.95,2.731,3.683,3.683,0,0,1-5.1,0,3.934,3.934,0,0,1-.954-2.789Zm1.976.14a2.765,2.765,0,0,0,.4,1.612,1.424,1.424,0,0,0,2.256.007,3.025,3.025,0,0,0,.4-1.763,2.737,2.737,0,0,0-.4-1.6,1.311,1.311,0,0,0-1.135-.568,1.29,1.29,0,0,0-1.121.565A3.076,3.076,0,0,0,51.134,9.374ZM53.042,2.5h2.153L53.3,4.619H51.695ZM59.2,5.6l.062.854a2.582,2.582,0,0,1,2.126-.991,2.146,2.146,0,0,1,1.75.69,3.221,3.221,0,0,1,.588,2.064V13H61.75V8.27a1.282,1.282,0,0,0-.273-.913,1.224,1.224,0,0,0-.909-.284,1.359,1.359,0,0,0-1.251.711V13H57.341V5.6ZM5.159,27.247a4.457,4.457,0,0,1,.776-2.755,2.517,2.517,0,0,1,2.123-1.025,2.265,2.265,0,0,1,1.784.807V20.5h1.982V31H10.04l-.1-.786a2.325,2.325,0,0,1-1.9.923,2.511,2.511,0,0,1-2.1-1.029A4.6,4.6,0,0,1,5.159,27.247Zm1.976.147a2.92,2.92,0,0,0,.362,1.6,1.18,1.18,0,0,0,1.053.555,1.322,1.322,0,0,0,1.292-.774V25.847a1.3,1.3,0,0,0-1.278-.774Q7.135,25.073,7.135,27.394Zm9.625,3.743a3.631,3.631,0,0,1-2.649-1,3.548,3.548,0,0,1-1.022-2.659v-.191A4.468,4.468,0,0,1,13.52,25.3a3.161,3.161,0,0,1,1.22-1.354,3.425,3.425,0,0,1,1.8-.475,3.07,3.07,0,0,1,2.389.957,3.889,3.889,0,0,1,.872,2.714v.807h-4.71a1.835,1.835,0,0,0,.578,1.162,1.746,1.746,0,0,0,1.22.438,2.132,2.132,0,0,0,1.784-.827l.971,1.087a2.966,2.966,0,0,1-1.2.981A3.947,3.947,0,0,1,16.76,31.137Zm-.226-6.077a1.234,1.234,0,0,0-.954.4,2.062,2.062,0,0,0-.468,1.14H17.86V26.44a1.471,1.471,0,0,0-.355-1.02A1.274,1.274,0,0,0,16.534,25.06Zm8.545.4a5.367,5.367,0,0,0-.711-.055,1.447,1.447,0,0,0-1.47.759V31H20.923V23.6h1.866l.055.882a1.831,1.831,0,0,1,1.647-1.019,2.07,2.07,0,0,1,.615.089ZM29.3,31.137a3.631,3.631,0,0,1-2.649-1,3.548,3.548,0,0,1-1.022-2.659v-.191a4.468,4.468,0,0,1,.431-1.993,3.161,3.161,0,0,1,1.22-1.354,3.425,3.425,0,0,1,1.8-.475,3.07,3.07,0,0,1,2.389.957,3.889,3.889,0,0,1,.872,2.714v.807h-4.71a1.835,1.835,0,0,0,.578,1.162,1.746,1.746,0,0,0,1.22.438,2.132,2.132,0,0,0,1.784-.827l.971,1.087a2.966,2.966,0,0,1-1.2.981A3.947,3.947,0,0,1,29.3,31.137Zm-.226-6.077a1.234,1.234,0,0,0-.954.4,2.062,2.062,0,0,0-.468,1.14H30.4V26.44a1.471,1.471,0,0,0-.355-1.02A1.274,1.274,0,0,0,29.078,25.06Zm7.465,4.484a1.3,1.3,0,0,0,.889-.3,1.054,1.054,0,0,0,.355-.8H39.64a2.534,2.534,0,0,1-.41,1.377,2.706,2.706,0,0,1-1.1.971,3.455,3.455,0,0,1-1.548.345,3.211,3.211,0,0,1-2.5-1.008,3.99,3.99,0,0,1-.916-2.786v-.13a3.944,3.944,0,0,1,.909-2.728,3.174,3.174,0,0,1,2.5-1.019,3.111,3.111,0,0,1,2.225.79,2.8,2.8,0,0,1,.851,2.1H37.787a1.358,1.358,0,0,0-.355-.938,1.321,1.321,0,0,0-1.945.142,2.916,2.916,0,0,0-.352,1.633V27.4a2.953,2.953,0,0,0,.349,1.643A1.2,1.2,0,0,0,36.543,29.544ZM42.7,24.41a2.466,2.466,0,0,1,1.976-.943q2.406,0,2.44,2.8V31H45.136V26.317a1.374,1.374,0,0,0-.273-.94,1.172,1.172,0,0,0-.909-.3,1.345,1.345,0,0,0-1.258.67V31H40.72V20.5H42.7ZM52.888,31a2.194,2.194,0,0,1-.2-.663,2.39,2.39,0,0,1-1.866.8,2.626,2.626,0,0,1-1.8-.629,2.023,2.023,0,0,1-.714-1.586,2.09,2.09,0,0,1,.872-1.8,4.3,4.3,0,0,1,2.519-.636h.909v-.424a1.219,1.219,0,0,0-.263-.82,1.035,1.035,0,0,0-.831-.308,1.177,1.177,0,0,0-.783.239.813.813,0,0,0-.284.656H48.472a1.984,1.984,0,0,1,.4-1.189,2.621,2.621,0,0,1,1.121-.858,4.086,4.086,0,0,1,1.627-.311,3.228,3.228,0,0,1,2.17.687,2.4,2.4,0,0,1,.8,1.931v3.206a3.536,3.536,0,0,0,.294,1.593V31Zm-1.634-1.374a1.7,1.7,0,0,0,.807-.195,1.28,1.28,0,0,0,.547-.523V27.637h-.738q-1.483,0-1.579,1.025l-.007.116a.791.791,0,0,0,.26.608A1.009,1.009,0,0,0,51.254,29.626Zm8.429-2.673a10.491,10.491,0,0,1,.417-2.98,7.865,7.865,0,0,1,1.23-2.505,4.594,4.594,0,0,1,1.764-1.514l.383,1.066A4.758,4.758,0,0,0,61.918,23.3a10.572,10.572,0,0,0-.561,3.609v.212a10.774,10.774,0,0,0,.554,3.623,4.851,4.851,0,0,0,1.565,2.317l-.383,1.046a4.6,4.6,0,0,1-1.733-1.473A7.734,7.734,0,0,1,60.134,30.2a10.429,10.429,0,0,1-.451-2.885ZM69.8,28.389a1.052,1.052,0,0,0-.41-.892,5.38,5.38,0,0,0-1.477-.656,10.467,10.467,0,0,1-1.688-.68,2.759,2.759,0,0,1-1.7-2.468,2.4,2.4,0,0,1,.455-1.439,2.965,2.965,0,0,1,1.306-.988A4.914,4.914,0,0,1,68.2,20.91a4.473,4.473,0,0,1,1.9.386,3.026,3.026,0,0,1,1.3,1.09,2.853,2.853,0,0,1,.461,1.6H69.807a1.342,1.342,0,0,0-.431-1.063,1.77,1.77,0,0,0-1.21-.379A1.891,1.891,0,0,0,67,22.862a1,1,0,0,0-.417.837.96.96,0,0,0,.489.813,5.522,5.522,0,0,0,1.439.615,6.217,6.217,0,0,1,2.55,1.306,2.6,2.6,0,0,1,.8,1.941A2.4,2.4,0,0,1,70.88,30.4a4.279,4.279,0,0,1-2.632.735,5.082,5.082,0,0,1-2.092-.42,3.31,3.31,0,0,1-1.439-1.152,2.95,2.95,0,0,1-.5-1.7h2.058q0,1.647,1.969,1.647a1.915,1.915,0,0,0,1.142-.3A.967.967,0,0,0,69.8,28.389Zm6.72-1.278a9.955,9.955,0,0,1-.444,2.974A8.072,8.072,0,0,1,74.8,32.606a4.606,4.606,0,0,1-1.784,1.5l-.383-1.046a4.807,4.807,0,0,0,1.531-2.256,10.446,10.446,0,0,0,.581-3.507v-.362a10.682,10.682,0,0,0-.557-3.6A5.011,5.011,0,0,0,72.63,21l.383-1.046a4.607,4.607,0,0,1,1.753,1.463,7.968,7.968,0,0,1,1.278,2.468A9.884,9.884,0,0,1,76.52,26.8Z" transform="translate(486.757 1767)" fill="#12263f"/>
    <g id="Grupo_1102140" data-name="Grupo 1102140" transform="translate(385.33 1529)">
      <g id="Grupo_1102139" data-name="Grupo 1102139" clip-path="url(#clip-path)">
        <path id="Trazado_893648" data-name="Trazado 893648" d="M3,162.693c-7.667-26.356,16.185-47.9,39.253-68.731C57.1,80.56,71.112,67.9,77.151,54.2c.069-.135,3.732-7.178,2.616-29.554l1.724-.085c1.151,23.021-2.635,30.117-2.794,30.408-6.153,13.963-20.3,26.743-35.284,40.27C20.742,115.72-2.7,136.893,4.662,162.211Z" transform="translate(1.121 -64.902)" fill="#12263f"/>
        <path id="Trazado_893649" data-name="Trazado 893649" d="M3,150.261c-7.667-26.356,16.185-47.9,39.253-68.729C57.1,68.13,71.112,55.472,77.151,41.773c.069-.135,3.732-7.178,2.616-29.552l1.724-.086c1.151,23.021-2.635,30.117-2.794,30.408-6.155,13.965-20.3,26.743-35.284,40.272C20.742,103.289-2.7,124.461,4.662,149.779Z" transform="translate(1.121 -73.951)" fill="#12263f"/>
        <path id="Trazado_893650" data-name="Trazado 893650" d="M3,138.126C-4.663,111.772,19.189,90.23,42.256,69.4,57.1,56,71.112,43.337,77.151,29.64,77.22,29.5,80.883,22.46,79.767.087L81.492,0c1.151,23.021-2.635,30.117-2.794,30.408-6.155,13.965-20.3,26.743-35.284,40.272C20.742,91.156-2.7,112.327,4.662,137.646Z" transform="translate(1.121 -82.783)" fill="#12263f"/>
        <path id="Trazado_893651" data-name="Trazado 893651" d="M3,174.529c-7.667-26.356,16.185-47.9,39.253-68.731C57.1,92.4,71.112,79.74,77.151,66.041c.069-.135,3.732-7.178,2.616-29.554l1.724-.085C82.642,59.423,78.856,66.519,78.7,66.81c-6.153,13.963-20.3,26.743-35.284,40.27C20.742,127.556-2.7,148.729,4.662,174.047Z" transform="translate(1.121 -56.287)" fill="#12263f"/>
        <path id="Trazado_893652" data-name="Trazado 893652" d="M3,185.25c-7.667-26.356,16.185-47.9,39.253-68.731,14.839-13.4,28.856-26.06,34.895-39.756.069-.138,3.732-7.179,2.616-29.554l1.724-.086C82.642,70.146,78.856,77.24,78.7,77.531c-6.155,13.965-20.3,26.744-35.284,40.27C20.742,138.278-2.7,159.45,4.662,184.768Z" transform="translate(1.121 -48.483)" fill="#12263f"/>
        <path id="Trazado_893653" data-name="Trazado 893653" d="M3,197.244c-7.667-26.356,16.185-47.9,39.253-68.731,14.839-13.4,28.856-26.058,34.895-39.757.069-.135,3.732-7.178,2.616-29.554l1.724-.085c1.151,23.021-2.635,30.117-2.794,30.408-6.153,13.963-20.3,26.743-35.284,40.271C20.742,150.271-2.7,171.444,4.662,196.762Z" transform="translate(1.121 -39.752)" fill="#12263f"/>
        <path id="Trazado_893654" data-name="Trazado 893654" d="M3,208.147c-7.667-26.356,16.185-47.9,39.253-68.731,14.839-13.4,28.856-26.058,34.895-39.757.069-.135,3.732-7.178,2.616-29.554l1.724-.085c1.151,23.021-2.635,30.117-2.794,30.408-6.153,13.963-20.3,26.743-35.284,40.27C20.742,161.174-2.7,182.347,4.662,207.665Z" transform="translate(1.121 -31.816)" fill="#12263f"/>
        <path id="Trazado_893655" data-name="Trazado 893655" d="M3,219.8c-7.667-26.356,16.185-47.9,39.253-68.731,14.839-13.4,28.856-26.058,34.895-39.757.069-.135,3.732-7.178,2.616-29.554l1.724-.085c1.151,23.021-2.635,30.117-2.794,30.408-6.153,13.963-20.3,26.743-35.284,40.27C20.742,172.83-2.7,194,4.662,219.321Z" transform="translate(1.121 -23.332)" fill="#12263f"/>
        <path id="Trazado_893656" data-name="Trazado 893656" d="M3,231.4c-7.667-26.356,16.185-47.9,39.253-68.731,14.839-13.4,28.856-26.059,34.895-39.757.069-.135,3.732-7.178,2.616-29.554l1.724-.085c1.151,23.021-2.635,30.117-2.794,30.408-6.153,13.963-20.3,26.743-35.284,40.27C20.742,184.428-2.7,205.6,4.662,230.919Z" transform="translate(1.121 -14.889)" fill="#12263f"/>
        <path id="Trazado_893657" data-name="Trazado 893657" d="M3,243.309c-7.667-26.356,16.185-47.9,39.253-68.731,14.839-13.4,28.856-26.058,34.895-39.757.069-.135,3.732-7.178,2.616-29.554l1.724-.085C82.642,128.2,78.856,135.3,78.7,135.59c-6.153,13.963-20.3,26.743-35.284,40.271C20.742,196.336-2.7,217.509,4.662,242.827Z" transform="translate(1.121 -6.222)" fill="#12263f"/>
        <path id="Trazado_893658" data-name="Trazado 893658" d="M3,255.3c-7.667-26.356,16.185-47.9,39.253-68.731,14.839-13.4,28.856-26.059,34.895-39.757.069-.135,3.732-7.178,2.616-29.554l1.724-.085c1.151,23.021-2.635,30.117-2.794,30.408-6.153,13.963-20.3,26.743-35.284,40.27C20.742,208.329-2.7,229.5,4.662,254.82Z" transform="translate(1.121 2.508)" fill="#12263f"/>
        <path id="Trazado_893659" data-name="Trazado 893659" d="M3,266.2c-7.667-26.356,16.185-47.9,39.253-68.731,14.839-13.4,28.856-26.058,34.895-39.757.069-.135,3.732-7.178,2.616-29.554l1.724-.085C82.642,151.1,78.856,158.2,78.7,158.486c-6.153,13.963-20.3,26.743-35.284,40.271C20.742,219.232-2.7,240.405,4.662,265.723Z" transform="translate(1.121 10.444)" fill="#12263f"/>
        <path id="Trazado_893660" data-name="Trazado 893660" d="M3,277.861c-7.667-26.356,16.185-47.9,39.253-68.731,14.839-13.4,28.856-26.058,34.895-39.757.069-.135,3.732-7.178,2.616-29.552l1.724-.086c1.151,23.021-2.635,30.117-2.794,30.408-6.153,13.963-20.3,26.743-35.284,40.271C20.742,230.888-2.7,252.061,4.662,277.379Z" transform="translate(1.121 18.929)" fill="#12263f"/>
        <path id="Trazado_893661" data-name="Trazado 893661" d="M3,289.459c-7.667-26.356,16.185-47.9,39.253-68.731,14.839-13.4,28.856-26.059,34.895-39.757.069-.135,3.732-7.178,2.616-29.554l1.724-.085c1.151,23.021-2.635,30.117-2.794,30.408-6.153,13.963-20.3,26.743-35.284,40.27C20.742,242.486-2.7,263.659,4.662,288.977Z" transform="translate(1.121 27.371)" fill="#12263f"/>
      </g>
    </g>
    <path id="Trazado_893662" data-name="Trazado 893662" d="M80.731,222H2.9l-.361-1.246c-7.82-26.876,16.237-48.6,39.5-69.612C56.811,137.8,70.761,125.2,76.727,111.677c.1-.19,3.464-6.829,2.618-27.52H3.1V80.7H82.638l.083,1.642c1.161,23.266-2.737,30.572-2.9,30.872-6.191,14.06-20.408,26.9-35.458,40.492-22.1,19.957-44.936,40.582-38.84,64.838h75.21Z" transform="translate(386.083 1504.959)" fill="#c2d960"/>
    <g id="Grupo_1102144" data-name="Grupo 1102144" transform="translate(481.693 1529)">
      <g id="Grupo_1102143" data-name="Grupo 1102143" clip-path="url(#clip-path-2)">
        <path id="Trazado_893663" data-name="Trazado 893663" d="M136.016,162.693l-1.661-.482c7.366-25.317-16.08-46.491-38.752-66.967C80.623,81.716,66.475,68.937,60.287,54.9c-.126-.219-3.912-7.316-2.759-30.337l1.724.085C58.134,47.027,61.8,54.07,61.834,54.137,67.906,67.9,81.922,80.56,96.762,93.964c23.067,20.832,46.921,42.373,39.254,68.729" transform="translate(-54.647 -64.902)" fill="#12263f"/>
        <path id="Trazado_893664" data-name="Trazado 893664" d="M136.016,150.261l-1.661-.482c7.366-25.317-16.08-46.489-38.752-66.965C80.623,69.284,66.475,56.507,60.287,42.471c-.126-.219-3.912-7.316-2.759-30.337l1.724.086C58.134,34.595,61.8,41.638,61.834,41.705,67.906,55.472,81.922,68.13,96.762,81.532c23.067,20.832,46.921,42.373,39.254,68.729" transform="translate(-54.647 -73.951)" fill="#12263f"/>
        <path id="Trazado_893665" data-name="Trazado 893665" d="M136.016,138.126l-1.661-.48c7.366-25.319-16.08-46.489-38.752-66.965C80.623,57.151,66.475,44.374,60.287,30.338c-.126-.219-3.912-7.316-2.759-30.337l1.724.086C58.134,22.46,61.8,29.5,61.834,29.572,67.906,43.337,81.922,56,96.762,69.4c23.067,20.833,46.921,42.375,39.254,68.729" transform="translate(-54.647 -82.783)" fill="#12263f"/>
        <path id="Trazado_893666" data-name="Trazado 893666" d="M136.016,174.529l-1.661-.482c7.366-25.317-16.08-46.491-38.752-66.967C80.623,93.552,66.475,80.773,60.287,66.739c-.126-.219-3.912-7.316-2.759-30.337l1.724.085C58.134,58.863,61.8,65.906,61.834,65.973,67.906,79.74,81.922,92.4,96.762,105.8c23.067,20.832,46.921,42.373,39.254,68.729" transform="translate(-54.647 -56.287)" fill="#12263f"/>
        <path id="Trazado_893667" data-name="Trazado 893667" d="M136.016,185.25l-1.661-.482c7.366-25.317-16.08-46.489-38.752-66.967C80.623,104.275,66.475,91.5,60.287,77.46c-.126-.219-3.912-7.314-2.759-30.337l1.724.086C58.134,69.584,61.8,76.625,61.834,76.7c6.072,13.763,20.089,26.421,34.928,39.823,23.067,20.833,46.921,42.375,39.254,68.731" transform="translate(-54.647 -48.483)" fill="#12263f"/>
        <path id="Trazado_893668" data-name="Trazado 893668" d="M136.016,197.244l-1.661-.482c7.366-25.317-16.08-46.491-38.752-66.967-14.981-13.528-29.129-26.307-35.317-40.341-.126-.219-3.912-7.316-2.759-30.337l1.724.085C58.134,81.578,61.8,88.621,61.834,88.688c6.072,13.766,20.089,26.423,34.928,39.826,23.067,20.832,46.921,42.373,39.254,68.729" transform="translate(-54.647 -39.752)" fill="#12263f"/>
        <path id="Trazado_893669" data-name="Trazado 893669" d="M136.016,208.147l-1.661-.482c7.366-25.317-16.08-46.491-38.752-66.967-14.981-13.528-29.129-26.307-35.317-40.341-.126-.219-3.912-7.316-2.759-30.337l1.724.085C58.134,92.481,61.8,99.524,61.834,99.591c6.072,13.766,20.089,26.423,34.928,39.826,23.067,20.832,46.921,42.373,39.254,68.729" transform="translate(-54.647 -31.816)" fill="#12263f"/>
        <path id="Trazado_893670" data-name="Trazado 893670" d="M136.016,219.8l-1.661-.482C141.722,194,118.276,172.83,95.6,152.354c-14.981-13.528-29.129-26.307-35.317-40.341-.126-.219-3.912-7.316-2.759-30.337l1.724.085c-1.118,22.376,2.545,29.419,2.581,29.487,6.072,13.766,20.089,26.423,34.928,39.826,23.067,20.832,46.921,42.373,39.254,68.729" transform="translate(-54.647 -23.332)" fill="#161615"/>
        <path id="Trazado_893671" data-name="Trazado 893671" d="M136.016,231.4l-1.661-.482c7.366-25.317-16.08-46.491-38.752-66.967-14.981-13.528-29.129-26.307-35.317-40.341-.126-.219-3.912-7.316-2.759-30.337l1.724.085c-1.118,22.376,2.545,29.419,2.581,29.487,6.072,13.766,20.089,26.423,34.928,39.826,23.067,20.832,46.921,42.373,39.254,68.729" transform="translate(-54.647 -14.889)" fill="#12263f"/>
        <path id="Trazado_893672" data-name="Trazado 893672" d="M136.016,243.309l-1.661-.482c7.366-25.317-16.08-46.491-38.752-66.967-14.981-13.528-29.129-26.307-35.317-40.341-.126-.219-3.912-7.316-2.759-30.337l1.724.085c-1.118,22.376,2.545,29.419,2.581,29.487,6.072,13.766,20.089,26.423,34.928,39.826,23.067,20.832,46.921,42.373,39.254,68.729" transform="translate(-54.647 -6.222)" fill="#12263f"/>
        <path id="Trazado_893673" data-name="Trazado 893673" d="M136.016,255.3l-1.661-.482c7.366-25.317-16.08-46.491-38.752-66.967-14.981-13.528-29.129-26.307-35.317-40.341-.126-.219-3.912-7.316-2.759-30.337l1.724.085c-1.118,22.376,2.545,29.419,2.581,29.487,6.072,13.766,20.089,26.423,34.928,39.826,23.067,20.832,46.921,42.373,39.254,68.729" transform="translate(-54.647 2.508)" fill="#12263f"/>
        <path id="Trazado_893674" data-name="Trazado 893674" d="M136.016,266.2l-1.661-.482c7.366-25.317-16.08-46.491-38.752-66.967-14.981-13.528-29.129-26.307-35.317-40.341-.126-.219-3.912-7.316-2.759-30.337l1.724.085c-1.118,22.376,2.545,29.419,2.581,29.487,6.072,13.766,20.089,26.423,34.928,39.826,23.067,20.832,46.921,42.373,39.254,68.729" transform="translate(-54.647 10.444)" fill="#12263f"/>
        <path id="Trazado_893675" data-name="Trazado 893675" d="M136.016,277.861l-1.661-.482c7.366-25.317-16.08-46.491-38.752-66.967C80.623,196.884,66.475,184.1,60.287,170.071c-.126-.219-3.912-7.316-2.759-30.337l1.724.086c-1.118,22.375,2.545,29.418,2.581,29.485,6.072,13.766,20.089,26.423,34.928,39.826,23.067,20.832,46.921,42.373,39.254,68.729" transform="translate(-54.647 18.929)" fill="#12263f"/>
        <path id="Trazado_893676" data-name="Trazado 893676" d="M136.016,289.459l-1.661-.482c7.366-25.317-16.08-46.491-38.752-66.967C80.623,208.482,66.475,195.7,60.287,181.669c-.126-.219-3.912-7.316-2.759-30.337l1.724.085c-1.118,22.376,2.545,29.419,2.581,29.487,6.072,13.766,20.089,26.423,34.928,39.826,23.067,20.832,46.921,42.373,39.254,68.729" transform="translate(-54.647 27.371)" fill="#12263f"/>
      </g>
    </g>
    <path id="Trazado_893677" data-name="Trazado 893677" d="M102.964,247.419c-13.5,0-28.576-6.032-44.965-18.013l2.037-2.789c19.316,14.115,36.554,19.664,51.229,16.472a36.68,36.68,0,0,0,22.686-15.767c7.026-24.709-16.149-45.636-38.562-65.878-15.052-13.592-29.267-26.43-35.529-40.635-.1-.156-3.995-7.463-2.832-30.729l.017-.339.143-.306A36.261,36.261,0,0,1,79.973,71.4c15.933-4.232,35.339,1.6,57.676,17.35l-1.991,2.825c-21.429-15.107-39.852-20.775-54.733-16.85a33.5,33.5,0,0,0-20.464,15.89c-1.04,21.7,2.462,28.6,2.5,28.671,6.027,13.654,19.976,26.252,34.745,39.59,23.264,21.011,47.322,42.738,39.5,69.614l-.149.358a39.412,39.412,0,0,1-24.991,17.6,42.4,42.4,0,0,1-9.1.969" transform="translate(426.683 1497.219)" fill="#c2d960"/>
  </g>
</svg>
