<svg xmlns="http://www.w3.org/2000/svg" xmlns:xlink="http://www.w3.org/1999/xlink" width="400.378" height="233" viewBox="0 0 400.378 233">
  <defs>
    <clipPath id="clip-path">
      <path id="path3093" d="M0-682.665H44.626v44.626H0Z" transform="translate(0 682.665)"/>
    </clipPath>
  </defs>
  <g id="Grupo_1102139" data-name="Grupo 1102139" transform="translate(-599.622 -2171.7)">
    <path id="Trazado_893657" data-name="Trazado 893657" d="M23,0H376.622a23,23,0,0,1,23,23V48a23,23,0,0,1-23,23H23A23,23,0,0,1,0,48V23A23,23,0,0,1,23,0Z" transform="translate(599.622 2171.7)" fill="#b4d5f6"/>
    <path id="Trazado_893654" data-name="Trazado 893654" d="M23,0H377.378a23,23,0,0,1,23,23V48a23,23,0,0,1-23,23H23A23,23,0,0,1,0,48V23A23,23,0,0,1,23,0Z" transform="translate(599.622 2252.7)" fill="#b4d5f6"/>
    <path id="Trazado_893653" data-name="Trazado 893653" d="M23,0H376.622a23,23,0,0,1,23,23V48a23,23,0,0,1-23,23H23A23,23,0,0,1,0,48V23A23,23,0,0,1,23,0Z" transform="translate(599.622 2333.7)" fill="#b4d5f6"/>
    <path id="Trazado_893658" data-name="Trazado 893658" d="M6.914,12.016A1.2,1.2,0,0,0,6.445,11a6.148,6.148,0,0,0-1.687-.75,11.963,11.963,0,0,1-1.93-.777A3.153,3.153,0,0,1,.891,6.648,2.747,2.747,0,0,1,1.41,5,3.389,3.389,0,0,1,2.9,3.875a5.616,5.616,0,0,1,2.184-.406,5.112,5.112,0,0,1,2.172.441,3.458,3.458,0,0,1,1.48,1.246,3.261,3.261,0,0,1,.527,1.828H6.922A1.534,1.534,0,0,0,6.43,5.77a2.023,2.023,0,0,0-1.383-.434A2.162,2.162,0,0,0,3.711,5.7a1.146,1.146,0,0,0-.477.957,1.1,1.1,0,0,0,.559.93,6.311,6.311,0,0,0,1.645.7A7.106,7.106,0,0,1,8.352,9.781,2.972,2.972,0,0,1,9.266,12a2.737,2.737,0,0,1-1.117,2.316,4.891,4.891,0,0,1-3.008.84,5.808,5.808,0,0,1-2.391-.48,3.783,3.783,0,0,1-1.645-1.316,3.371,3.371,0,0,1-.566-1.937H2.891q0,1.883,2.25,1.883a2.189,2.189,0,0,0,1.3-.34A1.106,1.106,0,0,0,6.914,12.016Zm8.852,2.125a2.831,2.831,0,0,1-2.312,1.016,2.67,2.67,0,0,1-2.074-.781,3.335,3.335,0,0,1-.73-2.289V6.547h2.258v5.467q0,1.322,1.2,1.322a1.63,1.63,0,0,0,1.578-.8V6.547h2.266V15H15.828Zm11.508-3.289a5.119,5.119,0,0,1-.867,3.168,2.872,2.872,0,0,1-2.422,1.137,2.639,2.639,0,0,1-2.2-1.055l-.1.9H19.656V3h2.258V7.3a2.571,2.571,0,0,1,2.055-.914,2.9,2.9,0,0,1,2.426,1.137,5.126,5.126,0,0,1,.879,3.2Zm-2.258-.164a3.363,3.363,0,0,0-.406-1.871,1.374,1.374,0,0,0-1.211-.59,1.489,1.489,0,0,0-1.484.883v3.336a1.509,1.509,0,0,0,1.5.891,1.394,1.394,0,0,0,1.438-1.078A5.562,5.562,0,0,0,25.016,10.688Zm8.227,1.977a.727.727,0,0,0-.41-.652,4.659,4.659,0,0,0-1.316-.426Q28.5,10.953,28.5,9.023a2.323,2.323,0,0,1,.934-1.879,3.766,3.766,0,0,1,2.441-.754,4.053,4.053,0,0,1,2.574.758,2.388,2.388,0,0,1,.965,1.969H33.156a1.092,1.092,0,0,0-.312-.8A1.322,1.322,0,0,0,31.867,8a1.351,1.351,0,0,0-.883.258.814.814,0,0,0-.312.656.7.7,0,0,0,.355.605,3.657,3.657,0,0,0,1.2.4,9.8,9.8,0,0,1,1.422.379,2.336,2.336,0,0,1,1.789,2.273,2.2,2.2,0,0,1-.992,1.871,4.28,4.28,0,0,1-2.562.715A4.47,4.47,0,0,1,30,14.777,3.166,3.166,0,0,1,28.7,13.738a2.414,2.414,0,0,1-.469-1.426h2.141a1.179,1.179,0,0,0,.445.922,1.766,1.766,0,0,0,1.109.32,1.635,1.635,0,0,0,.98-.246A.766.766,0,0,0,33.242,12.664Zm6.352-8.2V6.547h1.445V8.2H39.594v4.219a1.007,1.007,0,0,0,.18.672.9.9,0,0,0,.688.2,3.6,3.6,0,0,0,.664-.055v1.711a4.648,4.648,0,0,1-1.367.2,2.156,2.156,0,0,1-2.422-2.4V8.2H36.1V6.547h1.234V4.469Zm7.453,4.2a6.134,6.134,0,0,0-.812-.062,1.654,1.654,0,0,0-1.68.867V15H42.3V6.547H44.43l.063,1.008a2.092,2.092,0,0,1,1.883-1.164,2.366,2.366,0,0,1,.7.1ZM52.8,15a2.507,2.507,0,0,1-.227-.758,2.732,2.732,0,0,1-2.133.914,3,3,0,0,1-2.059-.719,2.312,2.312,0,0,1-.816-1.812,2.389,2.389,0,0,1,1-2.062,4.915,4.915,0,0,1,2.879-.727h1.039V9.352a1.393,1.393,0,0,0-.3-.937,1.183,1.183,0,0,0-.949-.352,1.345,1.345,0,0,0-.895.273.929.929,0,0,0-.324.75H47.75A2.268,2.268,0,0,1,48.2,7.727a3,3,0,0,1,1.281-.98,4.669,4.669,0,0,1,1.859-.355,3.689,3.689,0,0,1,2.48.785,2.747,2.747,0,0,1,.918,2.207v3.664a4.041,4.041,0,0,0,.336,1.82V15ZM50.93,13.43a1.945,1.945,0,0,0,.922-.223,1.462,1.462,0,0,0,.625-.6V11.156h-.844q-1.7,0-1.8,1.172l-.008.133a.9.9,0,0,0,.3.7A1.153,1.153,0,0,0,50.93,13.43Zm8.25-8.961V6.547h1.445V8.2H59.18v4.219a1.007,1.007,0,0,0,.18.672.9.9,0,0,0,.688.2,3.6,3.6,0,0,0,.664-.055v1.711a4.648,4.648,0,0,1-1.367.2,2.156,2.156,0,0,1-2.422-2.4V8.2H55.688V6.547h1.234V4.469ZM61.3,10.7a5.013,5.013,0,0,1,.484-2.242A3.546,3.546,0,0,1,63.176,6.93a4.069,4.069,0,0,1,2.113-.539,3.849,3.849,0,0,1,2.793,1.047,4.2,4.2,0,0,1,1.207,2.844l.016.578a4.418,4.418,0,0,1-1.086,3.121,4.209,4.209,0,0,1-5.832,0A4.5,4.5,0,0,1,61.3,10.8Zm2.258.16a3.16,3.16,0,0,0,.453,1.843,1.628,1.628,0,0,0,2.578.008,3.457,3.457,0,0,0,.461-2.015,3.128,3.128,0,0,0-.461-1.831,1.5,1.5,0,0,0-1.3-.649,1.474,1.474,0,0,0-1.281.646A3.516,3.516,0,0,0,63.555,10.856Z" transform="translate(725.622 2196.132)" fill="#12263f"/>
    <path id="Trazado_893655" data-name="Trazado 893655" d="M9.945,11.211A4.025,4.025,0,0,1,8.59,14.1a4.76,4.76,0,0,1-3.223,1.055,4.28,4.28,0,0,1-3.441-1.473A6.038,6.038,0,0,1,.672,9.641v-.7A6.819,6.819,0,0,1,1.25,6.055,4.332,4.332,0,0,1,2.9,4.137a4.629,4.629,0,0,1,2.5-.668A4.637,4.637,0,0,1,8.57,4.523,4.326,4.326,0,0,1,9.961,7.484H7.617A2.376,2.376,0,0,0,7,5.887a2.271,2.271,0,0,0-1.605-.5,1.991,1.991,0,0,0-1.754.84,4.707,4.707,0,0,0-.6,2.605V9.7a5.038,5.038,0,0,0,.559,2.7,1.954,1.954,0,0,0,1.762.852,2.314,2.314,0,0,0,1.621-.5A2.241,2.241,0,0,0,7.6,11.211Zm1.039-.516a5.013,5.013,0,0,1,.484-2.242A3.546,3.546,0,0,1,12.863,6.93a4.069,4.069,0,0,1,2.113-.539A3.849,3.849,0,0,1,17.77,7.438a4.2,4.2,0,0,1,1.207,2.844l.016.578a4.418,4.418,0,0,1-1.086,3.121,3.775,3.775,0,0,1-2.914,1.176,3.793,3.793,0,0,1-2.918-1.172,4.5,4.5,0,0,1-1.09-3.187Zm2.258.16A3.16,3.16,0,0,0,13.7,12.7a1.628,1.628,0,0,0,2.578.008,3.457,3.457,0,0,0,.461-2.015,3.128,3.128,0,0,0-.461-1.831,1.5,1.5,0,0,0-1.3-.649,1.474,1.474,0,0,0-1.281.646A3.516,3.516,0,0,0,13.242,10.856Zm9.219-4.309.07.977a2.951,2.951,0,0,1,2.43-1.133,2.453,2.453,0,0,1,2,.789,3.682,3.682,0,0,1,.672,2.359V15H25.375V9.594a1.465,1.465,0,0,0-.312-1.043,1.4,1.4,0,0,0-1.039-.324,1.553,1.553,0,0,0-1.43.813V15H20.336V6.547Zm11.461,6.117a.727.727,0,0,0-.41-.652,4.659,4.659,0,0,0-1.316-.426q-3.016-.633-3.016-2.562a2.323,2.323,0,0,1,.934-1.879,3.766,3.766,0,0,1,2.441-.754,4.053,4.053,0,0,1,2.574.758,2.388,2.388,0,0,1,.965,1.969H33.836a1.092,1.092,0,0,0-.312-.8A1.322,1.322,0,0,0,32.547,8a1.351,1.351,0,0,0-.883.258.814.814,0,0,0-.312.656.7.7,0,0,0,.355.605,3.657,3.657,0,0,0,1.2.4,9.8,9.8,0,0,1,1.422.379,2.336,2.336,0,0,1,1.789,2.273,2.2,2.2,0,0,1-.992,1.871,4.28,4.28,0,0,1-2.562.715,4.47,4.47,0,0,1-1.887-.379,3.166,3.166,0,0,1-1.293-1.039,2.414,2.414,0,0,1-.469-1.426h2.141a1.179,1.179,0,0,0,.445.922,1.766,1.766,0,0,0,1.109.32,1.635,1.635,0,0,0,.98-.246A.766.766,0,0,0,33.922,12.664Zm6.352-8.2V6.547h1.445V8.2H40.273v4.219a1.007,1.007,0,0,0,.18.672.9.9,0,0,0,.688.2,3.6,3.6,0,0,0,.664-.055v1.711a4.648,4.648,0,0,1-1.367.2,2.156,2.156,0,0,1-2.422-2.4V8.2H36.781V6.547h1.234V4.469Zm7.453,4.2a6.134,6.134,0,0,0-.812-.062,1.654,1.654,0,0,0-1.68.867V15H42.977V6.547h2.133l.063,1.008a2.092,2.092,0,0,1,1.883-1.164,2.366,2.366,0,0,1,.7.1Zm6.148,5.477a2.831,2.831,0,0,1-2.312,1.016,2.67,2.67,0,0,1-2.074-.781,3.335,3.335,0,0,1-.73-2.289V6.547h2.258v5.467q0,1.322,1.2,1.322a1.63,1.63,0,0,0,1.578-.8V6.547h2.266V15H53.938Zm7.406-.8a1.481,1.481,0,0,0,1.016-.344,1.2,1.2,0,0,0,.406-.914H64.82a2.9,2.9,0,0,1-.469,1.574,3.093,3.093,0,0,1-1.262,1.109,3.949,3.949,0,0,1-1.77.395A3.67,3.67,0,0,1,58.461,14a4.56,4.56,0,0,1-1.047-3.184v-.148a4.508,4.508,0,0,1,1.039-3.117A3.627,3.627,0,0,1,61.3,6.391a3.555,3.555,0,0,1,2.543.9,3.2,3.2,0,0,1,.973,2.4H62.7A1.551,1.551,0,0,0,62.3,8.623a1.51,1.51,0,0,0-2.223.163,3.333,3.333,0,0,0-.4,1.866v.235a3.375,3.375,0,0,0,.4,1.878A1.377,1.377,0,0,0,61.281,13.336Zm8.344,0a1.481,1.481,0,0,0,1.016-.344,1.2,1.2,0,0,0,.406-.914h2.117a2.9,2.9,0,0,1-.469,1.574,3.093,3.093,0,0,1-1.262,1.109,3.949,3.949,0,0,1-1.77.395A3.67,3.67,0,0,1,66.8,14a4.56,4.56,0,0,1-1.047-3.184v-.148A4.508,4.508,0,0,1,66.8,7.555a3.627,3.627,0,0,1,2.852-1.164,3.555,3.555,0,0,1,2.543.9,3.2,3.2,0,0,1,.973,2.4H71.047a1.551,1.551,0,0,0-.406-1.072,1.51,1.51,0,0,0-2.223.163,3.333,3.333,0,0,0-.4,1.866v.235a3.375,3.375,0,0,0,.4,1.878A1.377,1.377,0,0,0,69.625,13.336ZM76.836,15H74.57V6.547h2.266Zm-2.4-10.641a1.112,1.112,0,0,1,.34-.836,1.465,1.465,0,0,1,1.848,0,1.105,1.105,0,0,1,.344.836,1.108,1.108,0,0,1-.348.844,1.448,1.448,0,0,1-1.836,0A1.108,1.108,0,0,1,74.438,4.359ZM78.344,10.7a5.013,5.013,0,0,1,.484-2.242A3.546,3.546,0,0,1,80.223,6.93a4.069,4.069,0,0,1,2.113-.539,3.849,3.849,0,0,1,2.793,1.047,4.2,4.2,0,0,1,1.207,2.844l.016.578a4.418,4.418,0,0,1-1.086,3.121,4.209,4.209,0,0,1-5.832,0,4.5,4.5,0,0,1-1.09-3.187Zm2.258.16a3.16,3.16,0,0,0,.453,1.843,1.628,1.628,0,0,0,2.578.008,3.457,3.457,0,0,0,.461-2.015,3.128,3.128,0,0,0-.461-1.831,1.5,1.5,0,0,0-1.3-.649,1.474,1.474,0,0,0-1.281.646A3.516,3.516,0,0,0,80.6,10.856ZM82.781,3h2.461L83.078,5.422H81.242ZM89.82,6.547l.07.977a2.951,2.951,0,0,1,2.43-1.133,2.453,2.453,0,0,1,2,.789,3.682,3.682,0,0,1,.672,2.359V15H92.734V9.594a1.465,1.465,0,0,0-.312-1.043,1.4,1.4,0,0,0-1.039-.324,1.553,1.553,0,0,0-1.43.813V15H87.7V6.547Z" transform="translate(725.622 2277.132)" fill="#12263f"/>
    <path id="Trazado_893656" data-name="Trazado 893656" d="M9.578,5.523H6.094V15H3.75V5.523H.313v-1.9H9.578Zm4.383,9.633a4.15,4.15,0,0,1-3.027-1.141,4.054,4.054,0,0,1-1.168-3.039v-.219a5.106,5.106,0,0,1,.492-2.277,3.612,3.612,0,0,1,1.395-1.547,3.914,3.914,0,0,1,2.059-.543,3.508,3.508,0,0,1,2.73,1.094,4.444,4.444,0,0,1,1,3.1v.922H12.055a2.1,2.1,0,0,0,.66,1.328,2,2,0,0,0,1.395.5,2.437,2.437,0,0,0,2.039-.945l1.109,1.242a3.389,3.389,0,0,1-1.375,1.121A4.511,4.511,0,0,1,13.961,15.156ZM13.7,8.211a1.411,1.411,0,0,0-1.09.455,2.357,2.357,0,0,0-.535,1.3h3.141V9.788a1.681,1.681,0,0,0-.406-1.165A1.456,1.456,0,0,0,13.7,8.211Zm9.766.453a6.134,6.134,0,0,0-.812-.062,1.654,1.654,0,0,0-1.68.867V15H18.719V6.547h2.133l.063,1.008A2.092,2.092,0,0,1,22.8,6.391a2.366,2.366,0,0,1,.7.1Zm3.2-2.117.07.945a2.971,2.971,0,0,1,2.43-1.1A2.255,2.255,0,0,1,31.414,7.68a2.9,2.9,0,0,1,2.539-1.289,2.521,2.521,0,0,1,2.047.8,3.681,3.681,0,0,1,.672,2.41V15H34.406V9.609a1.61,1.61,0,0,0-.281-1.051,1.246,1.246,0,0,0-.992-.332,1.409,1.409,0,0,0-1.406.969l.008,5.8H29.477V9.617a1.59,1.59,0,0,0-.289-1.062,1.259,1.259,0,0,0-.984-.328,1.463,1.463,0,0,0-1.391.8V15H24.555V6.547ZM40.789,15H38.523V6.547h2.266Zm-2.4-10.641a1.112,1.112,0,0,1,.34-.836,1.465,1.465,0,0,1,1.848,0,1.105,1.105,0,0,1,.344.836,1.108,1.108,0,0,1-.348.844,1.448,1.448,0,0,1-1.836,0A1.108,1.108,0,0,1,38.391,4.359Zm6.336,2.188.07.977a2.951,2.951,0,0,1,2.43-1.133,2.453,2.453,0,0,1,2,.789A3.682,3.682,0,0,1,49.9,9.539V15H47.641V9.594a1.465,1.465,0,0,0-.312-1.043,1.4,1.4,0,0,0-1.039-.324,1.553,1.553,0,0,0-1.43.813V15H42.6V6.547ZM56.508,15a2.507,2.507,0,0,1-.227-.758,2.732,2.732,0,0,1-2.133.914,3,3,0,0,1-2.059-.719,2.312,2.312,0,0,1-.816-1.812,2.389,2.389,0,0,1,1-2.062,4.915,4.915,0,0,1,2.879-.727h1.039V9.352a1.393,1.393,0,0,0-.3-.937,1.183,1.183,0,0,0-.949-.352,1.345,1.345,0,0,0-.895.273.929.929,0,0,0-.324.75H51.461a2.268,2.268,0,0,1,.453-1.359,3,3,0,0,1,1.281-.98,4.669,4.669,0,0,1,1.859-.355,3.689,3.689,0,0,1,2.48.785,2.747,2.747,0,0,1,.918,2.207v3.664a4.041,4.041,0,0,0,.336,1.82V15Zm-1.867-1.57a1.945,1.945,0,0,0,.922-.223,1.462,1.462,0,0,0,.625-.6V11.156h-.844q-1.7,0-1.8,1.172l-.008.133a.9.9,0,0,0,.3.7A1.153,1.153,0,0,0,54.641,13.43Zm5.2-2.719a5.094,5.094,0,0,1,.887-3.148,2.877,2.877,0,0,1,2.426-1.172,2.589,2.589,0,0,1,2.039.922V3h2.266V15H65.414l-.109-.9a2.657,2.657,0,0,1-2.172,1.055,2.869,2.869,0,0,1-2.395-1.176A5.258,5.258,0,0,1,59.836,10.711Zm2.258.168a3.337,3.337,0,0,0,.414,1.823,1.349,1.349,0,0,0,1.2.634,1.511,1.511,0,0,0,1.477-.884V9.111a1.489,1.489,0,0,0-1.461-.884Q62.094,8.227,62.094,10.879Zm6.758-.184a5.013,5.013,0,0,1,.484-2.242A3.546,3.546,0,0,1,70.73,6.93a4.069,4.069,0,0,1,2.113-.539,3.849,3.849,0,0,1,2.793,1.047,4.2,4.2,0,0,1,1.207,2.844l.016.578a4.418,4.418,0,0,1-1.086,3.121,4.209,4.209,0,0,1-5.832,0,4.5,4.5,0,0,1-1.09-3.187Zm2.258.16a3.16,3.16,0,0,0,.453,1.843,1.628,1.628,0,0,0,2.578.008,3.457,3.457,0,0,0,.461-2.015,3.128,3.128,0,0,0-.461-1.831,1.5,1.5,0,0,0-1.3-.649,1.474,1.474,0,0,0-1.281.646A3.516,3.516,0,0,0,71.109,10.856Z" transform="translate(725.622 2358.132)" fill="#12263f"/>
    <g id="Grupo_1101985" data-name="Grupo 1101985" transform="translate(692.808 2202.699)">
      <path id="Trazado_893051" data-name="Trazado 893051" d="M408.268,232.257h10.641a1.235,1.235,0,0,1,1.235,1.235v9.776a1.235,1.235,0,0,1-1.235,1.235H408.268Z" transform="translate(-408.268 -232.257)" fill="#ecbe6b"/>
    </g>
    <g id="Grupo_1101987" data-name="Grupo 1101987" transform="translate(692.808 2202.699)">
      <path id="Trazado_893053" data-name="Trazado 893053" d="M418.909,232.257h-1.687v8.091a1.234,1.234,0,0,1-1.234,1.234h-7.721V244.5h10.642a1.234,1.234,0,0,0,1.234-1.234v-9.778a1.234,1.234,0,0,0-1.234-1.234Z" transform="translate(-408.267 -232.257)" fill="#eab14d"/>
    </g>
    <g id="Grupo_1101988" data-name="Grupo 1101988" transform="translate(651.811 2196.402)">
      <path id="Trazado_893054" data-name="Trazado 893054" d="M115.593,206.119H81.3a4.937,4.937,0,0,1-4.937-4.937V186.215A4.938,4.938,0,0,1,81,181.287l34.594-.009a4.937,4.937,0,0,1,4.937,4.937v14.966A4.937,4.937,0,0,1,115.593,206.119Z" transform="translate(-76.36 -181.278)" fill="#cbe2ff"/>
    </g>
    <g id="Grupo_1101989" data-name="Grupo 1101989" transform="translate(651.811 2196.402)">
      <path id="Trazado_893055" data-name="Trazado 893055" d="M115.593,181.278h-.3v8.452a11.149,11.149,0,0,1-11.149,11.149H76.36v.3a4.937,4.937,0,0,0,4.937,4.937h34.3a4.937,4.937,0,0,0,4.937-4.937V186.215a4.937,4.937,0,0,0-4.937-4.937Z" transform="translate(-76.36 -181.278)" fill="#9dc6fb"/>
    </g>
    <path id="Trazado_893056" data-name="Trazado 893056" d="M61.072,108.4H54.528v-.434a5.845,5.845,0,0,0-1.759-4.182l3.4-3.4a2.589,2.589,0,0,0,.594.065c1.987,0,4.762-1.86,5.477-2.576h0a3.443,3.443,0,0,0-4.869-4.869c-.79.79-2.974,4.09-2.509,6.069L51.236,102.7a5.827,5.827,0,0,0-2.572-.6h-34.3a5.87,5.87,0,0,0-5.863,5.863v.434H2.16A2.163,2.163,0,0,0,0,110.559v9.778a2.163,2.163,0,0,0,2.16,2.16H8.506v.434a5.87,5.87,0,0,0,5.863,5.863H21.5a.926.926,0,1,0,0-1.852H14.369a4.016,4.016,0,0,1-4.011-4.011V121l.023-.021,10.844-10.844,1.453,1.453L14.971,119.3a.926.926,0,1,0,1.309,1.309l7.707-7.707,1.453,1.453-2.994,2.994a.926.926,0,1,0,1.309,1.309l2.994-2.994,2.994,2.994a.926.926,0,1,0,1.309-1.309L17.659,103.953h2.907L35.273,118.66,23,130.934a.926.926,0,1,0,1.309,1.309L36.582,119.97l3.838,3.838a.926.926,0,0,0,1.309-1.309L23.184,103.953h2.907l18.6,18.6A.926.926,0,1,0,46,121.241L28.709,103.953h2.907l14.7,14.7a.926.926,0,1,0,1.309-1.309l-4.212-4.212,8.044-8.044a4,4,0,0,1,1.216,2.873v14.966a4.016,4.016,0,0,1-4.011,4.011H33.388a.926.926,0,1,0,0,1.852H48.665a5.87,5.87,0,0,0,5.863-5.863V122.5h6.544a2.163,2.163,0,0,0,2.16-2.16v-9.778a2.163,2.163,0,0,0-2.16-2.16Zm-2.4-14.083a1.592,1.592,0,1,1,2.251,2.251c-.962.962-3.6,2.2-4.289,2.038C56.474,97.913,57.714,95.278,58.676,94.316Zm-22.329,11.75,2.113-2.113h2.907L37.8,107.519ZM2.16,120.645a.309.309,0,0,1-.309-.309v-9.778a.309.309,0,0,1,.309-.309H8.506v10.4H2.16Zm17.756-11.817-9.558,9.558V107.964a4.016,4.016,0,0,1,4.011-4.011h.671Zm15.926-4.876-.8.8-.8-.8Zm6.266,7.873-3-3,4.875-4.876h4.68a4,4,0,0,1,1.148.168Zm19.273,8.511a.309.309,0,0,1-.309.309H54.528v-10.4h6.544a.309.309,0,0,1,.309.309Z" transform="translate(642.378 2093.375)"/>
    <path id="path3083" d="M13.333-636.908H34.775v-32.424H13.333Z" transform="translate(648.534 3015.522)" fill="#ffa2c3"/>
    <path id="path3085" d="M181.333-565.487h21.441v-7.844H181.333Z" transform="translate(491.516 2925.798)" fill="#eefaff"/>
    <path id="path3087" d="M349.332-461.955h20.918v-31.378H349.332Z" transform="translate(334.499 2851.028)" fill="#ffa2c3"/>
    <g id="g3089" transform="translate(660.996 2345.319)">
      <g id="g3091" clip-path="url(#clip-path)">
        <g id="g3097" transform="translate(22.836 33.295)">
          <path id="path3099" d="M-299.081,0V10.459H-320V0c2.042,0,3.187,5.23,5.23,5.23S-311.582,0-309.54,0s3.187,5.23,5.23,5.23S-301.123,0-299.081,0" transform="translate(319.999)" fill="#ffda8f"/>
        </g>
        <g id="g3101" transform="translate(22.836 17.606)">
          <path id="path3103" d="M-299.081,0V7.844c-2.042,0-3.187,5.23-5.23,5.23s-3.187-5.23-5.23-5.23-3.187,5.23-5.23,5.23-3.187-5.23-5.23-5.23V0c2.042,0,3.187,5.23,5.23,5.23S-311.582,0-309.54,0s3.187,5.23,5.23,5.23S-301.123,0-299.081,0" transform="translate(319.999)" fill="#ffda8f"/>
        </g>
        <path id="path3105" d="M192.315-205.488H181.333v-7.844h10.982Z" transform="translate(-169.479 244.013)" fill="#91def5"/>
        <path id="path3107" d="M192.315-325.488H181.333v-7.844h10.982Z" transform="translate(-169.479 356.168)" fill="#eefaff"/>
        <path id="path3109" d="M192.315-445.488H181.333v-7.844h10.982Z" transform="translate(-169.479 468.324)" fill="#91def5"/>
        <g id="g3111" transform="translate(21.964 16.735)">
          <path id="path3113" d="M-316.772-6.361c-1.511,0-2.45-1.542-3.359-3.033-.565-.927-1.339-2.2-1.871-2.2s-1.305,1.27-1.871,2.2c-.909,1.491-1.849,3.033-3.359,3.033s-2.45-1.542-3.359-3.033c-.565-.927-1.339-2.2-1.871-2.2a.872.872,0,0,1-.872-.872.872.872,0,0,1,.872-.872c1.511,0,2.45,1.542,3.359,3.033.565.927,1.339,2.2,1.871,2.2s1.305-1.27,1.871-2.2c.909-1.491,1.849-3.033,3.359-3.033s2.45,1.542,3.359,3.033c.565.927,1.339,2.2,1.871,2.2s1.305-1.27,1.871-2.2c.909-1.491,1.848-3.033,3.359-3.033a.872.872,0,0,1,.872.872.872.872,0,0,1-.872.872c-.532,0-1.305,1.27-1.871,2.2C-314.322-7.9-315.262-6.361-316.772-6.361Z" transform="translate(333.333 13.333)"/>
        </g>
        <g id="g3115" transform="translate(21.964 24.579)">
          <path id="path3117" d="M-316.772-6.361c-1.511,0-2.45-1.542-3.359-3.033-.565-.927-1.339-2.2-1.871-2.2s-1.305,1.27-1.871,2.2c-.909,1.491-1.849,3.033-3.359,3.033s-2.45-1.542-3.359-3.033c-.565-.927-1.339-2.2-1.871-2.2a.872.872,0,0,1-.872-.872.872.872,0,0,1,.872-.872c1.511,0,2.45,1.542,3.359,3.033.565.927,1.339,2.2,1.871,2.2s1.305-1.27,1.871-2.2c.909-1.491,1.849-3.033,3.359-3.033s2.45,1.542,3.359,3.033c.565.927,1.339,2.2,1.871,2.2s1.305-1.27,1.871-2.2c.909-1.491,1.848-3.033,3.359-3.033a.872.872,0,0,1,.872.872.872.872,0,0,1-.872.872c-.532,0-1.305,1.27-1.871,2.2C-314.322-7.9-315.262-6.361-316.772-6.361Z" transform="translate(333.333 13.333)"/>
        </g>
        <g id="g3119" transform="translate(21.964 32.424)">
          <path id="path3121" d="M-316.772-6.361c-1.511,0-2.45-1.542-3.359-3.033-.565-.927-1.339-2.2-1.871-2.2s-1.305,1.27-1.871,2.2c-.909,1.491-1.849,3.033-3.359,3.033s-2.45-1.542-3.359-3.033c-.565-.927-1.339-2.2-1.871-2.2a.872.872,0,0,1-.872-.872.872.872,0,0,1,.872-.872c1.511,0,2.45,1.542,3.359,3.033.565.927,1.339,2.2,1.871,2.2s1.305-1.27,1.871-2.2c.909-1.491,1.849-3.033,3.359-3.033s2.45,1.542,3.359,3.033c.565.927,1.339,2.2,1.871,2.2s1.305-1.27,1.871-2.2c.909-1.491,1.848-3.033,3.359-3.033a.872.872,0,0,1,.872.872.872.872,0,0,1-.872.872c-.532,0-1.305,1.27-1.871,2.2C-314.322-7.9-315.262-6.361-316.772-6.361Z" transform="translate(333.333 13.333)"/>
        </g>
        <g id="g3123" transform="translate(0 0)">
          <path id="path3125" d="M-169.479-475.165h-10.982a.872.872,0,0,1-.872-.872v-32.424a.872.872,0,0,1,.872-.872h21.441a.872.872,0,0,1,.872.872v6.276a.872.872,0,0,1-.872.872.872.872,0,0,1-.872-.872v-5.4h-19.7v30.68h10.111a.872.872,0,0,1,.872.872A.872.872,0,0,1-169.479-475.165Z" transform="translate(181.333 509.332)"/>
        </g>
        <g id="g3127" transform="translate(10.982 6.276)">
          <path id="path3129" d="M-169.479-460.211h-10.982a.872.872,0,0,1-.872-.872v-31.378a.872.872,0,0,1,.872-.872h21.441a.872.872,0,0,1,.872.872v5.23a.872.872,0,0,1-.872.872.872.872,0,0,1-.872-.872v-4.358h-19.7v29.634h10.111a.872.872,0,0,1,.872.872A.872.872,0,0,1-169.479-460.211Z" transform="translate(181.333 493.332)"/>
        </g>
        <g id="g3131" transform="translate(10.982 14.12)">
          <path id="path3133" d="M-1.48-11.59H-12.462a.872.872,0,0,1-.872-.872.872.872,0,0,1,.872-.872H-1.48a.872.872,0,0,1,.872.872A.872.872,0,0,1-1.48-11.59Z" transform="translate(13.333 13.333)"/>
        </g>
        <g id="g3135" transform="translate(10.982 21.964)">
          <path id="path3137" d="M-1.48-11.59H-12.462a.872.872,0,0,1-.872-.872.872.872,0,0,1,.872-.872H-1.48a.872.872,0,0,1,.872.872A.872.872,0,0,1-1.48-11.59Z" transform="translate(13.333 13.333)"/>
        </g>
        <g id="g3139" transform="translate(10.982 29.809)">
          <path id="path3141" d="M-1.48-11.59H-12.462a.872.872,0,0,1-.872-.872.872.872,0,0,1,.872-.872H-1.48a.872.872,0,0,1,.872.872A.872.872,0,0,1-1.48-11.59Z" transform="translate(13.333 13.333)"/>
        </g>
        <g id="g3143" transform="translate(32.424 42.883)">
          <path id="path3145" d="M-24.923-12.462a.872.872,0,0,1-.872.872.872.872,0,0,1-.872-.872.872.872,0,0,1,.872-.872.872.872,0,0,1,.872.872" transform="translate(26.667 13.333)"/>
        </g>
        <g id="g3147" transform="translate(21.964 11.505)">
          <path id="path3149" d="M-91.543-460.211H-98.08a.872.872,0,0,1-.872-.872.872.872,0,0,1,.872-.872h5.665v-29.634H-111.59v29.634h5.665a.872.872,0,0,1,.872.872.872.872,0,0,1-.872.872h-6.537a.872.872,0,0,1-.872-.872v-31.378a.872.872,0,0,1,.872-.872h20.918a.872.872,0,0,1,.872.872v31.378A.872.872,0,0,1-91.543-460.211Z" transform="translate(113.333 493.332)"/>
        </g>
      </g>
    </g>
    <g id="Grupo_1101990" data-name="Grupo 1101990" transform="translate(667.206 2265.19)">
      <path id="Trazado_893057" data-name="Trazado 893057" d="M312.419,225.021,308.182,204.1a2.613,2.613,0,0,0-2.563-2.1h-6.173a2.613,2.613,0,0,0-2.563,2.1l.02,24.046h12.951A2.615,2.615,0,0,0,312.419,225.021Z" transform="translate(-274.169 -185.265)" fill="#91def5"/>
      <path id="Trazado_893058" data-name="Trazado 893058" d="M331.7,142h5.23v5.23H331.7Z" transform="translate(-305.954 -130.495)" fill="#eefaff"/>
      <path id="Trazado_893059" data-name="Trazado 893059" d="M121.7,10h10.459v6.276H121.7Z" transform="translate(-114.258 -10)" fill="#eefaff"/>
      <path id="Trazado_893060" data-name="Trazado 893060" d="M61.609,115.623c-2.05-14.345-2.433-17.032-4.483-31.378A2.614,2.614,0,0,0,54.537,82H43.384A2.615,2.615,0,0,0,40.8,84.245l-4.483,31.378a2.615,2.615,0,0,0,2.589,2.984H59.02a2.615,2.615,0,0,0,2.589-2.984Z" transform="translate(-36.286 -75.724)" fill="#ffa2c3"/>
    </g>
    <g id="Grupo_1101991" data-name="Grupo 1101991" transform="translate(666.334 2264.319)">
      <path id="Trazado_893061" data-name="Trazado 893061" d="M29.964,15.138v.006l-3.643,25.5a3.487,3.487,0,0,0,3.452,3.979h33.07a3.487,3.487,0,0,0,3.419-4.172l-1.237-6.108a.872.872,0,0,0-1.709.346L64.551,40.8a1.743,1.743,0,0,1-1.71,2.085H52.915a3.486,3.486,0,0,0,.426-2.236L50.52,20.9l.2-1.02a1.747,1.747,0,0,1,1.709-1.4h6.173a1.747,1.747,0,0,1,1.709,1.4L61.757,27a.872.872,0,0,0,1.709-.346l-1.442-7.119a3.5,3.5,0,0,0-3.018-2.779V12.377a.872.872,0,0,0-.872-.872H52.9a.872.872,0,0,0-.872.872v4.382a3.49,3.49,0,0,0-1.974.914l-1.2-8.4a3.494,3.494,0,0,0-2.927-2.954V.872A.872.872,0,0,0,45.06,0H34.6a.872.872,0,0,0-.872.872V6.316A3.507,3.507,0,0,0,30.8,9.269Zm27.3-1.889v3.486H53.776V13.248ZM48.616,19.9l.613,4.289-17.453-9.4.525-3.677Zm3,21a1.733,1.733,0,0,1-1.025,1.844l-21.18-11.4.525-3.677L51.374,39.2Zm-4.43,1.99H33.752l6.716-3.617ZM29.149,33.172l3.966,2.135L28.488,37.8ZM30.2,25.818l.525-3.676,19.73,10.624.613,4.289Zm.788-5.515.525-3.676,18.023,9.7.613,4.29ZM48.31,17.752l-4.674-2.517,4.006-2.157ZM28.046,40.894l.136-.95L34.953,36.3l3.677,1.98-8.555,4.607h-.3A1.744,1.744,0,0,1,28.046,40.894ZM47.133,9.516l.246,1.723L41.8,14.245l-3.676-1.98,7.761-4.18a1.747,1.747,0,0,1,1.251,1.43ZM44.189,1.743V6.276H35.473V1.743ZM34.254,8.019h8.075l-6.047,3.257-3.7-1.993A1.752,1.752,0,0,1,34.254,8.019Z" transform="translate(-26.284 0)"/>
      <circle id="Elipse_11497" data-name="Elipse 11497" cx="0.872" cy="0.872" r="0.872" transform="translate(36.208 29.809)"/>
    </g>
  </g>
</svg>
