<svg xmlns="http://www.w3.org/2000/svg" width="190" height="103" viewBox="0 0 190 103">
  <g id="Grupo_1102140" data-name="Grupo 1102140" transform="translate(-1229.757 -7553)">
    <rect id="Rectángulo_402378" data-name="Rectángulo 402378" width="190" height="93" rx="10" transform="translate(1229.757 7563)" fill="#916aab"/>
    <g id="Grupo_1102075" data-name="Grupo 1102075" transform="translate(28.924 7140)">
      <g id="Grupo_1098742" data-name="Grupo 1098742" transform="translate(48.013 24.258)">
        <rect id="Rectángulo_400898" data-name="Rectángulo 400898" width="89" height="89" rx="44.5" transform="translate(1203.32 388.742)" fill="#c2d960"/>
        <g id="Rectángulo_400907" data-name="Rectángulo 400907" transform="translate(1203.32 388.742)" fill="none" stroke="#0f1f33" stroke-linecap="round" stroke-width="2" stroke-dasharray="7">
          <rect width="89" height="89" rx="44.5" stroke="none"/>
          <rect x="1" y="1" width="87" height="87" rx="43.5" fill="none"/>
        </g>
      </g>
      <g id="de-coser_1_" data-name="de-coser (1)" transform="translate(1232.297 429.333)">
        <path id="Trazado_893342" data-name="Trazado 893342" d="M279.622,49.2A12.332,12.332,0,0,1,291.94,61.521c0,8.175-4.375,23.434-8.441,34.151a4.145,4.145,0,0,1-7.755,0C271.679,84.955,267.3,69.7,267.3,61.521A12.332,12.332,0,0,1,279.622,49.2Zm0,47.352a2.309,2.309,0,0,0,2.2-1.52c4.823-12.715,8.324-26.81,8.324-33.513a10.521,10.521,0,1,0-21.043,0c0,6.7,3.5,20.8,8.324,33.513A2.309,2.309,0,0,0,279.622,96.555Z" transform="translate(-200.956 -43.309)" fill="#12263f"/>
        <path id="Elipse_11506" data-name="Elipse 11506" d="M-3.663-7.5C-1.511-7.5.174-5.31.174-2.513S-1.511,2.473-3.663,2.473-7.5.283-7.5-2.513-5.815-7.5-3.663-7.5Zm0,8.176c1.106,0,2.04-1.461,2.04-3.19S-2.557-5.7-3.663-5.7-5.7-4.242-5.7-2.513-4.769.676-3.663.676Z" transform="translate(82.329 20.411)" fill="#12263f"/>
        <path id="Trazado_893343" data-name="Trazado 893343" d="M68.882,13.22h-20.8a6.678,6.678,0,0,1-4.753-1.969L40.447,8.366a4.825,4.825,0,0,1-1.062-5.341A4.825,4.825,0,0,1,43.912,0H72.376a.9.9,0,0,1,0,1.8H43.912a3.061,3.061,0,0,0-2.868,1.916A3.061,3.061,0,0,0,41.717,7.1L44.6,9.981a4.893,4.893,0,0,0,3.483,1.443h20.8a.9.9,0,0,1,0,1.8Z" transform="translate(0 0)" fill="#12263f"/>
        <path id="Trazado_893344" data-name="Trazado 893344" d="M354.054,9.123a.9.9,0,0,1-.635-1.534l.493-.494a3.062,3.062,0,0,0,.673-3.383A3.062,3.062,0,0,0,351.717,1.8H346.47a.9.9,0,1,1,0-1.8h5.247a4.825,4.825,0,0,1,4.528,3.025,4.825,4.825,0,0,1-1.062,5.341l-.494.494A.9.9,0,0,1,354.054,9.123Z" transform="translate(-269.848 0)" fill="#12263f"/>
        <path id="Trazado_893345" data-name="Trazado 893345" d="M180.359,429.465H151.791a.9.9,0,1,1,0-1.8h28.568a3.1,3.1,0,0,0,2.195-5.3l-2.6-2.6a.9.9,0,1,1,1.271-1.271l2.6,2.6a4.9,4.9,0,0,1-3.465,8.366Z" transform="translate(-98.49 -368.131)" fill="#12263f"/>
        <path id="Trazado_893346" data-name="Trazado 893346" d="M49.064,414.861H43.912a4.9,4.9,0,0,1-3.465-8.366l2.885-2.885a6.678,6.678,0,0,1,4.753-1.969H74.513a.9.9,0,0,1,0,1.8H48.085A4.893,4.893,0,0,0,44.6,404.88l-2.885,2.885a3.1,3.1,0,0,0,2.195,5.3h5.152a.9.9,0,0,1,0,1.8Z" transform="translate(0 -353.528)" fill="#12263f"/>
        <path id="Trazado_893347" data-name="Trazado 893347" d="M101.493,104.494H82.424a4.567,4.567,0,1,1,0-9.135.9.9,0,0,1,0,1.8,2.771,2.771,0,1,0,0,5.541h19.069a.9.9,0,1,1,0,1.8Z" transform="translate(-34.203 -83.936)" fill="#12263f"/>
        <path id="Trazado_893348" data-name="Trazado 893348" d="M102.5,165.75H82.424a4.567,4.567,0,1,1,0-9.135.9.9,0,0,1,0,1.8,2.771,2.771,0,1,0,0,5.541H102.5a.9.9,0,1,1,0,1.8Z" transform="translate(-34.203 -137.854)" fill="#12263f"/>
        <path id="Trazado_893349" data-name="Trazado 893349" d="M104.178,227.007H82.424a4.567,4.567,0,0,1,0-9.135.9.9,0,1,1,0,1.8,2.771,2.771,0,1,0,0,5.541h21.754a.9.9,0,1,1,0,1.8Z" transform="translate(-34.203 -191.773)" fill="#12263f"/>
        <path id="Trazado_893350" data-name="Trazado 893350" d="M106.272,288.263H82.424a4.567,4.567,0,1,1,0-9.135.9.9,0,0,1,0,1.8,2.771,2.771,0,1,0,0,5.541h23.848a.9.9,0,1,1,0,1.8Z" transform="translate(-34.203 -245.691)" fill="#12263f"/>
        <path id="Trazado_893351" data-name="Trazado 893351" d="M82.424,349.519a4.567,4.567,0,0,1,0-9.135.9.9,0,1,1,0,1.8,2.771,2.771,0,1,0,0,5.541.9.9,0,0,1,0,1.8Z" transform="translate(-34.203 -299.609)" fill="#12263f"/>
      </g>
    </g>
  </g>
</svg>
