<svg xmlns="http://www.w3.org/2000/svg" width="85" height="85" viewBox="0 0 85 85">
  <g id="Grupo_1101762" data-name="Grupo 1101762" transform="translate(-1251.382 -412.999)">
    <g id="Grupo_1098742" data-name="Grupo 1098742" transform="translate(1251.332 412.999)">
      <rect id="Rectángulo_400898" data-name="Rectángulo 400898" width="85" height="85" rx="42.5" transform="translate(0.051 0)" fill="#f3eff6"/>
      <g id="Rectángulo_400907" data-name="Rectángulo 400907" transform="translate(0.051 0)" fill="none" stroke="#0f1f33" stroke-linecap="round" stroke-width="2" stroke-dasharray="7">
        <rect width="85" height="85" rx="42.5" stroke="none"/>
        <rect x="1" y="1" width="83" height="83" rx="41.5" fill="none"/>
      </g>
    </g>
    <g id="cuerda" transform="translate(1226.899 426.672)">
      <g id="Grupo_1101978" data-name="Grupo 1101978" transform="translate(43.843 0.845)">
        <g id="Grupo_1101977" data-name="Grupo 1101977">
          <g id="Grupo_1101976" data-name="Grupo 1101976">
            <path id="Trazado_893039" data-name="Trazado 893039" d="M125.159,63.464H110.926a1.126,1.126,0,0,1-1.126-1.126V8.626A1.126,1.126,0,0,1,110.926,7.5h14.233a1.126,1.126,0,0,1,1.126,1.126V62.338A1.126,1.126,0,0,1,125.159,63.464Z" transform="translate(-103.123 -7.5)" fill="#e5edfc"/>
            <path id="Trazado_893040" data-name="Trazado 893040" d="M219.578,7.5H216.2a1.126,1.126,0,0,1,1.126,1.126V62.338a1.126,1.126,0,0,1-1.126,1.126h3.378a1.126,1.126,0,0,0,1.126-1.126V8.626A1.126,1.126,0,0,0,219.578,7.5Z" transform="translate(-197.541 -7.5)" fill="#d1d9fc"/>
            <path id="Trazado_893041" data-name="Trazado 893041" d="M76.962,101.429H53.878A3.378,3.378,0,0,1,50.5,98.051V93.343l.465-.874-.465-.836V84.9l.546-.853-.546-.857V76.452l.328-.736-.328-.974V68.007l.415-.729L50.5,66.3V59.878q0-.158.014-.313c.034-.367.463-.441.6-.764.086-.2-.146-.661-.025-.837A3.374,3.374,0,0,1,53.878,56.5H76.962a3.378,3.378,0,0,1,3.378,3.378v4.708l-.489.87.489.84v6.735l-.348.74.348.97v6.735l-.472.882.472.829v6.735l-.359.867.359.843v6.418q0,.158-.014.313c-.03.329-.422.55-.54.845-.094.235.1.551-.039.756A3.374,3.374,0,0,1,76.962,101.429Z" transform="translate(-50.5 -50.982)" fill="#47d89d"/>
            <path id="Trazado_893042" data-name="Trazado 893042" d="M258.878,56.5H255.5a3.378,3.378,0,0,1,3.378,3.378V98.051a3.378,3.378,0,0,1-3.378,3.378h3.378a3.375,3.375,0,0,0,2.784-1.465c.177-.257-.022-.544.079-.845.081-.243.477-.493.5-.756q.014-.154.014-.313V91.633l-.359-.843.359-.867V83.187l-.472-.829.472-.882V74.742l-.348-.97.348-.74V66.3l-.489-.84.489-.87V59.878A3.378,3.378,0,0,0,258.878,56.5Z" transform="translate(-232.416 -50.982)" fill="#02c4a0"/>
          </g>
        </g>
      </g>
      <g id="Grupo_1101982" data-name="Grupo 1101982" transform="translate(42.998)">
        <path id="Trazado_893043" data-name="Trazado 893043" d="M325.285,272.7a.845.845,0,0,1-.845-.845V260.572a3.132,3.132,0,1,0-6.264,0V266.8a5.9,5.9,0,0,1-5.9,5.9h-3.436a.845.845,0,1,1,0-1.689h3.436a4.212,4.212,0,0,0,4.207-4.207v-6.229a4.821,4.821,0,1,1,9.642,0v11.281A.844.844,0,0,1,325.285,272.7Z" transform="translate(-278.16 -226.951)"/>
        <g id="Grupo_1101981" data-name="Grupo 1101981">
          <g id="Grupo_1101979" data-name="Grupo 1101979" transform="translate(0)">
            <path id="Trazado_893044" data-name="Trazado 893044" d="M118.5,455.207H104.271a1.973,1.973,0,0,1-1.971-1.971v-4.392a.845.845,0,1,1,1.689,0v4.392a.282.282,0,0,0,.282.282H118.5a.282.282,0,0,0,.282-.282v-4.392a.845.845,0,1,1,1.689,0v4.392A1.973,1.973,0,0,1,118.5,455.207Z" transform="translate(-95.623 -397.553)"/>
            <path id="Trazado_893045" data-name="Trazado 893045" d="M119.63,7.207a.845.845,0,0,1-.845-.845V1.971a.282.282,0,0,0-.282-.282H104.271a.282.282,0,0,0-.282.282V6.362a.845.845,0,1,1-1.689,0V1.971A1.973,1.973,0,0,1,104.271,0H118.5a1.973,1.973,0,0,1,1.971,1.971V6.362A.845.845,0,0,1,119.63,7.207Z" transform="translate(-95.623)"/>
            <path id="Trazado_893046" data-name="Trazado 893046" d="M70.307,95.618H47.223A4.227,4.227,0,0,1,43,91.4V67.011a.845.845,0,0,1,1.689,0V91.4a2.536,2.536,0,0,0,2.534,2.534H70.307A2.536,2.536,0,0,0,72.84,91.4V53.223a2.536,2.536,0,0,0-2.534-2.534H47.223a2.536,2.536,0,0,0-2.534,2.534V63.07a.845.845,0,1,1-1.689,0V53.223A4.227,4.227,0,0,1,47.223,49H70.307a4.227,4.227,0,0,1,4.223,4.223V91.4A4.227,4.227,0,0,1,70.307,95.618Z" transform="translate(-43 -43.482)"/>
          </g>
          <g id="Grupo_1101980" data-name="Grupo 1101980" transform="translate(0 7.758)">
            <path id="Línea_570" data-name="Línea 570" d="M22.987.9A.847.847,0,0,1,22.8.878L-6.843-5.833a.845.845,0,0,1-.637-1.01.845.845,0,0,1,1.01-.637L23.173-.769A.845.845,0,0,1,22.987.9Z" transform="translate(7.699 7.502)"/>
            <path id="Línea_571" data-name="Línea 571" d="M23.184.944A.847.847,0,0,1,23,.923L-6.843-5.833a.845.845,0,0,1-.637-1.01.845.845,0,0,1,1.01-.637L23.37-.724A.845.845,0,0,1,23.184.944Z" transform="translate(7.502 15.902)"/>
            <path id="Línea_572" data-name="Línea 572" d="M23.184.944A.847.847,0,0,1,23,.923L-6.843-5.833a.845.845,0,0,1-.637-1.01.845.845,0,0,1,1.01-.637L23.37-.724A.845.845,0,0,1,23.184.944Z" transform="translate(7.502 24.347)"/>
            <path id="Línea_573" data-name="Línea 573" d="M2.02-3.848a.847.847,0,0,1-.187-.021L-6.843-5.833a.845.845,0,0,1-.637-1.01.845.845,0,0,1,1.01-.637L2.206-5.516a.845.845,0,0,1,.637,1.01A.845.845,0,0,1,2.02-3.848Z" transform="translate(28.665 37.584)"/>
            <path id="Línea_574" data-name="Línea 574" d="M10.628-1.9a.847.847,0,0,1-.187-.021L-6.843-5.833a.845.845,0,0,1-.637-1.01.845.845,0,0,1,1.01-.637L10.814-3.567a.845.845,0,0,1,.637,1.01A.845.845,0,0,1,10.628-1.9Z" transform="translate(7.502 32.793)"/>
            <path id="Línea_575" data-name="Línea 575" d="M22.987.9A.847.847,0,0,1,22.8.878L-6.843-5.833a.845.845,0,0,1-.637-1.01.845.845,0,0,1,1.01-.637L23.173-.769A.845.845,0,0,1,22.987.9Z" transform="translate(7.502 41.238)"/>
          </g>
        </g>
      </g>
    </g>
  </g>
</svg>
