<svg xmlns="http://www.w3.org/2000/svg" xmlns:xlink="http://www.w3.org/1999/xlink" width="85" height="85" viewBox="0 0 85 85">
  <defs>
    <clipPath id="clip-path">
      <rect id="Rectángulo_402277" data-name="Rectángulo 402277" width="57" height="57" transform="translate(1265.384 427)" fill="#916aab" stroke="#707070" stroke-width="1"/>
    </clipPath>
  </defs>
  <g id="Grupo_1101678" data-name="Grupo 1101678" transform="translate(-1251.333 -413)">
    <g id="Grupo_1098742" data-name="Grupo 1098742" transform="translate(1251.333 413)">
      <rect id="Rectángulo_400898" data-name="Rectángulo 400898" width="85" height="85" rx="42.5" fill="#e6efbf"/>
      <g id="Rectángulo_400907" data-name="Rectángulo 400907" transform="translate(0)" fill="none" stroke="#0f1f33" stroke-linecap="round" stroke-width="2" stroke-dasharray="7">
        <rect width="85" height="85" rx="42.5" stroke="none"/>
        <rect x="1" y="1" width="83" height="83" rx="41.5" fill="none"/>
      </g>
    </g>
    <g id="Enmascarar_grupo_1098704" data-name="Enmascarar grupo 1098704" clip-path="url(#clip-path)">
      <g id="buscar_1_" data-name="buscar (1)" transform="translate(1265.384 427)">
        <path id="Trazado_892874" data-name="Trazado 892874" d="M26.329,47.926a21.388,21.388,0,0,0,0-42.776l-.138,0h-.076a.836.836,0,0,0,.008,1.673h.207A19.613,19.613,0,0,1,38.138,10.76L29.313,22.822H19.79a.836.836,0,0,0,0,1.673h9.947a.836.836,0,0,0,.675-.343l9.021-12.331A19.889,19.889,0,0,1,41.5,13.962l-6.733,9.2a.836.836,0,0,0,.675,1.33h10.5a19.858,19.858,0,0,1,.105,2.043c0,.3-.008.595-.021.89H39.562a.836.836,0,1,0,0,1.673h6.317A19.669,19.669,0,0,1,40.4,40.337H30.1a.836.836,0,1,0,0,1.673h8.435a19.676,19.676,0,0,1-24.412,0h9.151a.836.836,0,0,0,0-1.673H12.263q-.574-.585-1.1-1.215L18.5,29.1H36a.836.836,0,1,0,0-1.673H18.072a.836.836,0,0,0-.675.343l-7.288,9.962a19.736,19.736,0,0,1-1.6-2.774l4.536-6.2a.836.836,0,0,0-.675-1.33H6.635c-.013-.3-.021-.592-.021-.89a19.942,19.942,0,0,1,.106-2.043H9.826a.836.836,0,1,0,0-1.673H6.965a19.593,19.593,0,0,1,.909-3.231A.836.836,0,1,0,6.308,19,21.4,21.4,0,0,0,26.329,47.926Zm10.763-25.1,5.464-7.469a19.611,19.611,0,0,1,3.136,7.469ZM10.717,29.1,7.755,33.149A19.553,19.553,0,0,1,6.78,29.1h3.937Z" fill="#916aab"/>
        <path id="Trazado_892875" data-name="Trazado 892875" d="M55.989,50.2l-8.282-8.282A26.332,26.332,0,0,0,26.329.209a26.679,26.679,0,0,0-3.245.2.836.836,0,0,0,.2,1.66,25.013,25.013,0,0,1,3.041-.187A24.657,24.657,0,0,1,43.764,43.973,24.66,24.66,0,0,1,4.631,14.819a.836.836,0,0,0-1.471-.8A26.334,26.334,0,0,0,42.185,47.561l2.5,2.5a.836.836,0,1,0,1.183-1.183L43.494,46.5q.747-.644,1.453-1.349.917-.917,1.731-1.906l8.129,8.128a1.779,1.779,0,0,1,0,2.515l-.7.7a1.779,1.779,0,0,1-2.515,0l-3.2-3.2a.836.836,0,0,0-1.183,1.183l3.2,3.2a3.451,3.451,0,0,0,4.881,0l.7-.7a3.451,3.451,0,0,0,0-4.881Z" fill="#916aab"/>
        <path id="Trazado_892876" data-name="Trazado 892876" d="M14.808,4.2A5.474,5.474,0,1,0,20.282,9.67,5.471,5.471,0,0,0,14.808,4.2Zm2.875,7.962a3.8,3.8,0,0,1-5.749-4.975h0a3.8,3.8,0,1,1,5.749,4.976Z" fill="#916aab"/>
        <path id="Trazado_892877" data-name="Trazado 892877" d="M11.129,20.591A6.915,6.915,0,0,1,12.3,23.206l.289,1.339a2.273,2.273,0,0,0,4.443,0l.289-1.339a6.915,6.915,0,0,1,1.168-2.615L19.7,18.916a.836.836,0,1,0-1.354-.982l-1.215,1.675a8.577,8.577,0,0,0-1.449,3.243l-.289,1.339a.6.6,0,0,1-1.174,0l-.289-1.339a8.577,8.577,0,0,0-1.449-3.243L8.61,14.269A7.718,7.718,0,1,1,21,14.277l-.544.75a.836.836,0,0,0,1.354.982l.538-.742A9.4,9.4,0,0,0,15.034.282,9.391,9.391,0,0,0,5.417,9.67a9.306,9.306,0,0,0,1.844,5.589Z" fill="#916aab"/>
        <path id="Trazado_892878" data-name="Trazado 892878" d="M26.687,43.022a.836.836,0,0,0,.836-.836V38.893a3.527,3.527,0,1,0-1.673,0v3.293a.836.836,0,0,0,.836.836Zm-1.854-7.555a1.854,1.854,0,1,1,1.854,1.854A1.857,1.857,0,0,1,24.833,35.467Z" fill="#916aab"/>
      </g>
    </g>
  </g>
</svg>
