<svg xmlns="http://www.w3.org/2000/svg" xmlns:xlink="http://www.w3.org/1999/xlink" width="85" height="85" viewBox="0 0 85 85">
  <defs>
    <clipPath id="clip-path">
      <rect id="Rectángulo_402277" data-name="Rectángulo 402277" width="57" height="57" transform="translate(1265.384 427)" fill="#916aab" stroke="#707070" stroke-width="1"/>
    </clipPath>
  </defs>
  <g id="Grupo_1101874" data-name="Grupo 1101874" transform="translate(-1251.333 -413)">
    <g id="Grupo_1098742" data-name="Grupo 1098742" transform="translate(1251.333 413)">
      <rect id="Rectángulo_400898" data-name="Rectángulo 400898" width="85" height="85" rx="42.5" fill="#e6efbf"/>
      <g id="Rectángulo_400907" data-name="Rectángulo 400907" transform="translate(0)" fill="none" stroke="#0f1f33" stroke-linecap="round" stroke-width="2" stroke-dasharray="7">
        <rect width="85" height="85" rx="42.5" stroke="none"/>
        <rect x="1" y="1" width="83" height="83" rx="41.5" fill="none"/>
      </g>
    </g>
    <g id="Enmascarar_grupo_1098706" data-name="Enmascarar grupo 1098706" clip-path="url(#clip-path)">
      <g id="fibra" transform="translate(1265.384 427)">
        <path id="Trazado_892880" data-name="Trazado 892880" d="M11.542,19.148a1.114,1.114,0,1,0,.787.326A1.119,1.119,0,0,0,11.542,19.148Zm0,0" fill="#916aab"/>
        <path id="Trazado_892881" data-name="Trazado 892881" d="M7.214,13.181A11.422,11.422,0,0,1,.935,16.4a1.113,1.113,0,1,0,.357,2.2,13.635,13.635,0,0,0,7.5-3.84,7.071,7.071,0,0,1,1.64-1.221v2.274a1.113,1.113,0,1,0,2.227,0V1.113a1.113,1.113,0,0,0-2.227,0V6.426a13.646,13.646,0,0,0-6.363,3.606A7.043,7.043,0,0,1,.837,11.873,1.113,1.113,0,1,0,1.39,14.03a9.269,9.269,0,0,0,4.249-2.423,11.43,11.43,0,0,1,4.789-2.872v2.353a9.3,9.3,0,0,0-3.215,2.093Zm0,0" fill="#916aab"/>
        <path id="Trazado_892882" data-name="Trazado 892882" d="M45.422,54.773a1.114,1.114,0,1,0,.787.326A1.122,1.122,0,0,0,45.422,54.773Zm0,0" fill="#916aab"/>
        <path id="Trazado_892883" data-name="Trazado 892883" d="M56.065,48.629a11.42,11.42,0,0,1-6.279-3.216,9.292,9.292,0,0,0-3.252-2.107v-2.35a11.431,11.431,0,0,1,4.826,2.883,9.273,9.273,0,0,0,4.249,2.424,1.113,1.113,0,0,0,.553-2.157,7.04,7.04,0,0,1-3.228-1.841,13.644,13.644,0,0,0-6.4-3.615V34.487a13.662,13.662,0,0,0,6.4-3.616,7.041,7.041,0,0,1,3.228-1.841,1.113,1.113,0,0,0-.553-2.157A9.269,9.269,0,0,0,51.361,29.3a11.532,11.532,0,0,1-16.29,0,9.307,9.307,0,0,0-3.231-2.1v-2.35a11.443,11.443,0,0,1,4.805,2.875,9.3,9.3,0,0,0,13.141,0,11.42,11.42,0,0,1,6.279-3.216,1.113,1.113,0,1,0-.358-2.2,13.635,13.635,0,0,0-7.5,3.84,7.039,7.039,0,0,1-1.677,1.241V13.515a7.045,7.045,0,0,1,1.677,1.24,13.635,13.635,0,0,0,7.5,3.839,1.113,1.113,0,1,0,.357-2.2,11.422,11.422,0,0,1-6.279-3.216,9.292,9.292,0,0,0-3.252-2.107V8.723a11.431,11.431,0,0,1,4.826,2.883,9.273,9.273,0,0,0,4.249,2.424,1.113,1.113,0,0,0,.554-2.157,7.043,7.043,0,0,1-3.228-1.841,13.641,13.641,0,0,0-6.4-3.615v-5.3a1.113,1.113,0,0,0-2.227,0V28.128a7.12,7.12,0,0,1-2.227-.007V7.38c0-.034,0-.069,0-.1V1.113a1.113,1.113,0,0,0-2.227,0V6.427a13.646,13.646,0,0,0-6.359,3.6,7.067,7.067,0,0,1-1.656,1.233V1.113a1.113,1.113,0,0,0-2.227,0v10.9a7.133,7.133,0,0,1-2.227,0V1.113a1.113,1.113,0,0,0-2.227,0V11.264A7.065,7.065,0,0,1,23.5,10.032a13.64,13.64,0,0,0-6.4-3.614v-5.3a1.113,1.113,0,0,0-2.227,0V28.128a7.12,7.12,0,0,1-2.227-.006V24.715a1.113,1.113,0,1,0-2.227,0v2.654a7.042,7.042,0,0,1-1.64-1.221,13.635,13.635,0,0,0-7.5-3.84,1.113,1.113,0,1,0-.357,2.2,11.424,11.424,0,0,1,6.279,3.216,9.3,9.3,0,0,0,13.141,0,11.433,11.433,0,0,1,4.805-2.877V27.2a9.3,9.3,0,0,0-3.231,2.1,11.532,11.532,0,0,1-16.289,0A9.273,9.273,0,0,0,1.39,26.873,1.113,1.113,0,0,0,.837,29.03a7.042,7.042,0,0,1,3.228,1.841,13.662,13.662,0,0,0,6.363,3.606v4.181a13.647,13.647,0,0,0-6.363,3.606A7.042,7.042,0,0,1,.837,44.1a1.113,1.113,0,1,0,.553,2.157,9.276,9.276,0,0,0,4.249-2.423,11.431,11.431,0,0,1,4.788-2.872V43.32a9.3,9.3,0,0,0-3.214,2.093A11.422,11.422,0,0,1,.935,48.629a1.113,1.113,0,0,0,.177,2.212,1.154,1.154,0,0,0,.18-.014,13.635,13.635,0,0,0,7.5-3.84,7.058,7.058,0,0,1,1.64-1.221V55.886a1.113,1.113,0,1,0,2.227,0V34.844q.564.046,1.13.047.549,0,1.1-.044v21.04a1.113,1.113,0,1,0,2.227,0V45.75a7.069,7.069,0,0,1,1.673,1.238A13.638,13.638,0,0,0,25.16,50.6v5.284a1.113,1.113,0,1,0,2.227,0V50.963c.368.029.74.045,1.113.045s.745-.016,1.113-.045v4.924a1.113,1.113,0,1,0,2.227,0V50.6a13.641,13.641,0,0,0,6.38-3.615,7.063,7.063,0,0,1,1.636-1.218V55.887a1.113,1.113,0,1,0,2.227,0V39.612c0-.034,0-.069,0-.1V34.843c.377.031.755.047,1.134.047s.729-.015,1.093-.044V51.433a1.113,1.113,0,1,0,2.227,0V45.747a7.068,7.068,0,0,1,1.677,1.24,13.635,13.635,0,0,0,7.5,3.84,1.15,1.15,0,0,0,.18.014,1.113,1.113,0,0,0,.177-2.212ZM28.5,44.33a7.164,7.164,0,0,1-1.113-.087V18.729q.556.045,1.113.046t1.113-.046V44.242A7.155,7.155,0,0,1,28.5,44.33Zm9.719-18.182a13.667,13.667,0,0,0-6.38-3.609V18.365a13.662,13.662,0,0,0,6.38-3.61,7.063,7.063,0,0,1,1.636-1.218V27.366a7.045,7.045,0,0,1-1.636-1.219ZM21.929,11.606A9.228,9.228,0,0,0,28.5,14.324h0a9.23,9.23,0,0,0,6.571-2.718,11.424,11.424,0,0,1,4.784-2.871V11.09a9.3,9.3,0,0,0-3.21,2.091,11.532,11.532,0,0,1-16.29,0,9.293,9.293,0,0,0-3.248-2.106V8.724a11.431,11.431,0,0,1,4.822,2.882ZM18.781,26.148a7.062,7.062,0,0,1-1.673,1.239V13.517a7.082,7.082,0,0,1,1.673,1.239,13.658,13.658,0,0,0,6.38,3.61v4.173a13.643,13.643,0,0,0-6.38,3.61ZM23.5,30.871a7.066,7.066,0,0,1,1.657-1.229V43.5A7.076,7.076,0,0,1,23.5,42.264a13.638,13.638,0,0,0-6.4-3.614V34.486a13.662,13.662,0,0,0,6.4-3.614ZM36.645,45.413a11.531,11.531,0,0,1-16.29,0,9.29,9.29,0,0,0-3.247-2.106V40.957a11.432,11.432,0,0,1,4.821,2.882,9.3,9.3,0,0,0,13.141,0,11.438,11.438,0,0,1,4.784-2.871v2.354a9.3,9.3,0,0,0-3.21,2.091Zm3.21-6.753a13.642,13.642,0,0,0-6.359,3.6A7.078,7.078,0,0,1,31.84,43.5V29.642A7.079,7.079,0,0,1,33.5,30.871a13.654,13.654,0,0,0,6.359,3.6Zm0,0" fill="#916aab"/>
      </g>
    </g>
  </g>
</svg>
