<svg xmlns="http://www.w3.org/2000/svg" width="147.37" height="127" viewBox="0 0 147.37 127">
  <g id="bola-de-lana" transform="translate(0.001)">
    <path id="Trazado_892836" data-name="Trazado 892836" d="M246.993,103.58a52.037,52.037,0,1,1-52.038-52.037A52.037,52.037,0,0,1,246.993,103.58Zm0,0" transform="translate(-101.782 -36.707)" fill="#f4810e"/>
    <path id="Trazado_892837" data-name="Trazado 892837" d="M142.918,184.662a52.037,52.037,0,1,0,100.389-19.268,52.058,52.058,0,0,1-96.7,0,51.89,51.89,0,0,0-3.684,19.268Zm0,0" transform="translate(-101.782 -117.789)" fill="#ffbd48"/>
    <path id="Trazado_892838" data-name="Trazado 892838" d="M279.043,154.017a52.037,52.037,0,1,0,0-100.874,52.054,52.054,0,0,1,0,100.874Zm0,0" transform="translate(-198.726 -36.708)" fill="#ffec9c"/>
    <path id="Trazado_892839" data-name="Trazado 892839" d="M87.172,196.769a39.835,39.835,0,1,1-39.835-39.835,39.836,39.836,0,0,1,39.835,39.835Zm0,0" transform="translate(-5.342 -111.764)" fill="#236ee7"/>
    <path id="Trazado_892840" data-name="Trazado 892840" d="M87.17,258.839A39.835,39.835,0,1,1,10.321,244.09a39.851,39.851,0,0,0,74.028,0,39.708,39.708,0,0,1,2.821,14.749Zm0,0" transform="translate(-5.342 -173.833)" fill="#39aaff"/>
    <path id="Trazado_892841" data-name="Trazado 892841" d="M57.177,235.379a39.835,39.835,0,1,1,0-77.221,39.849,39.849,0,0,0,0,77.221Zm0,0" transform="translate(-5.342 -111.763)" fill="#61daff"/>
    <path id="Trazado_892842" data-name="Trazado 892842" d="M475.512,133.281A2.159,2.159,0,0,0,471.8,135.5a50.019,50.019,0,0,1,6.028,35.56,2.16,2.16,0,0,0,1.684,2.547,2.212,2.212,0,0,0,.434.044,2.159,2.159,0,0,0,2.113-1.728,54.346,54.346,0,0,0-6.552-38.637Zm0,0" transform="translate(-335.787 -94.17)"/>
    <path id="Trazado_892843" data-name="Trazado 892843" d="M142.847,97.136a2.159,2.159,0,0,0-3.018.461,3.723,3.723,0,0,1-3.1,1.531,54.14,54.14,0,0,0,6.655-11.836,2.159,2.159,0,0,0-4-1.628,49.675,49.675,0,0,1-35.2,29.871,54.207,54.207,0,0,0,.08-97.287,49.933,49.933,0,0,1,26.38,15.707,2.159,2.159,0,1,0,3.243-2.851q-1.572-1.788-3.285-3.417a8.02,8.02,0,0,0,3.657-2.769,2.159,2.159,0,0,0-3.479-2.557,3.767,3.767,0,0,1-5.261.8,2.141,2.141,0,0,0-.829-.37,54.186,54.186,0,0,0-61.142-1.313c-.468.306-.928.621-1.384.94a2.193,2.193,0,0,0-.546-.072,3.767,3.767,0,0,1-3.763-3.763,2.159,2.159,0,1,0-4.317,0,8.089,8.089,0,0,0,4.342,7.161,54.362,54.362,0,0,0-4.738,4.59H42.459a5.871,5.871,0,0,1,0-11.743H44.7A9.3,9.3,0,1,0,44.7,0h-3.56a2.159,2.159,0,1,0,0,4.317H44.7a4.98,4.98,0,1,1,0,9.959H42.459a10.189,10.189,0,0,0,0,20.379h7.129a54.3,54.3,0,0,0-5.118,8.431c-.82-.047-1.645-.074-2.477-.074a41.843,41.843,0,0,0-12.6,1.93c-.052,0-.1-.008-.155-.008a3.767,3.767,0,0,1-3.763-3.762,2.159,2.159,0,1,0-4.317,0,8.062,8.062,0,0,0,2.653,5.982A42.032,42.032,0,0,0,2.209,98.482,2.159,2.159,0,1,0,6.3,97.1a37.713,37.713,0,0,1,23.128-47.61,42,42,0,0,0,.057,71.074,37.587,37.587,0,0,1-19.3-15.351,2.159,2.159,0,1,0-3.642,2.32,42.014,42.014,0,0,0,45.645,18.215.258.258,0,0,0,.031-.008,41.688,41.688,0,0,0,10.113-4,8.093,8.093,0,0,0,7.532,5.16,2.159,2.159,0,0,0,0-4.317,3.766,3.766,0,0,1-3.722-3.236,42.171,42.171,0,0,0,4.141-3.329,54.247,54.247,0,0,0,53.485-4.4,54.534,54.534,0,0,0,9.941-8.77,8.1,8.1,0,0,0,9.6-2.684,2.159,2.159,0,0,0-.462-3.019ZM73.51,112.725a42.055,42.055,0,0,0,7.541-12.291,54.555,54.555,0,0,0,23.047.263,49.659,49.659,0,0,1-23.517,14.309,2.151,2.151,0,0,0-.244.084,49.387,49.387,0,0,1-6.827-2.366Zm-21.687,8.653a37.529,37.529,0,0,1-16.791-9.71,41.983,41.983,0,0,0,44.393-22.38,37.772,37.772,0,0,1-27.6,32.09Zm49.9-90.759A54.081,54.081,0,0,0,67.188,51.431a41.979,41.979,0,0,0-8.876-5.118A49.566,49.566,0,0,1,93.405,24.256a49.744,49.744,0,0,1,8.32,6.364Zm6.867,64.432a50.2,50.2,0,0,1-26.157,1.272,41.881,41.881,0,0,0,1.552-11.318q0-1.653-.127-3.275a54.707,54.707,0,0,0,9.312.8A54.311,54.311,0,0,0,116.211,77.4,49.953,49.953,0,0,1,108.593,95.052Zm8.745-28.178a49.9,49.9,0,0,1-.278,5.253,49.9,49.9,0,0,1-23.888,6.088q-1.972,0-3.933-.155a50.286,50.286,0,0,1,27.176-20.741,49.944,49.944,0,0,1,.922,9.555Zm-32.8,10.592c-.425-.075-.849-.154-1.272-.239a41.673,41.673,0,0,0-3.624-10.815,49.939,49.939,0,0,1,32.819-21.054,49.845,49.845,0,0,1,2.946,7.755A54.622,54.622,0,0,0,84.534,77.466Zm-7.249-15.2A42.338,42.338,0,0,0,70.5,54.2a49.76,49.76,0,0,1,34.9-19.71,50.1,50.1,0,0,1,4.919,6.867,54.274,54.274,0,0,0-33.032,20.91Zm-.622,7.992Q76,71.831,75.2,73.312a42.227,42.227,0,0,0-27.03-23.493,37.749,37.749,0,0,1,3.647-1.186A37.846,37.846,0,0,1,76.664,70.262ZM41.908,52.91A37.8,37.8,0,0,1,72.352,77.84,37.557,37.557,0,0,1,67.9,82.89,41.873,41.873,0,0,0,36.524,56.929a37.5,37.5,0,0,1,5.384-4.018Zm-9.084,7.839A37.567,37.567,0,0,1,64.386,85.836a37.567,37.567,0,0,1-5.214,3.226A42.262,42.262,0,0,0,29.656,65.125a37.771,37.771,0,0,1,3.168-4.376ZM27.509,69.1A37.9,37.9,0,0,1,55.22,90.8a37.638,37.638,0,0,1-6.357,1.757,42.338,42.338,0,0,0-23.27-18.421A37.634,37.634,0,0,1,27.509,69.1ZM24,85.006a37.808,37.808,0,0,1,.59-6.659A38.016,38.016,0,0,1,44.1,93.118c-.7.038-1.4.064-2.107.064a37.7,37.7,0,0,1-17.812-4.473c-.119-1.22-.182-2.456-.182-3.7ZM41.995,97.5A41.848,41.848,0,0,0,78.6,76.1q.192.793.353,1.6a2.028,2.028,0,0,0-.07.248,37.718,37.718,0,0,1-48.361,28.214l-.055-.015a37.613,37.613,0,0,1-5.4-12.193A42.1,42.1,0,0,0,41.995,97.5Zm88.2-30.627a50.122,50.122,0,0,1-38.809,48.641,54.22,54.22,0,0,0,.014-97.28A50.071,50.071,0,0,1,130.195,66.873ZM80.364,18.68a49.758,49.758,0,0,1,6.817,2.36A54.166,54.166,0,0,0,54.145,44.807c-.548-.165-1.1-.323-1.655-.467a2.113,2.113,0,0,0-.3-.074q-1.553-.388-3.149-.66A50.1,50.1,0,0,1,80.364,18.68Zm-66.2,66.326A37.85,37.85,0,0,1,39.208,49.5a42.041,42.041,0,0,0-.009,71,37.892,37.892,0,0,1-25.04-35.5Zm0,0"/>
  </g>
</svg>
