<svg xmlns="http://www.w3.org/2000/svg" width="127.717" height="127.324" viewBox="0 0 127.717 127.324">
  <g id="algodon" transform="translate(0 -0.788)">
    <g id="Grupo_1101871" data-name="Grupo 1101871" transform="translate(1.896 2.659)">
      <path id="Trazado_892844" data-name="Trazado 892844" d="M66.815,75.172A23.8,23.8,0,1,1,96.14,40.39Z" transform="translate(-41.175 -24.189)" fill="#d9e7ec"/>
      <path id="Trazado_892845" data-name="Trazado 892845" d="M313.378,75.172A23.8,23.8,0,1,0,284.053,40.39Z" transform="translate(-215.093 -24.189)" fill="#d9e7ec"/>
      <circle id="Elipse_11493" data-name="Elipse 11493" cx="28.134" cy="28.134" r="28.134" transform="translate(33.829)" fill="#f5f8f9"/>
      <path id="Trazado_892846" data-name="Trazado 892846" d="M68.592,129.754c0,15.538-12.294,27.28-27.832,27.28s-26.866-11.742-26.866-27.28c0-7.869,1.979-14.9,7.186-20.009.776-.76,2.136-2.222,2.136-2.222a28.133,28.133,0,0,1,45.376,22.231Z" transform="translate(-12.324 -78.338)" fill="#e8edf2"/>
      <path id="Trazado_892847" data-name="Trazado 892847" d="M278.829,129.753a28.134,28.134,0,0,0,28.134,28.134c.992,0,2.2-1.837,3.169-1.937,1.213-.126,3.33,1.182,3.33,1.182a28.137,28.137,0,1,0-34.634-27.379Z" transform="translate(-211.172 -78.338)" fill="#e8edf2"/>
      <g id="Grupo_1101870" data-name="Grupo 1101870" transform="translate(0 29.185)">
        <path id="Trazado_892848" data-name="Trazado 892848" d="M316.938,211.514c-.242,2.228-.671,6.154-1.162,10.577a32.415,32.415,0,0,1-2.312,8.874,28.146,28.146,0,0,1-34.4-30.975,61.72,61.72,0,0,1,9,15.326,1,1,0,0,0,1.559.4,66.837,66.837,0,0,1,19-10.734,6.231,6.231,0,0,1,8.322,6.531Z" transform="translate(-211.172 -181.355)" fill="#d9e7ec"/>
        <path id="Trazado_892849" data-name="Trazado 892849" d="M63.868,147.514a27.811,27.811,0,0,0-.217-3.492,63.644,63.644,0,0,0-8.89,15.326,1,1,0,0,1-1.562.4,66.774,66.774,0,0,0-19.118-10.836,6.231,6.231,0,0,0-8.322,6.528c.234,1.952.644,6.222,1.127,10.177a.749.749,0,0,1-1.143.724,28.134,28.134,0,0,1-7.251-41.058,28.134,28.134,0,1,0,39.474,39.472c-1.15.894,5.9-9.083,5.9-17.242Z" transform="translate(-7.6 -125.284)" fill="#d9e7ec"/>
        <path id="Trazado_892850" data-name="Trazado 892850" d="M118.4,203.892a28.154,28.154,0,0,1-34.633,27.379,32.345,32.345,0,0,1-2.312-8.873c-.491-4.423-.92-8.349-1.162-10.579a6.226,6.226,0,0,1,8.322-6.528,66.775,66.775,0,0,1,19.118,10.836,1,1,0,0,0,1.562-.4,63.645,63.645,0,0,1,8.89-15.326A27.81,27.81,0,0,1,118.4,203.892Z" transform="translate(-62.13 -181.662)" fill="#d9e7ec"/>
      </g>
      <path id="Trazado_892851" data-name="Trazado 892851" d="M140.444,180.9c0-1.633,1.64-2.909,1.9-4.467a12.475,12.475,0,0,0-.658-3.93,28.836,28.836,0,0,1,55.166,0c.144.473-.524,3.659-.4,4.142.553,2.23,1.646,1.854,1.646,4.255l-28.825,23.2Z" transform="translate(-107.306 -116.208)" fill="#f5f8f9"/>
      <path id="Trazado_892852" data-name="Trazado 892852" d="M198.092,206.1l-28.826,23.2L140.44,206.1a28.72,28.72,0,0,1,1.245-8.4,63.533,63.533,0,0,1,11.218,7.354,1,1,0,0,0,1.562-.4,63.877,63.877,0,0,1,9.97-16.666,6.407,6.407,0,0,1,3.717-2.235,6.229,6.229,0,0,1,5.884,2.075,61.855,61.855,0,0,1,10.158,16.723,1,1,0,0,0,1.559.4,63.674,63.674,0,0,1,11.1-7.251A28.72,28.72,0,0,1,198.092,206.1Z" transform="translate(-107.303 -141.404)" fill="#e8edf2"/>
      <path id="Trazado_892853" data-name="Trazado 892853" d="M127.708,257.362c-7.837-11.429-20.946-17.026-25.788-18.782a1.243,1.243,0,0,0-1.661,1.3c.226,2.081.615,5.647,1.067,9.711.031.282.167.562.2.848,1.527,13.717,13.27,23.881,27.022,25.052Z" transform="translate(-77.14 -181.076)" fill="#afcc56"/>
      <path id="Trazado_892854" data-name="Trazado 892854" d="M298.085,257.362c7.837-11.429,20.946-17.026,25.788-18.782a1.243,1.243,0,0,1,1.661,1.3c-.242,2.225-.67,6.148-1.161,10.563q-.043.382-.1.763a41.375,41.375,0,0,1-1.235,4.552c-3.645,11.258-14.226,19.047-26.15,20.062Z" transform="translate(-224.728 -181.076)" fill="#afcc56"/>
      <path id="Trazado_892855" data-name="Trazado 892855" d="M132.114,309.977c-13.752-1.172-25.955-12.667-27.482-26.384-.035-.309-.067-.619-.1-.923a32.133,32.133,0,0,0,27.285,22.44Z" transform="translate(-80.351 -214.226)" fill="#a7c44d"/>
      <path id="Trazado_892856" data-name="Trazado 892856" d="M324.274,289.43c-1.883,13.378-13.889,24.471-27.384,25.621l.322-4.8C309.243,309.224,320.139,300.62,324.274,289.43Z" transform="translate(-224.727 -219.299)" fill="#a7c44d"/>
      <path id="Trazado_892857" data-name="Trazado 892857" d="M244.661,395.766l-.963,7.6.963,3.6V421.7a1,1,0,0,1-1,1h-7.213l-3.389-.624a1,1,0,0,1-1-1l.255-25.239Z" transform="translate(-176.072 -299.11)" fill="#afcc56"/>
      <path id="Trazado_892858" data-name="Trazado 892858" d="M229.65,395.835V421.7a1,1,0,0,0,1,1h3.991V409.948a.994.994,0,0,1,1.028-1,13.036,13.036,0,0,0,7.181-1.986v-11.2Z" transform="translate(-174.26 -299.113)" fill="#a7c44d"/>
      <path id="Trazado_892859" data-name="Trazado 892859" d="M213.494,257.457c-4.391-4.808-7.847-13.524-6.847-24.138a44.966,44.966,0,0,1,3.941-15.4c.8-1.635,2.164-4.558,2.164-4.558a59.224,59.224,0,0,1,5.162-7.264,1.239,1.239,0,0,1,1.892-.009c2.844,3.323,11.145,14.051,12.16,27.13.763,9.834-1.8,18.522-5.615,23.571a10.308,10.308,0,0,0-1.441,1.04C220.5,262.323,217.882,261.944,213.494,257.457Z" transform="translate(-156.865 -156.417)" fill="#c5d762"/>
      <path id="Trazado_892860" data-name="Trazado 892860" d="M223.585,279.721c-.294.387-.591.751-.9,1.093-4.41,4.5-8.811,4.542-13.2.055-4.393-4.809-7.513-14.1-6.513-24.718.741-7.863,3.986-14.877,7.062-19.941a46.534,46.534,0,0,0-4.056,14.675c-1.063,11.285,2.255,21.168,6.922,26.279C216.458,280.8,220.018,281.639,223.585,279.721Z" transform="translate(-154.099 -179.355)" fill="#afcc56"/>
    </g>
    <g id="Grupo_1101872" data-name="Grupo 1101872" transform="translate(0 0.788)">
      <path id="Trazado_892861" data-name="Trazado 892861" d="M22.487,46.836a1.87,1.87,0,0,0,2.614-.407,26.27,26.27,0,0,1,21.2-10.77,26.527,26.527,0,0,1,14.745,4.528,1.871,1.871,0,0,0,2.105-3.094,29.669,29.669,0,0,0-8.657-4.04,26.292,26.292,0,0,1,14.6-18.24,1.871,1.871,0,0,0-1.576-3.394,29.948,29.948,0,0,0-6.183,3.849A25.676,25.676,0,0,0,27.509,38.541a29.973,29.973,0,0,0-5.429,5.681A1.871,1.871,0,0,0,22.487,46.836ZM58.154,18.244a29.988,29.988,0,0,0-7.319,14.017,30.259,30.259,0,0,0-4.53-.343,29.714,29.714,0,0,0-14.739,3.867A21.93,21.93,0,0,1,58.154,18.244Z" transform="translate(-16.302 -8.636)"/>
      <path id="Trazado_892862" data-name="Trazado 892862" d="M111.953,184.063A26.107,26.107,0,0,1,101.376,188a29.124,29.124,0,0,0,2.024-7.845c.492-4.417.921-8.34,1.163-10.566a3.113,3.113,0,0,0-4.159-3.263,63.921,63.921,0,0,0-6.472,2.781,30.7,30.7,0,0,0-60.146,0,63.857,63.857,0,0,0-6.471-2.78,3.113,3.113,0,0,0-4.16,3.263c.242,2.226.671,6.149,1.163,10.566A29.093,29.093,0,0,0,26.343,188,26.281,26.281,0,0,1,5.064,153.748a1.871,1.871,0,1,0-3.552-1.177,30.01,30.01,0,0,0,26.795,39.379,33.232,33.232,0,0,0,24.065,16.125,23.527,23.527,0,0,0,3.043,4.721v21.367a1.871,1.871,0,0,0,3.742,0v-18.2a9.239,9.239,0,0,0,4.68,1.349h0a9.334,9.334,0,0,0,4.773-1.394v18.25a1.871,1.871,0,0,0,3.742,0V212.732a23.879,23.879,0,0,0,2.97-4.653,33.22,33.22,0,0,0,24.087-16.127,29.874,29.874,0,0,0,14.575-4.749,1.871,1.871,0,0,0-2.034-3.141Zm-80.829,5.314a27.023,27.023,0,0,1-3.087-9.635c-.424-3.806-.8-7.243-1.052-9.544a65.058,65.058,0,0,1,7.463,3.468,49.607,49.607,0,0,1,14.664,11.847,43.152,43.152,0,0,0-.365,7.2,30.789,30.789,0,0,1-7.737-6.963,1.871,1.871,0,1,0-2.946,2.307,32.256,32.256,0,0,0,11.066,9.11,38.752,38.752,0,0,0,1.581,6.852,29.571,29.571,0,0,1-19.587-14.638Zm32.717,24.19h0c-1.651,0-3.4-.929-5.192-2.757-2.515-2.767-5.131-7.988-5.94-14.958a41.057,41.057,0,0,1-.071-8.3c1.124-11.914,8.375-21.943,11.265-25.512a55.663,55.663,0,0,1,4.122,5.7,1.871,1.871,0,1,0,3.162-2,58.548,58.548,0,0,0-4.926-6.711,3.1,3.1,0,0,0-2.364-1.09h-.018a3.1,3.1,0,0,0-2.365,1.113C59.3,161.69,52.808,170.1,50.032,180.876a54.621,54.621,0,0,0-12.78-9.923,26.956,26.956,0,0,1,53.215,0A54.735,54.735,0,0,0,77.8,180.762a46.58,46.58,0,0,0-2.388-7.038,1.871,1.871,0,0,0-3.439,1.473,39.043,39.043,0,0,1,3.165,12.324c.5,8.7-.886,16.919-6.014,23.24C67.283,212.623,65.508,213.567,63.841,213.567ZM76.98,204.02a39.291,39.291,0,0,0,1.582-6.848,32.216,32.216,0,0,0,11.091-9.121,1.871,1.871,0,0,0-2.946-2.307,30.764,30.764,0,0,1-7.743,6.967,46.208,46.208,0,0,0-.287-7.286,49.7,49.7,0,0,1,14.61-11.769,65.344,65.344,0,0,1,7.446-3.459c-.251,2.3-.628,5.739-1.052,9.544a26.993,26.993,0,0,1-3.1,9.654A29.553,29.553,0,0,1,76.98,204.02Z" transform="translate(0 -108.711)"/>
      <path id="Trazado_892863" data-name="Trazado 892863" d="M292.642,30.689A25.67,25.67,0,0,0,258.806,7.421a30.01,30.01,0,0,0-22.5-6.406,1.871,1.871,0,0,0,.459,3.713A26.26,26.26,0,0,1,265.653,25.2,29.654,29.654,0,0,0,257,29.245a1.871,1.871,0,0,0,2.105,3.094,26.338,26.338,0,0,1,14.745-4.528,26.267,26.267,0,0,1,26.262,26.262,26.3,26.3,0,0,1-5.921,16.611,1.871,1.871,0,1,0,2.9,2.369,30,30,0,0,0-4.441-42.363Zm-23.326-6.276A29.991,29.991,0,0,0,262,10.4a21.929,21.929,0,0,1,26.588,17.541,29.712,29.712,0,0,0-14.739-3.867A30.228,30.228,0,0,0,269.315,24.413Z" transform="translate(-176.132 -0.788)"/>
      <path id="Trazado_892864" data-name="Trazado 892864" d="M250.371,269.469a1.871,1.871,0,0,0-1.871,1.871v28.728a1.871,1.871,0,0,0,3.742,0V271.34A1.871,1.871,0,0,0,250.371,269.469Z" transform="translate(-186.512 -202.447)"/>
      <path id="Trazado_892865" data-name="Trazado 892865" d="M451.6,160.693h0a1.871,1.871,0,1,0,1.873,1.871A1.87,1.87,0,0,0,451.6,160.693Z" transform="translate(-337.547 -120.805)"/>
      <path id="Trazado_892866" data-name="Trazado 892866" d="M448.767,186.03h0a1.871,1.871,0,1,0,1.873,1.871A1.87,1.87,0,0,0,448.765,186.03Z" transform="translate(-335.418 -139.822)"/>
      <path id="Trazado_892867" data-name="Trazado 892867" d="M426.763,177.139a1.871,1.871,0,0,0-1.871-1.871h0a1.871,1.871,0,1,0,1.873,1.871Z" transform="translate(-317.499 -131.744)"/>
      <path id="Trazado_892868" data-name="Trazado 892868" d="M71.973,198.91a1.871,1.871,0,1,0,1.873,1.871,1.87,1.87,0,0,0-1.873-1.871Z" transform="translate(-52.616 -149.489)"/>
      <path id="Trazado_892869" data-name="Trazado 892869" d="M45.795,189.028a1.871,1.871,0,0,0-1.871-1.871h0a1.871,1.871,0,1,0,1.873,1.871Z" transform="translate(-31.562 -140.668)"/>
      <path id="Trazado_892870" data-name="Trazado 892870" d="M50.412,216.255a1.871,1.871,0,1,0,0-3.742h0a1.871,1.871,0,1,0,0,3.742Z" transform="translate(-36.432 -159.699)"/>
      <path id="Trazado_892871" data-name="Trazado 892871" d="M277.64,41.75a1.871,1.871,0,0,0-1.871-1.871h0a1.871,1.871,0,1,0,1.873,1.871Z" transform="translate(-205.574 -30.128)"/>
      <path id="Trazado_892872" data-name="Trazado 892872" d="M298.65,58.311a1.871,1.871,0,0,0-1.871-1.871h0a1.871,1.871,0,1,0,1.873,1.871Z" transform="translate(-221.343 -42.558)"/>
      <path id="Trazado_892873" data-name="Trazado 892873" d="M110.429,65.55a1.871,1.871,0,1,0,0-3.742h0a1.871,1.871,0,1,0,0,3.742Z" transform="translate(-81.478 -46.587)"/>
    </g>
  </g>
</svg>
