<svg xmlns="http://www.w3.org/2000/svg" xmlns:xlink="http://www.w3.org/1999/xlink" width="127.592" height="127.592" viewBox="0 0 127.592 127.592">
  <defs>
    <clipPath id="clip-path">
      <path id="path2978" d="M0-682.665H127.592v127.592H0Z" transform="translate(0 682.665)"/>
    </clipPath>
  </defs>
  <g id="g2934" transform="translate(0 682.665)">
    <g id="g2936" transform="translate(41.315 -680.796)">
      <path id="path2938" d="M-49.232,0V123.854l-11.317-13.543V13.543Z" transform="translate(60.549)" fill="#fac600"/>
    </g>
    <g id="g2940" transform="translate(2.164 -680.796)">
      <path id="path2942" d="M-49.231-58.916V37.853L-60.548,51.4V-72.458Z" transform="translate(60.548 72.458)" fill="#fac600"/>
    </g>
    <path id="path2944" d="M99.961-503.438H72.126v-96.768H99.961Z" transform="translate(-58.646 -67.047)" fill="#fee45a"/>
    <g id="g2946" transform="translate(2.164 -680.796)">
      <path id="path2948" d="M-219.554,0l-11.317,13.543h-27.834L-270.022,0Z" transform="translate(270.022)" fill="#fed402"/>
    </g>
    <g id="g2950" transform="translate(2.164 -570.485)">
      <path id="path2952" d="M-219.554-58.916h-50.468l11.317-13.543h27.834Z" transform="translate(270.022 72.458)" fill="#fed402"/>
    </g>
    <g id="g2954" transform="translate(37.85 -680.796)">
      <path id="path2956" d="M0,0,87.578,87.578,70,86,1.574,17.578Z" fill="#fac600"/>
    </g>
    <g id="g2958" transform="translate(2.164 -645.11)">
      <path id="path2960" d="M-76.472-6.847-8.046,61.578l1.574,17.578L-94.05-8.421Z" transform="translate(94.05 8.421)" fill="#fac600"/>
    </g>
    <g id="g2962" transform="translate(19.742 -663.218)">
      <path id="path2964" d="M-85.623,0-17.2,68.426-36.879,88.108l-68.426-68.426Z" transform="translate(105.305)" fill="#fee45a"/>
    </g>
    <g id="g2966" transform="translate(2.164 -680.796)">
      <path id="path2968" d="M-155.248,0l1.574,17.578L-173.356,37.26l-17.578-1.574Z" transform="translate(190.934)" fill="#fed402"/>
    </g>
    <g id="g2970" transform="translate(88.168 -594.792)">
      <path id="path2972" d="M-162.1-6.847l-35.686,35.686-1.574-17.578,19.682-19.682Z" transform="translate(199.355 8.421)" fill="#fed402"/>
    </g>
    <g id="g2974" transform="translate(0 -682.665)">
      <g id="g2976" clip-path="url(#clip-path)">
        <g id="g2982" transform="translate(50.763 0)">
          <path id="path2984" d="M-8.131,8.52A1.869,1.869,0,0,1-10,6.651V-8.131A1.869,1.869,0,0,1-8.131-10,1.869,1.869,0,0,1-6.262-8.131V6.651A1.869,1.869,0,0,1-8.131,8.52Z" transform="translate(10 10)"/>
        </g>
        <g id="g2986" transform="translate(39.446 86.154)">
          <path id="path2988" d="M-57.363,31.438a1.869,1.869,0,0,1-1.435-.671L-70.115,17.225a1.869,1.869,0,0,1,.236-2.633,1.869,1.869,0,0,1,2.633.236l8.014,9.59V-8.131A1.869,1.869,0,0,1-57.364-10a1.869,1.869,0,0,1,1.869,1.869v37.7a1.869,1.869,0,0,1-1.232,1.757A1.866,1.866,0,0,1-57.363,31.438Z" transform="translate(70.549 10)"/>
        </g>
        <g id="g2990" transform="translate(0.295 0)">
          <path id="path2992" d="M-8.131-545.073A1.869,1.869,0,0,1-10-546.942V-670.8a1.869,1.869,0,0,1,1.869-1.869A1.869,1.869,0,0,1-6.262-670.8v123.854A1.869,1.869,0,0,1-8.131-545.073Z" transform="translate(10 672.665)"/>
        </g>
      </g>
    </g>
    <g id="g2994" transform="translate(11.612 -607.828)">
      <path id="path2996" d="M-129.221,29.212h-27.834a1.869,1.869,0,0,1-1.869-1.869,1.869,1.869,0,0,1,1.869-1.869h25.965V-8.131A1.869,1.869,0,0,1-129.221-10a1.869,1.869,0,0,1,1.869,1.869V27.343A1.869,1.869,0,0,1-129.221,29.212Z" transform="translate(158.925 10)"/>
    </g>
    <g id="g2998" transform="translate(11.612 -669.122)">
      <path id="path3000" d="M-8.131-53.363A1.869,1.869,0,0,1-10-55.232V-66.059a1.869,1.869,0,0,1,1.869-1.869H2.7a1.869,1.869,0,0,1,1.869,1.869A1.869,1.869,0,0,1,2.7-64.19H-6.262v8.958A1.869,1.869,0,0,1-8.131-53.363Z" transform="translate(10 67.928)"/>
    </g>
    <g id="g3002" transform="translate(11.612 -625.286)">
      <path id="path3004" d="M-8.131-236.537A1.869,1.869,0,0,1-10-238.406v-52.932a1.869,1.869,0,0,1,1.869-1.869,1.869,1.869,0,0,1,1.869,1.869v52.932A1.869,1.869,0,0,1-8.131-236.537Z" transform="translate(10 293.207)"/>
    </g>
    <g id="g3006" transform="translate(0 -682.665)">
      <g id="g3008" clip-path="url(#clip-path)">
        <g id="g3014" transform="translate(0.295 0)">
          <path id="path3016" d="M-57.361-65.178a1.865,1.865,0,0,1-1.435-.671L-70.113-79.391a1.869,1.869,0,0,1-.259-1.99,1.869,1.869,0,0,1,1.693-1.077h50.468a1.869,1.869,0,0,1,1.869,1.869,1.869,1.869,0,0,1-1.869,1.869h-46.47l8.753,10.475a1.869,1.869,0,0,1-.236,2.633A1.862,1.862,0,0,1-57.361-65.178Z" transform="translate(70.548 82.458)"/>
        </g>
        <g id="g3018" transform="translate(0.295 110.311)">
          <path id="path3020" d="M-14.974-65.178H-45.759a1.869,1.869,0,0,1-1.869-1.869,1.869,1.869,0,0,1,1.869-1.869h26.787l-8.193-9.8H-53.251l-8.193,9.8h6.714a1.869,1.869,0,0,1,1.869,1.869,1.869,1.869,0,0,1-1.869,1.869H-65.442a1.869,1.869,0,0,1-1.693-1.077,1.869,1.869,0,0,1,.259-1.99l11.317-13.543a1.869,1.869,0,0,1,1.434-.671h27.834a1.869,1.869,0,0,1,1.434.671L-13.54-68.245a1.869,1.869,0,0,1,.259,1.99A1.869,1.869,0,0,1-14.974-65.178Z" transform="translate(67.311 82.458)"/>
        </g>
        <g id="g3022" transform="translate(35.981 0)">
          <path id="path3024" d="M71.026-12.735q-.083,0-.167-.007L53.281-14.316a1.869,1.869,0,0,1-1.695-2.028,1.869,1.869,0,0,1,2.028-1.695l12.447,1.115L-14.231-97.217l1.115,12.447a1.869,1.869,0,0,1-1.695,2.028,1.869,1.869,0,0,1-2.028-1.695l-1.574-17.578a1.869,1.869,0,0,1,1.07-1.86,1.869,1.869,0,0,1,2.113.372L72.347-15.925a1.869,1.869,0,0,1,.371,2.113A1.869,1.869,0,0,1,71.026-12.735Z" transform="translate(18.422 104.051)"/>
        </g>
        <g id="g3026" transform="translate(0.295 35.686)">
          <path id="path3028" d="M-102.182-18.422q.083,0,.167.007l17.578,1.574a1.869,1.869,0,0,1,1.155.54l68.426,68.426a1.869,1.869,0,0,1,.54,1.155l1.574,17.578a1.869,1.869,0,0,1-1.07,1.86,1.869,1.869,0,0,1-2.113-.371L-103.5-15.231a1.869,1.869,0,0,1-.371-2.113A1.869,1.869,0,0,1-102.182-18.422Zm16.737,5.244-11.772-1.054,80.293,80.293-1.054-11.772Z" transform="translate(104.051 18.422)"/>
        </g>
      </g>
    </g>
    <g id="g3030" transform="translate(17.873 -665.087)">
      <path id="path3032" d="M-199.351-72.5a1.869,1.869,0,0,1-1.322-.547L-269.1-141.468a1.869,1.869,0,0,1-.547-1.322,1.869,1.869,0,0,1,.547-1.322l19.682-19.682a1.869,1.869,0,0,1,2.643,0l22.68,22.68a1.869,1.869,0,0,1,0,2.643,1.869,1.869,0,0,1-2.643,0l-21.358-21.358-17.039,17.039,65.783,65.782,17.039-17.039L-220.57-132.3a1.869,1.869,0,0,1,0-2.643,1.869,1.869,0,0,1,2.643,0l39.579,39.579a1.869,1.869,0,0,1,0,2.643L-198.03-73.043A1.869,1.869,0,0,1-199.351-72.5Z" transform="translate(269.646 164.341)"/>
    </g>
    <g id="g3034" transform="translate(0 -682.665)">
      <g id="g3036" clip-path="url(#clip-path)">
        <g id="g3042" transform="translate(0.295 0)">
          <path id="path3044" d="M-163.379-10a1.866,1.866,0,0,1,.637.112,1.869,1.869,0,0,1,1.224,1.59l1.574,17.578a1.869,1.869,0,0,1-.54,1.488L-180.166,30.45a1.869,1.869,0,0,1-1.488.54l-17.578-1.574a1.869,1.869,0,0,1-1.59-1.224,1.869,1.869,0,0,1,.435-1.959L-164.7-9.453A1.869,1.869,0,0,1-163.379-10Zm-.366,18.744-1.14-12.726L-194.917,26.05l12.726,1.14Z" transform="translate(200.934 10)"/>
        </g>
        <g id="g3046" transform="translate(86.299 86.004)">
          <path id="path3048" d="M-187.8-18.421q.083,0,.167.007l17.578,1.574a1.869,1.869,0,0,1,1.59,1.224,1.869,1.869,0,0,1-.435,1.959l-35.686,35.686a1.869,1.869,0,0,1-1.959.435,1.869,1.869,0,0,1-1.224-1.59L-209.348,3.3a1.869,1.869,0,0,1,.54-1.488l19.682-19.682A1.869,1.869,0,0,1-187.8-18.421Zm13.43,4.948-12.726-1.14L-205.547,3.833l1.14,12.726Z" transform="translate(209.356 18.421)"/>
        </g>
      </g>
    </g>
    <g id="g3050" transform="translate(83.443 -663.436)">
      <path id="path3052" d="M-8.131,3.964A1.869,1.869,0,0,1-10,2.1V-8.131A1.869,1.869,0,0,1-8.131-10,1.869,1.869,0,0,1-6.262-8.131V2.1A1.869,1.869,0,0,1-8.131,3.964Z" transform="translate(10 10)"/>
    </g>
    <g id="g3054" transform="translate(89.703 -657.848)">
      <path id="path3056" d="M-46.82.969A1.863,1.863,0,0,1-48.142.422a1.869,1.869,0,0,1,0-2.643l7.231-7.231a1.869,1.869,0,0,1,2.643,0,1.869,1.869,0,0,1,0,2.643L-45.5.422A1.863,1.863,0,0,1-46.82.969Z" transform="translate(48.689 10)"/>
    </g>
    <g id="g3058" transform="translate(92.296 -644.358)">
      <path id="path3060" d="M-52.618-6.262H-62.844a1.869,1.869,0,0,1-1.869-1.869A1.869,1.869,0,0,1-62.844-10h10.226a1.869,1.869,0,0,1,1.869,1.869A1.869,1.869,0,0,1-52.618-6.262Z" transform="translate(64.713 10)"/>
    </g>
  </g>
</svg>
