<svg xmlns="http://www.w3.org/2000/svg" xmlns:xlink="http://www.w3.org/1999/xlink" width="65" height="65" viewBox="0 0 65 65">
  <defs>
    <clipPath id="clip-path">
      <rect id="Rectángulo_402201" data-name="Rectángulo 402201" width="65" height="65" transform="translate(458.051 3371)" fill="#916aab"/>
    </clipPath>
  </defs>
  <g id="Enmascarar_grupo_1098699" data-name="Enmascarar grupo 1098699" transform="translate(-458.051 -3371)" clip-path="url(#clip-path)">
    <g id="Page-1" transform="translate(458.043 3371.001)">
      <g id="_047---Ball-of-Wool" data-name="047---Ball-of-Wool" transform="translate(0 -1.083)">
        <path id="Shape" d="M64.6,15.9a4.324,4.324,0,0,0-2.1-5.748,4.117,4.117,0,0,0-.758-.262,4.314,4.314,0,0,0-2.708-4.173,4.236,4.236,0,0,0-1.753-.286A4.32,4.32,0,0,0,49.484,4.1,28.126,28.126,0,0,0,28.669,2.289l-.069.018h-.01A28.111,28.111,0,0,0,14.567,12c-.013.016-.026.031-.039.049a27.875,27.875,0,0,0-5.862,17.2,28.669,28.669,0,0,0,.223,3.358,4.308,4.308,0,0,0-1.011,8.125,4.29,4.29,0,0,0,2.965,5.707,4.268,4.268,0,0,0,.031.725,4.343,4.343,0,0,0,4.291,3.752,3.953,3.953,0,0,0,.575-.042c.129-.017.526-.073,1.14-.179a16.5,16.5,0,0,0-.632,4.554,1.942,1.942,0,0,1-2.167,2.167c-.873,0-1.029,0-2.227-2.142-1.058-1.9-3.03-5.442-7.523-5.442a4.333,4.333,0,0,0-.659,8.613c.195.308.456.769.617,1.056,1.283,2.3,3.67,6.58,9.791,6.58,7.112,0,10.833-5.449,10.833-10.833,0-.161.016-.312.024-.468a28.256,28.256,0,0,0,11.893,2.635c.584,0,1.167-.023,1.755-.054h.068a27.711,27.711,0,0,0,8.264-1.811,22.943,22.943,0,0,0,2.534-1.124.636.636,0,0,0,.088-.039A28.176,28.176,0,0,0,63.059,18.968c.532-.993,1.05-2.01,1.536-3.064ZM48.553,6.046a37.874,37.874,0,0,1-2.745,5.174c-5.572-3.633-13.115-4.029-17.4-3.9.382-1.016.8-2.039,1.278-3.064A26.34,26.34,0,0,1,48.553,6.048ZM27.075,27.116a26.844,26.844,0,0,1-.938-5.138,21.09,21.09,0,0,1,6.527,2.052A53.949,53.949,0,0,1,27.075,27.116Zm-5.341,2.242A35.083,35.083,0,0,1,23.8,6.752a25.848,25.848,0,0,1,3.084-1.517c-.4.975-.771,1.939-1.089,2.895v.009a38.033,38.033,0,0,0-1.471,5.914,32.791,32.791,0,0,0-.447,6.711,29.175,29.175,0,0,0,1.208,7.258c-1.148.5-2.27.939-3.355,1.336Zm12.923-6.666a22.064,22.064,0,0,0-8.626-2.925,30.647,30.647,0,0,1,.286-4.345c3.392.4,8.552,1.449,12.289,4.161a45.194,45.194,0,0,1-3.949,3.11Zm5.562-4.61c-4.124-3.151-9.817-4.347-13.549-4.8a36.219,36.219,0,0,1,.963-3.763c3.812-.191,11.511-.045,16.958,3.494a39.566,39.566,0,0,1-4.372,5.071ZM20.6,8.971a37.235,37.235,0,0,0-.919,21.1c-1.251.411-2.427.758-3.514,1.044a42.29,42.29,0,0,1,.217-17.908A25.629,25.629,0,0,1,20.6,8.971Zm-7.205,9.051a44.574,44.574,0,0,0,.668,13.624c-1.223.282-2.248.481-3.033.616a26.769,26.769,0,0,1-.2-3.013A25.767,25.767,0,0,1,13.394,18.022ZM9.533,34.677c.024,0,.243-.028.6-.079a.547.547,0,0,0,.118-.009c.013,0,.023-.011.036-.013.951-.141,2.768-.452,5.143-1.037a1.02,1.02,0,0,0,.141-.016,1.016,1.016,0,0,0,.093-.041c1.625-.407,3.495-.944,5.525-1.64a.219.219,0,0,0,.082-.011c.028-.011.062-.036.1-.05,1.682-.583,3.467-1.274,5.3-2.1a.362.362,0,0,0,.083-.013,1.083,1.083,0,0,0,.223-.129,56.159,56.159,0,0,0,8.181-4.559,1.061,1.061,0,0,0,.108-.067,47.531,47.531,0,0,0,5.721-4.575.911.911,0,0,0,.128-.1c.015-.016.02-.039.034-.056a41.745,41.745,0,0,0,5.794-6.764c.011-.014.028-.018.038-.032a.8.8,0,0,0,.042-.087,39.856,39.856,0,0,0,4.06-7.61A2.167,2.167,0,1,1,55.1,7.3C43.9,35.286,11.347,38.851,9.967,38.989a2.167,2.167,0,0,1-.433-4.312Zm.244,7.9a2.125,2.125,0,0,1,.271-1.423.886.886,0,0,0,.131-.007C11.613,41,45.429,37.3,57.1,8.109A4.277,4.277,0,0,0,57.25,7.6a2.066,2.066,0,0,1,.96.13,2.158,2.158,0,0,1,1.241,2.742v.017a.808.808,0,0,0-.028.091c-11.242,28.034-45.706,33.583-47.168,33.8a1,1,0,0,0-.141.02,1.308,1.308,0,0,0-.2.015,2.156,2.156,0,0,1-2.137-1.842Zm5.665,6.153a1.919,1.919,0,0,1-.275.022,2.167,2.167,0,0,1-2.144-1.884,2.007,2.007,0,0,1-.009-.411c4.261-.728,36.725-7.137,48.154-34.469a2.192,2.192,0,0,1,.411.134,2.16,2.16,0,0,1,1.051,2.874,54.153,54.153,0,0,1-12.4,17.072l-.012.011A63.518,63.518,0,0,1,33.881,42.965a1.059,1.059,0,0,0-.273.117c-.008,0-.011.013-.018.018-1.994.924-3.917,1.706-5.72,2.362a1.073,1.073,0,0,0-.217.079,63.631,63.631,0,0,1-12.209,3.187Zm32.724,3.91c-.523.26-1.054.5-1.6.714a24.239,24.239,0,0,1-4.381-2.585,25.35,25.35,0,0,0,3.351-12.092c1.542-1.1,3.069-2.3,4.571-3.6.181,4,.134,11.323-1.94,17.565Zm-9.4,2.535A21.909,21.909,0,0,1,29.2,47.264c1.49-.557,3.047-1.192,4.658-1.919a34.181,34.181,0,0,0,6.184,6.529l.05.037a27.793,27.793,0,0,0,3.594,2.4,25.548,25.548,0,0,1-4.919.856ZM24.57,52.18a25.566,25.566,0,0,1-3.617-2.348c1.739-.433,3.835-1.024,6.167-1.819a22.413,22.413,0,0,0,7.034,7.091A26.01,26.01,0,0,1,24.57,52.18Zm15.89-2.792a32.2,32.2,0,0,1-4.593-4.983,69.531,69.531,0,0,0,7.393-4.179,22.246,22.246,0,0,1-2.8,9.163ZM14.083,63.916c-4.849,0-6.684-3.291-7.951-5.56a9.308,9.308,0,0,0-1.1-1.691,1.083,1.083,0,0,0-.746-.333,2.19,2.19,0,0,1-2.114-2.167A2.167,2.167,0,0,1,4.333,52C7.553,52,9,54.6,9.967,56.333c1.192,2.137,1.922,3.25,4.117,3.25a4.108,4.108,0,0,0,4.333-4.333,14.323,14.323,0,0,1,.6-4.186,27.805,27.805,0,0,0,3.85,2.638,10.988,10.988,0,0,0-.119,1.548,8.391,8.391,0,0,1-8.667,8.667ZM50.868,51.133a58.268,58.268,0,0,0,1.3-17.931,57.2,57.2,0,0,0,4.449-4.719,45.273,45.273,0,0,1-.355,18.026A25.946,25.946,0,0,1,50.868,51.133ZM62.833,29.25a25.984,25.984,0,0,1-3.664,13.309,49.25,49.25,0,0,0-.778-16.294,56.032,56.032,0,0,0,3.25-4.808A25.918,25.918,0,0,1,62.833,29.25Z" fill="#916aab"/>
      </g>
    </g>
  </g>
</svg>
