<svg xmlns="http://www.w3.org/2000/svg" xmlns:xlink="http://www.w3.org/1999/xlink" width="65" height="65" viewBox="0 0 65 65">
  <defs>
    <clipPath id="clip-path">
      <rect id="Rectángulo_402203" data-name="Rectángulo 402203" width="65" height="65" transform="translate(1077.051 3371)" fill="#916aab"/>
    </clipPath>
    <clipPath id="clip-path-2">
      <path id="path3339" d="M0-65H65V0H0Z" fill="#916aab"/>
    </clipPath>
  </defs>
  <g id="Enmascarar_grupo_1098701" data-name="Enmascarar grupo 1098701" transform="translate(-1077.051 -3371)" clip-path="url(#clip-path)">
    <g id="g3333" transform="translate(1077.051 3436)">
      <g id="g3335">
        <g id="g3337" clip-path="url(#clip-path-2)">
          <g id="g3343" transform="translate(44.053 -26.787)">
            <path id="path3345" d="M0,0A.952.952,0,0,1-.952.952.952.952,0,0,1-1.9,0,.952.952,0,0,1-.952-.952.952.952,0,0,1,0,0" fill="#916aab"/>
          </g>
          <g id="g3347" transform="translate(47.861 -30.596)">
            <path id="path3349" d="M0,0A.952.952,0,0,1-.952.952.952.952,0,0,1-1.9,0,.952.952,0,0,1-.952-.952.952.952,0,0,1,0,0" fill="#916aab"/>
          </g>
          <g id="g3351" transform="translate(47.861 -22.979)">
            <path id="path3353" d="M0,0A.952.952,0,0,1-.952.952.952.952,0,0,1-1.9,0,.952.952,0,0,1-.952-.952.952.952,0,0,1,0,0" fill="#916aab"/>
          </g>
          <g id="g3355" transform="translate(51.67 -26.787)">
            <path id="path3357" d="M0,0A.952.952,0,0,1-.952.952.952.952,0,0,1-1.9,0,.952.952,0,0,1-.952-.952.952.952,0,0,1,0,0" fill="#916aab"/>
          </g>
          <g id="g3359" transform="translate(53.574 -8.569)">
            <path id="path3361" d="M0,0A.952.952,0,0,1-.952.952.952.952,0,0,1-1.9,0,.952.952,0,0,1-.952-.952.952.952,0,0,1,0,0" fill="#916aab"/>
          </g>
          <g id="g3363" transform="translate(57.383 -12.378)">
            <path id="path3365" d="M0,0A.952.952,0,0,1-.952.952.952.952,0,0,1-1.9,0,.952.952,0,0,1-.952-.952.952.952,0,0,1,0,0" fill="#916aab"/>
          </g>
          <g id="g3367" transform="translate(57.383 -4.761)">
            <path id="path3369" d="M0,0A.952.952,0,0,1-.952.952.952.952,0,0,1-1.9,0,.952.952,0,0,1-.952-.952.952.952,0,0,1,0,0" fill="#916aab"/>
          </g>
          <g id="g3371" transform="translate(61.191 -8.569)">
            <path id="path3373" d="M0,0A.952.952,0,0,1-.952.952.952.952,0,0,1-1.9,0,.952.952,0,0,1-.952-.952.952.952,0,0,1,0,0" fill="#916aab"/>
          </g>
          <g id="g3375" transform="translate(53.574 -45.005)">
            <path id="path3377" d="M0,0A.952.952,0,0,1-.952.952.952.952,0,0,1-1.9,0,.952.952,0,0,1-.952-.952.952.952,0,0,1,0,0" fill="#916aab"/>
          </g>
          <g id="g3379" transform="translate(57.383 -48.813)">
            <path id="path3381" d="M0,0A.952.952,0,0,1-.952.952.952.952,0,0,1-1.9,0,.952.952,0,0,1-.952-.952.952.952,0,0,1,0,0" fill="#916aab"/>
          </g>
          <g id="g3383" transform="translate(57.383 -41.196)">
            <path id="path3385" d="M0,0A.952.952,0,0,1-.952.952.952.952,0,0,1-1.9,0,.952.952,0,0,1-.952-.952.952.952,0,0,1,0,0" fill="#916aab"/>
          </g>
          <g id="g3387" transform="translate(61.191 -45.005)">
            <path id="path3389" d="M0,0A.952.952,0,0,1-.952.952.952.952,0,0,1-1.9,0,.952.952,0,0,1-.952-.952.952.952,0,0,1,0,0" fill="#916aab"/>
          </g>
          <g id="g3391" transform="translate(34.531 -8.569)">
            <path id="path3393" d="M0,0A.952.952,0,0,1-.952.952.952.952,0,0,1-1.9,0,.952.952,0,0,1-.952-.952.952.952,0,0,1,0,0" fill="#916aab"/>
          </g>
          <g id="g3395" transform="translate(38.34 -12.378)">
            <path id="path3397" d="M0,0A.952.952,0,0,1-.952.952.952.952,0,0,1-1.9,0,.952.952,0,0,1-.952-.952.952.952,0,0,1,0,0" fill="#916aab"/>
          </g>
          <g id="g3399" transform="translate(38.34 -4.761)">
            <path id="path3401" d="M0,0A.952.952,0,0,1-.952.952.952.952,0,0,1-1.9,0,.952.952,0,0,1-.952-.952.952.952,0,0,1,0,0" fill="#916aab"/>
          </g>
          <g id="g3403" transform="translate(42.148 -8.569)">
            <path id="path3405" d="M0,0A.952.952,0,0,1-.952.952.952.952,0,0,1-1.9,0,.952.952,0,0,1-.952-.952.952.952,0,0,1,0,0" fill="#916aab"/>
          </g>
          <g id="g3407" transform="translate(0.952 -52.622)">
            <path id="path3409" d="M11.426,52.622A12.378,12.378,0,0,1-.952,40.244V0A.952.952,0,0,1,0-.952.952.952,0,0,1,.952,0V40.244a10.474,10.474,0,0,0,20.947,0V0a.952.952,0,0,1,.952-.952A.952.952,0,0,1,23.8,0V40.244A12.378,12.378,0,0,1,11.426,52.622Z" fill="#916aab"/>
          </g>
          <g id="g3411" transform="translate(23.804 -52.622)">
            <path id="path3413" d="M-11.426-12.378A12.3,12.3,0,0,1-2.673-8.753,12.3,12.3,0,0,1,.952,0,12.3,12.3,0,0,1-2.673,8.753a12.3,12.3,0,0,1-8.753,3.625,12.3,12.3,0,0,1-8.753-3.625A12.3,12.3,0,0,1-23.8,0a12.3,12.3,0,0,1,3.625-8.753A12.3,12.3,0,0,1-11.426-12.378Zm0,22.852A10.485,10.485,0,0,0-.952,0,10.485,10.485,0,0,0-11.426-10.474,10.485,10.485,0,0,0-21.9,0,10.485,10.485,0,0,0-11.426,10.474Z" fill="#916aab"/>
          </g>
          <g id="g3415" transform="translate(5.817 -56.49)">
            <path id="path3417" d="M6.561,12.438A8.569,8.569,0,0,1-.82-.484.952.952,0,0,1,.484-.82.952.952,0,0,1,.82.484,6.666,6.666,0,1,0,3.177-1.873a.952.952,0,0,1-1.3-.335.952.952,0,0,1,.335-1.3,8.569,8.569,0,1,1,4.353,15.95Z" fill="#916aab"/>
          </g>
          <g id="g3419" transform="translate(16.187 -52.622)">
            <path id="path3421" d="M-3.809-4.761A4.766,4.766,0,0,1,.952,0,4.766,4.766,0,0,1-3.809,4.761,4.766,4.766,0,0,1-8.569,0,4.766,4.766,0,0,1-3.809-4.761Zm0,7.617A2.86,2.86,0,0,0-.952,0,2.86,2.86,0,0,0-3.809-2.856,2.86,2.86,0,0,0-6.665,0,2.86,2.86,0,0,0-3.809,2.856Z" fill="#916aab"/>
          </g>
          <g id="g3423" transform="translate(12.378 -64.048)">
            <path id="path3425" d="M45.957,64.048H15.234a.952.952,0,0,1-.952-.952c0-13.149,3.442-19.82,6.771-26.272,3.373-6.537,6.559-12.712,6.559-25.4a.952.952,0,0,1,.952-.952H45.957a4.761,4.761,0,1,0,0-9.521H0A.952.952,0,0,1-.952,0,.952.952,0,0,1,0-.952H45.957a6.673,6.673,0,0,1,6.665,6.665v51.67A6.673,6.673,0,0,1,45.957,64.048Zm-29.764-1.9H45.957a4.766,4.766,0,0,0,4.761-4.761V10.373a6.645,6.645,0,0,1-4.761,2H29.51C29.349,24.9,25.993,31.4,22.746,37.7,19.458,44.069,16.348,50.1,16.193,62.144Z" fill="#916aab"/>
          </g>
          <g id="g3427" transform="translate(23.804 -12.378)">
            <path id="path3429" d="M4.729.952H0A.952.952,0,0,1-.952,0,.952.952,0,0,1,0-.952H4.729A.952.952,0,0,1,5.681,0,.952.952,0,0,1,4.729.952Z" fill="#916aab"/>
          </g>
        </g>
      </g>
    </g>
  </g>
</svg>
