<svg xmlns="http://www.w3.org/2000/svg" width="295.051" height="335.518" viewBox="0 0 295.051 335.518">
  <g id="Grupo_1101864" data-name="Grupo 1101864" transform="translate(0 0.004)">
    <g id="Grupo_1101865" data-name="Grupo 1101865" transform="translate(0 -0.004)">
      <path id="Trazado_892754" data-name="Trazado 892754" d="M1425.986,202h-98.113a31.232,31.232,0,0,0-31.232,31.232v166.29h160.577V233.228A31.233,31.233,0,0,0,1425.986,202m-82.7,14.861a3.922,3.922,0,1,1,3.922-3.922,3.922,3.922,0,0,1-3.922,3.922m22.5,0a3.922,3.922,0,1,1,3.922-3.922,3.922,3.922,0,0,1-3.922,3.922m22.5,0a3.922,3.922,0,1,1,3.922-3.922,3.922,3.922,0,0,1-3.922,3.922m22.5,0a3.922,3.922,0,1,1,3.922-3.922,3.922,3.922,0,0,1-3.922,3.922" transform="translate(-1162.167 -181.047)" fill="#fbf4e8"/>
      <path id="Trazado_892755" data-name="Trazado 892755" d="M1694.146,32.4a8.368,8.368,0,0,1-6.465-3.473l.8-.652a7.378,7.378,0,0,0,5.665,3.092c5.178,0,9.391-6.805,9.391-15.17s-4.213-15.17-9.391-15.17-9.391,6.805-9.391,15.17a23.721,23.721,0,0,0,.452,4.646l-1.012.2a24.745,24.745,0,0,1-.472-4.849c0-8.934,4.676-16.2,10.423-16.2s10.423,7.268,10.423,16.2-4.676,16.2-10.423,16.2" transform="translate(-1509.105 0.003)"/>
      <path id="Trazado_892756" data-name="Trazado 892756" d="M1911.071,32.4a8.369,8.369,0,0,1-6.466-3.473l.8-.652a7.379,7.379,0,0,0,5.666,3.092c5.178,0,9.391-6.805,9.391-15.17s-4.213-15.17-9.391-15.17-9.391,6.805-9.391,15.17a23.712,23.712,0,0,0,.452,4.646l-1.012.2a24.745,24.745,0,0,1-.472-4.849c0-8.934,4.676-16.2,10.423-16.2s10.423,7.268,10.423,16.2-4.676,16.2-10.423,16.2" transform="translate(-1703.533 0.003)"/>
      <path id="Trazado_892757" data-name="Trazado 892757" d="M2128,32.4a8.367,8.367,0,0,1-6.465-3.473l.8-.652A7.378,7.378,0,0,0,2128,31.369c5.178,0,9.391-6.805,9.391-15.17s-4.213-15.17-9.391-15.17-9.391,6.805-9.391,15.17a23.711,23.711,0,0,0,.452,4.646l-1.012.2a24.735,24.735,0,0,1-.472-4.849c0-8.934,4.676-16.2,10.423-16.2s10.423,7.268,10.423,16.2S2133.744,32.4,2128,32.4" transform="translate(-1897.961 0.003)"/>
      <path id="Trazado_892758" data-name="Trazado 892758" d="M2344.922,32.4a8.367,8.367,0,0,1-6.465-3.473l.8-.652a7.378,7.378,0,0,0,5.665,3.092c5.178,0,9.391-6.805,9.391-15.17s-4.213-15.17-9.391-15.17-9.391,6.805-9.391,15.17a23.711,23.711,0,0,0,.452,4.646l-1.012.2a24.754,24.754,0,0,1-.472-4.849c0-8.934,4.675-16.2,10.423-16.2s10.423,7.268,10.423,16.2-4.676,16.2-10.423,16.2" transform="translate(-2092.389 0.003)"/>
      <path id="Trazado_892759" data-name="Trazado 892759" d="M2164.914,1399.1h-27.39l-3.229-28.829-2.828,28.829h-27.4v-65.2h60.844Zm-26.2-1.333h24.864v-62.532H2105.4v62.532h24.856l3.949-40.257Z" transform="translate(-1885.858 -1195.562)"/>
      <path id="Trazado_892760" data-name="Trazado 892760" d="M1510.213,568.354h-44.878V526.261h-13.063V507.7l20.262-6.718L1500.3,501l20.824,5.95.047,19.363-10.954-.056Zm-43.545-1.333h42.212V524.927l10.842-.055.024-16.925-19.727-5.636h-27.377l-19.037,6.345v16.271h13.063Z" transform="translate(-1301.657 -449.021)"/>
      <path id="Trazado_892761" data-name="Trazado 892761" d="M1780.435,520.913a.413.413,0,0,1-.413-.413v-1.135a.413.413,0,0,1,.826,0V520.5a.413.413,0,0,1-.413.413" transform="translate(-1595.417 -465.131)"/>
      <path id="Trazado_892762" data-name="Trazado 892762" d="M1780.435,608.412a.413.413,0,0,1-.413-.413v-2.243a.413.413,0,0,1,.826,0V608a.413.413,0,0,1-.413.413m0-4.485a.413.413,0,0,1-.413-.413v-2.243a.413.413,0,0,1,.826,0v2.243a.413.413,0,0,1-.413.413m0-4.485a.413.413,0,0,1-.413-.413v-2.243a.413.413,0,1,1,.826,0v2.243a.413.413,0,0,1-.413.413m0-4.485a.413.413,0,0,1-.413-.413V592.3a.413.413,0,0,1,.826,0v2.243a.413.413,0,0,1-.413.413m0-4.485a.413.413,0,0,1-.413-.413v-2.243a.413.413,0,1,1,.826,0v2.243a.413.413,0,0,1-.413.413m0-4.485a.413.413,0,0,1-.413-.413V583.33a.413.413,0,1,1,.826,0v2.243a.413.413,0,0,1-.413.413m0-4.485a.413.413,0,0,1-.413-.413v-2.243a.413.413,0,0,1,.826,0v2.243a.413.413,0,0,1-.413.413m0-4.485a.413.413,0,0,1-.413-.413V574.36a.413.413,0,1,1,.826,0V576.6a.413.413,0,0,1-.413.413m0-4.485a.413.413,0,0,1-.413-.413v-2.243a.413.413,0,0,1,.826,0v2.243a.413.413,0,0,1-.413.413m0-4.485a.413.413,0,0,1-.413-.413v-2.243a.413.413,0,0,1,.826,0v2.243a.413.413,0,0,1-.413.413m0-4.485a.413.413,0,0,1-.413-.413V560.9a.413.413,0,1,1,.826,0v2.243a.413.413,0,0,1-.413.413m0-4.485a.413.413,0,0,1-.413-.413v-2.243a.413.413,0,0,1,.826,0v2.243a.413.413,0,0,1-.413.413m0-4.485a.413.413,0,0,1-.413-.413v-2.243a.413.413,0,0,1,.826,0v2.243a.413.413,0,0,1-.413.413" transform="translate(-1595.417 -494.322)"/>
      <path id="Trazado_892763" data-name="Trazado 892763" d="M1780.435,1115.719a.413.413,0,0,1-.413-.413v-1.135a.413.413,0,0,1,.826,0v1.135a.413.413,0,0,1-.413.413" transform="translate(-1595.417 -998.25)"/>
      <path id="Trazado_892764" data-name="Trazado 892764" d="M1770.507,516.421l1.4-1.4,1.4,1.4v-1.188l-1.4-1.4-1.4,1.4Z" transform="translate(-1586.888 -460.543)"/>
      <path id="Trazado_892765" data-name="Trazado 892765" d="M1770.507,1112.827l1.4,1.4,1.4-1.4v1.188l-1.4,1.4-1.4-1.4Z" transform="translate(-1586.888 -997.416)"/>
      <path id="Trazado_892766" data-name="Trazado 892766" d="M2035.174,1342.841a.413.413,0,0,1-.413-.413v-1.135a.413.413,0,1,1,.825,0v1.135a.413.413,0,0,1-.413.413" transform="translate(-1823.737 -1201.818)"/>
      <path id="Trazado_892767" data-name="Trazado 892767" d="M2035.174,1430.341a.413.413,0,0,1-.413-.413v-2.243a.413.413,0,1,1,.825,0v2.243a.413.413,0,0,1-.413.413m0-4.485a.413.413,0,0,1-.413-.413V1423.2a.413.413,0,1,1,.825,0v2.243a.413.413,0,0,1-.413.413m0-4.485a.413.413,0,0,1-.413-.413v-2.243a.413.413,0,1,1,.825,0v2.243a.413.413,0,0,1-.413.413m0-4.485a.413.413,0,0,1-.413-.413v-2.243a.413.413,0,1,1,.825,0v2.243a.413.413,0,0,1-.413.413m0-4.485a.413.413,0,0,1-.413-.413v-2.243a.413.413,0,1,1,.825,0v2.243a.413.413,0,0,1-.413.413m0-4.485a.413.413,0,0,1-.413-.413v-2.243a.413.413,0,1,1,.825,0v2.243a.413.413,0,0,1-.413.413m0-4.485a.413.413,0,0,1-.413-.413v-2.243a.413.413,0,1,1,.825,0v2.243a.413.413,0,0,1-.413.413m0-4.485a.413.413,0,0,1-.413-.413v-2.243a.413.413,0,1,1,.825,0v2.243a.413.413,0,0,1-.413.413m0-4.485a.413.413,0,0,1-.413-.413V1391.8a.413.413,0,1,1,.825,0v2.243a.413.413,0,0,1-.413.413m0-4.485a.413.413,0,0,1-.413-.413v-2.243a.413.413,0,1,1,.825,0v2.243a.413.413,0,0,1-.413.413m0-4.485a.413.413,0,0,1-.413-.413v-2.243a.413.413,0,1,1,.825,0v2.243a.413.413,0,0,1-.413.413m0-4.485a.413.413,0,0,1-.413-.413v-2.243a.413.413,0,1,1,.825,0v2.243a.413.413,0,0,1-.413.413m0-4.485a.413.413,0,0,1-.413-.413v-2.243a.413.413,0,1,1,.825,0v2.243a.413.413,0,0,1-.413.413" transform="translate(-1823.737 -1231.009)"/>
      <path id="Trazado_892768" data-name="Trazado 892768" d="M2035.174,1937.648a.413.413,0,0,1-.413-.413V1936.1a.413.413,0,1,1,.825,0v1.135a.413.413,0,0,1-.413.413" transform="translate(-1823.737 -1734.937)"/>
      <path id="Trazado_892769" data-name="Trazado 892769" d="M2025.245,1338.349l1.4-1.4,1.4,1.4v-1.188l-1.4-1.4-1.4,1.4Z" transform="translate(-1815.208 -1197.23)"/>
      <path id="Trazado_892770" data-name="Trazado 892770" d="M2025.245,1934.756l1.4,1.4,1.4-1.4v1.188l-1.4,1.4-1.4-1.4Z" transform="translate(-1815.208 -1734.102)"/>
      <path id="Trazado_892771" data-name="Trazado 892771" d="M1581.926,1179.981h-1.135a.413.413,0,1,1,0-.826h1.135a.413.413,0,0,1,0,.826" transform="translate(-1416.478 -1056.865)"/>
      <path id="Trazado_892772" data-name="Trazado 892772" d="M1649.736,1179.981h-2.354a.413.413,0,1,1,0-.826h2.354a.413.413,0,1,1,0,.826m-4.707,0h-2.354a.413.413,0,1,1,0-.826h2.354a.413.413,0,1,1,0,.826m-4.707,0h-2.354a.413.413,0,0,1,0-.826h2.354a.413.413,0,1,1,0,.826m-4.707,0h-2.354a.413.413,0,1,1,0-.826h2.354a.413.413,0,1,1,0,.826m-4.707,0h-2.353a.413.413,0,1,1,0-.826h2.353a.413.413,0,1,1,0,.826m-4.707,0h-2.354a.413.413,0,0,1,0-.826h2.354a.413.413,0,1,1,0,.826m-4.707,0h-2.354a.413.413,0,1,1,0-.826h2.354a.413.413,0,1,1,0,.826m-4.707,0h-2.354a.413.413,0,0,1,0-.826h2.354a.413.413,0,1,1,0,.826" transform="translate(-1446.63 -1056.865)"/>
      <path id="Trazado_892773" data-name="Trazado 892773" d="M1978.673,1179.981h-1.135a.413.413,0,0,1,0-.826h1.135a.413.413,0,0,1,0,.826" transform="translate(-1772.078 -1056.865)"/>
      <path id="Trazado_892774" data-name="Trazado 892774" d="M1577.848,1172.44l-1.4-1.4,1.4-1.4h-1.188l-1.4,1.4,1.4,1.4Z" transform="translate(-1411.891 -1048.337)"/>
      <path id="Trazado_892775" data-name="Trazado 892775" d="M1976.2,1172.44l1.4-1.4-1.4-1.4h1.188l1.4,1.4-1.4,1.4Z" transform="translate(-1771.245 -1048.337)"/>
      <path id="Trazado_892776" data-name="Trazado 892776" d="M2113.828,1284.61h-1.565c-.315,0-.569-.172-.569-.385s.254-.385.569-.385h1.565c.314,0,.569.172.569.385s-.255.385-.569.385" transform="translate(-1892.691 -1150.694)"/>
      <path id="Trazado_892777" data-name="Trazado 892777" d="M2207.3,1284.61h-3.245c-.314,0-.569-.172-.569-.385s.255-.385.569-.385h3.245c.314,0,.569.172.569.385s-.255.385-.569.385m-6.489,0h-3.244c-.314,0-.569-.172-.569-.385s.255-.385.569-.385h3.244c.314,0,.569.172.569.385s-.255.385-.569.385m-6.489,0h-3.245c-.314,0-.569-.172-.569-.385s.255-.385.569-.385h3.245c.314,0,.569.172.569.385s-.255.385-.569.385m-6.489,0h-3.244c-.314,0-.569-.172-.569-.385s.255-.385.569-.385h3.244c.314,0,.569.172.569.385s-.255.385-.569.385m-6.489,0H2178.1c-.314,0-.569-.172-.569-.385s.254-.385.569-.385h3.244c.314,0,.569.172.569.385s-.255.385-.569.385m-6.489,0h-3.244c-.314,0-.569-.172-.569-.385s.255-.385.569-.385h3.244c.314,0,.569.172.569.385s-.255.385-.569.385m-6.489,0h-3.245c-.314,0-.569-.172-.569-.385s.255-.385.569-.385h3.245c.314,0,.569.172.569.385s-.255.385-.569.385m-6.489,0h-3.245c-.314,0-.569-.172-.569-.385s.255-.385.569-.385h3.245c.314,0,.569.172.569.385s-.255.385-.569.385" transform="translate(-1934.254 -1150.694)"/>
      <path id="Trazado_892778" data-name="Trazado 892778" d="M2660.745,1284.61h-1.565c-.314,0-.569-.172-.569-.385s.255-.385.569-.385h1.565c.314,0,.569.172.569.385s-.255.385-.569.385" transform="translate(-2382.888 -1150.694)"/>
      <path id="Trazado_892779" data-name="Trazado 892779" d="M2108.205,1277.586l-1.931-1.3,1.931-1.3h-1.638l-1.93,1.3,1.93,1.3Z" transform="translate(-1886.366 -1142.751)"/>
      <path id="Trazado_892780" data-name="Trazado 892780" d="M2657.329,1277.586l1.931-1.3-1.931-1.3h1.639l1.929,1.3-1.929,1.3Z" transform="translate(-2381.738 -1142.751)"/>
      <path id="Trazado_892781" data-name="Trazado 892781" d="M2162.765,563.321a.413.413,0,0,1-.413-.413v-1.135a.413.413,0,1,1,.825,0v1.135a.413.413,0,0,1-.413.413" transform="translate(-1938.096 -503.141)"/>
      <path id="Trazado_892782" data-name="Trazado 892782" d="M2162.765,604.585a.413.413,0,0,1-.413-.413v-2.148a.413.413,0,1,1,.825,0v2.148a.413.413,0,0,1-.413.413m0-4.3a.413.413,0,0,1-.413-.413v-2.148a.413.413,0,1,1,.825,0v2.148a.413.413,0,0,1-.413.413m0-4.3a.413.413,0,0,1-.413-.413v-2.148a.413.413,0,1,1,.825,0v2.148a.413.413,0,0,1-.413.413" transform="translate(-1938.096 -531.516)"/>
      <path id="Trazado_892783" data-name="Trazado 892783" d="M2162.765,719.261a.413.413,0,0,1-.413-.413v-1.135a.413.413,0,1,1,.825,0v1.135a.413.413,0,0,1-.413.413" transform="translate(-1938.096 -642.909)"/>
      <path id="Trazado_892784" data-name="Trazado 892784" d="M2152.837,558.829l1.4-1.4,1.4,1.4v-1.188l-1.4-1.4-1.4,1.4Z" transform="translate(-1929.567 -498.553)"/>
      <path id="Trazado_892785" data-name="Trazado 892785" d="M2152.837,716.369l1.4,1.4,1.4-1.4v1.188l-1.4,1.4-1.4-1.4Z" transform="translate(-1929.567 -642.074)"/>
      <path id="Trazado_892786" data-name="Trazado 892786" d="M1655.562,467.51h-1.135a.413.413,0,1,1,0-.826h1.135a.413.413,0,0,1,0,.826" transform="translate(-1482.477 -418.284)"/>
      <path id="Trazado_892787" data-name="Trazado 892787" d="M1705.9,467.51h-2.174a.413.413,0,1,1,0-.826h2.174a.413.413,0,1,1,0,.826m-4.348,0h-2.174a.413.413,0,0,1,0-.826h2.174a.413.413,0,1,1,0,.826m-4.348,0h-2.174a.413.413,0,0,1,0-.826h2.174a.413.413,0,1,1,0,.826m-4.348,0h-2.174a.413.413,0,1,1,0-.826h2.174a.413.413,0,1,1,0,.826m-4.348,0h-2.174a.413.413,0,1,1,0-.826h2.174a.413.413,0,0,1,0,.826" transform="translate(-1511.075 -418.284)"/>
      <path id="Trazado_892788" data-name="Trazado 892788" d="M1897.078,467.51h-1.135a.413.413,0,0,1,0-.826h1.135a.413.413,0,0,1,0,.826" transform="translate(-1698.945 -418.284)"/>
      <path id="Trazado_892789" data-name="Trazado 892789" d="M1651.483,459.969l-1.4-1.4,1.4-1.4h-1.188l-1.4,1.4,1.4,1.4Z" transform="translate(-1477.889 -409.756)"/>
      <path id="Trazado_892790" data-name="Trazado 892790" d="M1894.6,459.969l1.4-1.4-1.4-1.4h1.188l1.4,1.4-1.4,1.4Z" transform="translate(-1698.112 -409.756)"/>
      <path id="Trazado_892792" data-name="Trazado 892792" d="M2476.083,2001.909h-2.174a.413.413,0,0,1,0-.826h2.174a.413.413,0,0,1,0,.826m-4.348,0h-2.174a.413.413,0,0,1,0-.826h2.174a.413.413,0,0,1,0,.826m-4.348,0h-2.174a.413.413,0,1,1,0-.826h2.174a.413.413,0,0,1,0,.826m-4.348,0h-2.174a.413.413,0,0,1,0-.826h2.174a.413.413,0,0,1,0,.826m-4.348,0h-2.174a.413.413,0,0,1,0-.826h2.174a.413.413,0,1,1,0,.826" transform="translate(-2201.383 -1793.551)"/>
      <path id="Trazado_892793" data-name="Trazado 892793" d="M2667.263,2001.909h-1.135a.413.413,0,0,1,0-.826h1.135a.413.413,0,0,1,0,.826" transform="translate(-2389.255 -1793.551)"/>
      <path id="Trazado_892795" data-name="Trazado 892795" d="M2664.785,1994.368l1.4-1.4-1.4-1.4h1.188l1.4,1.4-1.4,1.4Z" transform="translate(-2388.421 -1785.024)"/>
      <path id="Trazado_892796" data-name="Trazado 892796" d="M1474.31,1394.091v30.541l-6.772,7.436h-19.647v-37.977Z" transform="translate(-1297.731 -1249.51)" fill="#aa6379"/>
      <path id="Trazado_892797" data-name="Trazado 892797" d="M1634.455,1685.272v.215l-6.772,7.437h-.244l-.873-7.794Z" transform="translate(-1457.875 -1510.365)" fill="#d68aa5"/>
      <rect id="Rectángulo_402267" data-name="Rectángulo 402267" width="10.113" height="3.509" transform="translate(158.416 142.93)" fill="#ffe086"/>
      <path id="Trazado_892798" data-name="Trazado 892798" d="M2411.667,540.32v30.541l-6.772,7.436h-19.647V540.32Z" transform="translate(-2137.875 -484.283)" fill="#dd7889"/>
      <path id="Trazado_892799" data-name="Trazado 892799" d="M2571.811,831.5v.215l-6.772,7.436h-.243l-.873-7.794Z" transform="translate(-2298.019 -745.138)" fill="#f2a0b2"/>
      <rect id="Rectángulo_402268" data-name="Rectángulo 402268" width="10.113" height="3.509" transform="translate(255.629 54.386)" fill="#ffe086"/>
      <path id="Trazado_892800" data-name="Trazado 892800" d="M1745.8,1448.754c-8.155-.73-13.7-5.65-16.908-9.65a33.872,33.872,0,0,1-5.056-8.567l.968-.358a33.48,33.48,0,0,0,4.913,8.3c3.084,3.833,8.394,8.547,16.176,9.243Z" transform="translate(-1545.055 -1281.855)"/>
      <path id="Trazado_892801" data-name="Trazado 892801" d="M1915.111,1589.51l1.87-1.622-1.623-1.869,1.482.1,1.622,1.869-1.868,1.622Z" transform="translate(-1716.496 -1421.533)"/>
      <path id="Trazado_892802" data-name="Trazado 892802" d="M2112.807,807.7l-.055-1.031a34.176,34.176,0,0,0,17.993-6.07,26.239,26.239,0,0,0,5.822-5.433l.842.6a26.7,26.7,0,0,1-6.031,5.652,35.2,35.2,0,0,1-18.571,6.284" transform="translate(-1893.639 -712.696)"/>
      <path id="Trazado_892803" data-name="Trazado 892803" d="M2104.808,893.261l-1.672,1.825,1.825,1.671-1.484.065-1.824-1.671,1.671-1.825Z" transform="translate(-1883.691 -800.621)"/>
      <g id="Grupo_1101866" data-name="Grupo 1101866">
        <rect id="Rectángulo_402269" data-name="Rectángulo 402269" width="1.898" height="163.993" transform="translate(10.819 170.385)"/>
        <rect id="Rectángulo_402270" data-name="Rectángulo 402270" width="1.898" height="163.993" transform="translate(190.946 170.541)"/>
        <path id="Trazado_892804" data-name="Trazado 892804" d="M1671.339,1606.787H1653.1v10.629h18.242a5.315,5.315,0,1,0,0-10.629" transform="translate(-1481.655 -1416.662)"/>
        <path id="Trazado_892806" data-name="Trazado 892806" d="M1671.339,2199.765H1653.1v10.629h18.242a5.315,5.315,0,1,0,0-10.629" transform="translate(-1481.655 -1948.143)"/>
        <path id="Trazado_892808" data-name="Trazado 892808" d="M329.432,1507.957h128.2a17.361,17.361,0,0,1,17.441,17.479q-.005.33-.019.667V1568.7s-33.519-13.722-127.4-18.222l-1.9-25.054c.063-7.428-8.4-15.924-15.686-17.349q-.314-.061-.637-.113" transform="translate(-295.267 -1328.082)" fill="#dd7889"/>
        <path id="Trazado_892809" data-name="Trazado 892809" d="M204.684,1524.28a16.323,16.323,0,1,1-16.323-16.323,16.323,16.323,0,0,1,16.323,16.323" transform="translate(-154.195 -1328.082)" fill="#d26c7a"/>
        <path id="Trazado_892810" data-name="Trazado 892810" d="M329.432,1691.519h17.474l-1.15-15.185s-.569,14.236-16.323,15.185" transform="translate(-295.267 -1478.997)" fill="#bf6070"/>
        <path id="Trazado_892811" data-name="Trazado 892811" d="M137.649,1606.787H119.407v10.629h18.242a5.315,5.315,0,1,0,0-10.629" transform="translate(-107.023 -1416.662)"/>
        <path id="Trazado_892812" data-name="Trazado 892812" d="M80.176,1612.1a5.315,5.315,0,1,1-5.315-5.315,5.315,5.315,0,0,1,5.315,5.315" transform="translate(-62.334 -1416.661)" fill="#1e1e1e"/>
        <path id="Trazado_892813" data-name="Trazado 892813" d="M329.432,2093.614h128.2a17.361,17.361,0,0,1,17.441,17.479q-.005.33-.019.667v42.592s-33.519-13.722-127.4-18.221l-1.9-25.054c.063-7.428-8.4-15.924-15.686-17.349q-.314-.062-.637-.113" transform="translate(-295.267 -1853)" fill="#aa6379"/>
        <path id="Trazado_892814" data-name="Trazado 892814" d="M201.023,2109.938a16.323,16.323,0,1,1-16.323-16.323,16.323,16.323,0,0,1,16.323,16.323" transform="translate(-150.914 -1853.001)" fill="#9e596c"/>
        <path id="Trazado_892815" data-name="Trazado 892815" d="M329.432,2247.466h17.474l-1.486-18.623s-.233,17.674-15.987,18.623" transform="translate(-295.267 -1974.205)" fill="#844c5d"/>
        <path id="Trazado_892816" data-name="Trazado 892816" d="M137.649,2192.444H119.407v10.629h18.242a5.315,5.315,0,0,0,0-10.629" transform="translate(-107.023 -1941.581)"/>
        <path id="Trazado_892817" data-name="Trazado 892817" d="M80.176,2197.759a5.315,5.315,0,1,1-5.315-5.315,5.315,5.315,0,0,1,5.315,5.315" transform="translate(-62.334 -1941.581)" fill="#1e1e1e"/>
        <rect id="Rectángulo_402271" data-name="Rectángulo 402271" width="23.156" height="1.898" transform="translate(0 333.619)"/>
        <rect id="Rectángulo_402272" data-name="Rectángulo 402272" width="23.156" height="1.898" transform="translate(180.317 333.396)"/>
        <rect id="Rectángulo_402273" data-name="Rectángulo 402273" width="23.156" height="1.898" transform="translate(180.317 169.402)"/>
        <rect id="Rectángulo_402274" data-name="Rectángulo 402274" width="23.156" height="1.898" transform="translate(0 169.626)"/>
      </g>
      <g id="Grupo_1101867" data-name="Grupo 1101867">
        <path id="Trazado_892791" data-name="Trazado 892791" d="M2425.925,2002h-1.266a.461.461,0,0,1,0-.921h1.266a.461.461,0,0,1,0,.921" transform="translate(-2167.952 -1782.277)"/>
        <path id="Trazado_892794" data-name="Trazado 892794" d="M2421.967,1994.692l-1.562-1.562,1.563-1.561h-1.326l-1.561,1.561,1.561,1.562Z" transform="translate(-2163.426 -1773.864)"/>
        <path id="Trazado_892818" data-name="Trazado 892818" d="M2200.413,1302.138s-13.805,2.258-15.882,7.6c0,0,11.648-5.428,18.039-4.425,0,0-.01-1.063-2.157-3.17" transform="translate(-1956.011 -1164.19)" fill="#915168"/>
        <path id="Trazado_892819" data-name="Trazado 892819" d="M2186.576,1120.7l.03,3.191s-8.489,2.208-12.722,4.375a37.727,37.727,0,0,0,.993-7.455s-5.307,1.114-5.358-4.2c0,0-.111-11.7,3.519-16Z" transform="translate(-1942.736 -985.973)" fill="#febca5"/>
        <path id="Trazado_892820" data-name="Trazado 892820" d="M2220.685,1274.55a21.459,21.459,0,0,1-8.517.747l-.47,4.217s5.826-1.743,8.987-4.964" transform="translate(-1980.035 -1139.793)" fill="#ce9a8d"/>
        <path id="Trazado_892821" data-name="Trazado 892821" d="M2388.165,1374.153s10.55,8.688,13.607,17.47a11.728,11.728,0,0,1-.261,8.205,16.264,16.264,0,0,1-4.681,6.824s-4.206-26.833-8.665-32.5" transform="translate(-2136.088 -1227.874)" fill="#915168"/>
        <path id="Trazado_892822" data-name="Trazado 892822" d="M2396.63,2576.032s10.656,2.027,12.742-2.247c0,0-1.335-28.7-3.623-45.7,0,0-8.357,16.033-13.594,24.592,0,0,4.405,15.912,4.475,23.357" transform="translate(-2139.616 -2248.312)" fill="#dd7889"/>
        <path id="Trazado_892823" data-name="Trazado 892823" d="M2353.8,1976.93s-.521,59.119,5.921,65.625l-13.6,25.31a71.785,71.785,0,0,1-3.659-11.845l-2.155-73.666s10.358,1.176,13.489-5.423" transform="translate(-2093.773 -1763.501)" fill="#cc6d82"/>
        <path id="Trazado_892824" data-name="Trazado 892824" d="M2179.143,1986.828s-2.58,14.032-5.63,28.951c0,0-4.093,17.056-.812,26.6,0,0-.235,31.378-5.362,51.636,0,0-7.415,3.26-11.708-.953,0,0-1.325-27.641-3.663-49.955,0,0-5.565-33-4.248-59.032,0,0,8.547,7.406,31.424,2.755" transform="translate(-1923.279 -1767.235)" fill="#dd7889"/>
        <path id="Trazado_892825" data-name="Trazado 892825" d="M2032.066,1378.072s-14.5-15.285-10.846-22.233c0,0,8.844-20.824,19.429-26.242a45.574,45.574,0,0,1,18.04-4.425s9.632,6.291,13.124,38.166c0,0,2.006,22.417,2.4,33.486a5.51,5.51,0,0,1-2.315,4.7c-3.041,2.148-9.106,5.135-18.83,4.533,0,0-20.217-.873-20.3-9.38l-.111-11.7Z" transform="translate(-1811.07 -1184.56)" fill="#aa6379"/>
        <path id="Trazado_892826" data-name="Trazado 892826" d="M2130.993,1583.077s-8.122-15.346.356-18.616c0,0,9.521-5.408,7.495,5.247,0,0-1.9,24.451-14.6,30.436l-.105-11.152s7.424-2.2,6.858-5.915" transform="translate(-1902.602 -1394.952)" fill="#915168"/>
        <path id="Trazado_892827" data-name="Trazado 892827" d="M2117.322,1735.874s1.66,6.9-2.553,11.192c0,0-1.064.01-.02-2.127,0,0-2.147-2.107-4.224,3.231,0,0-3.728-.5-.6-6.908,0,0,5.834-1.65,7.394-5.388" transform="translate(-1888.932 -1547.749)" fill="#febca5"/>
        <path id="Trazado_892828" data-name="Trazado 892828" d="M2132.122,2935.038s-.111,6.812-2.227,7.9l-20.207.191s-.03-3.191,6.351-3.251a44.284,44.284,0,0,1,7.528-5.491s4.492,2.392,8.555.656" transform="translate(-1889.826 -2607.607)"/>
        <path id="Trazado_892829" data-name="Trazado 892829" d="M2353.087,2937.078s.633,7.969-2.558,8l-20.207.191s1.034-3.2,6.351-3.251a32.527,32.527,0,0,1,5.752-4.224s6.93.919,10.662-.715" transform="translate(-2084.937 -2609.991)"/>
        <path id="Trazado_892830" data-name="Trazado 892830" d="M2135.079,1085.756s1.862-1.25.963-6.084a19.855,19.855,0,0,1-.344-4.221c.1-3.484.863-9.31,4.436-13.475a6.627,6.627,0,0,1,5.113-2.3c5.657.069,18.093,1.57,15.617,13.679,0,0,1.683-1.574,2.872.114a1.9,1.9,0,0,1,.506,1.037,1.476,1.476,0,0,0,.662,1.1c1.662,1.058,5.258,3.9,1.905,6.986a3.671,3.671,0,0,0-.817,1.13.881.881,0,0,1-.811.535,1.429,1.429,0,0,0-1.256.883c-.751,1.769-2.616,5.028-5.995,4.468a5.161,5.161,0,0,1-3.717-2.678,5.763,5.763,0,0,1,.124-5.43s-9.15,4.212-10.636-3.653c0,0-.468,5.575-4.9,7.7a14.008,14.008,0,0,0,2.773-7.286,9.609,9.609,0,0,0-.4-3.259,18.266,18.266,0,0,1-.247-8.048s-1.965,17.581-5.852,18.8" transform="translate(-1912.28 -949.779)" fill="#a37b5a"/>
      </g>
    </g>
  </g>
</svg>
