<svg xmlns="http://www.w3.org/2000/svg" xmlns:xlink="http://www.w3.org/1999/xlink" width="400.378" height="233" viewBox="0 0 400.378 233">
  <defs>
    <clipPath id="clip-path">
      <path id="path3093" d="M0-682.665H44.626v44.626H0Z" transform="translate(0 682.665)"/>
    </clipPath>
  </defs>
  <g id="Grupo_1102146" data-name="Grupo 1102146" transform="translate(-599.622 -2171.7)">
    <path id="Trazado_893686" data-name="Trazado 893686" d="M23,0H376.622a23,23,0,0,1,23,23V48a23,23,0,0,1-23,23H23A23,23,0,0,1,0,48V23A23,23,0,0,1,23,0Z" transform="translate(599.622 2171.7)" fill="#b4d5f6"/>
    <path id="Trazado_893684" data-name="Trazado 893684" d="M23,0H377.378a23,23,0,0,1,23,23V48a23,23,0,0,1-23,23H23A23,23,0,0,1,0,48V23A23,23,0,0,1,23,0Z" transform="translate(599.622 2252.7)" fill="#b4d5f6"/>
    <path id="Trazado_893682" data-name="Trazado 893682" d="M23,0H376.622a23,23,0,0,1,23,23V48a23,23,0,0,1-23,23H23A23,23,0,0,1,0,48V23A23,23,0,0,1,23,0Z" transform="translate(599.622 2333.7)" fill="#b4d5f6"/>
    <path id="Trazado_893687" data-name="Trazado 893687" d="M4.672,9.93A7.053,7.053,0,0,1,1.863,8.566a2.6,2.6,0,0,1-.879-2A2.751,2.751,0,0,1,2.059,4.348a4.269,4.269,0,0,1,2.793-.879,4.66,4.66,0,0,1,2.09.453,3.436,3.436,0,0,1,1.422,1.25,3.2,3.2,0,0,1,.5,1.742H7.359A2.08,2.08,0,0,0,6.7,5.287,2.669,2.669,0,0,0,4.852,4.7a2.732,2.732,0,0,0-1.73.489A1.632,1.632,0,0,0,2.5,6.542,1.468,1.468,0,0,0,3.09,7.72,5.785,5.785,0,0,0,5.1,8.6a9.316,9.316,0,0,1,2.219.88A3.367,3.367,0,0,1,8.5,10.6a2.861,2.861,0,0,1,.387,1.508,2.658,2.658,0,0,1-1.078,2.215,4.6,4.6,0,0,1-2.883.832,5.347,5.347,0,0,1-2.187-.449,3.681,3.681,0,0,1-1.566-1.23A3,3,0,0,1,.625,11.7H2.133a1.959,1.959,0,0,0,.762,1.629,3.207,3.207,0,0,0,2.035.6,2.948,2.948,0,0,0,1.82-.484,1.573,1.573,0,0,0,.633-1.32A1.545,1.545,0,0,0,6.8,10.832,6.755,6.755,0,0,0,4.672,9.93ZM15.8,14.164a3.07,3.07,0,0,1-2.477.992,2.628,2.628,0,0,1-2.059-.785,3.4,3.4,0,0,1-.715-2.324v-5.5H12v5.461q0,1.922,1.563,1.922a2.163,2.163,0,0,0,2.2-1.234V6.547h1.445V15H15.836Zm10.758-3.3a5.026,5.026,0,0,1-.891,3.113,2.846,2.846,0,0,1-2.391,1.176A2.947,2.947,0,0,1,20.8,14.023l-.07.977H19.406V3h1.445V7.477a2.93,2.93,0,0,1,2.414-1.086,2.863,2.863,0,0,1,2.418,1.164,5.177,5.177,0,0,1,.879,3.188ZM25.117,10.7a3.906,3.906,0,0,0-.57-2.281,1.888,1.888,0,0,0-1.641-.8,2.122,2.122,0,0,0-2.055,1.328V12.6a2.181,2.181,0,0,0,2.07,1.328,1.878,1.878,0,0,0,1.617-.8A4.153,4.153,0,0,0,25.117,10.7ZM33.3,12.758a1.064,1.064,0,0,0-.441-.91,4.249,4.249,0,0,0-1.539-.559,7.277,7.277,0,0,1-1.742-.562,2.479,2.479,0,0,1-.953-.781,1.869,1.869,0,0,1-.309-1.078A2.193,2.193,0,0,1,29.2,7.109a3.432,3.432,0,0,1,2.246-.719,3.532,3.532,0,0,1,2.332.742,2.357,2.357,0,0,1,.895,1.9H33.219a1.3,1.3,0,0,0-.5-1.023,1.888,1.888,0,0,0-1.27-.43,1.976,1.976,0,0,0-1.234.344,1.082,1.082,0,0,0-.445.9.877.877,0,0,0,.414.789,5.1,5.1,0,0,0,1.5.508,7.8,7.8,0,0,1,1.754.578,2.558,2.558,0,0,1,1,.809,1.988,1.988,0,0,1,.324,1.152,2.163,2.163,0,0,1-.906,1.816,3.8,3.8,0,0,1-2.352.684,4.257,4.257,0,0,1-1.8-.359,2.922,2.922,0,0,1-1.223-1,2.42,2.42,0,0,1-.441-1.395h1.445a1.5,1.5,0,0,0,.582,1.152,2.258,2.258,0,0,0,1.434.426,2.331,2.331,0,0,0,1.316-.332A1.02,1.02,0,0,0,33.3,12.758ZM38.594,4.5V6.547h1.578V7.664H38.594v5.249a1.173,1.173,0,0,0,.211.763.888.888,0,0,0,.719.254,3.5,3.5,0,0,0,.688-.094V15a4.215,4.215,0,0,1-1.109.155,1.8,1.8,0,0,1-1.461-.586,2.517,2.517,0,0,1-.492-1.664V7.664H35.609V6.547h1.539V4.5Zm7.352,3.344a4.331,4.331,0,0,0-.711-.055A1.9,1.9,0,0,0,43.3,9v6H41.859V6.547h1.406l.023.977A2.251,2.251,0,0,1,45.3,6.391a1.477,1.477,0,0,1,.641.109ZM52.18,15a3.036,3.036,0,0,1-.2-.891,3.225,3.225,0,0,1-2.406,1.047,2.984,2.984,0,0,1-2.051-.707,2.287,2.287,0,0,1-.8-1.793,2.39,2.39,0,0,1,1-2.051,4.733,4.733,0,0,1,2.824-.73h1.406V9.211A1.623,1.623,0,0,0,51.5,8a1.821,1.821,0,0,0-1.336-.449,2.107,2.107,0,0,0-1.3.391,1.151,1.151,0,0,0-.523.945H46.891a2,2,0,0,1,.449-1.223,3.066,3.066,0,0,1,1.219-.934,4.1,4.1,0,0,1,1.691-.344,3.342,3.342,0,0,1,2.289.73A2.635,2.635,0,0,1,53.4,9.133v3.891a4.757,4.757,0,0,0,.3,1.852V15Zm-2.4-1.1a2.54,2.54,0,0,0,1.289-.352,2.127,2.127,0,0,0,.883-.914V10.9H50.82q-2.656,0-2.656,1.555a1.316,1.316,0,0,0,.453,1.063A1.742,1.742,0,0,0,49.781,13.9Zm7.844-9.4V6.547H59.2V7.664H57.625v5.249a1.173,1.173,0,0,0,.211.763.888.888,0,0,0,.719.254,3.5,3.5,0,0,0,.688-.094V15a4.215,4.215,0,0,1-1.109.155,1.8,1.8,0,0,1-1.461-.586,2.517,2.517,0,0,1-.492-1.664V7.664H54.641V6.547H56.18V4.5Zm2.727,6.2a4.993,4.993,0,0,1,.488-2.234A3.643,3.643,0,0,1,62.2,6.93a3.7,3.7,0,0,1,1.988-.539,3.565,3.565,0,0,1,2.793,1.2,4.6,4.6,0,0,1,1.066,3.18v.1a5.036,5.036,0,0,1-.473,2.215,3.589,3.589,0,0,1-1.352,1.527,3.743,3.743,0,0,1-2.02.547,3.556,3.556,0,0,1-2.785-1.2A4.575,4.575,0,0,1,60.352,10.8Zm1.453.172a3.616,3.616,0,0,0,.652,2.258,2.211,2.211,0,0,0,3.5-.012A3.955,3.955,0,0,0,66.6,10.7a3.61,3.61,0,0,0-.66-2.254,2.1,2.1,0,0,0-1.754-.863,2.075,2.075,0,0,0-1.727.852A3.925,3.925,0,0,0,61.8,10.867Z" transform="translate(725.622 2196.132)" fill="#12263f"/>
    <path id="Trazado_893685" data-name="Trazado 893685" d="M9.688,11.391a4.185,4.185,0,0,1-1.332,2.785,4.365,4.365,0,0,1-2.98.98,4.008,4.008,0,0,1-3.23-1.445A5.815,5.815,0,0,1,.93,9.844V8.75A6.481,6.481,0,0,1,1.5,5.961,4.231,4.231,0,0,1,3.1,4.113a4.47,4.47,0,0,1,2.406-.645A4.11,4.11,0,0,1,8.414,4.48a4.235,4.235,0,0,1,1.273,2.8H8.18a3.268,3.268,0,0,0-.848-1.975A2.565,2.565,0,0,0,5.508,4.7,2.684,2.684,0,0,0,3.254,5.759a4.882,4.882,0,0,0-.816,3.026v1.1a5.018,5.018,0,0,0,.773,2.948A2.5,2.5,0,0,0,5.375,13.93a2.887,2.887,0,0,0,1.918-.566,3.143,3.143,0,0,0,.887-1.973Zm1.438-.7a4.993,4.993,0,0,1,.488-2.234A3.643,3.643,0,0,1,12.973,6.93a3.7,3.7,0,0,1,1.988-.539,3.565,3.565,0,0,1,2.793,1.2,4.6,4.6,0,0,1,1.066,3.18v.1a5.036,5.036,0,0,1-.473,2.215A3.589,3.589,0,0,1,17,14.609a3.743,3.743,0,0,1-2.02.547,3.556,3.556,0,0,1-2.785-1.2A4.575,4.575,0,0,1,11.125,10.8Zm1.453.172a3.616,3.616,0,0,0,.652,2.258,2.211,2.211,0,0,0,3.5-.012,3.955,3.955,0,0,0,.648-2.418,3.61,3.61,0,0,0-.66-2.254,2.1,2.1,0,0,0-1.754-.863,2.075,2.075,0,0,0-1.727.852A3.925,3.925,0,0,0,12.578,10.867ZM22,6.547l.047,1.063a3.08,3.08,0,0,1,2.531-1.219q2.68,0,2.7,3.023V15H25.836V9.406a1.946,1.946,0,0,0-.418-1.352,1.675,1.675,0,0,0-1.277-.437,2.086,2.086,0,0,0-1.234.375,2.546,2.546,0,0,0-.828.984V15H20.633V6.547Zm12.383,6.211a1.064,1.064,0,0,0-.441-.91,4.249,4.249,0,0,0-1.539-.559,7.277,7.277,0,0,1-1.742-.562,2.479,2.479,0,0,1-.953-.781A1.869,1.869,0,0,1,29.4,8.867a2.193,2.193,0,0,1,.879-1.758,3.432,3.432,0,0,1,2.246-.719,3.532,3.532,0,0,1,2.332.742,2.357,2.357,0,0,1,.895,1.9H34.3a1.3,1.3,0,0,0-.5-1.023,1.888,1.888,0,0,0-1.27-.43,1.976,1.976,0,0,0-1.234.344,1.082,1.082,0,0,0-.445.9.877.877,0,0,0,.414.789,5.1,5.1,0,0,0,1.5.508,7.8,7.8,0,0,1,1.754.578,2.558,2.558,0,0,1,1,.809,1.988,1.988,0,0,1,.324,1.152,2.163,2.163,0,0,1-.906,1.816,3.8,3.8,0,0,1-2.352.684,4.257,4.257,0,0,1-1.8-.359,2.922,2.922,0,0,1-1.223-1,2.42,2.42,0,0,1-.441-1.395h1.445a1.5,1.5,0,0,0,.582,1.152,2.258,2.258,0,0,0,1.434.426,2.331,2.331,0,0,0,1.316-.332A1.02,1.02,0,0,0,34.383,12.758ZM39.672,4.5V6.547H41.25V7.664H39.672v5.249a1.173,1.173,0,0,0,.211.763.888.888,0,0,0,.719.254,3.5,3.5,0,0,0,.688-.094V15a4.215,4.215,0,0,1-1.109.155,1.8,1.8,0,0,1-1.461-.586,2.517,2.517,0,0,1-.492-1.664V7.664H36.688V6.547h1.539V4.5Zm7.352,3.344a4.331,4.331,0,0,0-.711-.055A1.9,1.9,0,0,0,44.383,9v6H42.938V6.547h1.406l.023.977a2.251,2.251,0,0,1,2.016-1.133,1.477,1.477,0,0,1,.641.109Zm6.547,6.32a3.07,3.07,0,0,1-2.477.992,2.628,2.628,0,0,1-2.059-.785,3.4,3.4,0,0,1-.715-2.324v-5.5h1.445v5.461q0,1.922,1.563,1.922a2.163,2.163,0,0,0,2.2-1.234V6.547h1.445V15H53.6Zm6.992-.187a2.082,2.082,0,0,0,1.352-.469,1.649,1.649,0,0,0,.641-1.172h1.367a2.621,2.621,0,0,1-.5,1.383,3.293,3.293,0,0,1-1.23,1.047,3.55,3.55,0,0,1-1.629.391A3.482,3.482,0,0,1,57.816,14a4.59,4.59,0,0,1-1.02-3.152v-.242a5.089,5.089,0,0,1,.453-2.2,3.451,3.451,0,0,1,1.3-1.492,3.7,3.7,0,0,1,2-.531,3.39,3.39,0,0,1,2.363.852,3.043,3.043,0,0,1,1,2.211H62.555a1.992,1.992,0,0,0-.621-1.348,1.932,1.932,0,0,0-1.379-.527,2.023,2.023,0,0,0-1.707.793,3.724,3.724,0,0,0-.605,2.293v.273a3.65,3.65,0,0,0,.6,2.25A2.033,2.033,0,0,0,60.563,13.977Zm8.375,0a2.082,2.082,0,0,0,1.352-.469,1.649,1.649,0,0,0,.641-1.172H72.3a2.621,2.621,0,0,1-.5,1.383,3.293,3.293,0,0,1-1.23,1.047,3.55,3.55,0,0,1-1.629.391A3.482,3.482,0,0,1,66.191,14a4.59,4.59,0,0,1-1.02-3.152v-.242a5.089,5.089,0,0,1,.453-2.2,3.451,3.451,0,0,1,1.3-1.492,3.7,3.7,0,0,1,2-.531,3.39,3.39,0,0,1,2.363.852,3.043,3.043,0,0,1,1,2.211H70.93a1.992,1.992,0,0,0-.621-1.348,1.932,1.932,0,0,0-1.379-.527,2.023,2.023,0,0,0-1.707.793,3.724,3.724,0,0,0-.605,2.293v.273a3.65,3.65,0,0,0,.6,2.25A2.033,2.033,0,0,0,68.938,13.977ZM75.492,15H74.047V6.547h1.445ZM73.93,4.3a.863.863,0,0,1,.215-.594.807.807,0,0,1,.637-.242.819.819,0,0,1,.641.242.854.854,0,0,1,.219.594.826.826,0,0,1-.219.586.834.834,0,0,1-.641.234.821.821,0,0,1-.637-.234A.834.834,0,0,1,73.93,4.3ZM77.422,10.7a4.993,4.993,0,0,1,.488-2.234A3.643,3.643,0,0,1,79.27,6.93a3.7,3.7,0,0,1,1.988-.539,3.565,3.565,0,0,1,2.793,1.2,4.6,4.6,0,0,1,1.066,3.18v.1a5.036,5.036,0,0,1-.473,2.215,3.589,3.589,0,0,1-1.352,1.527,3.743,3.743,0,0,1-2.02.547,3.556,3.556,0,0,1-2.785-1.2A4.575,4.575,0,0,1,77.422,10.8Zm1.453.172a3.616,3.616,0,0,0,.652,2.258,2.211,2.211,0,0,0,3.5-.012,3.955,3.955,0,0,0,.648-2.418,3.61,3.61,0,0,0-.66-2.254,2.1,2.1,0,0,0-1.754-.863,2.075,2.075,0,0,0-1.727.852A3.925,3.925,0,0,0,78.875,10.867ZM81.914,3h1.75L81.57,5.3l-1.164,0ZM88.3,6.547l.047,1.063a3.08,3.08,0,0,1,2.531-1.219q2.68,0,2.7,3.023V15H92.133V9.406a1.946,1.946,0,0,0-.418-1.352,1.675,1.675,0,0,0-1.277-.437,2.086,2.086,0,0,0-1.234.375,2.546,2.546,0,0,0-.828.984V15H86.93V6.547Z" transform="translate(725.622 2277.132)" fill="#12263f"/>
    <path id="Trazado_893683" data-name="Trazado 893683" d="M9.18,4.852H5.523V15H4.031V4.852H.383V3.625h8.8Zm4.2,10.3a3.693,3.693,0,0,1-2.8-1.129A4.19,4.19,0,0,1,9.5,11.008v-.266A5.073,5.073,0,0,1,9.98,8.5a3.748,3.748,0,0,1,1.344-1.547A3.378,3.378,0,0,1,13.2,6.391a3.166,3.166,0,0,1,2.563,1.086,4.7,4.7,0,0,1,.914,3.109v.6H10.945a3,3,0,0,0,.73,2.02,2.3,2.3,0,0,0,1.777.77,2.517,2.517,0,0,0,1.3-.312,3.259,3.259,0,0,0,.93-.828l.883.688A3.55,3.55,0,0,1,13.375,15.156ZM13.2,7.578a1.928,1.928,0,0,0-1.469.637A3.1,3.1,0,0,0,10.992,10h4.234V9.891a2.753,2.753,0,0,0-.594-1.707A1.815,1.815,0,0,0,13.2,7.578Zm9.234.266a4.331,4.331,0,0,0-.711-.055A1.9,1.9,0,0,0,19.789,9v6H18.344V6.547H19.75l.023.977a2.251,2.251,0,0,1,2.016-1.133,1.477,1.477,0,0,1,.641.109Zm2.688-1.3.039.938a3.122,3.122,0,0,1,2.508-1.094A2.417,2.417,0,0,1,30.078,7.75a3.2,3.2,0,0,1,1.1-.984,3.242,3.242,0,0,1,1.6-.375q2.781,0,2.828,2.945V15H34.156V9.422a1.941,1.941,0,0,0-.414-1.355,1.823,1.823,0,0,0-1.391-.449,1.916,1.916,0,0,0-1.336.48A1.949,1.949,0,0,0,30.4,9.391V15H28.945V9.461a1.613,1.613,0,0,0-1.8-1.844A1.934,1.934,0,0,0,25.2,8.828V15H23.75V6.547ZM39.352,15H37.906V6.547h1.445ZM37.789,4.3A.863.863,0,0,1,38,3.711a.807.807,0,0,1,.637-.242.819.819,0,0,1,.641.242A.854.854,0,0,1,39.5,4.3a.826.826,0,0,1-.219.586.834.834,0,0,1-.641.234A.821.821,0,0,1,38,4.891.834.834,0,0,1,37.789,4.3Zm5.242,2.242.047,1.063a3.08,3.08,0,0,1,2.531-1.219q2.68,0,2.7,3.023V15H46.867V9.406a1.946,1.946,0,0,0-.418-1.352,1.675,1.675,0,0,0-1.277-.437,2.086,2.086,0,0,0-1.234.375,2.546,2.546,0,0,0-.828.984V15H41.664V6.547ZM55.711,15a3.036,3.036,0,0,1-.2-.891A3.225,3.225,0,0,1,53.1,15.156a2.984,2.984,0,0,1-2.051-.707,2.287,2.287,0,0,1-.8-1.793,2.39,2.39,0,0,1,1-2.051,4.733,4.733,0,0,1,2.824-.73h1.406V9.211A1.623,1.623,0,0,0,55.031,8,1.821,1.821,0,0,0,53.7,7.555a2.107,2.107,0,0,0-1.3.391,1.151,1.151,0,0,0-.523.945H50.422a2,2,0,0,1,.449-1.223,3.066,3.066,0,0,1,1.219-.934,4.1,4.1,0,0,1,1.691-.344,3.342,3.342,0,0,1,2.289.73,2.635,2.635,0,0,1,.859,2.012v3.891a4.757,4.757,0,0,0,.3,1.852V15Zm-2.4-1.1a2.54,2.54,0,0,0,1.289-.352,2.127,2.127,0,0,0,.883-.914V10.9H54.352q-2.656,0-2.656,1.555a1.316,1.316,0,0,0,.453,1.063A1.742,1.742,0,0,0,53.313,13.9Zm5.531-3.2a4.952,4.952,0,0,1,.922-3.129,3.137,3.137,0,0,1,4.766-.168V3h1.445V15H64.648l-.07-.906a2.943,2.943,0,0,1-2.414,1.063,2.887,2.887,0,0,1-2.395-1.2,5.008,5.008,0,0,1-.926-3.141Zm1.445.164a3.749,3.749,0,0,0,.594,2.25,1.92,1.92,0,0,0,1.641.813A2.108,2.108,0,0,0,64.531,12.7V8.813a2.125,2.125,0,0,0-1.992-1.2,1.929,1.929,0,0,0-1.656.82A4.128,4.128,0,0,0,60.289,10.867Zm7.547-.172a4.993,4.993,0,0,1,.488-2.234A3.643,3.643,0,0,1,69.684,6.93a3.7,3.7,0,0,1,1.988-.539,3.565,3.565,0,0,1,2.793,1.2,4.6,4.6,0,0,1,1.066,3.18v.1a5.036,5.036,0,0,1-.473,2.215,3.589,3.589,0,0,1-1.352,1.527,3.743,3.743,0,0,1-2.02.547,3.556,3.556,0,0,1-2.785-1.2A4.575,4.575,0,0,1,67.836,10.8Zm1.453.172a3.616,3.616,0,0,0,.652,2.258,2.211,2.211,0,0,0,3.5-.012,3.955,3.955,0,0,0,.648-2.418,3.61,3.61,0,0,0-.66-2.254,2.1,2.1,0,0,0-1.754-.863,2.075,2.075,0,0,0-1.727.852A3.925,3.925,0,0,0,69.289,10.867Z" transform="translate(725.622 2358.132)" fill="#12263f"/>
    <g id="carrete-de-hilo" transform="translate(642.378 2093.375)">
      <g id="Grupo_1101984" data-name="Grupo 1101984" transform="translate(0.926 109.324)">
        <path id="Trazado_893050" data-name="Trazado 893050" d="M19.371,244.5H8.73a1.235,1.235,0,0,1-1.235-1.235v-9.776a1.235,1.235,0,0,1,1.235-1.235H19.371Z" transform="translate(-7.495 -232.256)" fill="#ecbe6b"/>
      </g>
      <g id="Grupo_1101985" data-name="Grupo 1101985" transform="translate(50.43 109.324)">
        <path id="Trazado_893051" data-name="Trazado 893051" d="M408.268,232.257h10.641a1.235,1.235,0,0,1,1.235,1.235v9.776a1.235,1.235,0,0,1-1.235,1.235H408.268Z" transform="translate(-408.268 -232.257)" fill="#ecbe6b"/>
      </g>
      <g id="Grupo_1101986" data-name="Grupo 1101986" transform="translate(0.926 109.324)">
        <path id="Trazado_893052" data-name="Trazado 893052" d="M12.661,232.257v8.091a1.234,1.234,0,0,1-1.234,1.234H7.5v1.687A1.234,1.234,0,0,0,8.729,244.5H19.371V232.257h-6.71Z" transform="translate(-7.495 -232.257)" fill="#eab14d"/>
      </g>
      <g id="Grupo_1101987" data-name="Grupo 1101987" transform="translate(50.43 109.324)">
        <path id="Trazado_893053" data-name="Trazado 893053" d="M418.909,232.257h-1.687v8.091a1.234,1.234,0,0,1-1.234,1.234h-7.721V244.5h10.642a1.234,1.234,0,0,0,1.234-1.234v-9.778a1.234,1.234,0,0,0-1.234-1.234Z" transform="translate(-408.267 -232.257)" fill="#eab14d"/>
      </g>
      <g id="Grupo_1101988" data-name="Grupo 1101988" transform="translate(9.432 103.027)">
        <path id="Trazado_893054" data-name="Trazado 893054" d="M115.593,206.119H81.3a4.937,4.937,0,0,1-4.937-4.937V186.215A4.938,4.938,0,0,1,81,181.287l34.594-.009a4.937,4.937,0,0,1,4.937,4.937v14.966A4.937,4.937,0,0,1,115.593,206.119Z" transform="translate(-76.36 -181.278)" fill="#cbe2ff"/>
      </g>
      <g id="Grupo_1101989" data-name="Grupo 1101989" transform="translate(9.432 103.027)">
        <path id="Trazado_893055" data-name="Trazado 893055" d="M115.593,181.278h-.3v8.452a11.149,11.149,0,0,1-11.149,11.149H76.36v.3a4.937,4.937,0,0,0,4.937,4.937h34.3a4.937,4.937,0,0,0,4.937-4.937V186.215a4.937,4.937,0,0,0-4.937-4.937Z" transform="translate(-76.36 -181.278)" fill="#9dc6fb"/>
      </g>
      <path id="Trazado_893056" data-name="Trazado 893056" d="M61.072,108.4H54.528v-.434a5.845,5.845,0,0,0-1.759-4.182l3.4-3.4a2.589,2.589,0,0,0,.594.065c1.987,0,4.762-1.86,5.477-2.576h0a3.443,3.443,0,0,0-4.869-4.869c-.79.79-2.974,4.09-2.509,6.069L51.236,102.7a5.827,5.827,0,0,0-2.572-.6h-34.3a5.87,5.87,0,0,0-5.863,5.863v.434H2.16A2.163,2.163,0,0,0,0,110.559v9.778a2.163,2.163,0,0,0,2.16,2.16H8.506v.434a5.87,5.87,0,0,0,5.863,5.863H21.5a.926.926,0,1,0,0-1.852H14.369a4.016,4.016,0,0,1-4.011-4.011V121l.023-.021,10.844-10.844,1.453,1.453L14.971,119.3a.926.926,0,1,0,1.309,1.309l7.707-7.707,1.453,1.453-2.994,2.994a.926.926,0,1,0,1.309,1.309l2.994-2.994,2.994,2.994a.926.926,0,1,0,1.309-1.309L17.659,103.953h2.907L35.273,118.66,23,130.934a.926.926,0,1,0,1.309,1.309L36.582,119.97l3.838,3.838a.926.926,0,0,0,1.309-1.309L23.184,103.953h2.907l18.6,18.6A.926.926,0,1,0,46,121.241L28.709,103.953h2.907l14.7,14.7a.926.926,0,1,0,1.309-1.309l-4.212-4.212,8.044-8.044a4,4,0,0,1,1.216,2.873v14.966a4.016,4.016,0,0,1-4.011,4.011H33.388a.926.926,0,1,0,0,1.852H48.665a5.87,5.87,0,0,0,5.863-5.863V122.5h6.544a2.163,2.163,0,0,0,2.16-2.16v-9.778a2.163,2.163,0,0,0-2.16-2.16Zm-2.4-14.083a1.592,1.592,0,1,1,2.251,2.251c-.962.962-3.6,2.2-4.289,2.038C56.474,97.913,57.714,95.278,58.676,94.316Zm-22.329,11.75,2.113-2.113h2.907L37.8,107.519ZM2.16,120.645a.309.309,0,0,1-.309-.309v-9.778a.309.309,0,0,1,.309-.309H8.506v10.4H2.16Zm17.756-11.817-9.558,9.558V107.964a4.016,4.016,0,0,1,4.011-4.011h.671Zm15.926-4.876-.8.8-.8-.8Zm6.266,7.873-3-3,4.875-4.876h4.68a4,4,0,0,1,1.148.168Zm19.273,8.511a.309.309,0,0,1-.309.309H54.528v-10.4h6.544a.309.309,0,0,1,.309.309Z"/>
    </g>
    <g id="g3081" transform="translate(660.996 3027.984)">
      <path id="path3083" d="M13.333-636.908H34.775v-32.424H13.333Z" transform="translate(-12.462 -12.462)" fill="#ffa2c3"/>
      <path id="path3085" d="M181.333-565.487h21.441v-7.844H181.333Z" transform="translate(-169.479 -102.186)" fill="#eefaff"/>
      <path id="path3087" d="M349.332-461.955h20.918v-31.378H349.332Z" transform="translate(-326.497 -176.956)" fill="#ffa2c3"/>
      <g id="g3089" transform="translate(0 -682.665)">
        <g id="g3091" clip-path="url(#clip-path)">
          <g id="g3097" transform="translate(22.836 33.295)">
            <path id="path3099" d="M-299.081,0V10.459H-320V0c2.042,0,3.187,5.23,5.23,5.23S-311.582,0-309.54,0s3.187,5.23,5.23,5.23S-301.123,0-299.081,0" transform="translate(319.999)" fill="#ffda8f"/>
          </g>
          <g id="g3101" transform="translate(22.836 17.606)">
            <path id="path3103" d="M-299.081,0V7.844c-2.042,0-3.187,5.23-5.23,5.23s-3.187-5.23-5.23-5.23-3.187,5.23-5.23,5.23-3.187-5.23-5.23-5.23V0c2.042,0,3.187,5.23,5.23,5.23S-311.582,0-309.54,0s3.187,5.23,5.23,5.23S-301.123,0-299.081,0" transform="translate(319.999)" fill="#ffda8f"/>
          </g>
          <path id="path3105" d="M192.315-205.488H181.333v-7.844h10.982Z" transform="translate(-169.479 244.013)" fill="#91def5"/>
          <path id="path3107" d="M192.315-325.488H181.333v-7.844h10.982Z" transform="translate(-169.479 356.168)" fill="#eefaff"/>
          <path id="path3109" d="M192.315-445.488H181.333v-7.844h10.982Z" transform="translate(-169.479 468.324)" fill="#91def5"/>
          <g id="g3111" transform="translate(21.964 16.735)">
            <path id="path3113" d="M-316.772-6.361c-1.511,0-2.45-1.542-3.359-3.033-.565-.927-1.339-2.2-1.871-2.2s-1.305,1.27-1.871,2.2c-.909,1.491-1.849,3.033-3.359,3.033s-2.45-1.542-3.359-3.033c-.565-.927-1.339-2.2-1.871-2.2a.872.872,0,0,1-.872-.872.872.872,0,0,1,.872-.872c1.511,0,2.45,1.542,3.359,3.033.565.927,1.339,2.2,1.871,2.2s1.305-1.27,1.871-2.2c.909-1.491,1.849-3.033,3.359-3.033s2.45,1.542,3.359,3.033c.565.927,1.339,2.2,1.871,2.2s1.305-1.27,1.871-2.2c.909-1.491,1.848-3.033,3.359-3.033a.872.872,0,0,1,.872.872.872.872,0,0,1-.872.872c-.532,0-1.305,1.27-1.871,2.2C-314.322-7.9-315.262-6.361-316.772-6.361Z" transform="translate(333.333 13.333)"/>
          </g>
          <g id="g3115" transform="translate(21.964 24.579)">
            <path id="path3117" d="M-316.772-6.361c-1.511,0-2.45-1.542-3.359-3.033-.565-.927-1.339-2.2-1.871-2.2s-1.305,1.27-1.871,2.2c-.909,1.491-1.849,3.033-3.359,3.033s-2.45-1.542-3.359-3.033c-.565-.927-1.339-2.2-1.871-2.2a.872.872,0,0,1-.872-.872.872.872,0,0,1,.872-.872c1.511,0,2.45,1.542,3.359,3.033.565.927,1.339,2.2,1.871,2.2s1.305-1.27,1.871-2.2c.909-1.491,1.849-3.033,3.359-3.033s2.45,1.542,3.359,3.033c.565.927,1.339,2.2,1.871,2.2s1.305-1.27,1.871-2.2c.909-1.491,1.848-3.033,3.359-3.033a.872.872,0,0,1,.872.872.872.872,0,0,1-.872.872c-.532,0-1.305,1.27-1.871,2.2C-314.322-7.9-315.262-6.361-316.772-6.361Z" transform="translate(333.333 13.333)"/>
          </g>
          <g id="g3119" transform="translate(21.964 32.424)">
            <path id="path3121" d="M-316.772-6.361c-1.511,0-2.45-1.542-3.359-3.033-.565-.927-1.339-2.2-1.871-2.2s-1.305,1.27-1.871,2.2c-.909,1.491-1.849,3.033-3.359,3.033s-2.45-1.542-3.359-3.033c-.565-.927-1.339-2.2-1.871-2.2a.872.872,0,0,1-.872-.872.872.872,0,0,1,.872-.872c1.511,0,2.45,1.542,3.359,3.033.565.927,1.339,2.2,1.871,2.2s1.305-1.27,1.871-2.2c.909-1.491,1.849-3.033,3.359-3.033s2.45,1.542,3.359,3.033c.565.927,1.339,2.2,1.871,2.2s1.305-1.27,1.871-2.2c.909-1.491,1.848-3.033,3.359-3.033a.872.872,0,0,1,.872.872.872.872,0,0,1-.872.872c-.532,0-1.305,1.27-1.871,2.2C-314.322-7.9-315.262-6.361-316.772-6.361Z" transform="translate(333.333 13.333)"/>
          </g>
          <g id="g3123" transform="translate(0 0)">
            <path id="path3125" d="M-169.479-475.165h-10.982a.872.872,0,0,1-.872-.872v-32.424a.872.872,0,0,1,.872-.872h21.441a.872.872,0,0,1,.872.872v6.276a.872.872,0,0,1-.872.872.872.872,0,0,1-.872-.872v-5.4h-19.7v30.68h10.111a.872.872,0,0,1,.872.872A.872.872,0,0,1-169.479-475.165Z" transform="translate(181.333 509.332)"/>
          </g>
          <g id="g3127" transform="translate(10.982 6.276)">
            <path id="path3129" d="M-169.479-460.211h-10.982a.872.872,0,0,1-.872-.872v-31.378a.872.872,0,0,1,.872-.872h21.441a.872.872,0,0,1,.872.872v5.23a.872.872,0,0,1-.872.872.872.872,0,0,1-.872-.872v-4.358h-19.7v29.634h10.111a.872.872,0,0,1,.872.872A.872.872,0,0,1-169.479-460.211Z" transform="translate(181.333 493.332)"/>
          </g>
          <g id="g3131" transform="translate(10.982 14.12)">
            <path id="path3133" d="M-1.48-11.59H-12.462a.872.872,0,0,1-.872-.872.872.872,0,0,1,.872-.872H-1.48a.872.872,0,0,1,.872.872A.872.872,0,0,1-1.48-11.59Z" transform="translate(13.333 13.333)"/>
          </g>
          <g id="g3135" transform="translate(10.982 21.964)">
            <path id="path3137" d="M-1.48-11.59H-12.462a.872.872,0,0,1-.872-.872.872.872,0,0,1,.872-.872H-1.48a.872.872,0,0,1,.872.872A.872.872,0,0,1-1.48-11.59Z" transform="translate(13.333 13.333)"/>
          </g>
          <g id="g3139" transform="translate(10.982 29.809)">
            <path id="path3141" d="M-1.48-11.59H-12.462a.872.872,0,0,1-.872-.872.872.872,0,0,1,.872-.872H-1.48a.872.872,0,0,1,.872.872A.872.872,0,0,1-1.48-11.59Z" transform="translate(13.333 13.333)"/>
          </g>
          <g id="g3143" transform="translate(32.424 42.883)">
            <path id="path3145" d="M-24.923-12.462a.872.872,0,0,1-.872.872.872.872,0,0,1-.872-.872.872.872,0,0,1,.872-.872.872.872,0,0,1,.872.872" transform="translate(26.667 13.333)"/>
          </g>
          <g id="g3147" transform="translate(21.964 11.505)">
            <path id="path3149" d="M-91.543-460.211H-98.08a.872.872,0,0,1-.872-.872.872.872,0,0,1,.872-.872h5.665v-29.634H-111.59v29.634h5.665a.872.872,0,0,1,.872.872.872.872,0,0,1-.872.872h-6.537a.872.872,0,0,1-.872-.872v-31.378a.872.872,0,0,1,.872-.872h20.918a.872.872,0,0,1,.872.872v31.378A.872.872,0,0,1-91.543-460.211Z" transform="translate(113.333 493.332)"/>
          </g>
        </g>
      </g>
    </g>
    <g id="hilo_1_" data-name="hilo (1)" transform="translate(640.05 2264.319)">
      <g id="Grupo_1101990" data-name="Grupo 1101990" transform="translate(27.156 0.872)">
        <path id="Trazado_893057" data-name="Trazado 893057" d="M312.419,225.021,308.182,204.1a2.613,2.613,0,0,0-2.563-2.1h-6.173a2.613,2.613,0,0,0-2.563,2.1l.02,24.046h12.951A2.615,2.615,0,0,0,312.419,225.021Z" transform="translate(-274.169 -185.265)" fill="#91def5"/>
        <path id="Trazado_893058" data-name="Trazado 893058" d="M331.7,142h5.23v5.23H331.7Z" transform="translate(-305.954 -130.495)" fill="#eefaff"/>
        <path id="Trazado_893059" data-name="Trazado 893059" d="M121.7,10h10.459v6.276H121.7Z" transform="translate(-114.258 -10)" fill="#eefaff"/>
        <path id="Trazado_893060" data-name="Trazado 893060" d="M61.609,115.623c-2.05-14.345-2.433-17.032-4.483-31.378A2.614,2.614,0,0,0,54.537,82H43.384A2.615,2.615,0,0,0,40.8,84.245l-4.483,31.378a2.615,2.615,0,0,0,2.589,2.984H59.02a2.615,2.615,0,0,0,2.589-2.984Z" transform="translate(-36.286 -75.724)" fill="#ffa2c3"/>
      </g>
      <g id="Grupo_1101991" data-name="Grupo 1101991" transform="translate(26.284 0)">
        <path id="Trazado_893061" data-name="Trazado 893061" d="M29.964,15.138v.006l-3.643,25.5a3.487,3.487,0,0,0,3.452,3.979h33.07a3.487,3.487,0,0,0,3.419-4.172l-1.237-6.108a.872.872,0,0,0-1.709.346L64.551,40.8a1.743,1.743,0,0,1-1.71,2.085H52.915a3.486,3.486,0,0,0,.426-2.236L50.52,20.9l.2-1.02a1.747,1.747,0,0,1,1.709-1.4h6.173a1.747,1.747,0,0,1,1.709,1.4L61.757,27a.872.872,0,0,0,1.709-.346l-1.442-7.119a3.5,3.5,0,0,0-3.018-2.779V12.377a.872.872,0,0,0-.872-.872H52.9a.872.872,0,0,0-.872.872v4.382a3.49,3.49,0,0,0-1.974.914l-1.2-8.4a3.494,3.494,0,0,0-2.927-2.954V.872A.872.872,0,0,0,45.06,0H34.6a.872.872,0,0,0-.872.872V6.316A3.507,3.507,0,0,0,30.8,9.269Zm27.3-1.889v3.486H53.776V13.248ZM48.616,19.9l.613,4.289-17.453-9.4.525-3.677Zm3,21a1.733,1.733,0,0,1-1.025,1.844l-21.18-11.4.525-3.677L51.374,39.2Zm-4.43,1.99H33.752l6.716-3.617ZM29.149,33.172l3.966,2.135L28.488,37.8ZM30.2,25.818l.525-3.676,19.73,10.624.613,4.289Zm.788-5.515.525-3.676,18.023,9.7.613,4.29ZM48.31,17.752l-4.674-2.517,4.006-2.157ZM28.046,40.894l.136-.95L34.953,36.3l3.677,1.98-8.555,4.607h-.3A1.744,1.744,0,0,1,28.046,40.894ZM47.133,9.516l.246,1.723L41.8,14.245l-3.676-1.98,7.761-4.18a1.747,1.747,0,0,1,1.251,1.43ZM44.189,1.743V6.276H35.473V1.743ZM34.254,8.019h8.075l-6.047,3.257-3.7-1.993A1.752,1.752,0,0,1,34.254,8.019Z" transform="translate(-26.284 0)"/>
        <circle id="Elipse_11497" data-name="Elipse 11497" cx="0.872" cy="0.872" r="0.872" transform="translate(36.208 29.809)"/>
      </g>
    </g>
  </g>
</svg>
