<svg id="Grupo_1102069" data-name="Grupo 1102069" xmlns="http://www.w3.org/2000/svg" xmlns:xlink="http://www.w3.org/1999/xlink" width="193.218" height="192.786" viewBox="0 0 193.218 192.786">
  <defs>
    <clipPath id="clip-path">
      <rect id="Rectángulo_402361" data-name="Rectángulo 402361" width="193.218" height="192.786" fill="none"/>
    </clipPath>
    <clipPath id="clip-path-2">
      <path id="Trazado_893256" data-name="Trazado 893256" d="M1529.3,3025.427c1.5,1.344,2.025,3.956-5.861,8.341a38.673,38.673,0,0,1-20.38,4.657c3.246,1.875,10.465,1.552,18.193-1.1,7.932-2.721,13.937-7.049,15.141-10.573a11.716,11.716,0,0,0-6.207-1.343q-.435,0-.886.016" transform="translate(-1503.056 -3025.411)" fill="none"/>
    </clipPath>
    <linearGradient id="linear-gradient" x1="-1.882" y1="2.29" x2="-1.88" y2="2.29" gradientUnits="objectBoundingBox">
      <stop offset="0" stop-color="#916132"/>
      <stop offset="1" stop-color="#633e1c"/>
    </linearGradient>
    <clipPath id="clip-path-3">
      <path id="Trazado_893257" data-name="Trazado 893257" d="M1378.356,2891.17c-12.37,4.243-21.073,11.544-19.44,16.308a3.769,3.769,0,0,0,.77,1.295c-.3-4.211,2.324-8.908,11.376-13.679,17.805-9.385,30.351-5.436,30.351-5.436v0a16.223,16.223,0,0,0-7.419-1.41,49.967,49.967,0,0,0-15.639,2.925" transform="translate(-1358.72 -2888.245)" fill="none"/>
    </clipPath>
    <linearGradient id="linear-gradient-2" x1="-1.2" y1="1.613" x2="-1.199" y2="1.613" gradientUnits="objectBoundingBox">
      <stop offset="0" stop-color="#eab071"/>
      <stop offset="1" stop-color="#cc9654"/>
    </linearGradient>
    <clipPath id="clip-path-4">
      <path id="Trazado_893258" data-name="Trazado 893258" d="M1362.955,2986.758l5.12,14.927a3.6,3.6,0,0,0,.357.747c13.233-.812,20.1-7.675,33.271-13.444,5.34-2.338,8.794-3.094,11.029-3.071l-4.981-14.522Z" transform="translate(-1362.955 -2971.394)" fill="none"/>
    </clipPath>
    <linearGradient id="linear-gradient-3" x1="-1.012" y1="1.28" x2="-1.011" y2="1.28" gradientUnits="objectBoundingBox">
      <stop offset="0" stop-color="#ac7d40"/>
      <stop offset="1" stop-color="#7c5424"/>
    </linearGradient>
    <clipPath id="clip-path-5">
      <path id="Trazado_893260" data-name="Trazado 893260" d="M903.774,297.016l-.489,12.369s22.388,33.241,31.352,73.737c7.93,35.828-40.637,62.564-73.628,56.275,5.181,7.347,26.306,7.209,49.323-.685,24.629-8.447,42.1-22.576,39.016-31.558l-38.6-112.531Z" transform="translate(-861.01 -294.622)" fill="none"/>
    </clipPath>
    <linearGradient id="linear-gradient-4" x1="-0.318" y1="1.145" x2="-0.318" y2="1.145" gradientUnits="objectBoundingBox">
      <stop offset="0" stop-color="#e27941"/>
      <stop offset="1" stop-color="#cc6537"/>
    </linearGradient>
    <clipPath id="clip-path-7">
      <path id="Trazado_893262" data-name="Trazado 893262" d="M39.368,151.521C16.643,159.315.014,171.947,0,180.91v.022a6.6,6.6,0,0,0,.352,2.147c1.515,4.417,7.716,6.767,16.557,7.01-6.9-.724-11.636-2.991-12.934-6.776C.894,174.331,18.362,160.2,42.991,151.754c12.518-4.293,24.477-6.293,33.616-6.041a49.793,49.793,0,0,0-5.18-.254c-8.919,0-20.239,2.008-32.058,6.062" transform="translate(0 -145.459)" fill="none"/>
    </clipPath>
    <linearGradient id="linear-gradient-5" x1="0.059" y1="2.439" x2="0.059" y2="2.439" gradientUnits="objectBoundingBox">
      <stop offset="0" stop-color="#ffaa80"/>
      <stop offset="1" stop-color="#ef8950"/>
    </linearGradient>
    <clipPath id="clip-path-8">
      <path id="Trazado_893263" data-name="Trazado 893263" d="M500.844,149.571a123.128,123.128,0,0,0-14.9,6.2l-2.222,16.018s2.135,9.8,24.71,3.521,24.664-18.742,30.392-17.034c3.678,1.1,5.092,5.9-2.2,12.073,10.457-6.875,16.28-14.309,14.393-19.811-1.6-4.671-8.449-7.031-18.114-7.031-8.919,0-20.238,2.008-32.058,6.062" transform="translate(-483.718 -143.509)" fill="none"/>
    </clipPath>
    <linearGradient id="linear-gradient-6" x1="-0.226" y1="2.881" x2="-0.225" y2="2.881" gradientUnits="objectBoundingBox">
      <stop offset="0" stop-color="#ef8950"/>
      <stop offset="1" stop-color="#ce6b3a"/>
    </linearGradient>
    <clipPath id="clip-path-10">
      <path id="Trazado_893268" data-name="Trazado 893268" d="M528.152,137.634c1.5,1.343,2.025,3.956-5.861,8.341a38.674,38.674,0,0,1-20.38,4.657c3.246,1.875,10.466,1.552,18.193-1.1,7.932-2.72,13.937-7.049,15.141-10.573a11.716,11.716,0,0,0-6.207-1.343q-.435,0-.886.016" transform="translate(-501.911 -137.618)" fill="none"/>
    </clipPath>
    <linearGradient id="linear-gradient-7" x1="-0.601" y1="7.687" x2="-0.599" y2="7.687" xlink:href="#linear-gradient"/>
    <clipPath id="clip-path-11">
      <path id="Trazado_893269" data-name="Trazado 893269" d="M470.715,264.281c-11.692,4.528-20.582,3.048-25.926,1.057l1.259,3.67c1.634,4.763,12.986,5.186,25.356.943s21.073-11.543,19.439-16.307l-2.523-7.357c-1.039,5.145-4.745,13.015-17.6,17.994" transform="translate(-444.789 -246.287)" fill="none"/>
    </clipPath>
    <linearGradient id="linear-gradient-8" x1="-0.308" y1="4.114" x2="-0.307" y2="4.114" xlink:href="#linear-gradient-3"/>
    <clipPath id="clip-path-12">
      <path id="Trazado_893270" data-name="Trazado 893270" d="M377.213,3.378c-12.37,4.243-21.073,11.543-19.44,16.307a3.766,3.766,0,0,0,.77,1.3c-.3-4.211,2.324-8.908,11.376-13.679,17.805-9.385,30.351-5.436,30.351-5.436v0a16.225,16.225,0,0,0-7.419-1.41,49.964,49.964,0,0,0-15.639,2.925" transform="translate(-357.576 -0.453)" fill="none"/>
    </clipPath>
    <linearGradient id="linear-gradient-9" x1="-0.255" y1="4.641" x2="-0.255" y2="4.641" xlink:href="#linear-gradient-2"/>
  </defs>
  <g id="Grupo_1102070" data-name="Grupo 1102070" transform="translate(0 0)">
    <g id="Grupo_1102041" data-name="Grupo 1102041">
      <g id="Grupo_1102040" data-name="Grupo 1102040" clip-path="url(#clip-path)">
        <path id="Trazado_893252" data-name="Trazado 893252" d="M1362.955,2986.758l5.12,14.927a3.6,3.6,0,0,0,.357.747c2.53,4.049,13.31,4.205,25,.2,12.37-4.242,21.073-11.543,19.439-16.307l-5.12-14.927Z" transform="translate(-1299.539 -2833.141)" fill="#ac7d40"/>
        <path id="Trazado_893253" data-name="Trazado 893253" d="M1358.917,2907.478a3.765,3.765,0,0,0,.77,1.295c3.138,3.506,13.449,3.468,24.586-.352,12.37-4.242,21.073-11.543,19.439-16.307a4.53,4.53,0,0,0-2.3-2.458c-4.24-2.273-13.334-1.82-23.058,1.515-12.37,4.242-21.073,11.543-19.44,16.307" transform="translate(-1295.501 -2753.861)" fill="#cc9654"/>
        <path id="Trazado_893254" data-name="Trazado 893254" d="M1464.6,2957.336a3.321,3.321,0,0,0,1.393,1.683c3.114,2.044,10.51,1.775,18.443-.945s13.937-7.049,15.141-10.573a3.322,3.322,0,0,0,.067-2.184c-1.278-3.727-10.159-4.057-19.836-.738s-16.486,9.031-15.208,12.757" transform="translate(-1396.304 -2805.392)" fill="#9d6c39"/>
        <path id="Trazado_893255" data-name="Trazado 893255" d="M1497.7,3038.272c.08.052.163.1.249.153,3.246,1.875,10.466,1.552,18.194-1.1,7.932-2.72,13.937-7.049,15.141-10.573-1.5-.988-4.01-1.435-7.093-1.327a40.354,40.354,0,0,0-11.35,2.272c-7.932,2.72-13.937,7.048-15.141,10.573" transform="translate(-1428.013 -2884.645)" fill="#916132"/>
      </g>
    </g>
    <g id="Grupo_1102043" data-name="Grupo 1102043" transform="translate(69.934 140.767)">
      <g id="Grupo_1102042" data-name="Grupo 1102042" clip-path="url(#clip-path-2)">
        <rect id="Rectángulo_402362" data-name="Rectángulo 402362" width="36.362" height="24.898" transform="translate(-4.569 1.567) rotate(-18.931)" fill="url(#linear-gradient)"/>
      </g>
    </g>
    <g id="Grupo_1102045" data-name="Grupo 1102045" transform="translate(63.219 134.385)">
      <g id="Grupo_1102044" data-name="Grupo 1102044" clip-path="url(#clip-path-3)">
        <rect id="Rectángulo_402363" data-name="Rectángulo 402363" width="49.329" height="44.378" transform="matrix(0.815, -0.58, 0.58, 0.815, -12.332, 5.216)" fill="url(#linear-gradient-2)"/>
      </g>
    </g>
    <g id="Grupo_1102047" data-name="Grupo 1102047" transform="translate(63.416 138.253)">
      <g id="Grupo_1102046" data-name="Grupo 1102046" clip-path="url(#clip-path-4)">
        <rect id="Rectángulo_402364" data-name="Rectángulo 402364" width="58.405" height="50.043" transform="translate(-12.428 6.225) rotate(-26.604)" fill="url(#linear-gradient-3)"/>
      </g>
    </g>
    <g id="Grupo_1102049" data-name="Grupo 1102049" transform="translate(0.616 13.708)">
      <g id="Grupo_1102071" data-name="Grupo 1102071">
        <path id="Trazado_893259" data-name="Trazado 893259" d="M13.249,325.207l38.6,112.531a6.525,6.525,0,0,0,.85,1.654c3.384,4.8,13.574,6.405,26.649,4.74a116.1,116.1,0,0,0,22.674-5.425,115,115,0,0,0,22.057-10.128c12.054-7.307,19-15.493,16.959-21.431l-38.6-112.531Z" transform="translate(-13.249 -294.618)" fill="#e27941"/>
      </g>
    </g>
    <g id="Grupo_1102051" data-name="Grupo 1102051" transform="translate(40.061 13.708)">
      <g id="Grupo_1102050" data-name="Grupo 1102050" clip-path="url(#clip-path-5)">
        <rect id="Rectángulo_402366" data-name="Rectángulo 402366" width="104.814" height="159.772" transform="translate(-13.713 1.246) rotate(-5.193)" fill="url(#linear-gradient-4)"/>
      </g>
    </g>
    <g id="Grupo_1102053" data-name="Grupo 1102053">
      <g id="Grupo_1102052" data-name="Grupo 1102052" clip-path="url(#clip-path)">
        <path id="Trazado_893261" data-name="Trazado 893261" d="M6.029,181.13c3.081,8.982,25.544,9.416,50.172.969a111.157,111.157,0,0,0,24.623-11.748c10.457-6.875,16.28-14.309,14.393-19.811-3.081-8.982-25.543-9.416-50.172-.969a123.122,123.122,0,0,0-14.9,6.2C13.8,163.916,3.618,174.1,6.029,181.13" transform="translate(-5.413 -136.832)" fill="#ef8950"/>
      </g>
    </g>
    <g id="Grupo_1102055" data-name="Grupo 1102055" transform="translate(0 6.768)">
      <g id="Grupo_1102054" data-name="Grupo 1102054" clip-path="url(#clip-path-7)">
        <rect id="Rectángulo_402368" data-name="Rectángulo 402368" width="86.808" height="84.405" transform="translate(-22.189 19.948) rotate(-41.955)" fill="url(#linear-gradient-5)"/>
      </g>
    </g>
    <g id="Grupo_1102057" data-name="Grupo 1102057" transform="translate(22.507 6.677)">
      <g id="Grupo_1102056" data-name="Grupo 1102056" clip-path="url(#clip-path-8)">
        <rect id="Rectángulo_402369" data-name="Rectángulo 402369" width="78.669" height="70.154" transform="matrix(0.831, -0.557, 0.557, 0.831, -17.612, 11.808)" fill="url(#linear-gradient-6)"/>
      </g>
    </g>
    <g id="Grupo_1102059" data-name="Grupo 1102059">
      <g id="Grupo_1102058" data-name="Grupo 1102058" clip-path="url(#clip-path)">
        <path id="Trazado_893264" data-name="Trazado 893264" d="M361.812,98.964l5.12,14.927c1.634,4.763,12.986,5.186,25.356.943s21.073-11.543,19.439-16.307L406.607,83.6Z" transform="translate(-344.978 -79.71)" fill="#ac7d40"/>
        <path id="Trazado_893265" data-name="Trazado 893265" d="M357.773,19.686a3.765,3.765,0,0,0,.77,1.3c3.138,3.506,13.449,3.467,24.586-.352C395.5,16.386,404.2,9.086,402.569,4.322a4.53,4.53,0,0,0-2.3-2.458c-4.24-2.273-13.334-1.82-23.058,1.515-12.37,4.243-21.073,11.543-19.44,16.307" transform="translate(-340.939 -0.433)" fill="#cc9654"/>
        <path id="Trazado_893266" data-name="Trazado 893266" d="M463.45,69.544a3.322,3.322,0,0,0,1.393,1.683c3.114,2.044,10.511,1.775,18.443-.945s13.937-7.049,15.141-10.573a3.322,3.322,0,0,0,.067-2.184c-1.278-3.726-10.159-4.057-19.836-.738s-16.486,9.031-15.208,12.757" transform="translate(-441.74 -51.963)" fill="#9d6c39"/>
        <path id="Trazado_893267" data-name="Trazado 893267" d="M496.554,150.48q.12.079.249.153c3.246,1.875,10.466,1.552,18.194-1.1,7.932-2.72,13.937-7.049,15.141-10.573-1.5-.988-4.01-1.435-7.093-1.327a40.355,40.355,0,0,0-11.35,2.272c-7.932,2.721-13.937,7.049-15.141,10.573" transform="translate(-473.45 -131.216)" fill="#916132"/>
      </g>
    </g>
    <g id="Grupo_1102061" data-name="Grupo 1102061" transform="translate(23.353 6.403)">
      <g id="Grupo_1102060" data-name="Grupo 1102060" clip-path="url(#clip-path-10)">
        <rect id="Rectángulo_402371" data-name="Rectángulo 402371" width="36.362" height="24.898" transform="translate(-4.569 1.567) rotate(-18.931)" fill="url(#linear-gradient-7)"/>
      </g>
    </g>
    <g id="Grupo_1102063" data-name="Grupo 1102063" transform="translate(20.695 11.459)">
      <g id="Grupo_1102062" data-name="Grupo 1102062" clip-path="url(#clip-path-11)">
        <rect id="Rectángulo_402372" data-name="Rectángulo 402372" width="55.136" height="46.308" transform="translate(-11.174 5.597) rotate(-26.604)" fill="url(#linear-gradient-8)"/>
      </g>
    </g>
    <g id="Grupo_1102065" data-name="Grupo 1102065" transform="translate(16.637 0.021)">
      <g id="Grupo_1102064" data-name="Grupo 1102064" clip-path="url(#clip-path-12)">
        <rect id="Rectángulo_402373" data-name="Rectángulo 402373" width="49.329" height="44.378" transform="matrix(0.815, -0.58, 0.58, 0.815, -12.332, 5.216)" fill="url(#linear-gradient-9)"/>
      </g>
    </g>
    <g id="Grupo_1102067" data-name="Grupo 1102067">
      <g id="Grupo_1102066" data-name="Grupo 1102066" clip-path="url(#clip-path)">
        <path id="Trazado_893271" data-name="Trazado 893271" d="M76.966,1137.832l.845,2.463c10.536,5.921,34.933-.572,34.933-.572-22.556,4.263-32.05.727-35.778-1.891" transform="translate(-73.385 -1084.891)" fill="#d16434"/>
        <path id="Trazado_893272" data-name="Trazado 893272" d="M305.313,852.18s12.256,4.106,39.311-5.173,32.771-18.856,32.771-18.856-4.253,11.153-32.2,20.509-39.877,3.521-39.877,3.521" transform="translate(-291.107 -789.618)" fill="#d16434"/>
        <path id="Trazado_893273" data-name="Trazado 893273" d="M1059.737,602.868s-6.649,15.112-43.6,25.451c0,0,30.17-10.181,43.6-25.451" transform="translate(-968.862 -574.818)" fill="#b74e29"/>
        <path id="Trazado_893274" data-name="Trazado 893274" d="M178.169,1432.907l.845,2.463c10.536,5.921,34.933-.572,34.933-.572-22.556,4.263-32.05.727-35.778-1.891" transform="translate(-169.879 -1366.236)" fill="#d16434"/>
        <path id="Trazado_893275" data-name="Trazado 893275" d="M406.516,1147.255s12.256,4.106,39.311-5.173,32.771-18.856,32.771-18.856-4.253,11.153-32.2,20.509-39.877,3.521-39.877,3.521" transform="translate(-387.602 -1070.963)" fill="#d16434"/>
        <path id="Trazado_893276" data-name="Trazado 893276" d="M1160.94,897.943s-6.649,15.112-43.6,25.451c0,0,30.17-10.181,43.6-25.451" transform="translate(-1065.356 -856.163)" fill="#b74e29"/>
        <path id="Trazado_893277" data-name="Trazado 893277" d="M279.372,1727.982l.845,2.463c10.536,5.92,34.933-.572,34.933-.572-22.556,4.263-32.05.727-35.778-1.891" transform="translate(-266.373 -1647.582)" fill="#d16434"/>
        <path id="Trazado_893278" data-name="Trazado 893278" d="M507.719,1442.33s12.256,4.106,39.311-5.173S579.8,1418.3,579.8,1418.3s-4.253,11.153-32.2,20.509-39.877,3.521-39.877,3.521" transform="translate(-484.096 -1352.309)" fill="#d16434"/>
        <path id="Trazado_893279" data-name="Trazado 893279" d="M1262.143,1193.018s-6.649,15.112-43.6,25.451c0,0,30.17-10.181,43.6-25.451" transform="translate(-1161.85 -1137.509)" fill="#b74e29"/>
        <path id="Trazado_893280" data-name="Trazado 893280" d="M380.575,2023.057l.845,2.463c10.536,5.921,34.933-.572,34.933-.572-22.556,4.263-32.05.727-35.778-1.891" transform="translate(-362.868 -1928.928)" fill="#d16434"/>
        <path id="Trazado_893281" data-name="Trazado 893281" d="M608.922,1737.4s12.256,4.106,39.311-5.173S681,1713.375,681,1713.375s-4.253,11.153-32.2,20.509-39.877,3.521-39.877,3.521" transform="translate(-580.59 -1633.655)" fill="#d16434"/>
        <path id="Trazado_893282" data-name="Trazado 893282" d="M1363.346,1488.094s-6.649,15.112-43.6,25.451c0,0,30.17-10.181,43.6-25.451" transform="translate(-1258.344 -1418.856)" fill="#b74e29"/>
        <path id="Trazado_893283" data-name="Trazado 893283" d="M481.778,2318.132l.845,2.463c10.536,5.92,34.933-.572,34.933-.572-22.556,4.263-32.05.727-35.778-1.891" transform="translate(-459.362 -2210.274)" fill="#d16434"/>
        <path id="Trazado_893284" data-name="Trazado 893284" d="M710.126,2032.481s12.256,4.106,39.311-5.173,32.771-18.857,32.771-18.857-4.253,11.153-32.2,20.509-39.877,3.521-39.877,3.521" transform="translate(-677.085 -1915.002)" fill="#d16434"/>
        <path id="Trazado_893285" data-name="Trazado 893285" d="M1464.549,1783.169s-6.649,15.112-43.6,25.451c0,0,30.17-10.181,43.6-25.451" transform="translate(-1354.839 -1700.201)" fill="#b74e29"/>
        <path id="Trazado_893286" data-name="Trazado 893286" d="M582.981,2613.208l.845,2.463c10.536,5.92,34.933-.572,34.933-.572-22.556,4.264-32.05.727-35.778-1.891" transform="translate(-555.856 -2491.62)" fill="#d16434"/>
        <path id="Trazado_893287" data-name="Trazado 893287" d="M811.329,2327.556s12.256,4.105,39.311-5.173,32.771-18.856,32.771-18.856-4.253,11.153-32.2,20.509-39.877,3.521-39.877,3.521" transform="translate(-773.579 -2196.347)" fill="#d16434"/>
        <path id="Trazado_893288" data-name="Trazado 893288" d="M1565.752,2078.244s-6.648,15.112-43.6,25.45c0,0,30.169-10.181,43.6-25.45" transform="translate(-1451.333 -1981.547)" fill="#b74e29"/>
        <path id="Trazado_893289" data-name="Trazado 893289" d="M684.184,2908.283l.845,2.463c10.536,5.921,34.933-.572,34.933-.572-22.556,4.263-32.05.727-35.778-1.891" transform="translate(-652.35 -2772.966)" fill="#d16434"/>
        <path id="Trazado_893290" data-name="Trazado 893290" d="M912.532,2622.631s12.256,4.106,39.311-5.173,32.771-18.856,32.771-18.856-4.253,11.153-32.2,20.509-39.877,3.521-39.877,3.521" transform="translate(-870.074 -2477.693)" fill="#d16434"/>
        <path id="Trazado_893291" data-name="Trazado 893291" d="M1666.955,2373.319s-6.649,15.112-43.6,25.451c0,0,30.17-10.181,43.6-25.451" transform="translate(-1547.827 -2262.893)" fill="#b74e29"/>
        <path id="Trazado_893292" data-name="Trazado 893292" d="M785.387,3203.358l.845,2.463c10.536,5.921,34.933-.572,34.933-.572-22.556,4.264-32.05.727-35.778-1.891" transform="translate(-748.844 -3054.312)" fill="#d16434"/>
        <path id="Trazado_893293" data-name="Trazado 893293" d="M1013.735,2917.706s12.256,4.106,39.311-5.173,32.771-18.857,32.771-18.857-4.253,11.153-32.2,20.509-39.877,3.521-39.877,3.521" transform="translate(-966.568 -2759.038)" fill="#d16434"/>
        <path id="Trazado_893294" data-name="Trazado 893294" d="M1768.158,2668.394s-6.649,15.112-43.6,25.451c0,0,30.169-10.181,43.6-25.451" transform="translate(-1644.321 -2544.239)" fill="#b74e29"/>
        <path id="Trazado_893295" data-name="Trazado 893295" d="M228.615,1399.354s-17.756,4.371-29.685-1.337c0,0,7.93,7.08,29.685,1.337" transform="translate(-189.674 -1332.97)" fill="#b74e29"/>
        <path id="Trazado_893296" data-name="Trazado 893296" d="M1699.089,1073.582s-4.67,8.565-21.337,17.118c0,0,17.909-7.561,21.759-17.391Z" transform="translate(-1599.689 -1023.369)" fill="#b74e29"/>
        <path id="Trazado_893297" data-name="Trazado 893297" d="M2099.958,2242.384s-4.67,8.565-21.337,17.118c0,0,17.909-7.561,21.759-17.391Z" transform="translate(-1981.907 -2137.789)" fill="#b74e29"/>
        <path id="Trazado_893298" data-name="Trazado 893298" d="M2308.465,2762.55s-3.641,9.051-19.2,19.486c0,0,16.907-9.595,19.585-19.807Z" transform="translate(-2182.752 -2633.708)" fill="#b74e29"/>
        <path id="Trazado_893299" data-name="Trazado 893299" d="M651.253,1888.757s-25.933,9.607-42.463,6.722c0,0,17.314,4.755,42.463-6.722" transform="translate(-580.464 -1800.877)" fill="#b74e29"/>
        <path id="Trazado_893300" data-name="Trazado 893300" d="M949.166,2757.375s-25.933,9.607-42.463,6.722c0,0,17.314,4.755,42.463-6.722" transform="translate(-864.516 -2629.079)" fill="#b74e29"/>
        <path id="Trazado_893301" data-name="Trazado 893301" d="M1099.218,3194.877s-25.933,9.607-42.463,6.722c0,0,17.314,4.755,42.463-6.722" transform="translate(-1007.586 -3046.225)" fill="#b74e29"/>
        <path id="Trazado_893302" data-name="Trazado 893302" d="M1276.061,1957.867s-11.265,9.738-35.543,13.937c0,0,19.611-.217,35.543-13.937" transform="translate(-1182.799 -1866.771)" fill="#b74e29"/>
        <path id="Trazado_893303" data-name="Trazado 893303" d="M1578.356,2839.259s-11.265,9.738-35.543,13.937c0,0,19.611-.217,35.543-13.937" transform="translate(-1471.029 -2707.153)" fill="#b74e29"/>
        <path id="Trazado_893304" data-name="Trazado 893304" d="M495.682,2274.262s-15.179,2.031-21.539-3.09c0,0,4.806,6.607,21.539,3.09" transform="translate(-452.082 -2165.499)" fill="#b74e29"/>
        <path id="Trazado_893305" data-name="Trazado 893305" d="M873.708,3147.525s-15.179,2.031-21.539-3.09c0,0,4.806,6.607,21.539,3.09" transform="translate(-812.519 -2998.13)" fill="#b74e29"/>
        <path id="Trazado_893306" data-name="Trazado 893306" d="M1411.121,2261.234a78.483,78.483,0,0,1-33.364,13.348s18.8-.733,33.364-13.348" transform="translate(-1313.652 -2156.023)" fill="#b74e29"/>
        <path id="Trazado_893307" data-name="Trazado 893307" d="M625.772,2556.4s-11.664,2.1-20.585-2.624c0,0,7.229,6.728,20.585,2.624" transform="translate(-577.029 -2434.952)" fill="#b74e29"/>
        <path id="Trazado_893308" data-name="Trazado 893308" d="M74.7,821.794A187.163,187.163,0,0,0,99.77,811.031l.11-.057.077-.1a1.679,1.679,0,0,0,.311-1.528,2.011,2.011,0,0,0-1.7-1.1l-.21,1.144c.577.106.786.279.819.364a.455.455,0,0,1-.074.312,186.017,186.017,0,0,1-24.824,10.662,146.312,146.312,0,0,1-34.81,7.554c-19.285,1.673-30.708-1.711-33.75-2.788-2.9-1.026-3.791-1.844-3.891-2.073a3.348,3.348,0,0,1-.108-3.107,2.4,2.4,0,0,1,.895-.879l-.252-.524-.248-.526A3.476,3.476,0,0,0,.755,819.66a4.369,4.369,0,0,0,.007,4.228c.466,1.061,2.741,2.055,4.568,2.7a61.4,61.4,0,0,0,13.282,2.755,108.8,108.8,0,0,0,20.957.1,144.075,144.075,0,0,0,27.453-5.218q3.828-1.107,7.681-2.429" transform="translate(-0.217 -770.64)" fill="#f7ab9a"/>
        <path id="Trazado_893309" data-name="Trazado 893309" d="M150.616,1096.336q.626-.215,1.219-.431a32.12,32.12,0,0,0,7.158-3.446c1.449-1.012,2.268-1.98,2.436-2.877a1.48,1.48,0,0,0-.757-1.638l-.56,1.019a.328.328,0,0,1,.174.4c-.05.266-.341,1.007-1.959,2.138a31.012,31.012,0,0,1-6.891,3.307q-.6.22-1.235.437c-7.906,2.712-19.355,5.075-34.067,7.031-22.17,2.948-35.671,1.577-43.093-.093-8.966-2.017-11.757-4.93-11.967-5.543a1.618,1.618,0,0,1,.16-1.658,1.55,1.55,0,0,1,.576-.417l-.377-1.1a2.617,2.617,0,0,0-1.459,3.552c.286.835,1.551,1.943,3.383,2.965a35.377,35.377,0,0,0,9.429,3.335,86.368,86.368,0,0,0,17.117,1.835,177.718,177.718,0,0,0,26.384-1.724c8.29-1.1,15.657-2.356,21.9-3.726a115.042,115.042,0,0,0,12.431-3.371" transform="translate(-56.982 -1037.324)" fill="#f7ab9a"/>
        <path id="Trazado_893310" data-name="Trazado 893310" d="M210.915,1319.979a53.273,53.273,0,0,0,5.211-2.082,28.2,28.2,0,0,0,7.45-4.774,7.778,7.778,0,0,0,2.6-4.048,1.708,1.708,0,0,0-1.041-2.016l-.393,1.095c.246.088.341.343.282.757-.2,1.415-2.406,4.677-9.393,7.931-5.6,2.609-16.022,5.948-33.879,7.046-20.985,1.29-34.9-1.095-42.881-3.323-9.829-2.744-13.528-5.948-13.763-6.8-.313-1.14-.111-1.557-.01-1.684a.514.514,0,0,1,.4-.171h-.011l.1-1.159a1.675,1.675,0,0,0-1.375.578,2.979,2.979,0,0,0-.224,2.744c.353,1.286,2.665,2.744,4.012,3.5a48.294,48.294,0,0,0,10.559,4.118c8.065,2.252,22.119,4.663,43.265,3.363a134.1,134.1,0,0,0,20.792-2.762,78.244,78.244,0,0,0,8.3-2.309" transform="translate(-118.024 -1246.245)" fill="#f7ab9a"/>
        <path id="Trazado_893311" data-name="Trazado 893311" d="M451.2,1919.541a187.128,187.128,0,0,0,25.067-10.764l.11-.057.077-.1a1.678,1.678,0,0,0,.311-1.528,2.012,2.012,0,0,0-1.7-1.1l-.21,1.144c.577.106.786.279.819.364a.455.455,0,0,1-.074.312,186.026,186.026,0,0,1-24.824,10.661,146.321,146.321,0,0,1-34.81,7.554c-19.285,1.673-30.708-1.711-33.75-2.789-2.9-1.026-3.791-1.844-3.891-2.073a3.348,3.348,0,0,1-.108-3.107,2.4,2.4,0,0,1,.895-.879l-.253-.524-.248-.526a3.477,3.477,0,0,0-1.359,1.276,4.369,4.369,0,0,0,.007,4.228c.466,1.061,2.741,2.055,4.568,2.7a61.406,61.406,0,0,0,13.282,2.755,108.791,108.791,0,0,0,20.957.1,144.084,144.084,0,0,0,27.453-5.218q3.828-1.107,7.681-2.429" transform="translate(-359.197 -1817.311)" fill="#f7ab9a"/>
        <path id="Trazado_893312" data-name="Trazado 893312" d="M527.115,2194.083q.626-.215,1.219-.431a32.127,32.127,0,0,0,7.158-3.446c1.449-1.012,2.268-1.979,2.436-2.877a1.48,1.48,0,0,0-.757-1.638l-.56,1.019a.328.328,0,0,1,.174.4c-.05.266-.341,1.007-1.959,2.138a31.029,31.029,0,0,1-6.891,3.307q-.6.219-1.235.437c-7.906,2.712-19.355,5.075-34.067,7.031-22.17,2.948-35.671,1.576-43.093-.093-8.966-2.017-11.757-4.93-11.967-5.543a1.618,1.618,0,0,1,.16-1.658,1.556,1.556,0,0,1,.576-.417l-.377-1.1a2.617,2.617,0,0,0-1.459,3.552c.286.835,1.551,1.944,3.383,2.965a35.382,35.382,0,0,0,9.429,3.335A86.386,86.386,0,0,0,466.4,2202.9a177.765,177.765,0,0,0,26.384-1.724c8.29-1.1,15.657-2.356,21.9-3.727a115.044,115.044,0,0,0,12.431-3.371" transform="translate(-415.964 -2083.995)" fill="#f7ab9a"/>
        <path id="Trazado_893313" data-name="Trazado 893313" d="M587.414,2417.726a53.277,53.277,0,0,0,5.211-2.082,28.2,28.2,0,0,0,7.45-4.774,7.778,7.778,0,0,0,2.6-4.048,1.708,1.708,0,0,0-1.041-2.015l-.393,1.095c.246.088.341.343.282.756-.2,1.415-2.406,4.677-9.392,7.932-5.6,2.608-16.023,5.948-33.879,7.046-20.985,1.29-34.9-1.1-42.881-3.323-9.829-2.744-13.528-5.948-13.763-6.8-.313-1.139-.111-1.557-.01-1.683a.514.514,0,0,1,.4-.171h-.011l.1-1.159a1.674,1.674,0,0,0-1.375.578,2.979,2.979,0,0,0-.224,2.744c.353,1.286,2.665,2.744,4.012,3.5a48.287,48.287,0,0,0,10.559,4.118c8.065,2.251,22.119,4.663,43.265,3.363a134.073,134.073,0,0,0,20.792-2.762,78.234,78.234,0,0,0,8.3-2.308" transform="translate(-477.004 -2292.916)" fill="#f7ab9a"/>
        <path id="Trazado_893314" data-name="Trazado 893314" d="M341.793,679.323l.134-.07a287.918,287.918,0,0,0,35.791-21.984,227.255,227.255,0,0,0,24.519-20.379,139.782,139.782,0,0,0,14.1-15.542c2.23-2.927,4.609-6.5,4.6-7.746a4.349,4.349,0,0,0-1.31-3.323,3.28,3.28,0,0,0-1.362-.77L418,610.641H418c.072.018,1.756.474,1.777,2.972,0,.422-1.057,2.7-4.36,7.032a138.606,138.606,0,0,1-13.984,15.41c-11.187,10.8-30.653,26.856-59.894,42.093a2.3,2.3,0,0,1-1.689-.847c-.385-.669.005-1.689.4-2.426l-1.025-.549c-.779,1.454-.907,2.652-.38,3.562a3.586,3.586,0,0,0,2.8,1.433Z" transform="translate(-322.772 -581.149)" fill="#f7ab9a"/>
        <path id="Trazado_893315" data-name="Trazado 893315" d="M492.352,568c13.808-12.418,26.13-24.469,36.624-35.818a305.258,305.258,0,0,0,21.991-26.328A128.156,128.156,0,0,0,561.6,489.2a39.808,39.808,0,0,0,2.091-4.67c.633-1.79.505-2.282.464-2.443-.7-2.7-2.156-2.537-2.32-2.51l.191,1.147a.3.3,0,0,1-.039,0c.171,0,.69.294,1.041,1.646.05.308-.312,2.148-2.561,6.487a129.015,129.015,0,0,1-10.616,16.55c-9.207,12.53-26.792,33.411-58.28,61.73Z" transform="translate(-468.702 -457.25)" fill="#f7ab9a"/>
        <path id="Trazado_893316" data-name="Trazado 893316" d="M727.764,1741.036l.122-.055a199.241,199.241,0,0,0,35.448-20.512,179.341,179.341,0,0,0,24.426-21.325,132.357,132.357,0,0,0,14.185-17.474c2.806-4.211,4.679-7.8,4.771-9.156a4.053,4.053,0,0,0-1.034-3.482,2.9,2.9,0,0,0-2.323-.614l.229,1.141h0a1.736,1.736,0,0,1,1.339.353,3.073,3.073,0,0,1,.633,2.522c-.052.77-1.315,3.692-4.578,8.59a131.18,131.18,0,0,1-14.061,17.317,189.348,189.348,0,0,1-59.365,41.513,1.743,1.743,0,0,1-1.147-.7c-.53-.754-.53-2.061,0-3.779l-1.112-.342c-.652,2.12-.592,3.739.177,4.812a2.94,2.94,0,0,0,2.162,1.188Z" transform="translate(-691.118 -1590.753)" fill="#f7ab9a"/>
        <path id="Trazado_893317" data-name="Trazado 893317" d="M688.914,2090.42c7.669-2.63,14.779-5.261,21.272-7.873a228.222,228.222,0,0,0,26.109-12.193,78.15,78.15,0,0,0,12.817-8.631c2.085-1.818,3.535-3.51,3.878-4.528a2.672,2.672,0,0,0-.123-2.491,2.1,2.1,0,0,0-1.642-.795l.01,1.163h-.006a.964.964,0,0,1,.7.319,1.714,1.714,0,0,1-.041,1.432c-.4,1.181-4.079,5.732-16.162,12.516-11.588,6.5-27.335,13.178-46.974,19.914q-10.534,3.613-22.548,7.245a1.347,1.347,0,0,1-1.032-.433c-.3-.414-.254-1.173.135-2.2l-1.087-.413c-.545,1.436-.539,2.547.02,3.3a2.569,2.569,0,0,0,2.093.9l.067,0,.064-.02q11.885-3.591,22.452-7.216" transform="translate(-632.928 -1958.345)" fill="#f7ab9a"/>
        <path id="Trazado_893318" data-name="Trazado 893318" d="M775.312,1571.146l.078-.043a172.154,172.154,0,0,0,31.852-22.855,196.4,196.4,0,0,0,22.863-24.515,179.462,179.462,0,0,0,13.977-20.433c3.187-5.49,4.94-9.405,5.22-10.72.6-2.8-.245-4.493-1.056-5.417a4.753,4.753,0,0,0-1.987-1.356l-.169.557-.172.555c.13.041,3.176,1.059,2.247,5.419-.218,1.025-1.754,4.634-5.089,10.379a178.258,178.258,0,0,1-13.886,20.3c-10.769,13.71-28.923,32.99-54.279,47.024a1.583,1.583,0,0,1-.954-.073s-.1-.349.723-1.429l-.925-.705c-.591.775-1.315,1.9-.784,2.752.547.874,1.972.637,2.252.58Z" transform="translate(-736.831 -1416.675)" fill="#f7ab9a"/>
        <path id="Trazado_893319" data-name="Trazado 893319" d="M1447.073,649.772a1.642,1.642,0,0,0-.9-.056c-13.056,6.529-24.228,29.027-24.228,29.027s-49.354,63.993-56.07,72.241l-.079.1-.042.051-.125.156q-.172.215-.365.46l-.048.061-.014.017-.082.105-.155.2-.083.107-.142.183-.073.094-.074.1-.17.22-.064.082-.117.153h0l-.113.147-.129.168-.116.153-.2.26-.065.085-.606.8-.128.169q-.513.678-1.078,1.433l-.128.171-.158.211-.484.648q-.533.715-1.1,1.482l-.264.356-.044.06-.156.211-.157.212-.334.451-.183.248-.032.042-.34.46-.3.406-.151.2-.152.206-.193.261-.389.529-.354.482-.04.054-.6.818-.2.276-.408.557-.83,1.133-.37.506-.85,1.162-.43.589-.057.077-.435.6-.159.219-.059.081-.3.407-.271.371-.026.037-.225.309-.285.391-.447.613-.392.539-.281.387-.382.525-.07.1-.609.838-.455.626-.456.628-.076.1-.839,1.157-.08.109-.461.636-.859,1.186-.441.609-1.011,1.4-1.27,1.757-.576.8-.46.637c-.994,1.377-1.981,2.744-2.952,4.09l-.224.31-.341.474-.326.452-.221.307-.22.306-.439.609-.436.6-.325.451-1.172,1.629-.21.292-.542.754-.179.249-.409.569-.312.434-.4.559-.332.462-.065.091-.3.411-.1.134-.194.27-.384.535-.379.528-.345.48-.169.236-.044.06-.292.407-.073.1-.257.359-.163.228-.464.646-.018.025-.826,1.15-.542.757-.257.359-.753,1.05-.117.163-.028.039-.247.345-.036.05-.231.323-.087.122-.134.186-1.186,1.656-.164.228-.08.111-.149.208-.073.1-.141.2-.2.283-.09.126-.044.062-.108.151-.021.029-.1.143-.021.028-.117.164-.038.053-.109.153-.016.023-.053.074-.048.068-.033.046-.063.088-.077.107-.057.08-.09.127-.015.02-.071.1-.022.031-.008.012-.021.03-.03.043,0,0-.026.037-.029.04-.033.047-.045.062-.018.025-.044.062-.012.017-.011.015-.007.01-.018.025h0v0l0,0c.6-.759,19.4-24.428,22.939-28.449,3.6-4.086,77.75-99.527,77.75-99.527,6.67-4.155,19.146-21.745,22.375-27.234,1.982-3.37,1.519-4.375.865-4.65m-2.938,5.613c-.39.652-12.7,17.328-14.641,18.732s-1.834,1.634-2.623,1.3l-.012-.005c-.8-.342-.025-2.076.329-2.948s12.539-16.514,14.593-18.186c0,0,1.08-1.253,2.089-.854a1.239,1.239,0,0,1,.148.072c1.047.6.509,1.24.119,1.891" transform="translate(-1261.577 -619.45)" fill="#b2b2b2"/>
        <path id="Trazado_893320" data-name="Trazado 893320" d="M1426.88,1202.848l-103.34,133.715-.331.428h0l-.025.032-.007.009-.017.022-.006.007,0,.005Z" transform="translate(-1261.586 -1146.882)" fill="#c5c5c5"/>
        <path id="Trazado_893321" data-name="Trazado 893321" d="M1447.207,649.772c-.949,1-2.036,2.245-3.2,3.65-1.008-.4-2.089.854-2.089.854-2.053,1.672-14.239,17.314-14.593,18.186s-1.131,2.606-.329,2.948l.013.005-103.34,133.715-.33.427h0s0,0,0,0h0l0,0-.022.028,0,0h0l0,0h0l0,0v0l-.015.02,0,.005.011-.017.007-.01.011-.015.012-.017.044-.062.018-.025.045-.062.034-.047.029-.04.026-.037,0,0,.03-.043.021-.03.008-.012.022-.031.071-.1.015-.02.09-.127.057-.08.077-.107.063-.088.033-.046.048-.068.053-.074.016-.023.109-.153.038-.053.117-.164.02-.028.1-.143.021-.029.108-.151.044-.062.09-.126.2-.283.141-.2.073-.1.149-.208.08-.111.164-.228,1.186-1.656.133-.186.088-.122.231-.323.036-.05.247-.345.028-.039.117-.163.753-1.05.257-.359.543-.757.826-1.15.018-.025.464-.646.163-.228.257-.359.073-.1.292-.407.044-.06.169-.236.345-.48.379-.528.384-.535.194-.27.1-.134.3-.411.065-.091.332-.462.4-.559.312-.434.409-.569.179-.249.542-.754.21-.292,1.172-1.629.325-.451.436-.6.439-.609.22-.306.221-.307.326-.452.341-.474.224-.31c.971-1.346,1.957-2.714,2.952-4.09l.46-.637.576-.8,1.27-1.757,1.011-1.4.441-.609.859-1.186.461-.636.08-.109.839-1.157.076-.1.456-.628.455-.626.609-.838.07-.1.382-.525.281-.387.392-.539.447-.613.285-.391.225-.309.026-.037.271-.371.3-.407.059-.081.159-.219.435-.6.057-.077.43-.589.85-1.162.37-.506.83-1.133.409-.557.2-.276.6-.818.04-.054.355-.482.389-.529.193-.261.152-.206.151-.2.3-.406.34-.46.032-.042.183-.248.334-.451.157-.212.156-.211.044-.06.264-.356q.569-.766,1.1-1.482l.484-.648.158-.211.128-.171q.565-.753,1.078-1.433l.128-.169.606-.8.065-.085.2-.26.116-.153.129-.168.113-.147h0l.117-.153.064-.082.17-.22.074-.1.073-.094.142-.183.083-.107.156-.2.082-.105.013-.017.048-.061q.193-.245.365-.46l.125-.156.041-.051.079-.1c6.716-8.248,56.07-72.241,56.07-72.241s11.172-22.5,24.228-29.027a1.641,1.641,0,0,1,.9.056" transform="translate(-1261.71 -619.45)" fill="#c5c5c5"/>
        <path id="Trazado_893322" data-name="Trazado 893322" d="M1323.01,1336.971l0,0,0,0,0,0c1.035-1.356,79.732-104.443,83.364-108.353,3.655-3.937,17.926-23.336,20.351-25.868Z" transform="translate(-1261.453 -1146.777)" fill="#c5c5c5"/>
        <path id="Trazado_893323" data-name="Trazado 893323" d="M2290.82,90.3c-2.942-5.755-7.685-11.664-14.1-17.565q-.594-.546-1.212-1.079-1.21-1.045-2.509-2.036a65.316,65.316,0,0,0-14.1-8.075,90.021,90.021,0,0,0-13.775-4.531q-2.279-.56-4.64-1.03l-.6-.117c-.68-19.4,6.592-35.343,15-44.729a34.51,34.51,0,0,1,8.6-7.342,9.11,9.11,0,0,1,6.252-1.331c3.556.78,5.477,4.76,6.462,7.962a91.284,91.284,0,0,1,2.262,12.061c.848,5.776,1.81,12.324,3.576,17.941a29.451,29.451,0,0,0,4.5,9.259,16.646,16.646,0,0,0,1.106,1.291,14.016,14.016,0,0,0,2.427,2.053c.441-.515.946-1.125,1.495-1.8a11.86,11.86,0,0,1-2.489-2.125,15.641,15.641,0,0,1-1.171-1.476,28.706,28.706,0,0,1-3.651-7.9c-1.71-5.441-2.657-11.891-3.493-17.582a92.583,92.583,0,0,0-2.34-12.406,18.457,18.457,0,0,0-3.183-6.333,8.929,8.929,0,0,0-5-3.217c-2.372-.52-5.018.005-7.866,1.562a36.758,36.758,0,0,0-9.219,7.832,57.591,57.591,0,0,0-8.476,12.608,67.517,67.517,0,0,0-5.8,16.882,71.589,71.589,0,0,0-1.377,16.357,114.036,114.036,0,0,0-12.838-1.46l-.585-.03.812,2.38a113.323,113.323,0,0,1,12.721,1.491q.052.833.122,1.667a82.638,82.638,0,0,0,5.5,23.131,58.418,58.418,0,0,0,8.278,14.8q.993,1.27,2.051,2.452,1.467,1.639,3.055,3.106a42.444,42.444,0,0,0,7.869,5.761,39.593,39.593,0,0,0,7.821,3.382,34.21,34.21,0,0,0,10.017,1.584q.453,0,.855-.013c3.015-.1,5.565-.712,7-1.691,2.256-1.544,3.7-4.518,3.962-8.161.29-4.032-.859-8.71-3.321-13.528m1,13.361c-.211,2.932-1.288,5.267-2.956,6.408-.817.559-2.758,1.191-5.756,1.286A31.261,31.261,0,0,1,2273,109.89a39.619,39.619,0,0,1-17.963-11.911Q2254,96.809,2253,95.5a55.954,55.954,0,0,1-7.595-13.73,79.108,79.108,0,0,1-5.387-23.5l.073.014c8.872,1.769,20.91,5.377,30.828,12.691q.331.244.66.495,1.278.973,2.5,2.032.54.468,1.067.952c6.21,5.714,10.787,11.4,13.6,16.912,2.867,5.609,3.253,9.786,3.072,12.3m15.346-52.67v0l0,0a8.3,8.3,0,0,1-3.638,2.446c-3.032,1.065-6.568.585-10.525-1.424h0q-.762.931-1.523,1.829a20.149,20.149,0,0,0,7.261,2.386,12.6,12.6,0,0,0,5.709-.65,11.17,11.17,0,0,0,3.244-1.852,8.312,8.312,0,0,0,1.35-1.362l4.774-8.8Z" transform="translate(-2120.598 -0.001)" fill="#f7ab9a"/>
        <path id="Trazado_893324" data-name="Trazado 893324" d="M2594.931,1215.848l-.016.011c-9.918-7.314-21.956-10.923-30.828-12.692l-.073-.014-.124-2.395.6.117q2.359.469,4.64,1.03a17.084,17.084,0,0,0,4.283,2.035c10.377,3.572,21.52,11.908,21.52,11.908" transform="translate(-2444.597 -1144.889)" fill="#e08c7e"/>
        <path id="Trazado_893325" data-name="Trazado 893325" d="M2237.612,1163.259a113.293,113.293,0,0,0-12.721-1.491l-.812-2.38.585.03c.118.313.613.738,1.845,1.3,3.6,1.652,9.924,2.016,10.993.157a10.315,10.315,0,0,0,.109,2.381" transform="translate(-2120.598 -1105.444)" fill="#e08c7e"/>
        <path id="Trazado_893326" data-name="Trazado 893326" d="M3688.794,1119.741a11.169,11.169,0,0,1-3.244,1.852,12.6,12.6,0,0,1-5.709.65,20.149,20.149,0,0,1-7.261-2.385q.76-.9,1.522-1.829h0a13.352,13.352,0,0,0,6.747,3.219c3.147.508,6.486-.819,7.944-1.506" transform="translate(-3501.702 -1066.008)" fill="#e08c7e"/>
      </g>
    </g>
  </g>
</svg>
