<svg xmlns="http://www.w3.org/2000/svg" xmlns:xlink="http://www.w3.org/1999/xlink" width="420" height="263.921" viewBox="0 0 420 263.921">
  <defs>
    <clipPath id="clip-path">
      <path id="Trazado_892947" data-name="Trazado 892947" d="M702.367,1817.549c3.49,10.017,15.6,30.007,15.6,30.007s-1.933,19.9.489,29.291,4.108,7.834,4.108,7.834.6.779,3.433.856c3.6.1,3.374-1.113,3.374-1.113s12.791-30.611,13.221-40.012c.684-14.934-3.912-45.067-3.912-45.067l-41.109-5.477s.988,12.765,4.791,23.681" transform="translate(-697.576 -1793.868)" fill="none"/>
    </clipPath>
    <linearGradient id="linear-gradient" x1="-1.462" y1="1.12" x2="-1.46" y2="1.12" gradientUnits="objectBoundingBox">
      <stop offset="0" stop-color="#8090c8"/>
      <stop offset="0.035" stop-color="#8090c8"/>
      <stop offset="1" stop-color="#6979a4"/>
    </linearGradient>
    <clipPath id="clip-path-2">
      <path id="Trazado_892952" data-name="Trazado 892952" d="M614.918,1794c3.04,11.1,7.567,27.392,7.567,27.392s-2.144,10.219-1.709,18.649,3.688,19.459,4.929,19.922c4.415,1.649,6.625-.854,6.625-.854,2.556-4.814,13.434-27.95,15.622-40.454s-2.957-44.585-2.957-44.585l-29.63-10.409S609.8,1775.3,614.918,1794" transform="translate(-612.752 -1763.665)" fill="none"/>
    </clipPath>
    <linearGradient id="linear-gradient-2" x1="-1.382" y1="1.086" x2="-1.379" y2="1.086" xlink:href="#linear-gradient"/>
    <clipPath id="clip-path-3">
      <path id="Trazado_892956" data-name="Trazado 892956" d="M919.523,1224.759c-1.025,2.574,4.079,13.443,9.812,18.68s8.9,7,8.9,7,1.389-3.394,4.158-9.3c2.359-5.032,3.561-5.735,3.561-5.735s-8.331-5.211-15.126-9.912c-3.183-2.2-5.684-3.05-7.537-3.05a3.761,3.761,0,0,0-3.768,2.318" transform="translate(-919.391 -1222.441)" fill="none"/>
    </clipPath>
    <linearGradient id="linear-gradient-3" x1="-1.431" y1="3.03" x2="-1.429" y2="3.03" gradientUnits="objectBoundingBox">
      <stop offset="0" stop-color="#326bb0"/>
      <stop offset="0.024" stop-color="#326bb0"/>
      <stop offset="1" stop-color="#2e4a99"/>
    </linearGradient>
    <clipPath id="clip-path-4">
      <path id="Trazado_892959" data-name="Trazado 892959" d="M635.755,1212.173c-6.088,13.353-11.851,33.648-11.851,33.648s3.315,8.924,25.917,10.327c16.11,1,25.641-1.3,25.641-1.3s-5.4-18.743-6.177-32.551-7.314-33.076-10.647-33.708a7.921,7.921,0,0,0-1.478-.138c-7.143,0-14.9,9.458-21.4,23.724" transform="translate(-623.904 -1188.449)" fill="none"/>
    </clipPath>
    <linearGradient id="linear-gradient-4" x1="-1.159" y1="2.35" x2="-1.157" y2="2.35" xlink:href="#linear-gradient-3"/>
    <clipPath id="clip-path-5">
      <path id="Trazado_892974" data-name="Trazado 892974" d="M727.371,1244.01c-4.5,9.366-8.357,16.948-8.357,16.948s2.893,2.174,10.892,3.377c9.6,1.443,13.652-.366,13.652-.366s2.653-9.39,2.9-16.807c.219-6.532-3.08-11.106-5.105-11.846a8.526,8.526,0,0,0-2.918-.517c-3.415,0-7.632,2.076-11.064,9.211" transform="translate(-719.014 -1234.799)" fill="none"/>
    </clipPath>
    <linearGradient id="linear-gradient-5" x1="-2.489" y1="5.068" x2="-2.486" y2="5.068" xlink:href="#linear-gradient-3"/>
    <clipPath id="clip-path-6">
      <path id="Trazado_892976" data-name="Trazado 892976" d="M2954.769,1466.31c-.667,1.748-2.449,5.774-1.387,21.639.8,11.9,31.13,20.826,33.919,12.324,2.633-8.026-16.9-15.663-21.04-19.961s-7.3-13.784-7.793-16.115c-.159-.754-.5-1.074-.915-1.074-.876,0-2.105,1.407-2.784,3.188" transform="translate(-2953.052 -1463.122)" fill="none"/>
    </clipPath>
    <linearGradient id="linear-gradient-6" x1="-7.501" y1="2.96" x2="-7.498" y2="2.96" xlink:href="#linear-gradient-3"/>
    <clipPath id="clip-path-7">
      <path id="Trazado_892987" data-name="Trazado 892987" d="M2942.247,2161.1h0m0,0h0m0,0h0m0,0h0m0,0h0m16.695-2.116c-11.713.417-16.633,2.095-16.694,2.116a6.056,6.056,0,0,1,4.66.742c2.6,1.46,6.17,4.364,8.137,14.486s11.329,22.279,23.655,22.419a164.158,164.158,0,0,0,17.84-.678s-.239-5.083.6-7.752c.264-.834,4.247-4.3,7.871-8.292a13.9,13.9,0,0,0,3.365-12.086L2975.225,2158s-4.5.562-16.283.982" transform="translate(-2942.247 -2158.004)" fill="none"/>
    </clipPath>
    <linearGradient id="linear-gradient-7" x1="-4.155" y1="1.678" x2="-4.154" y2="1.678" gradientUnits="objectBoundingBox">
      <stop offset="0" stop-color="#5a5b7d"/>
      <stop offset="0.041" stop-color="#5a5b7d"/>
      <stop offset="1" stop-color="#494865"/>
    </linearGradient>
    <clipPath id="clip-path-8">
      <path id="Trazado_892988" data-name="Trazado 892988" d="M3192.031,1726.03s-6.264,9.965-6.568,25.95c-.261,13.748.267,15.9.267,15.9s4.912-.749,15.109,7.065c10.807,8.282,27.394,4.191,27.394,4.191s.988-12.781-20.74-41.979c-6.832-9.181-11.68-11.358-14.206-11.357a3.124,3.124,0,0,0-1.256.232" transform="translate(-3185.391 -1725.798)" fill="none"/>
    </clipPath>
    <linearGradient id="linear-gradient-8" x1="-6.927" y1="1.915" x2="-6.925" y2="1.915" xlink:href="#linear-gradient-3"/>
    <clipPath id="clip-path-9">
      <path id="Trazado_892998" data-name="Trazado 892998" d="M2839.824,1763.89c-5.036,1.825-9.747,3.649-12.108,3.585-5.642-.154-14.893-7.636-17.9-7.063-1.1.211-3.032,2.8-2.122,4.156,1.384,2.055,14.39,22.339,26.821,21.585,20.274-1.229,33.831-14.826,22.737-24.8a5.234,5.234,0,0,0-3.569-1.047c-3.652,0-8.913,1.793-13.862,3.586" transform="translate(-2807.46 -1760.304)" fill="none"/>
    </clipPath>
    <linearGradient id="linear-gradient-9" x1="-4.058" y1="2.94" x2="-4.056" y2="2.94" xlink:href="#linear-gradient-3"/>
    <clipPath id="clip-path-10">
      <rect id="Rectángulo_402325" data-name="Rectángulo 402325" width="51.058" height="37.855" fill="none"/>
    </clipPath>
    <clipPath id="clip-path-11">
      <rect id="Rectángulo_402318" data-name="Rectángulo 402318" width="18.902" height="1.858" fill="none"/>
    </clipPath>
    <clipPath id="clip-path-12">
      <rect id="Rectángulo_402319" data-name="Rectángulo 402319" width="21.518" height="2.932" fill="none"/>
    </clipPath>
    <clipPath id="clip-path-13">
      <rect id="Rectángulo_402320" data-name="Rectángulo 402320" width="20.807" height="10.629" fill="none"/>
    </clipPath>
    <clipPath id="clip-path-14">
      <rect id="Rectángulo_402321" data-name="Rectángulo 402321" width="20.29" height="16.538" fill="none"/>
    </clipPath>
    <clipPath id="clip-path-15">
      <rect id="Rectángulo_402322" data-name="Rectángulo 402322" width="9.436" height="24.218" fill="none"/>
    </clipPath>
    <clipPath id="clip-path-16">
      <rect id="Rectángulo_402323" data-name="Rectángulo 402323" width="13.886" height="25.411" fill="none"/>
    </clipPath>
    <clipPath id="clip-path-17">
      <rect id="Rectángulo_402324" data-name="Rectángulo 402324" width="17.877" height="23.884" fill="none"/>
    </clipPath>
    <clipPath id="clip-path-18">
      <path id="Trazado_893007" data-name="Trazado 893007" d="M1225.421,1072.106c-24.75,11.123-49.5,22.246-74.249-.868-5.158,15.377-10.316,29.268-15.473,41.362,29.907,45.933,59.815,31.453,89.722,16.973,23.822-11.534,47.644-23.068,71.466-4.071,6.085-13.264,12.171-24.536,18.256-33.307-15.8-24.816-31.6-32.769-47.4-32.769-14.107,0-28.214,6.34-42.321,12.68" transform="translate(-1135.699 -1059.426)" fill="none"/>
    </clipPath>
    <linearGradient id="linear-gradient-10" x1="-0.972" y1="1.133" x2="-0.972" y2="1.133" gradientUnits="objectBoundingBox">
      <stop offset="0" stop-color="#eb6a4e"/>
      <stop offset="0.019" stop-color="#eb6a4e"/>
      <stop offset="1" stop-color="#da5446"/>
    </linearGradient>
  </defs>
  <g id="Grupo_1101965" data-name="Grupo 1101965" transform="translate(-180 -750.7)">
    <rect id="Rectángulo_35205" data-name="Rectángulo 35205" width="420" height="263.921" transform="translate(180 750.7)" fill="#f2f7de"/>
    <g id="Grupo_1101964" data-name="Grupo 1101964">
      <g id="Grupo_1101953" data-name="Grupo 1101953" transform="translate(198.039 739.333)">
        <g id="Grupo_1101955" data-name="Grupo 1101955">
          <g id="Grupo_1101889" data-name="Grupo 1101889" transform="translate(0 0)">
            <g id="Grupo_1101954" data-name="Grupo 1101954">
              <path id="Trazado_892884" data-name="Trazado 892884" d="M378.283,2747.935H6.678a6.678,6.678,0,1,1,0-13.356h371.6a6.678,6.678,0,1,1,0,13.356" transform="translate(0 -2472.648)" fill="#9c97af"/>
              <path id="Trazado_892885" data-name="Trazado 892885" d="M1691.954,699.278V743.17h-25.673V687.043h12.843a13.387,13.387,0,0,1,4.4.737,13.076,13.076,0,0,1,2.823,1.384,12.654,12.654,0,0,1,2.783,2.455,11.837,11.837,0,0,1,2.824,7.659" transform="translate(-1506.676 -621.235)" fill="#63b8ff"/>
              <path id="Trazado_892886" data-name="Trazado 892886" d="M1710.332,780.815a2.566,2.566,0,1,1-2.563-2.444,2.505,2.505,0,0,1,2.563,2.444" transform="translate(-1541.873 -703.815)" fill="#d4ebff"/>
              <path id="Trazado_892887" data-name="Trazado 892887" d="M1787.847,717.815a2.566,2.566,0,1,1-2.563-2.444,2.505,2.505,0,0,1,2.563,2.444" transform="translate(-1611.964 -646.85)" fill="#d4ebff"/>
              <path id="Trazado_892888" data-name="Trazado 892888" d="M1864.482,790.055a2.566,2.566,0,1,1-2.563-2.444,2.505,2.505,0,0,1,2.563,2.444" transform="translate(-1681.258 -712.17)" fill="#d4ebff"/>
              <path id="Trazado_892889" data-name="Trazado 892889" d="M1693.6,946.091a2.566,2.566,0,1,1-2.563-2.444,2.505,2.505,0,0,1,2.563,2.444" transform="translate(-1526.74 -853.26)" fill="#d4ebff"/>
              <path id="Trazado_892890" data-name="Trazado 892890" d="M1771.111,883.09a2.566,2.566,0,1,1-2.563-2.444,2.505,2.505,0,0,1,2.563,2.444" transform="translate(-1596.831 -796.294)" fill="#d4ebff"/>
              <path id="Trazado_892891" data-name="Trazado 892891" d="M1847.746,955.331a2.566,2.566,0,1,1-2.563-2.444,2.505,2.505,0,0,1,2.563,2.444" transform="translate(-1666.125 -861.615)" fill="#d4ebff"/>
              <path id="Trazado_892892" data-name="Trazado 892892" d="M1710.332,1105.691a2.566,2.566,0,1,1-2.563-2.444,2.505,2.505,0,0,1,2.563,2.444" transform="translate(-1541.873 -997.573)" fill="#d4ebff"/>
              <path id="Trazado_892893" data-name="Trazado 892893" d="M1787.847,1042.691a2.566,2.566,0,1,1-2.563-2.444,2.505,2.505,0,0,1,2.563,2.444" transform="translate(-1611.964 -940.607)" fill="#d4ebff"/>
              <path id="Trazado_892894" data-name="Trazado 892894" d="M1864.482,1114.931a2.566,2.566,0,1,1-2.563-2.444,2.505,2.505,0,0,1,2.563,2.444" transform="translate(-1681.258 -1005.928)" fill="#d4ebff"/>
              <path id="Trazado_892895" data-name="Trazado 892895" d="M1710.332,1215.337a2.566,2.566,0,1,1-2.563-2.444,2.505,2.505,0,0,1,2.563,2.444" transform="translate(-1541.873 -1096.716)" fill="#d4ebff"/>
              <path id="Trazado_892896" data-name="Trazado 892896" d="M1850.829,1216.036a2.566,2.566,0,1,1-2.563-2.444,2.505,2.505,0,0,1,2.563,2.444" transform="translate(-1668.913 -1097.349)" fill="#d4ebff"/>
              <rect id="Rectángulo_402283" data-name="Rectángulo 402283" width="217.595" height="210.418" transform="translate(81.188 52.184)" fill="#cf8344"/>
              <rect id="Rectángulo_402284" data-name="Rectángulo 402284" width="95.132" height="56.126" transform="translate(90.145 65.808)" fill="#fff"/>
              <rect id="Rectángulo_402285" data-name="Rectángulo 402285" width="95.132" height="56.126" transform="translate(193.697 65.808)" fill="#fff"/>
              <rect id="Rectángulo_402286" data-name="Rectángulo 402286" width="95.132" height="56.126" transform="translate(90.145 129.291)" fill="#fff"/>
              <rect id="Rectángulo_402287" data-name="Rectángulo 402287" width="95.132" height="56.126" transform="translate(193.697 129.291)" fill="#fff4d8"/>
              <rect id="Rectángulo_402288" data-name="Rectángulo 402288" width="95.132" height="56.126" transform="translate(90.145 192.774)" fill="#fff"/>
              <rect id="Rectángulo_402289" data-name="Rectángulo 402289" width="95.132" height="56.126" transform="translate(193.697 192.774)" fill="#fff"/>
              <path id="Trazado_892897" data-name="Trazado 892897" d="M966.794,743.171H941.121V687.045h15.963a9.71,9.71,0,0,1,9.71,9.71Z" transform="translate(-850.976 -621.237)" fill="#73bfff"/>
              <path id="Trazado_892898" data-name="Trazado 892898" d="M1192.435,699.278V743.17h-25.673V687.043h12.843a13.386,13.386,0,0,1,4.4.737,13.076,13.076,0,0,1,2.823,1.384,12.658,12.658,0,0,1,2.783,2.455,11.837,11.837,0,0,1,2.824,7.659" transform="translate(-1055.004 -621.235)" fill="#91cdff"/>
              <path id="Trazado_892899" data-name="Trazado 892899" d="M1349.6,696.125v54h-2.824V694.741a13.074,13.074,0,0,1,2.824,1.384" transform="translate(-1217.774 -628.196)" fill="#d4ebff"/>
              <path id="Trazado_892900" data-name="Trazado 892900" d="M1408.131,742.481v43.891h-2.824v-51.55a11.837,11.837,0,0,1,2.824,7.659" transform="translate(-1270.7 -664.438)" fill="#d4ebff"/>
              <rect id="Rectángulo_402290" data-name="Rectángulo 402290" width="2.825" height="56.127" transform="translate(121.152 65.808)" fill="#d4ebff"/>
              <rect id="Rectángulo_402291" data-name="Rectángulo 402291" width="2.824" height="56.127" transform="translate(113.304 65.808)" fill="#d4ebff"/>
              <path id="Trazado_892901" data-name="Trazado 892901" d="M1430.981,699.278V743.17h-25.673V687.043h12.843a13.386,13.386,0,0,1,4.4.737,13.077,13.077,0,0,1,2.824,1.384,12.661,12.661,0,0,1,2.783,2.455,11.838,11.838,0,0,1,2.823,7.659" transform="translate(-1270.7 -621.235)" fill="#479de6"/>
              <path id="Trazado_892902" data-name="Trazado 892902" d="M1691.954,699.278V743.17h-25.673V687.043h12.843a13.387,13.387,0,0,1,4.4.737,13.076,13.076,0,0,1,2.823,1.384,12.654,12.654,0,0,1,2.783,2.455,11.837,11.837,0,0,1,2.824,7.659" transform="translate(-1506.676 -621.235)" fill="#63b8ff"/>
              <path id="Trazado_892903" data-name="Trazado 892903" d="M1710.332,780.815a2.566,2.566,0,1,1-2.563-2.444,2.505,2.505,0,0,1,2.563,2.444" transform="translate(-1541.873 -703.815)" fill="#d4ebff"/>
              <path id="Trazado_892904" data-name="Trazado 892904" d="M1787.847,717.815a2.566,2.566,0,1,1-2.563-2.444,2.505,2.505,0,0,1,2.563,2.444" transform="translate(-1611.964 -646.85)" fill="#d4ebff"/>
              <path id="Trazado_892905" data-name="Trazado 892905" d="M1864.482,790.055a2.566,2.566,0,1,1-2.563-2.444,2.505,2.505,0,0,1,2.563,2.444" transform="translate(-1681.258 -712.17)" fill="#d4ebff"/>
              <path id="Trazado_892906" data-name="Trazado 892906" d="M1693.6,946.091a2.566,2.566,0,1,1-2.563-2.444,2.505,2.505,0,0,1,2.563,2.444" transform="translate(-1526.74 -853.26)" fill="#d4ebff"/>
              <path id="Trazado_892907" data-name="Trazado 892907" d="M1771.111,883.09a2.566,2.566,0,1,1-2.563-2.444,2.505,2.505,0,0,1,2.563,2.444" transform="translate(-1596.831 -796.294)" fill="#d4ebff"/>
              <path id="Trazado_892908" data-name="Trazado 892908" d="M1847.746,955.331a2.566,2.566,0,1,1-2.563-2.444,2.505,2.505,0,0,1,2.563,2.444" transform="translate(-1666.125 -861.615)" fill="#d4ebff"/>
              <path id="Trazado_892909" data-name="Trazado 892909" d="M1710.332,1105.691a2.566,2.566,0,1,1-2.563-2.444,2.505,2.505,0,0,1,2.563,2.444" transform="translate(-1541.873 -997.573)" fill="#d4ebff"/>
              <path id="Trazado_892910" data-name="Trazado 892910" d="M1787.847,1042.691a2.566,2.566,0,1,1-2.563-2.444,2.505,2.505,0,0,1,2.563,2.444" transform="translate(-1611.964 -940.607)" fill="#d4ebff"/>
              <path id="Trazado_892911" data-name="Trazado 892911" d="M1864.482,1114.931a2.566,2.566,0,1,1-2.563-2.444,2.505,2.505,0,0,1,2.563,2.444" transform="translate(-1681.258 -1005.928)" fill="#d4ebff"/>
              <path id="Trazado_892912" data-name="Trazado 892912" d="M1710.332,1215.337a2.566,2.566,0,1,1-2.563-2.444,2.505,2.505,0,0,1,2.563,2.444" transform="translate(-1541.873 -1096.716)" fill="#d4ebff"/>
              <path id="Trazado_892913" data-name="Trazado 892913" d="M1850.829,1216.036a2.566,2.566,0,1,1-2.563-2.444,2.505,2.505,0,0,1,2.563,2.444" transform="translate(-1668.913 -1097.349)" fill="#d4ebff"/>
              <path id="Trazado_892914" data-name="Trazado 892914" d="M2047.877,1406.342H2022.2v-56.126h15.963a9.71,9.71,0,0,1,9.71,9.71Z" transform="translate(-1828.508 -1220.886)" fill="#c2cc34"/>
              <path id="Trazado_892915" data-name="Trazado 892915" d="M2273.519,1362.449v43.891h-25.673v-56.127h12.843a13.389,13.389,0,0,1,4.4.737,13.073,13.073,0,0,1,2.824,1.385,12.666,12.666,0,0,1,2.783,2.455,11.838,11.838,0,0,1,2.823,7.659" transform="translate(-2032.536 -1220.884)" fill="#a0a82a"/>
              <path id="Trazado_892916" data-name="Trazado 892916" d="M2430.682,1359.3V1413.3h-2.823v-55.389a13.076,13.076,0,0,1,2.823,1.384" transform="translate(-2195.306 -1227.846)" fill="#ffd65c"/>
              <path id="Trazado_892917" data-name="Trazado 892917" d="M2489.216,1405.652v43.891h-2.823v-51.55a11.839,11.839,0,0,1,2.823,7.659" transform="translate(-2248.233 -1264.087)" fill="#ffd65c"/>
              <rect id="Rectángulo_402292" data-name="Rectángulo 402292" width="2.825" height="56.127" transform="translate(224.703 129.33)" fill="#ffd65c"/>
              <rect id="Rectángulo_402293" data-name="Rectángulo 402293" width="2.824" height="56.127" transform="translate(216.855 129.33)" fill="#ffd65c"/>
              <path id="Trazado_892918" data-name="Trazado 892918" d="M2512.065,1362.449v43.891h-25.673v-56.127h12.843a13.393,13.393,0,0,1,4.4.737,13.075,13.075,0,0,1,2.823,1.385,12.655,12.655,0,0,1,2.783,2.455,11.839,11.839,0,0,1,2.824,7.659" transform="translate(-2248.233 -1220.884)" fill="#7e851f"/>
              <path id="Trazado_892919" data-name="Trazado 892919" d="M2773.038,1362.449v43.891h-25.673v-56.127h12.844a13.39,13.39,0,0,1,4.4.737,13.073,13.073,0,0,1,2.824,1.385,12.66,12.66,0,0,1,2.783,2.455,11.838,11.838,0,0,1,2.823,7.659" transform="translate(-2484.208 -1220.884)" fill="#a0a82a"/>
              <path id="Trazado_892920" data-name="Trazado 892920" d="M2791.416,1443.987a2.566,2.566,0,1,1-2.563-2.444,2.506,2.506,0,0,1,2.563,2.444" transform="translate(-2519.405 -1303.465)" fill="#ffd65c"/>
              <path id="Trazado_892921" data-name="Trazado 892921" d="M2868.931,1380.987a2.566,2.566,0,1,1-2.563-2.444,2.505,2.505,0,0,1,2.563,2.444" transform="translate(-2589.496 -1246.5)" fill="#ffd65c"/>
              <path id="Trazado_892922" data-name="Trazado 892922" d="M2945.566,1453.227a2.566,2.566,0,1,1-2.563-2.444,2.505,2.505,0,0,1,2.563,2.444" transform="translate(-2658.791 -1311.82)" fill="#ffd65c"/>
              <path id="Trazado_892923" data-name="Trazado 892923" d="M2774.679,1609.262a2.566,2.566,0,1,1-2.562-2.444,2.505,2.505,0,0,1,2.563,2.444" transform="translate(-2504.272 -1452.909)" fill="#ffd65c"/>
              <path id="Trazado_892924" data-name="Trazado 892924" d="M2852.2,1546.262a2.566,2.566,0,1,1-2.562-2.444,2.505,2.505,0,0,1,2.563,2.444" transform="translate(-2574.363 -1395.944)" fill="#ffd65c"/>
              <path id="Trazado_892925" data-name="Trazado 892925" d="M2928.831,1618.5a2.566,2.566,0,1,1-2.563-2.444,2.506,2.506,0,0,1,2.563,2.444" transform="translate(-2643.658 -1461.264)" fill="#ffd65c"/>
              <path id="Trazado_892926" data-name="Trazado 892926" d="M2791.416,1768.863a2.566,2.566,0,1,1-2.563-2.444,2.505,2.505,0,0,1,2.563,2.444" transform="translate(-2519.405 -1597.223)" fill="#ffd65c"/>
              <path id="Trazado_892927" data-name="Trazado 892927" d="M2868.931,1705.863a2.566,2.566,0,1,1-2.563-2.444,2.506,2.506,0,0,1,2.563,2.444" transform="translate(-2589.496 -1540.257)" fill="#ffd65c"/>
              <path id="Trazado_892928" data-name="Trazado 892928" d="M2945.566,1778.1a2.566,2.566,0,1,1-2.563-2.444,2.506,2.506,0,0,1,2.563,2.444" transform="translate(-2658.791 -1605.578)" fill="#ffd65c"/>
              <path id="Trazado_892929" data-name="Trazado 892929" d="M2791.416,1878.509a2.566,2.566,0,1,1-2.563-2.444,2.505,2.505,0,0,1,2.563,2.444" transform="translate(-2519.405 -1696.366)" fill="#ffd65c"/>
              <path id="Trazado_892930" data-name="Trazado 892930" d="M2931.914,1879.208a2.566,2.566,0,1,1-2.563-2.444,2.506,2.506,0,0,1,2.563,2.444" transform="translate(-2646.446 -1696.998)" fill="#ffd65c"/>
              <path id="Trazado_892931" data-name="Trazado 892931" d="M2047.877,741.547H2022.2V685.421h15.963a9.71,9.71,0,0,1,9.71,9.71Z" transform="translate(-1828.508 -619.768)" fill="#f8d972"/>
              <path id="Trazado_892932" data-name="Trazado 892932" d="M2273.519,697.654v43.891h-25.673V685.418h12.843a13.384,13.384,0,0,1,4.4.737,13.069,13.069,0,0,1,2.824,1.384,12.671,12.671,0,0,1,2.783,2.455,11.838,11.838,0,0,1,2.823,7.659" transform="translate(-2032.536 -619.766)" fill="#ffb834"/>
              <path id="Trazado_892933" data-name="Trazado 892933" d="M2430.682,694.5v54.005h-2.823V693.117a13.07,13.07,0,0,1,2.823,1.384" transform="translate(-2195.306 -626.727)" fill="#ffd65c"/>
              <path id="Trazado_892934" data-name="Trazado 892934" d="M2489.216,740.856v43.891h-2.823V733.2a11.838,11.838,0,0,1,2.823,7.659" transform="translate(-2248.233 -662.968)" fill="#ffd65c"/>
              <rect id="Rectángulo_402294" data-name="Rectángulo 402294" width="2.825" height="56.127" transform="translate(224.703 65.652)" fill="#ffd65c"/>
              <rect id="Rectángulo_402295" data-name="Rectángulo 402295" width="2.824" height="56.127" transform="translate(216.855 65.652)" fill="#ffd65c"/>
              <path id="Trazado_892935" data-name="Trazado 892935" d="M2773.038,701.8v43.845h-25.673V689.573h12.844a13.4,13.4,0,0,1,4.4.737,13.082,13.082,0,0,1,2.824,1.383,12.662,12.662,0,0,1,2.783,2.452,11.819,11.819,0,0,1,2.823,7.651" transform="translate(-2484.208 -623.523)" fill="#ffb324"/>
              <path id="Trazado_892936" data-name="Trazado 892936" d="M2512.065,697.654v43.891h-25.673V685.418h12.843a13.388,13.388,0,0,1,4.4.737,13.071,13.071,0,0,1,2.823,1.384,12.66,12.66,0,0,1,2.783,2.455,11.839,11.839,0,0,1,2.824,7.659" transform="translate(-2248.233 -619.766)" fill="#ff9924"/>
              <path id="Trazado_892937" data-name="Trazado 892937" d="M2530.443,1104.067a2.566,2.566,0,1,1-2.563-2.444,2.505,2.505,0,0,1,2.563,2.444" transform="translate(-2283.43 -996.104)" fill="#ffd65c"/>
              <path id="Trazado_892938" data-name="Trazado 892938" d="M2684.594,1113.307a2.566,2.566,0,1,1-2.563-2.444,2.505,2.505,0,0,1,2.563,2.444" transform="translate(-2422.816 -1004.459)" fill="#ffd65c"/>
              <path id="Trazado_892939" data-name="Trazado 892939" d="M2791.416,1213.713a2.566,2.566,0,1,1-2.563-2.444,2.505,2.505,0,0,1,2.563,2.444" transform="translate(-2519.405 -1095.248)" fill="#ffd65c"/>
              <path id="Trazado_892940" data-name="Trazado 892940" d="M2670.941,1214.412a2.566,2.566,0,1,1-2.563-2.444,2.505,2.505,0,0,1,2.563,2.444" transform="translate(-2410.47 -1095.88)" fill="#ffd65c"/>
              <path id="Trazado_892941" data-name="Trazado 892941" d="M1192.435,699.278V743.17h-25.673V687.043h12.843a13.386,13.386,0,0,1,4.4.737,13.076,13.076,0,0,1,2.823,1.384,12.658,12.658,0,0,1,2.783,2.455,11.837,11.837,0,0,1,2.824,7.659" transform="translate(-1055.004 -621.235)" fill="#91cdff"/>
              <path id="Trazado_892942" data-name="Trazado 892942" d="M1349.6,696.125v54h-2.824V694.741a13.074,13.074,0,0,1,2.824,1.384" transform="translate(-1217.774 -628.196)" fill="#d4ebff"/>
              <path id="Trazado_892943" data-name="Trazado 892943" d="M1408.131,742.481v43.891h-2.824v-51.55a11.837,11.837,0,0,1,2.824,7.659" transform="translate(-1270.7 -664.438)" fill="#d4ebff"/>
              <rect id="Rectángulo_402296" data-name="Rectángulo 402296" width="2.825" height="56.127" transform="translate(121.152 65.808)" fill="#d4ebff"/>
              <rect id="Rectángulo_402297" data-name="Rectángulo 402297" width="2.824" height="56.127" transform="translate(113.304 65.808)" fill="#d4ebff"/>
              <path id="Trazado_892944" data-name="Trazado 892944" d="M1430.981,699.278V743.17h-25.673V687.043h12.843a13.386,13.386,0,0,1,4.4.737,13.077,13.077,0,0,1,2.824,1.384,12.661,12.661,0,0,1,2.783,2.455,11.838,11.838,0,0,1,2.823,7.659" transform="translate(-1270.7 -621.235)" fill="#479de6"/>
              <rect id="Rectángulo_402298" data-name="Rectángulo 402298" width="2.705" height="7.78" transform="translate(151.402 45.386)" fill="#cf8344"/>
              <rect id="Rectángulo_402299" data-name="Rectángulo 402299" width="2.705" height="7.78" transform="translate(226.176 45.386)" fill="#cf8344"/>
              <rect id="Rectángulo_402300" data-name="Rectángulo 402300" width="102.196" height="20.816" transform="translate(138.888 24.817)" fill="#bf7130"/>
              <rect id="Rectángulo_402301" data-name="Rectángulo 402301" width="96.347" height="18.168" transform="translate(141.812 26.141)" fill="#cf8344"/>
              <path id="Trazado_892945" data-name="Trazado 892945" d="M968.348,2745.462s1.831,3.243,3.69,5.979c.8,1.178-1.507,2.921-5.6-1.19-.666-.669-3.878.654-2.394-3.987,1.114-3.483,4.308-.8,4.308-.8" transform="translate(-871.349 -2481.598)" fill="#5a4a60"/>
              <path id="Trazado_892946" data-name="Trazado 892946" d="M967.476,2737.35a60.951,60.951,0,0,0,3.612,6.322c.8,1.178-1.43,2.578-5.526-1.533-.666-.668-3.878.654-2.394-3.987,1.114-3.483,4.308-.8,4.308-.8" transform="translate(-870.561 -2474.263)" fill="#6f5a76"/>
            </g>
          </g>
          <g id="Grupo_1101891" data-name="Grupo 1101891" transform="translate(66.817 171.826)">
            <g id="Grupo_1101890" data-name="Grupo 1101890" clip-path="url(#clip-path)">
              <rect id="Rectángulo_402303" data-name="Rectángulo 402303" width="45.705" height="92.372" fill="url(#linear-gradient)"/>
            </g>
          </g>
          <g id="Grupo_1101893" data-name="Grupo 1101893" transform="translate(0 0)">
            <g id="Grupo_1101959" data-name="Grupo 1101959">
              <path id="Trazado_892948" data-name="Trazado 892948" d="M875.108,1937.676a87.978,87.978,0,0,0-.5,15.128,136.582,136.582,0,0,0,1.644,14.592c1.57,9.694,3.9,19.246,5.655,28.907.507,2.8.967,5.6,1.355,8.417.393,2.86.651,5.733,1.057,8.591.054.382.669.283.665-.09a64.421,64.421,0,0,0-.679-7.756q-.487-3.695-1.125-7.367c-.839-4.879-1.841-9.728-2.846-14.574-1.985-9.566-4-19.171-4.709-28.933a98.123,98.123,0,0,1,.128-16.914c.041-.412-.591-.4-.639,0" transform="translate(-790.719 -1751.8)" fill="#76748a"/>
              <path id="Trazado_892949" data-name="Trazado 892949" d="M904.838,2051.171s8.2-13.691,9.163-26.3-4.11-30.052-4.11-30.052Z" transform="translate(-818.168 -1803.746)" fill="#5f7399"/>
              <path id="Trazado_892950" data-name="Trazado 892950" d="M749.33,2766.612s2.042,1.336,4.234,6.071c.6,1.292-2.227,2.69-6.148-1.281-.663-.672-3.878.654-2.394-3.987,1.114-3.483,4.308-.8,4.308-.8" transform="translate(-673.31 -2500.722)" fill="#5a4a60"/>
              <path id="Trazado_892951" data-name="Trazado 892951" d="M750.395,2760.682s1.745,1.549,3.936,6.283c.6,1.292-1.929,2.478-5.851-1.494-.663-.672-3.878.654-2.394-3.987,1.114-3.483,4.308-.8,4.308-.8" transform="translate(-674.272 -2495.359)" fill="#6f5a76"/>
            </g>
          </g>
          <g id="Grupo_1101895" data-name="Grupo 1101895" transform="translate(58.692 168.933)">
            <g id="Grupo_1101894" data-name="Grupo 1101894" clip-path="url(#clip-path-2)">
              <rect id="Rectángulo_402305" data-name="Rectángulo 402305" width="40.343" height="97.951" transform="translate(-2.955)" fill="url(#linear-gradient-2)"/>
            </g>
          </g>
          <g id="Grupo_1101897" data-name="Grupo 1101897" transform="translate(0 0)">
            <g id="Grupo_1101958" data-name="Grupo 1101958">
              <path id="Trazado_892953" data-name="Trazado 892953" d="M678.363,1850.5c-1.682,5.5-1.462,11.511-.71,17.155a122.135,122.135,0,0,0,3.831,17.036c.808,2.856,1.652,5.7,2.464,8.558a82.029,82.029,0,0,1,2.116,8.659,31.059,31.059,0,0,1,.3,8.46,51.708,51.708,0,0,1-1.387,7.149c-1.324,5.282-2.85,10.783-1.637,16.243.08.359.7.288.652-.088a31.491,31.491,0,0,1-.052-7.625,58.73,58.73,0,0,1,1.436-6.9c.593-2.361,1.191-4.725,1.547-7.137a31.22,31.22,0,0,0,.2-7.86,54.216,54.216,0,0,0-1.79-8.657c-.771-2.8-1.6-5.577-2.413-8.362a145.866,145.866,0,0,1-4.179-17.1,60.829,60.829,0,0,1-.858-9.631,64.485,64.485,0,0,1,.829-9.808.182.182,0,0,0-.35-.1" transform="translate(-612.231 -1673.133)" fill="#76748a"/>
              <path id="Trazado_892954" data-name="Trazado 892954" d="M917.69,1239.269c-10.685,2.958,19.406,32.329,29.219,31.469,12.577-1.1,9.07-28.308,9.507-29.906.539-1.972.137-1.979-1.856-1s-9.473,13.131-11.158,11.929c-2.8-1.993-19.546-14.2-25.711-12.494" transform="translate(-827.743 -1120.419)" fill="#f1aa7d"/>
            </g>
          </g>
          <g id="Grupo_1101899" data-name="Grupo 1101899" transform="translate(88.064 117.092)">
            <g id="Grupo_1101898" data-name="Grupo 1101898" clip-path="url(#clip-path-3)">
              <path id="Trazado_892955" data-name="Trazado 892955" d="M780.642,1103.128l22.635-32.055,29.615,24.938-22.635,32.055Z" transform="translate(-793.932 -1085.572)" fill="url(#linear-gradient-3)"/>
            </g>
          </g>
          <g id="Grupo_1101903" data-name="Grupo 1101903" transform="translate(59.761 113.836)">
            <g id="Grupo_1101902" data-name="Grupo 1101902" clip-path="url(#clip-path-4)">
              <rect id="Rectángulo_402308" data-name="Rectángulo 402308" width="51.558" height="68.7" transform="translate(0 -0.001)" fill="url(#linear-gradient-4)"/>
            </g>
          </g>
          <g id="Grupo_1101905" data-name="Grupo 1101905" transform="translate(0 0)">
            <g id="Grupo_1101962" data-name="Grupo 1101962">
              <path id="Trazado_892960" data-name="Trazado 892960" d="M986.575,1086.9a18.5,18.5,0,0,1,1.133-4.4c.815-2.483,1.037-5.057.05-6.728s-8.371.823-8.371.823l-1.858,7.534s8.485,6.063,9.046,2.776" transform="translate(-883.896 -972.205)" fill="#6c5045"/>
              <path id="Trazado_892961" data-name="Trazado 892961" d="M965.919,1188.23c.427-.349-.1-2.234-1.144-5.107-1.019-2.793-4.923-2.12-3.057.735,2.006,3.069,3.745,4.745,4.2,4.373" transform="translate(-869.149 -1068.185)" fill="#f1aa7d"/>
              <path id="Trazado_892962" data-name="Trazado 892962" d="M971.473,1052.08c-.609,2.874-1.632,6.532-3.739,7.194a3.893,3.893,0,0,1-4.093-.912s-.31,2.129-1.9,2.091c-1.806-.044-2.176-1.616-2-3.029s1.087-14.042,6.946-13.093,4.8,7.75,4.8,7.75" transform="translate(-867.769 -944.253)" fill="#f1aa7d"/>
              <path id="Trazado_892963" data-name="Trazado 892963" d="M991.563,1130.02c-.256.491.477.49.09.84s-.884-.678-.589-1.173.88-.442.917-.1-.418.431-.418.431" transform="translate(-896.054 -1021.151)" fill="#ea9c68"/>
              <path id="Trazado_892964" data-name="Trazado 892964" d="M940.309,1048.054s-1.611,3.991-1.6,5.594c.037,4.59-8.371-1.063-7.044-3.584,1.188-2.256,2.369-3.537,2.769-5.358s3.167-3.857,5.519-4.265,2.254.567,2.254.567.461-.7,1.439-.114a8.7,8.7,0,0,1,2.837,4.059,6.151,6.151,0,0,1-.43,3.03l-1.01-2.6a9.926,9.926,0,0,1-2.191,1.627,14.945,14.945,0,0,1-2.544,1.046" transform="translate(-842.299 -940.694)" fill="#6c5045"/>
              <path id="Trazado_892965" data-name="Trazado 892965" d="M1055.078,1141.839a16.033,16.033,0,0,0-.045,2.4c.027.385-1.056-.118-1.056-.118Z" transform="translate(-953.022 -1032.468)" fill="#ea9c68"/>
              <path id="Trazado_892966" data-name="Trazado 892966" d="M1041.759,1169.65a3.384,3.384,0,0,0,1.253.745,3.085,3.085,0,0,0,1.018.045,1.447,1.447,0,0,1-1.273.337,1.371,1.371,0,0,1-1-1.127" transform="translate(-941.974 -1057.615)" fill="#fff"/>
              <path id="Trazado_892967" data-name="Trazado 892967" d="M1036.537,1126.433c.211.25-.239.185-.819.117-.981-.116-2.071-.222-1.338-.372a3.34,3.34,0,0,1,2.157.255" transform="translate(-935.084 -1018.25)" fill="#6c5045"/>
              <path id="Trazado_892968" data-name="Trazado 892968" d="M1071.971,1133.288c.032.116.328.224.575.44s.379.387.338.15a1.1,1.1,0,0,0-.437-.653c-.29-.188-.5-.007-.477.063" transform="translate(-969.291 -1024.604)" fill="#6c5045"/>
              <path id="Trazado_892969" data-name="Trazado 892969" d="M1044.683,1139.577c.239.083.062.913-.272.807s.089-.871.272-.807" transform="translate(-944.26 -1030.419)" fill="#493833"/>
              <path id="Trazado_892970" data-name="Trazado 892970" d="M1069.276,1144.732c.239.083.062.913-.271.807s.089-.871.271-.807" transform="translate(-966.497 -1035.081)" fill="#493833"/>
              <path id="Trazado_892971" data-name="Trazado 892971" d="M731.25,1284.291s-3.341,2.042-8.026,11.468c-1.795,3.611-3.226,8.616-4.21,11.434l1.689,1.637c-.2,2.282-1.575,4.413.165,9.155,3.4,9.276,17.2,6.322,17.2,6.322l3.144-11.526Z" transform="translate(-650.143 -1161.276)" fill="#184a89"/>
              <path id="Trazado_892972" data-name="Trazado 892972" d="M956.911,1312.384a45.507,45.507,0,0,1,1.8,13.883,32.1,32.1,0,0,1-1.8,9.555l-3.609.241Z" transform="translate(-861.99 -1186.678)" fill="#184a89"/>
              <path id="Trazado_892973" data-name="Trazado 892973" d="M755.224,1253.057c-8.241-11.439-28.787,21.707-22.655,32.5,7.859,13.836,34.126,6.469,36.187,6.728,2.874.362,5.328-2.6,2.52-2.685-3.748-.116-17.269-7-17.515-8.565-.289-1.841,5.474-22.413,1.463-27.98" transform="translate(-661.382 -1130.893)" fill="#f1aa7d"/>
            </g>
          </g>
          <g id="Grupo_1101907" data-name="Grupo 1101907" transform="translate(68.871 118.275)">
            <g id="Grupo_1101906" data-name="Grupo 1101906" clip-path="url(#clip-path-5)">
              <rect id="Rectángulo_402310" data-name="Rectángulo 402310" width="27.665" height="30.979" transform="translate(0 0)" fill="url(#linear-gradient-5)"/>
            </g>
          </g>
          <g id="Grupo_1101909" data-name="Grupo 1101909" transform="translate(0 0)">
            <g id="Grupo_1101963" data-name="Grupo 1101963">
              <path id="Trazado_892975" data-name="Trazado 892975" d="M1117.71,1654.11a9.249,9.249,0,0,1,2.445-.875c1.07-.147,2.369-.232,2.328.089s-1.247.787-1.247.787.764.813,1.311.611c.356-.132.714-.277.921-.363a.129.129,0,0,1,.177.126,3.319,3.319,0,0,1-1.082,2.585c-1.148.735-3.743-.19-4.447-.548a5.534,5.534,0,0,0-1.278-.474Z" transform="translate(-1009.862 -1494.762)" fill="#f1aa7d"/>
            </g>
          </g>
          <g id="Grupo_1101911" data-name="Grupo 1101911" transform="translate(282.858 140.145)">
            <g id="Grupo_1101910" data-name="Grupo 1101910" clip-path="url(#clip-path-6)">
              <rect id="Rectángulo_402312" data-name="Rectángulo 402312" width="37.614" height="45.653" transform="translate(-0.732 0)" fill="url(#linear-gradient-6)"/>
            </g>
          </g>
          <g id="Grupo_1101913" data-name="Grupo 1101913" transform="translate(0 0)">
            <g id="Grupo_1101957" data-name="Grupo 1101957">
              <path id="Trazado_892977" data-name="Trazado 892977" d="M3035.721,1768.084s-7.1,1.943-12.595,3.33a39.2,39.2,0,0,1-8.791.657s.854.633,1.273.918,2.087,1.369,2.087,1.369,16.14,4.223,18.026-6.274" transform="translate(-2725.607 -1598.728)" fill="#184a89"/>
              <path id="Trazado_892978" data-name="Trazado 892978" d="M2961.849,1440.549c.58-.8-.373-2.305-.943-3.026s-.925-.749-.63.2.107.958-.542.457-2.149-1.765-1.872-.432a18.3,18.3,0,0,1,.293,2.1c.12.777,2.814,1.874,3.177,1.484a2.761,2.761,0,0,0,.517-.784" transform="translate(-2674.512 -1299.351)" fill="#efa87d"/>
              <path id="Trazado_892979" data-name="Trazado 892979" d="M3775.485,2750.414a66.128,66.128,0,0,0-8.492.253l-.578-5.141s2.413-1.122,4.912,1.565c.818.879,2.464,1.441,3.52,2.084a1.3,1.3,0,0,1,.639,1.24" transform="translate(-3405.649 -2482.335)" fill="#514f7b"/>
              <path id="Trazado_892980" data-name="Trazado 892980" d="M3773.17,2751.328c1.468,1.468-9.171.457-9.171.457l.231-5.039s1.782-.73,4.112,1.693c1.609,1.674,3.68,1.741,4.827,2.889" transform="translate(-3403.464 -2483.555)" fill="#6f5a76"/>
              <path id="Trazado_892981" data-name="Trazado 892981" d="M3211.41,2146.735s7.449,8.888-.725,23.719-8.653,22.407-8.653,22.407,2.411-1.581,11.615,3c5.433,2.7,8.235,3.854,11.99,5.995,2.183,1.244,4.779,2.435,4.779,2.435s2.339,3.449,4.392,4.492c1.371.7-4.392.555-4.392.555s-14.428.089-28.384.252c-11.746.137-23.157.641-25.351-1.935-6.739-7.91-1.338-53.684-1.338-53.684Z" transform="translate(-2869.341 -1941.11)" fill="#efa87d"/>
              <path id="Trazado_892982" data-name="Trazado 892982" d="M3173.486,2491.22c9.611,6.1,16.729,5.26,29.722-.262,1.178-.5-29.586-9.278-29.586-9.278Z" transform="translate(-2869.513 -2243.972)" fill="#ea9c68"/>
              <path id="Trazado_892983" data-name="Trazado 892983" d="M2909.648,2755.423s-1.113.784,0,.879c3.683.315,11.05-.373,11.05-1.168a14.519,14.519,0,0,0-.919-3.614Z" transform="translate(-2630.5 -2487.966)" fill="#514f7b"/>
              <path id="Trazado_892984" data-name="Trazado 892984" d="M2918.163,2746.806s-6.227,3.15-5.117,3.245c3.683.315,11.049-.373,11.049-1.168a14.528,14.528,0,0,0-.919-3.614Z" transform="translate(-2633.9 -2482.313)" fill="#6f5a76"/>
              <path id="Trazado_892985" data-name="Trazado 892985" d="M2876.009,2138.267s-27.043-.7-31.631,6.642c-3.843,6.147.18,18.472,3.849,30.114,3.045,9.661,5.507,19.332,6.112,20.232,0,0-3.531,2.049-1.319,1.574,7.009-1.5,6.775-3.21,6.775-3.21a140.1,140.1,0,0,0,4.264-15.493,22.1,22.1,0,0,0-.845-12.166s38.053,7.862,47.508-.572c16.264-14.508,1.887-30.206,1.887-30.206Z" transform="translate(-2570.52 -1930.664)" fill="#efa87d"/>
              <path id="Trazado_892986" data-name="Trazado 892986" d="M3035.2,2238.886c.657,2.182.1,7.332,1.5,13.374s2.323,7.829,2.323,7.829l6.388,1.023-9.835-22.226Z" transform="translate(-2744.47 -2024.435)" fill="#ea9c68"/>
            </g>
          </g>
          <g id="Grupo_1101915" data-name="Grupo 1101915" transform="translate(281.823 206.705)">
            <g id="Grupo_1101914" data-name="Grupo 1101914" clip-path="url(#clip-path-7)">
              <rect id="Rectángulo_402314" data-name="Rectángulo 402314" width="67.822" height="40.866" transform="translate(0)" fill="url(#linear-gradient-7)"/>
            </g>
          </g>
          <g id="Grupo_1101917" data-name="Grupo 1101917" transform="translate(305.113 165.306)">
            <g id="Grupo_1101916" data-name="Grupo 1101916" clip-path="url(#clip-path-8)">
              <rect id="Rectángulo_402315" data-name="Rectángulo 402315" width="44.019" height="57.428" transform="translate(-0.189 0)" fill="url(#linear-gradient-8)"/>
            </g>
          </g>
          <g id="Grupo_1101919" data-name="Grupo 1101919" transform="translate(0 0)">
            <g id="Grupo_1101956" data-name="Grupo 1101956">
              <path id="Trazado_892989" data-name="Trazado 892989" d="M3198.941,1579c-6.267-2.343-8.941,5.621-8.681,9.331.267,3.786,4.862,3.166,4.862,3.166s-.409,1.011.625,3.546c.46,1.129,4.357-.338,3.983-1.9-1.563-6.515,7.219-11.15-.79-14.144" transform="translate(-2884.665 -1427.37)" fill="#efa87d"/>
              <path id="Trazado_892990" data-name="Trazado 892990" d="M3240.424,1711.492a7.623,7.623,0,0,0,1.022-.175c.564-.136.338.164-.174.428a4.759,4.759,0,0,1-.927.367,2.086,2.086,0,0,1,.08-.62" transform="translate(-2929.967 -1547.368)" fill="#ea9c68"/>
              <path id="Trazado_892991" data-name="Trazado 892991" d="M3213.911,1584.765c-1.375,3.672,1.643,3.643.867,4.829-3.191,4.874,5.546,7.192,7.706,4.744,2.761-3.128-1.261-4.441-1.208-6.149.135-4.357,2.607-4.912,1.054-8.325-.752-1.651-3.386-2.175-4.11-2.391-1.052-.314-4.828.028-5.444.769-.594.712-.2,3.727.878,4.431.6.388.67.991.257,2.093" transform="translate(-2904.789 -1426.269)" fill="#4a3728"/>
              <path id="Trazado_892992" data-name="Trazado 892992" d="M3185.478,1632.851a14.39,14.39,0,0,1-1.246,1.811c-.458.51.722.9.722.9Z" transform="translate(-2879.135 -1476.449)" fill="#ea9c68"/>
              <path id="Trazado_892993" data-name="Trazado 892993" d="M3202.624,1639.364c.283-.02.014.757-.273.733s-.113-.706.273-.733" transform="translate(-2895.484 -1482.338)" fill="#4a3728"/>
              <path id="Trazado_892994" data-name="Trazado 892994" d="M3205.86,1622.455c-.028.1-.092.273,0,.351a3.448,3.448,0,0,1,.99.711c.284.386.456.719.554.542s-.307-1.046-.688-1.335-.822-.391-.857-.269" transform="translate(-2898.743 -1467.003)" fill="#4a3728"/>
              <path id="Trazado_892995" data-name="Trazado 892995" d="M3190.242,1673.471a1.844,1.844,0,0,0,.608.025,6.429,6.429,0,0,0,.692-.16,3.587,3.587,0,0,1-.886.386.682.682,0,0,1-.415-.012Z" transform="translate(-2884.664 -1513.056)" fill="#fff8f6"/>
              <path id="Trazado_892996" data-name="Trazado 892996" d="M3224.786,1646.957a9.663,9.663,0,0,0,1.411.588c.82.281,1.252.328,1.059.656s-2.333.029-2.8-.2.124-1.148.327-1.047" transform="translate(-2915.447 -1489.196)" fill="#d33e29"/>
              <path id="Trazado_892997" data-name="Trazado 892997" d="M3185.43,1900.9l.009,7.226s6.493-2.294,9.477-6.723a35.333,35.333,0,0,0,3.519-7.73Z" transform="translate(-2880.313 -1712.289)" fill="#184a89"/>
            </g>
          </g>
          <g id="Grupo_1101921" data-name="Grupo 1101921" transform="translate(268.913 168.611)">
            <g id="Grupo_1101920" data-name="Grupo 1101920" clip-path="url(#clip-path-9)">
              <rect id="Rectángulo_402317" data-name="Rectángulo 402317" width="65.608" height="38.362" transform="matrix(0.981, -0.192, 0.192, 0.981, -5.764, 0.528)" fill="url(#linear-gradient-9)"/>
            </g>
          </g>
          <g id="Grupo_1101947" data-name="Grupo 1101947" transform="translate(0 0)">
            <g id="Grupo_1101961" data-name="Grupo 1101961">
              <path id="Trazado_892999" data-name="Trazado 892999" d="M2774.052,1731.526a3.457,3.457,0,0,0,.276-1.525c.039-.718.008-1.607-.452-1.767s-.178,1.47-.69,1.78a6.937,6.937,0,0,1-2.385.251c-1.129.077-1.989-.113-2.43.009s.724,1.671,1.5,1.818c1.671.318,2.542,1.114,3.046.944s1.135-1.51,1.135-1.51" transform="translate(-2503.115 -1562.685)" fill="#efa87d"/>
              <g id="Grupo_1101945" data-name="Grupo 1101945" transform="translate(290.206 208.807)" opacity="0.4">
                <g id="Grupo_1101944" data-name="Grupo 1101944">
                  <g id="Grupo_1101943" data-name="Grupo 1101943" clip-path="url(#clip-path-10)">
                    <g id="Grupo_1101924" data-name="Grupo 1101924" opacity="0.25">
                      <g id="Grupo_1101923" data-name="Grupo 1101923">
                        <g id="Grupo_1101922" data-name="Grupo 1101922" clip-path="url(#clip-path-11)">
                          <path id="Trazado_893000" data-name="Trazado 893000" d="M3030.053,2181.815c1.517-.086,3.029-.247,4.546-.34s3.049-.125,4.578-.149c1.5-.024,3-.076,4.5-.127a31.028,31.028,0,0,0,4.638-.3c.542-.1.39-.916-.126-.932-1.524-.048-3.081.157-4.606.222s-3.067.092-4.6.181a58.122,58.122,0,0,0-9.017.852.3.3,0,0,0,.081.6" transform="translate(-3029.758 -2179.958)" fill="#d0d2d3"/>
                        </g>
                      </g>
                    </g>
                    <g id="Grupo_1101927" data-name="Grupo 1101927" transform="translate(3.804 4.035)" opacity="0.25">
                      <g id="Grupo_1101926" data-name="Grupo 1101926">
                        <g id="Grupo_1101925" data-name="Grupo 1101925" clip-path="url(#clip-path-12)">
                          <path id="Trazado_893001" data-name="Trazado 893001" d="M3069.68,2225.015c3.585-.168,7.177-.354,10.76-.583,1.746-.112,3.49-.267,5.221-.52.874-.128,1.744-.281,2.607-.469a11.31,11.31,0,0,0,2.545-.731c.379-.186.087-.677-.264-.626-.863.125-1.719.442-2.572.633s-1.73.351-2.6.484c-1.753.268-3.522.426-5.291.548a94.841,94.841,0,0,0-10.46.849c-.234.042-.18.425.056.414" transform="translate(-3069.474 -2222.083)" fill="#d0d2d3"/>
                        </g>
                      </g>
                    </g>
                    <g id="Grupo_1101930" data-name="Grupo 1101930" transform="translate(8.222 6.317)" opacity="0.25">
                      <g id="Grupo_1101929" data-name="Grupo 1101929">
                        <g id="Grupo_1101928" data-name="Grupo 1101928" clip-path="url(#clip-path-13)">
                          <path id="Trazado_893002" data-name="Trazado 893002" d="M3115.759,2256.532a16.258,16.258,0,0,0,4.125-.632,31.559,31.559,0,0,0,4.168-1.59,56.75,56.75,0,0,0,8.13-4.7c1.374-.933,2.72-1.907,4.046-2.907.422-.318.005-1.04-.418-.716-4.719,3.6-9.8,7.054-15.462,8.973-.776.263-1.564.473-2.353.691a22.907,22.907,0,0,1-2.281.56c-.184.031-.14.33.044.323" transform="translate(-3115.598 -2245.903)" fill="#d0d2d3"/>
                        </g>
                      </g>
                    </g>
                    <g id="Grupo_1101933" data-name="Grupo 1101933" transform="translate(12.2 9.394)" opacity="0.25">
                      <g id="Grupo_1101932" data-name="Grupo 1101932">
                        <g id="Grupo_1101931" data-name="Grupo 1101931" clip-path="url(#clip-path-14)">
                          <path id="Trazado_893003" data-name="Trazado 893003" d="M3157.364,2294.552a36.807,36.807,0,0,0,3.993-2.366c1.4-.983,2.758-2.017,4.1-3.077,2.78-2.2,5.427-4.566,8.037-6.965,1.3-1.2,2.656-2.367,3.851-3.671a.264.264,0,0,0-.373-.373c-1.194.957-2.291,2.039-3.428,3.065q-1.9,1.717-3.84,3.4c-2.672,2.307-5.382,4.59-8.227,6.681-1.406,1.033-2.789,2.112-4.27,3.038a.158.158,0,0,0,.159.273" transform="translate(-3157.128 -2278.034)" fill="#d0d2d3"/>
                        </g>
                      </g>
                    </g>
                    <g id="Grupo_1101936" data-name="Grupo 1101936" transform="translate(41.622 12.719)" opacity="0.25">
                      <g id="Grupo_1101935" data-name="Grupo 1101935">
                        <g id="Grupo_1101934" data-name="Grupo 1101934" clip-path="url(#clip-path-15)">
                          <path id="Trazado_893004" data-name="Trazado 893004" d="M3472.984,2313.106a23.694,23.694,0,0,1-.968,4.519,14.945,14.945,0,0,1-1.834,4.274c-1.189,1.7-2.653,3.2-3.811,4.931a11.824,11.824,0,0,0-1.843,4.791,16.358,16.358,0,0,0-.227,2.847,11.335,11.335,0,0,0,.1,1.337,1.8,1.8,0,0,0,.5,1.082.271.271,0,0,0,.451-.119,2.6,2.6,0,0,0,.071-.98,9.677,9.677,0,0,1-.1-1.252,14.75,14.75,0,0,1,.164-2.5,11.368,11.368,0,0,1,1.755-4.69c1.141-1.736,2.564-3.263,3.722-4.984a15.143,15.143,0,0,0,1.752-4.179,25.038,25.038,0,0,0,1.014-5.073c.038-.484-.705-.476-.75,0" transform="translate(-3464.3 -2312.746)" fill="#d0d2d3"/>
                        </g>
                      </g>
                    </g>
                    <g id="Grupo_1101939" data-name="Grupo 1101939" transform="translate(28.163 12.445)" opacity="0.25">
                      <g id="Grupo_1101938" data-name="Grupo 1101938">
                        <g id="Grupo_1101937" data-name="Grupo 1101937" clip-path="url(#clip-path-16)">
                          <path id="Trazado_893005" data-name="Trazado 893005" d="M3337.069,2310.166a9.327,9.327,0,0,1-1.82,4.655,35.515,35.515,0,0,1-3.583,4.305c-1.134,1.21-2.322,2.375-3.394,3.642a19.155,19.155,0,0,0-3.122,5.226,17.351,17.351,0,0,0-1.37,6.839.475.475,0,0,0,.949,0,22.108,22.108,0,0,1,1.26-6.112,18.9,18.9,0,0,1,3.152-5.352c2.243-2.682,4.88-5.028,6.747-8.014a10.1,10.1,0,0,0,1.774-5.189.3.3,0,0,0-.593,0" transform="translate(-3323.776 -2309.88)" fill="#d0d2d3"/>
                        </g>
                      </g>
                    </g>
                    <g id="Grupo_1101942" data-name="Grupo 1101942" transform="translate(18.097 10.64)" opacity="0.25">
                      <g id="Grupo_1101941" data-name="Grupo 1101941">
                        <g id="Grupo_1101940" data-name="Grupo 1101940" clip-path="url(#clip-path-17)">
                          <path id="Trazado_893006" data-name="Trazado 893006" d="M3236.152,2291.193a13.877,13.877,0,0,1-2.154,3.768c-1.043,1.493-2.074,2.98-3.231,4.39a24.131,24.131,0,0,1-3.248,3.338,52.672,52.672,0,0,0-5.811,5.039c-1.668,1.856-3.155,4.289-3.01,6.875.02.348.582.474.647.087a12.349,12.349,0,0,1,3.064-6.261,50.505,50.505,0,0,1,5.657-4.95,33.042,33.042,0,0,0,6.442-7.8,24.246,24.246,0,0,0,1.315-2.471,9.233,9.233,0,0,0,.735-1.9.211.211,0,0,0-.406-.112" transform="translate(-3218.688 -2291.044)" fill="#d0d2d3"/>
                        </g>
                      </g>
                    </g>
                  </g>
                </g>
              </g>
            </g>
          </g>
          <g id="Grupo_1101949" data-name="Grupo 1101949" transform="translate(108.783 101.477)">
            <g id="Grupo_1101948" data-name="Grupo 1101948" clip-path="url(#clip-path-18)">
              <rect id="Rectángulo_402327" data-name="Rectángulo 402327" width="134.817" height="196.345" transform="translate(-20.487 94.674) rotate(-77.79)" fill="url(#linear-gradient-10)"/>
            </g>
          </g>
          <g id="Grupo_1101951" data-name="Grupo 1101951" transform="translate(0 0)">
            <g id="Grupo_1101960" data-name="Grupo 1101960">
              <path id="Trazado_893008" data-name="Trazado 893008" d="M1304.64,1263.724c-.437,1.829-2.428,2.2-4.448.534s-3.3-4.627-2.866-6.323,2.428-1.607,4.448-.083,3.3,4.034,2.866,5.872" transform="translate(-1172.984 -1136.312)" fill="#fff"/>
              <path id="Trazado_893009" data-name="Trazado 893009" d="M1414.133,1436.594a3.018,3.018,0,0,1-4.448,2.028,5.157,5.157,0,0,1-2.866-5.3c.437-1.862,2.428-2.485,4.448-1.644a4.517,4.517,0,0,1,2.866,4.921" transform="translate(-1271.99 -1294.208)" fill="#fff"/>
              <path id="Trazado_893010" data-name="Trazado 893010" d="M1257.216,1448.878c-.437,1.761-2.428,1.816-4.448-.19s-3.3-5.193-2.866-6.812,2.428-1.185,4.448.67,3.3,4.562,2.866,6.333" transform="translate(-1130.103 -1302.858)" fill="#fff"/>
              <path id="Trazado_893011" data-name="Trazado 893011" d="M1363.467,1654.07c-.437,1.908-2.428,2.641-4.448,1.367s-3.3-3.971-2.866-5.756,2.428-2.1,4.448-.952,3.3,3.425,2.866,5.341" transform="translate(-1226.177 -1490.195)" fill="#fff"/>
              <path id="Trazado_893012" data-name="Trazado 893012" d="M1213.358,1612.243c-.437,1.694-2.428,1.439-4.448-.9s-3.3-5.748-2.866-7.292,2.428-.773,4.448,1.407,3.3,5.082,2.866,6.785" transform="translate(-1090.446 -1449.672)" fill="#fff"/>
              <path id="Trazado_893013" data-name="Trazado 893013" d="M1579.268,1371.618a4.694,4.694,0,0,1-4.448,3.817,3.224,3.224,0,0,1-2.866-4.069,4.608,4.608,0,0,1,4.448-3.534,2.928,2.928,0,0,1,2.866,3.786" transform="translate(-1421.307 -1236.814)" fill="#fff"/>
              <path id="Trazado_893014" data-name="Trazado 893014" d="M1688.76,1462.563a6.129,6.129,0,0,1-4.448,4.7c-2.02.317-3.3-1.294-2.865-3.448a6.04,6.04,0,0,1,4.448-4.48c2.02-.377,3.3,1.01,2.866,3.232" transform="translate(-1520.312 -1319.494)" fill="#fff"/>
              <path id="Trazado_893015" data-name="Trazado 893015" d="M1531.844,1597.943a4.126,4.126,0,0,1-4.448,3.36,3.635,3.635,0,0,1-2.866-4.387,4.05,4.05,0,0,1,4.448-3.049,3.262,3.262,0,0,1,2.866,4.075" transform="translate(-1378.426 -1441.175)" fill="#fff"/>
              <path id="Trazado_893016" data-name="Trazado 893016" d="M1638.094,1715.6c-.437,2.183-2.428,4.189-4.448,4.32s-3.3-1.6-2.866-3.715a5.364,5.364,0,0,1,4.448-4.073c2.02-.2,3.3,1.281,2.866,3.469" transform="translate(-1474.499 -1548.121)" fill="#fff"/>
              <path id="Trazado_893017" data-name="Trazado 893017" d="M1487.986,1802.2a3.656,3.656,0,0,1-4.448,2.9,4.108,4.108,0,0,1-2.866-4.707,3.6,3.6,0,0,1,4.448-2.559,3.65,3.65,0,0,1,2.866,4.369" transform="translate(-1338.769 -1625.537)" fill="#fff"/>
              <path id="Trazado_893018" data-name="Trazado 893018" d="M1853.895,1309.838a8.073,8.073,0,0,1-4.448,5.556c-2.02.745-3.3-.551-2.866-2.81a8.019,8.019,0,0,1,4.448-5.442c2.02-.777,3.3.4,2.866,2.7" transform="translate(-1669.629 -1181.723)" fill="#fff"/>
              <path id="Trazado_893019" data-name="Trazado 893019" d="M1963.388,1364.925a8.823,8.823,0,0,1-4.448,5.819c-2.02.889-3.3-.287-2.865-2.586a8.8,8.8,0,0,1,4.448-5.771c2.02-.9,3.3.224,2.866,2.538" transform="translate(-1768.634 -1231.61)" fill="#fff"/>
              <path id="Trazado_893020" data-name="Trazado 893020" d="M1806.471,1557.057a7.587,7.587,0,0,1-4.448,5.366c-2.02.648-3.3-.722-2.866-2.956a7.522,7.522,0,0,1,4.448-5.223c2.02-.688,3.3.533,2.866,2.813" transform="translate(-1626.748 -1405.198)" fill="#fff"/>
              <path id="Trazado_893021" data-name="Trazado 893021" d="M1912.721,1632.464a8.548,8.548,0,0,1-4.448,5.728c-2.02.836-3.3-.386-2.866-2.67a8.509,8.509,0,0,1,4.448-5.649c2.02-.858,3.3.283,2.866,2.591" transform="translate(-1722.821 -1473.499)" fill="#fff"/>
              <path id="Trazado_893022" data-name="Trazado 893022" d="M1762.613,1783.681a7.077,7.077,0,0,1-4.448,5.15c-2.02.54-3.3-.91-2.866-3.118a7,7,0,0,1,4.448-4.979c2.02-.587,3.3.687,2.866,2.948" transform="translate(-1587.091 -1610.038)" fill="#fff"/>
              <path id="Trazado_893023" data-name="Trazado 893023" d="M2128.522,1188.8a8.751,8.751,0,0,1-4.448,5.751c-2.019.895-3.3-.234-2.866-2.546a8.777,8.777,0,0,1,4.448-5.8c2.02-.88,3.3.3,2.866,2.6" transform="translate(-1917.951 -1072.313)" fill="#fff"/>
              <path id="Trazado_893024" data-name="Trazado 893024" d="M2238.016,1247.683a7.915,7.915,0,0,1-4.448,5.4c-2.02.759-3.3-.427-2.866-2.719a7.973,7.973,0,0,1,4.448-5.518c2.019-.725,3.3.586,2.865,2.84" transform="translate(-2016.957 -1125.425)" fill="#fff"/>
              <path id="Trazado_893025" data-name="Trazado 893025" d="M2081.1,1439.085a8.928,8.928,0,0,1-4.448,5.827c-2.02.919-3.3-.206-2.866-2.521a8.938,8.938,0,0,1,4.448-5.852c2.02-.912,3.3.239,2.866,2.546" transform="translate(-1875.071 -1298.658)" fill="#fff"/>
              <path id="Trazado_893026" data-name="Trazado 893026" d="M2187.349,1511.594a8.37,8.37,0,0,1-4.448,5.591c-2.02.836-3.3-.314-2.866-2.619a8.413,8.413,0,0,1,4.448-5.681c2.019-.811,3.3.433,2.865,2.709" transform="translate(-1971.143 -1364.132)" fill="#fff"/>
              <path id="Trazado_893027" data-name="Trazado 893027" d="M2037.241,1671.145a8.978,8.978,0,0,1-4.448,5.857c-2.019.923-3.3-.212-2.866-2.524a8.976,8.976,0,0,1,4.448-5.855c2.02-.923,3.3.209,2.866,2.521" transform="translate(-1835.413 -1508.504)" fill="#fff"/>
              <path id="Trazado_893028" data-name="Trazado 893028" d="M2403.15,1105.052a5.9,5.9,0,0,1-4.448,4.4c-2.02.344-3.3-1.063-2.866-3.278s2.429-4.344,4.448-4.623,3.3,1.355,2.865,3.5" transform="translate(-2166.274 -996.011)" fill="#fff"/>
              <path id="Trazado_893029" data-name="Trazado 893029" d="M2512.642,1203.574a4.48,4.48,0,0,1-4.448,3.431,3,3,0,0,1-2.865-3.847,4.565,4.565,0,0,1,4.448-3.721,3.306,3.306,0,0,1,2.866,4.136" transform="translate(-2265.278 -1084.541)" fill="#fff"/>
              <path id="Trazado_893030" data-name="Trazado 893030" d="M2355.726,1342.4a6.53,6.53,0,0,1-4.448,4.744c-2.02.489-3.3-.838-2.866-3.081a6.613,6.613,0,0,1,4.448-4.937c2.02-.435,3.3,1.092,2.866,3.274" transform="translate(-2123.393 -1210.791)" fill="#fff"/>
              <path id="Trazado_893031" data-name="Trazado 893031" d="M2461.977,1447.49a5.12,5.12,0,0,1-4.448,3.91c-2.02.134-3.3-1.39-2.866-3.564s2.428-4.11,4.448-4.168,3.3,1.729,2.866,3.822" transform="translate(-2219.466 -1305.385)" fill="#fff"/>
              <path id="Trazado_893032" data-name="Trazado 893032" d="M2311.869,1564.848a7.086,7.086,0,0,1-4.448,5.021c-2.02.6-3.3-.66-2.865-2.924a7.161,7.161,0,0,1,4.448-5.187c2.02-.558,3.3.878,2.866,3.091" transform="translate(-2083.737 -1412.056)" fill="#fff"/>
              <path id="Trazado_893033" data-name="Trazado 893033" d="M2677.778,1144.956c-.437,1.848-2.428,2.407-4.448,1.506a4.666,4.666,0,0,1-2.866-5,2.945,2.945,0,0,1,4.448-1.9c2.02,1.019,3.3,3.553,2.866,5.395" transform="translate(-2414.597 -1030.034)" fill="#fff"/>
              <path id="Trazado_893034" data-name="Trazado 893034" d="M2787.271,1314.589c-.437,1.687-2.428,1.516-4.448-.079s-3.3-4.147-2.866-5.971,2.429-2.118,4.448-.378,3.3,4.749,2.866,6.428" transform="translate(-2513.602 -1181.814)" fill="#fff"/>
              <path id="Trazado_893035" data-name="Trazado 893035" d="M2630.354,1355.3c-.437,1.911-2.428,2.752-4.448,2.116a4.046,4.046,0,0,1-2.866-4.635,3.311,3.311,0,0,1,4.448-2.477,4.588,4.588,0,0,1,2.866,5" transform="translate(-2371.715 -1220.766)" fill="#fff"/>
              <path id="Trazado_893036" data-name="Trazado 893036" d="M2736.6,1524.062c-.437,1.764-2.428,1.945-4.448.685s-3.3-3.612-2.866-5.5,2.428-2.505,4.448-1.111,3.3,4.173,2.865,5.93" transform="translate(-2467.788 -1372.032)" fill="#fff"/>
              <path id="Trazado_893037" data-name="Trazado 893037" d="M2586.5,1554.82a3.663,3.663,0,0,1-4.448,2.639,3.582,3.582,0,0,1-2.866-4.32,3.727,3.727,0,0,1,4.448-2.974,4.026,4.026,0,0,1,2.865,4.655" transform="translate(-2332.058 -1401.588)" fill="#fff"/>
            </g>
          </g>
        </g>
      </g>
    </g>
  </g>
</svg>
