<svg xmlns="http://www.w3.org/2000/svg" width="89" height="89" viewBox="0 0 89 89">
  <g id="Grupo_1102017" data-name="Grupo 1102017" transform="translate(-1251.333 -413)">
    <g id="Grupo_1098742" data-name="Grupo 1098742" transform="translate(48.013 24.258)">
      <rect id="Rect치ngulo_400898" data-name="Rect치ngulo 400898" width="89" height="89" rx="44.5" transform="translate(1203.32 388.742)" fill="#d2c3dd"/>
      <g id="Rect치ngulo_400907" data-name="Rect치ngulo 400907" transform="translate(1203.32 388.742)" fill="none" stroke="#644977" stroke-linecap="round" stroke-width="2" stroke-dasharray="7">
        <rect width="89" height="89" rx="44.5" stroke="none"/>
        <rect x="1" y="1" width="87" height="87" rx="43.5" fill="none"/>
      </g>
    </g>
    <g id="de-coser_2_" data-name="de-coser (2)" transform="translate(1263.954 428.333)">
      <path id="Elipse_11508" data-name="Elipse 11508" d="M28.722-.5A29.222,29.222,0,0,1,49.385,49.385,29.222,29.222,0,1,1,8.059,8.059,29.03,29.03,0,0,1,28.722-.5Zm0,55.787A26.565,26.565,0,1,0,2.157,28.722,26.6,26.6,0,0,0,28.722,55.287Z" transform="translate(0.5 0.5)" fill="#916aab"/>
      <path id="Trazado_893351" data-name="Trazado 893351" d="M31.222,54.7A29.224,29.224,0,0,1,15.461.867,1.328,1.328,0,1,1,16.9,3.1a26.573,26.573,0,0,0,23.6,47.279,1.328,1.328,0,0,1,.927,2.49A29.12,29.12,0,0,1,31.222,54.7Z" transform="translate(3.313 1.087)" fill="#916aab"/>
      <path id="Trazado_893352" data-name="Trazado 893352" d="M33.222,52.6A29.222,29.222,0,0,1,4,23.379,29.109,29.109,0,0,1,14.9.614a1.328,1.328,0,1,1,1.667,2.069A26.575,26.575,0,0,0,39.76,49.134a1.328,1.328,0,0,1,.652,2.575A29.333,29.333,0,0,1,33.222,52.6Z" transform="translate(6.626 0.529)" fill="#916aab"/>
      <path id="Trazado_893353" data-name="Trazado 893353" transform="translate(0 0)" fill="#916aab"/>
      <path id="Trazado_893354" data-name="Trazado 893354" transform="translate(0 0)" fill="#916aab"/>
      <path id="Trazado_893355" data-name="Trazado 893355" d="M49.688,13.97a1.324,1.324,0,0,1-.5-.1C34.5,7.861,23.57,8.136,16.991,9.425c-7.1,1.392-10.807,4.233-10.844,4.261A1.328,1.328,0,0,1,4.5,11.6c.165-.13,4.123-3.2,11.784-4.743a47.973,47.973,0,0,1,14.275-.58,71.15,71.15,0,0,1,19.628,5.135,1.328,1.328,0,0,1-.5,2.558Z" transform="translate(6.627 9.939)" fill="#916aab"/>
      <path id="Trazado_893356" data-name="Trazado 893356" d="M50.212,16.49a1.324,1.324,0,0,1-.5-.1c-11.043-4.517-21.407-6.129-30.8-4.79-8.126,1.158-12.459,4.188-12.639,4.316a1.328,1.328,0,0,1-1.54-2.165c.506-.36,5.194-3.554,13.8-4.782,9.871-1.407,20.7.262,32.185,4.961a1.328,1.328,0,0,1-.5,2.558Z" transform="translate(6.903 14.061)" fill="#916aab"/>
      <path id="Trazado_893357" data-name="Trazado 893357" d="M48.384,18.971a1.324,1.324,0,0,1-.5-.1c-23.241-9.508-37.354-3.478-41.125-1.4a1.328,1.328,0,1,1-1.28-2.328,36.483,36.483,0,0,1,14.99-4.025c8.782-.607,18.344,1.175,28.421,5.3a1.328,1.328,0,0,1-.5,2.558Z" transform="translate(7.931 18.221)" fill="#916aab"/>
      <path id="Trazado_893358" data-name="Trazado 893358" d="M25.663,40.565a1.328,1.328,0,0,1,0-2.657c10.185,0,16.139-.433,19.911-1.449,4.681-1.26,5.326-3.24,5.326-5.193,0-5.47-7.318-9.835-8.143-10.31C26.122,14.71,14.651,16.383,7.952,18.892A1.328,1.328,0,0,1,7.02,16.4,40.475,40.475,0,0,1,21.3,14,64.413,64.413,0,0,1,43.79,18.508a1.327,1.327,0,0,1,.169.078c.392.214,9.6,5.338,9.6,12.682a6.843,6.843,0,0,1-1.916,4.977,11.526,11.526,0,0,1-5.377,2.781C42.2,40.119,36.233,40.565,25.663,40.565Z" transform="translate(10.2 23.191)" fill="#916aab"/>
      <path id="Trazado_893359" data-name="Trazado 893359" d="M13.33,29.07a1.329,1.329,0,0,1-1.293-1.639,58.487,58.487,0,0,0,1.581-12.086,1.328,1.328,0,1,1,2.656.054A61.224,61.224,0,0,1,14.62,28.051,1.329,1.329,0,0,1,13.33,29.07Z" transform="translate(19.878 23.265)" fill="#916aab"/>
      <path id="Trazado_893360" data-name="Trazado 893360" d="M18.983,13.767a1.326,1.326,0,0,1-1.033-.492A25.234,25.234,0,0,0,6.526,5.608a1.328,1.328,0,0,1,.709-2.56A27.5,27.5,0,0,1,20.014,11.6a1.328,1.328,0,0,1-1.031,2.165Z" transform="translate(9.201 4.97)" fill="#916aab"/>
      <path id="Trazado_893361" data-name="Trazado 893361" d="M15.83,29.346a1.329,1.329,0,0,1-1.3-1.589,72.738,72.738,0,0,0,1.442-12.108,1.328,1.328,0,0,1,2.655.076,75.392,75.392,0,0,1-1.492,12.553A1.329,1.329,0,0,1,15.83,29.346Z" transform="translate(24.019 23.785)" fill="#916aab"/>
      <path id="Trazado_893362" data-name="Trazado 893362" d="M24.652,17.156a1.328,1.328,0,0,1-1.16-.68,28.57,28.57,0,0,0-9.773-10.2,24.68,24.68,0,0,0-5.6-2.668A1.328,1.328,0,0,1,8.839,1.05,30.7,30.7,0,0,1,25.81,15.179a1.329,1.329,0,0,1-1.158,1.977Z" transform="translate(11.847 1.656)" fill="#916aab"/>
      <path id="Trazado_893363" data-name="Trazado 893363" d="M18.393,27.491a1.329,1.329,0,0,1-1.306-1.576,77.748,77.748,0,0,0,1.243-9.708,1.328,1.328,0,0,1,2.652.162A80.411,80.411,0,0,1,19.7,26.41,1.329,1.329,0,0,1,18.393,27.491Z" transform="translate(28.265 24.78)" fill="#916aab"/>
      <path id="Trazado_893364" data-name="Trazado 893364" d="M27.272,20.147a1.329,1.329,0,0,1-1.228-.82A34.984,34.984,0,0,0,16.735,6.249,24.917,24.917,0,0,0,11.29,2.543,1.328,1.328,0,0,1,12.363.113C12.792.3,22.938,4.893,28.5,18.31a1.329,1.329,0,0,1-1.227,1.837Z" transform="translate(17.394 0)" fill="#916aab"/>
    </g>
  </g>
</svg>
