<svg xmlns="http://www.w3.org/2000/svg" width="85.144" height="85.688" viewBox="0 0 85.144 85.688">
  <g id="textil2" transform="translate(-1.628)">
    <g id="Grupo_1101832" data-name="Grupo 1101832" transform="translate(10.424 53.411)">
      <g id="Grupo_1101831" data-name="Grupo 1101831">
        <rect id="Rectángulo_402252" data-name="Rectángulo 402252" width="2.513" height="2.513" fill="#916aab"/>
      </g>
    </g>
    <g id="Grupo_1101834" data-name="Grupo 1101834" transform="translate(1.628)">
      <g id="Grupo_1101833" data-name="Grupo 1101833">
        <path id="Trazado_892753" data-name="Trazado 892753" d="M79.231,63.151H74.519V54.668a6.291,6.291,0,0,0-6.284-6.284H54.411V45.161a10.078,10.078,0,0,0,8.061-6.2h3.25a3.775,3.775,0,0,0,3.77-3.77V10.054a3.775,3.775,0,0,0-3.77-3.77h-3.25A10.068,10.068,0,0,0,53.154,0h-37.7A10.05,10.05,0,0,0,6.129,6.284H5.4a3.774,3.774,0,0,0-3.77,3.77V35.189a3.775,3.775,0,0,0,3.77,3.77V54.668a6.28,6.28,0,0,0,10.054,5.023V71.32h.028a7.472,7.472,0,0,0,.406,1.89,5.032,5.032,0,0,0-4.833,5.022v7.456h2.513V82.582a4.993,4.993,0,0,0,2.513.676H73.195v2.43h2.513v-2.43H75.9a5.033,5.033,0,0,0,5.025-4.891l.071-.346a7.54,7.54,0,0,0-1.761-14.871ZM63.127,8.8h2.595a1.258,1.258,0,0,1,1.257,1.257V35.189a1.258,1.258,0,0,1-1.257,1.257H63.127a10.11,10.11,0,0,0,.081-1.257V10.054A10.143,10.143,0,0,0,63.127,8.8ZM6.655,35.189a1.257,1.257,0,1,1-2.513,0V10.054a1.257,1.257,0,0,1,2.513,0V35.189ZM68.235,50.9a3.774,3.774,0,0,1,3.77,3.77v8.483H22.992a7.51,7.51,0,0,0-5.027,1.926V54.668a6.249,6.249,0,0,0-1.26-3.77ZM29.276,10.368V26.077H31.79V10.368a10.345,10.345,0,0,0-3.612-7.855H53.154a7.549,7.549,0,0,1,7.54,7.54V35.189a7.549,7.549,0,0,1-7.047,7.523,10.345,10.345,0,0,0,3.591-7.837V19.165H54.725V34.875a7.863,7.863,0,0,1-7.855,7.855H22.091a10.03,10.03,0,0,0,3.414-7.54V10.054A10.03,10.03,0,0,0,22.13,2.547,7.864,7.864,0,0,1,29.276,10.368ZM8.952,8.8h6.5a1.258,1.258,0,0,1,1.257,1.257V35.189a1.258,1.258,0,0,1-1.257,1.257h-6.5a3.75,3.75,0,0,0,.216-1.257V10.054A3.755,3.755,0,0,0,8.952,8.8Zm6.5,30.162a3.774,3.774,0,0,0,3.77-3.77V10.054a3.775,3.775,0,0,0-3.77-3.77H8.919a7.542,7.542,0,0,1,14.073,3.77V35.188a7.542,7.542,0,0,1-14.074,3.77h6.533Zm-3.77,19.479a3.77,3.77,0,1,1,3.77-3.77A3.775,3.775,0,0,1,11.682,58.438Zm0-10.054a6.25,6.25,0,0,0-3.77,1.26v-7.8a10.053,10.053,0,0,0,7.54,3.4H51.9v3.142Zm4.4,32.361a2.513,2.513,0,1,1,2.513-2.513A2.516,2.516,0,0,1,16.08,80.745Zm1.885-10.054a5.027,5.027,0,1,1,5.027,5.027A5.033,5.033,0,0,1,17.965,70.691ZM75.9,80.745H20.431a4.993,4.993,0,0,0,.676-2.513c0-.081,0-.161-.006-.24a7.53,7.53,0,0,0,1.891.24H78.41A2.516,2.516,0,0,1,75.9,80.745Zm3.335-5.027H28.607a7.523,7.523,0,0,0,0-10.054H79.231a5.027,5.027,0,0,1,0,10.054Z" transform="translate(-1.628)" fill="#916aab"/>
      </g>
    </g>
    <g id="Grupo_1101836" data-name="Grupo 1101836" transform="translate(21.735 69.434)">
      <g id="Grupo_1101835" data-name="Grupo 1101835">
        <rect id="Rectángulo_402253" data-name="Rectángulo 402253" width="2.513" height="2.513" fill="#916aab"/>
      </g>
    </g>
    <g id="Grupo_1101838" data-name="Grupo 1101838" transform="translate(29.275 28.59)">
      <g id="Grupo_1101837" data-name="Grupo 1101837">
        <rect id="Rectángulo_402254" data-name="Rectángulo 402254" width="2.513" height="2.513" fill="#916aab"/>
      </g>
    </g>
    <g id="Grupo_1101840" data-name="Grupo 1101840" transform="translate(54.725 14.137)">
      <g id="Grupo_1101839" data-name="Grupo 1101839">
        <rect id="Rectángulo_402255" data-name="Rectángulo 402255" width="2.513" height="2.513" fill="#916aab"/>
      </g>
    </g>
    <g id="Grupo_1101842" data-name="Grupo 1101842" transform="translate(22.992 53.096)">
      <g id="Grupo_1101841" data-name="Grupo 1101841">
        <rect id="Rectángulo_402256" data-name="Rectángulo 402256" width="17.594" height="2.513" fill="#916aab"/>
      </g>
    </g>
    <g id="Grupo_1101844" data-name="Grupo 1101844" transform="translate(43.099 53.096)">
      <g id="Grupo_1101843" data-name="Grupo 1101843">
        <rect id="Rectángulo_402257" data-name="Rectángulo 402257" width="7.54" height="2.513" fill="#916aab"/>
      </g>
    </g>
    <g id="Grupo_1101846" data-name="Grupo 1101846" transform="translate(53.153 53.096)">
      <g id="Grupo_1101845" data-name="Grupo 1101845">
        <rect id="Rectángulo_402258" data-name="Rectángulo 402258" width="2.198" height="2.513" fill="#916aab"/>
      </g>
    </g>
    <g id="Grupo_1101848" data-name="Grupo 1101848" transform="translate(34.302 68.177)">
      <g id="Grupo_1101847" data-name="Grupo 1101847">
        <rect id="Rectángulo_402259" data-name="Rectángulo 402259" width="21.365" height="2.513" fill="#916aab"/>
      </g>
    </g>
    <g id="Grupo_1101850" data-name="Grupo 1101850" transform="translate(58.18 68.177)">
      <g id="Grupo_1101849" data-name="Grupo 1101849">
        <rect id="Rectángulo_402260" data-name="Rectángulo 402260" width="6.284" height="2.513" fill="#916aab"/>
      </g>
    </g>
    <g id="Grupo_1101852" data-name="Grupo 1101852" transform="translate(66.977 68.177)">
      <g id="Grupo_1101851" data-name="Grupo 1101851">
        <rect id="Rectángulo_402261" data-name="Rectángulo 402261" width="2.513" height="2.513" fill="#916aab"/>
      </g>
    </g>
    <g id="Grupo_1101854" data-name="Grupo 1101854" transform="translate(11.681 11.624)">
      <g id="Grupo_1101853" data-name="Grupo 1101853">
        <rect id="Rectángulo_402262" data-name="Rectángulo 402262" width="2.513" height="2.513" fill="#916aab"/>
      </g>
    </g>
    <g id="Grupo_1101856" data-name="Grupo 1101856" transform="translate(11.681 16.651)">
      <g id="Grupo_1101855" data-name="Grupo 1101855">
        <rect id="Rectángulo_402263" data-name="Rectángulo 402263" width="2.513" height="2.513" fill="#916aab"/>
      </g>
    </g>
    <g id="Grupo_1101858" data-name="Grupo 1101858" transform="translate(11.681 21.678)">
      <g id="Grupo_1101857" data-name="Grupo 1101857">
        <rect id="Rectángulo_402264" data-name="Rectángulo 402264" width="2.513" height="2.513" fill="#916aab"/>
      </g>
    </g>
    <g id="Grupo_1101860" data-name="Grupo 1101860" transform="translate(11.681 26.705)">
      <g id="Grupo_1101859" data-name="Grupo 1101859">
        <rect id="Rectángulo_402265" data-name="Rectángulo 402265" width="2.513" height="2.513" fill="#916aab"/>
      </g>
    </g>
    <g id="Grupo_1101862" data-name="Grupo 1101862" transform="translate(11.681 31.732)">
      <g id="Grupo_1101861" data-name="Grupo 1101861">
        <rect id="Rectángulo_402266" data-name="Rectángulo 402266" width="2.513" height="2.513" fill="#916aab"/>
      </g>
    </g>
  </g>
</svg>
